#N canvas 1 87 1022 511 10;
#N canvas 498 215 450 300 debug_midi 0;
#X obj 100 54 midiin;
#X obj 100 92 sel 176 99 98 6 38;
#X obj 100 249 print;
#X msg 100 115 CC;
#X obj 120 135 t b b;
#X msg 120 156 ...num MSB:;
#X msg 142 177 ...num LSB:;
#X msg 183 218 ...val LSB:;
#X msg 163 198 ...val MSB:;
#X obj 100 74 spigot;
#X obj 150 59 tgl 15 0 empty empty DEBUG 17 7 0 10 -262144 -1 -1 0
1;
#X obj 150 22 inlet;
#X connect 0 0 9 0;
#X connect 1 0 3 0;
#X connect 1 1 4 0;
#X connect 1 2 6 0;
#X connect 1 3 8 0;
#X connect 1 4 7 0;
#X connect 1 5 2 0;
#X connect 3 0 2 0;
#X connect 4 0 5 0;
#X connect 5 0 2 0;
#X connect 6 0 2 0;
#X connect 7 0 2 0;
#X connect 8 0 2 0;
#X connect 9 0 1 0;
#X connect 10 0 9 1;
#X connect 11 0 10 0;
#X restore 900 75 pd debug_midi;
#X obj 900 54 tgl 15 0 empty empty ENABLE_DEBUG 17 7 0 10 -262144 -1
-1 0 1;
#N canvas 1 87 1022 511 oscillators 0;
#X obj 98 54 nrpn_out 0;
#X obj 6 39 clip 0 120;
#X obj 6 13 r oscOne_freq;
#X text 100 11 semitones;
#X obj 7 106 r oscOne_fineTune;
#X text 120 105 cents;
#X obj 7 132 clip 0 100;
#X text 75 132 centred=50;
#X obj 6 225 r oscOne_shape;
#X obj 6 251 clip 0 103;
#X obj 107 236 hradio 15 1 0 4 empty empty empty 0 -8 0 10 -262144
-1 -1 0;
#X obj 101 147 nrpn_out 1;
#X obj 103 266 nrpn_out 2;
#X obj 4 315 r oscOne_glide;
#X obj 4 341 clip 0 127;
#X obj 101 356 nrpn_out 3;
#X obj 7 440 clip 0 1;
#X obj 149 425 hradio 15 1 0 2 empty empty empty 0 -8 0 10 -262144
-1 -1 0;
#X obj 104 455 nrpn_out 4;
#X obj 384 39 clip 0 120;
#X text 478 11 semitones;
#X text 498 105 cents;
#X obj 385 132 clip 0 100;
#X text 453 132 centred=50;
#X obj 384 251 clip 0 103;
#X obj 485 236 hradio 15 1 0 4 empty empty empty 0 -8 0 10 -262144
-1 -1 0;
#X obj 382 341 clip 0 127;
#X obj 385 440 clip 0 1;
#X obj 527 425 hradio 15 1 0 2 empty empty empty 0 -8 0 10 -262144
-1 -1 0;
#X obj 384 13 r oscTwo_freq;
#X obj 476 54 nrpn_out 5;
#X obj 479 147 nrpn_out 6;
#X obj 385 106 r oscTwo_fineTune;
#X obj 481 266 nrpn_out 7;
#X obj 384 225 r oscTwo_shape;
#X obj 382 315 r oscTwo_glide;
#X obj 479 356 nrpn_out 8;
#X obj 482 455 nrpn_out 9;
#X obj 739 41 clip 0 1;
#X obj 881 26 hradio 15 1 0 2 empty empty empty 0 -8 0 10 -262144 -1
-1 0;
#X obj 7 414 r oscOne_keyboard;
#X obj 385 414 r oscTwo_keyboard;
#X obj 836 56 nrpn_out 10;
#X obj 887 139 hradio 15 1 0 4 empty empty empty 0 -8 0 10 -262144
-1 -1 0;
#X text 191 427 0=off .. 1=on;
#X text 566 429 0=off .. 1=on;
#X text 916 25 0=off .. 1=on;
#X text 741 114 0=rate .. 1=rate auto .. 2=time .. 3=time auto;
#X obj 844 169 nrpn_out 11;
#X obj 842 281 nrpn_out 12;
#X obj 750 266 clip 0 5;
#X obj 751 357 clip 0 127;
#X obj 848 372 nrpn_out 13;
#X obj 757 437 clip 0 127;
#X obj 854 452 nrpn_out 14;
#X text 5 209 0=off .. 1=saw .. 2=tri .. 3=saw/tri mix .. 4-103=pw(0-99)
;
#X text 383 209 0=off .. 1=saw .. 2=tri .. 3=saw/tri mix .. 4-103=pw(0-99)
;
#X obj 745 154 clip 0 3;
#X obj 739 15 r osc_sync;
#X obj 745 130 r osc_glideMode;
#X obj 750 240 r osc_slop;
#X obj 751 331 r osc_mix;
#X obj 757 411 r osc_noise;
#X connect 1 0 0 0;
#X connect 2 0 1 0;
#X connect 4 0 6 0;
#X connect 6 0 11 0;
#X connect 8 0 9 0;
#X connect 9 0 12 0;
#X connect 10 0 9 0;
#X connect 13 0 14 0;
#X connect 14 0 15 0;
#X connect 16 0 18 0;
#X connect 17 0 16 0;
#X connect 19 0 30 0;
#X connect 22 0 31 0;
#X connect 24 0 33 0;
#X connect 25 0 24 0;
#X connect 26 0 36 0;
#X connect 27 0 37 0;
#X connect 28 0 27 0;
#X connect 29 0 19 0;
#X connect 32 0 22 0;
#X connect 34 0 24 0;
#X connect 35 0 26 0;
#X connect 38 0 42 0;
#X connect 39 0 38 0;
#X connect 40 0 16 0;
#X connect 41 0 27 0;
#X connect 43 0 57 0;
#X connect 50 0 49 0;
#X connect 51 0 52 0;
#X connect 53 0 54 0;
#X connect 57 0 48 0;
#X connect 58 0 38 0;
#X connect 59 0 57 0;
#X connect 60 0 50 0;
#X connect 61 0 51 0;
#X connect 62 0 53 0;
#X restore 200 205 pd oscillators;
#X obj 83 61 s oscOne_freq;
#X obj 83 83 s oscOne_fineTune;
#X obj 83 105 s oscOne_shape;
#X obj 83 127 s oscOne_glide;
#X obj 83 149 s oscOne_keyboard;
#X obj 212 61 s oscTwo_freq;
#X obj 212 83 s oscTwo_fineTune;
#X obj 212 105 s oscTwo_shape;
#X obj 212 127 s oscTwo_glide;
#X obj 212 149 s oscTwo_keyboard;
#X text 83 41 OSCILLATOR 1;
#X text 212 41 OSCILLATOR 2;
#X text 343 41 BOTH OSCs;
#N canvas 1 87 1022 511 filter 0;
#X obj 139 101 nrpn_out 15;
#X obj 137 189 nrpn_out 16;
#X obj 40 86 clip 0 164;
#X obj 40 60 r filter_cutoffFreq;
#X obj 38 148 r filter_resonance;
#X text 163 61 semitones;
#X obj 38 174 clip 0 127;
#X obj 34 265 clip 0 127;
#X obj 34 239 r filter_keyAmmount;
#X obj 133 280 nrpn_out 17;
#X obj 34 353 clip 0 127;
#X obj 133 368 nrpn_out 18;
#X obj 129 459 nrpn_out 19;
#X obj 34 327 r filter_audioMod;
#X obj 30 418 r filter_pole;
#X obj 30 444 clip 0 1;
#X obj 129 429 hradio 15 1 0 2 empty empty empty 0 -8 0 10 -262144
-1 -1 0;
#X text 163 436 0=2-pole .. 1=4-pole;
#X text 432 62 semitones;
#X obj 309 61 r filter_envAmmount;
#X obj 309 87 clip 0 254;
#X obj 408 102 nrpn_out 20;
#X text 382 86 -127 to 127 .. 127=center=0;
#X obj 306 179 clip 0 127;
#X obj 660 56 clip 0 127;
#X obj 660 144 clip 0 127;
#X obj 405 194 nrpn_out 21;
#X obj 759 71 nrpn_out 22;
#X obj 759 159 nrpn_out 23;
#X obj 306 153 r filter_envVelocityAmmount;
#X obj 660 30 r filter_envDelay;
#X obj 660 118 r filter_envAttack;
#X obj 655 231 clip 0 127;
#X obj 652 322 clip 0 127;
#X obj 655 205 r filter_envDecay;
#X obj 652 295 r filter_envSustain;
#X obj 647 417 clip 0 127;
#X obj 754 246 nrpn_out 24;
#X obj 751 337 nrpn_out 25;
#X obj 746 432 nrpn_out 26;
#X obj 647 390 r filter_envRelease;
#X connect 2 0 0 0;
#X connect 3 0 2 0;
#X connect 4 0 6 0;
#X connect 6 0 1 0;
#X connect 7 0 9 0;
#X connect 8 0 7 0;
#X connect 10 0 11 0;
#X connect 13 0 10 0;
#X connect 14 0 15 0;
#X connect 15 0 12 0;
#X connect 16 0 15 0;
#X connect 19 0 20 0;
#X connect 20 0 21 0;
#X connect 23 0 26 0;
#X connect 24 0 27 0;
#X connect 25 0 28 0;
#X connect 29 0 23 0;
#X connect 30 0 24 0;
#X connect 31 0 25 0;
#X connect 32 0 37 0;
#X connect 33 0 38 0;
#X connect 34 0 32 0;
#X connect 35 0 33 0;
#X connect 36 0 39 0;
#X connect 40 0 36 0;
#X restore 627 208 pd filter;
#X obj 343 61 s osc_sync;
#X obj 343 83 s osc_glideMode;
#X obj 343 105 s osc_slop;
#X obj 343 127 s osc_mix;
#X obj 343 149 s osc_noise;
#X obj 530 60 s filter_cutoffFreq;
#X obj 530 81 s filter_resonance;
#X obj 530 101 s filter_keyAmmount;
#X obj 530 121 s filter_audioMod;
#X obj 530 140 s filter_pole;
#X obj 666 80 s filter_envVelocityAmmount;
#X obj 666 60 s filter_envAmmount;
#X obj 667 99 s filter_envDelay;
#X obj 667 119 s filter_envAttack;
#X obj 667 139 s filter_envDecay;
#X obj 667 159 s filter_envSustain;
#X obj 667 179 s filter_envRelease;
#X text 633 37 FILTER;
#X text 246 283 VCA;
#N canvas 1 87 1022 511 vca 0;
#X obj -112 60 clip 0 127;
#X obj -112 34 r vca_initLevel;
#X obj -15 75 nrpn_out 27;
#X obj -113 156 clip 0 127;
#X obj -114 249 clip 0 127;
#X obj -116 337 clip 0 127;
#X obj -115 425 clip 0 127;
#X obj -16 171 nrpn_out 28;
#X obj -17 264 nrpn_out 29;
#X obj -19 352 nrpn_out 30;
#X obj -18 440 nrpn_out 31;
#X obj -114 223 r vca_voiceVol;
#X obj -116 311 r vca_envAmmount;
#X obj -115 399 r vca_envVelocityAmmount;
#X obj -113 130 r vca_outSpread;
#X obj 154 57 clip 0 127;
#X obj 153 153 clip 0 127;
#X obj 152 246 clip 0 127;
#X obj 150 334 clip 0 127;
#X obj 151 422 clip 0 127;
#X obj 250 72 nrpn_out 32;
#X obj 250 168 nrpn_out 33;
#X obj 249 261 nrpn_out 34;
#X obj 247 349 nrpn_out 35;
#X obj 248 437 nrpn_out 36;
#X obj 154 31 r vca_envDelay;
#X obj 153 127 r vca_envAttack;
#X obj 152 220 r vca_envDecay;
#X obj 150 308 r vca_envSustain;
#X obj 151 396 r vca_envRelease;
#X connect 0 0 2 0;
#X connect 1 0 0 0;
#X connect 3 0 7 0;
#X connect 4 0 8 0;
#X connect 5 0 9 0;
#X connect 6 0 10 0;
#X connect 11 0 4 0;
#X connect 12 0 5 0;
#X connect 13 0 6 0;
#X connect 14 0 3 0;
#X connect 15 0 20 0;
#X connect 16 0 21 0;
#X connect 17 0 22 0;
#X connect 18 0 23 0;
#X connect 19 0 24 0;
#X connect 25 0 15 0;
#X connect 26 0 16 0;
#X connect 27 0 17 0;
#X connect 28 0 18 0;
#X connect 29 0 19 0;
#X restore 234 449 pd vca;
#X obj 114 322 s vca_initLevel;
#X obj 111 341 s vca_outSpread;
#X obj 111 360 s vca_voiceVol;
#X obj 109 380 s vca_envAmmount;
#X obj 110 401 s vca_envVelocityAmmount;
#X obj 285 322 s vca_envDelay;
#X obj 284 341 s vca_envAttack;
#X obj 284 360 s vca_envDecay;
#X obj 282 380 s vca_envSustain;
#X obj 283 401 s vca_envRelease;
#X obj 479 323 s lfoOne_freq;
#X obj 479 342 s lfoOne_shape;
#X obj 479 361 s lfoOne_ammount;
#X obj 479 379 s lfoOne_dest;
#X obj 479 398 s lfoOne_keySync;
#X obj 598 323 s lfoTwo_freq;
#X obj 598 342 s lfoTwo_shape;
#X obj 598 361 s lfoTwo_ammount;
#X obj 598 379 s lfoTwo_dest;
#X obj 598 398 s lfoTwo_keySync;
#X obj 716 323 s lfoThree_freq;
#X obj 716 342 s lfoThree_shape;
#X obj 716 361 s lfoThree_ammount;
#X obj 716 379 s lfoThree_dest;
#X obj 716 398 s lfoThree_keySync;
#X obj 843 324 s lfoFour_freq;
#X obj 843 343 s lfoFour_shape;
#X obj 843 362 s lfoFour_ammount;
#X obj 843 380 s lfoFour_dest;
#X obj 843 399 s lfoFour_keySync;
#N canvas 1 87 1022 511 env 0;
#X obj 17 42 r env_dest;
#X obj 110 83 nrpn_out 57;
#X obj 17 68 clip 0 43;
#X obj 110 173 nrpn_out 58;
#X obj 17 132 r env_ammount;
#X obj 17 158 clip 0 257;
#X text 117 153 -127 to 127;
#X obj 108 261 nrpn_out 59;
#X obj 15 220 r env_velocityAmmount;
#X obj 15 246 clip 0 127;
#X obj 385 68 clip 0 127;
#X obj 385 42 r env_delay;
#X obj 478 83 nrpn_out 60;
#X obj 381 161 clip 0 127;
#X obj 378 242 clip 0 127;
#X obj 377 320 clip 0 127;
#X obj 370 413 clip 0 127;
#X obj 381 135 r env_attack;
#X obj 378 216 r env_decay;
#X obj 377 294 r env_sustain;
#X obj 370 387 r env_release;
#X obj 474 176 nrpn_out 61;
#X obj 471 257 nrpn_out 62;
#X obj 470 335 nrpn_out 63;
#X obj 463 428 nrpn_out 64;
#X connect 0 0 2 0;
#X connect 2 0 1 0;
#X connect 4 0 5 0;
#X connect 5 0 3 0;
#X connect 8 0 9 0;
#X connect 9 0 7 0;
#X connect 10 0 12 0;
#X connect 11 0 10 0;
#X connect 13 0 21 0;
#X connect 14 0 22 0;
#X connect 15 0 23 0;
#X connect 16 0 24 0;
#X connect 17 0 13 0;
#X connect 18 0 14 0;
#X connect 19 0 15 0;
#X connect 20 0 16 0;
#X restore 232 632 pd env;
#X obj 244 873 pgmout;
#X floatatom 244 855 5 0 0 0 - - -;
#X obj 317 872 ctlout 32;
#X obj 452 840 unpack;
#X floatatom 317 856 5 0 0 0 - - -;
#X obj 244 813 i;
#X obj 271 813 +;
#X msg 266 771 1;
#X obj 244 792 t b f;
#X msg 232 771 -1;
#X obj 232 730 keyup;
#X obj 232 749 sel 45 61;
#X obj 317 814 hradio 15 1 0 4 empty empty BANK 0 -8 0 10 -262144 -1
-1 0;
#X obj 317 834 clip 0 4;
#X text 271 732 PROGRAM;
#X obj 244 836 clip 0 127;
#X obj 485 860 - 1;
#X msg 452 821 18 2;
#N canvas 299 227 450 300 continuousFreq 0;
#X obj 117 45 inlet;
#X obj 144 88 i;
#X obj 117 112 -;
#X obj 117 137 * 100;
#X obj 117 157 moses 50;
#X obj 117 176 t f b;
#X obj 117 66 t f f;
#X msg 144 202 0;
#X obj 162 177 t f b;
#X msg 188 202 1;
#X obj 117 224 + 50;
#X obj 163 224 - 50;
#X obj 117 259 outlet;
#X obj 246 256 outlet;
#X obj 246 233 +;
#X connect 0 0 6 0;
#X connect 1 0 2 1;
#X connect 1 0 14 1;
#X connect 2 0 3 0;
#X connect 3 0 4 0;
#X connect 4 0 5 0;
#X connect 4 1 8 0;
#X connect 5 0 10 0;
#X connect 5 1 7 0;
#X connect 6 0 2 0;
#X connect 6 1 1 0;
#X connect 7 0 14 0;
#X connect 8 0 11 0;
#X connect 8 1 9 0;
#X connect 9 0 14 0;
#X connect 10 0 12 0;
#X connect 11 0 12 0;
#X connect 14 0 13 0;
#X restore 79 743 pd continuousFreq;
#X floatatom 79 764 5 0 0 0 - - -;
#X floatatom 178 764 5 0 0 0 - - -;
#X floatatom 79 724 5 0 0 0 - - -;
#N canvas 1 87 1022 511 lfo 0;
#X obj 17 42 r lfoOne_freq;
#X obj 110 83 nrpn_out 37;
#X obj 17 68 clip 0 166;
#X obj 159 53 + 151;
#X obj 159 11 hradio 15 1 0 8 empty empty empty 0 -8 0 10 -262144 -1
-1 0;
#X obj 159 32 hradio 15 1 0 8 empty empty empty 0 -8 0 10 -262144 -1
-1 0;
#X obj 220 53 + 159;
#X text 288 -2 151=beat*32 .. 152=beat*16 .. 153=beat*8 .. 154=beat*6
.. 155=beat*4 .. 156=beat*3 .. 157=beat*2 .. 158=beat*1.5;
#X text 289 35 159=beat .. 160=beat/2 .. 161=beat*2 .. 162=beat/3 ..
163=beat/4 .. 164=beat/6 .. 165=beat/8 .. 166=beat/16;
#X obj 132 150 hradio 15 1 0 5 empty empty empty 0 -8 0 10 -262144
-1 -1 0;
#X obj 110 180 nrpn_out 38;
#X obj 17 165 clip 0 4;
#X obj 17 139 r lfoOne_shape;
#X text 215 151 0=tri .. 1=rev. saw .. 2=saw .. 3=square .. 4=random
;
#X obj 11 236 r lfoOne_ammount;
#X obj 11 262 clip 0 127;
#X obj 104 277 nrpn_out 39;
#X obj 7 331 r lfoOne_dest;
#X obj 7 357 clip 0 43;
#X obj 100 372 nrpn_out 40;
#X obj 118 433 hradio 15 1 0 2 empty empty empty 0 -8 0 10 -262144
-1 -1 0;
#X obj 3 422 r lfoOne_keySync;
#X obj 96 463 nrpn_out 41;
#X text 160 434 0=off .. 1=on;
#X obj 620 69 clip 0 166;
#X obj 762 54 + 151;
#X obj 762 12 hradio 15 1 0 8 empty empty empty 0 -8 0 10 -262144 -1
-1 0;
#X obj 762 33 hradio 15 1 0 8 empty empty empty 0 -8 0 10 -262144 -1
-1 0;
#X obj 823 54 + 159;
#X text 891 -1 151=beat*32 .. 152=beat*16 .. 153=beat*8 .. 154=beat*6
.. 155=beat*4 .. 156=beat*3 .. 157=beat*2 .. 158=beat*1.5;
#X text 892 36 159=beat .. 160=beat/2 .. 161=beat*2 .. 162=beat/3 ..
163=beat/4 .. 164=beat/6 .. 165=beat/8 .. 166=beat/16;
#X obj 735 151 hradio 15 1 0 5 empty empty empty 0 -8 0 10 -262144
-1 -1 0;
#X obj 620 166 clip 0 4;
#X text 818 152 0=tri .. 1=rev. saw .. 2=saw .. 3=square .. 4=random
;
#X obj 614 263 clip 0 127;
#X obj 610 358 clip 0 43;
#X obj 721 434 hradio 15 1 0 2 empty empty empty 0 -8 0 10 -262144
-1 -1 0;
#X text 763 435 0=off .. 1=on;
#X obj 620 43 r lfoTwo_freq;
#X obj 620 140 r lfoTwo_shape;
#X obj 614 237 r lfoTwo_ammount;
#X obj 610 332 r lfoTwo_dest;
#X obj 606 423 r lfoTwo_keySync;
#X obj 713 84 nrpn_out 42;
#X obj 713 181 nrpn_out 43;
#X obj 707 278 nrpn_out 44;
#X obj 703 373 nrpn_out 45;
#X obj 702 464 nrpn_out 46;
#X obj 606 449 clip 0 1;
#X obj 3 448 clip 0 1;
#X obj 1235 74 clip 0 166;
#X obj 1377 59 + 151;
#X obj 1377 17 hradio 15 1 0 8 empty empty empty 0 -8 0 10 -262144
-1 -1 0;
#X obj 1377 38 hradio 15 1 0 8 empty empty empty 0 -8 0 10 -262144
-1 -1 0;
#X obj 1438 59 + 159;
#X text 1506 4 151=beat*32 .. 152=beat*16 .. 153=beat*8 .. 154=beat*6
.. 155=beat*4 .. 156=beat*3 .. 157=beat*2 .. 158=beat*1.5;
#X text 1507 41 159=beat .. 160=beat/2 .. 161=beat*2 .. 162=beat/3
.. 163=beat/4 .. 164=beat/6 .. 165=beat/8 .. 166=beat/16;
#X obj 1350 156 hradio 15 1 0 5 empty empty empty 0 -8 0 10 -262144
-1 -1 0;
#X obj 1235 171 clip 0 4;
#X text 1433 157 0=tri .. 1=rev. saw .. 2=saw .. 3=square .. 4=random
;
#X obj 1229 268 clip 0 127;
#X obj 1225 363 clip 0 43;
#X obj 1336 439 hradio 15 1 0 2 empty empty empty 0 -8 0 10 -262144
-1 -1 0;
#X text 1378 440 0=off .. 1=on;
#X obj 1221 454 clip 0 1;
#X obj 1234 48 r lfoThree_freq;
#X obj 1235 145 r lfoThree_shape;
#X obj 1229 242 r lfoThree_ammount;
#X obj 1225 337 r lfoThree_dest;
#X obj 1221 428 r lfoThree_keySync;
#X obj 1328 89 nrpn_out 47;
#X obj 1328 186 nrpn_out 48;
#X obj 1322 283 nrpn_out 49;
#X obj 1318 378 nrpn_out 50;
#X obj 1317 469 nrpn_out 51;
#X obj 1839 77 clip 0 166;
#X obj 1981 62 + 151;
#X obj 1981 20 hradio 15 1 0 8 empty empty empty 0 -8 0 10 -262144
-1 -1 0;
#X obj 1981 41 hradio 15 1 0 8 empty empty empty 0 -8 0 10 -262144
-1 -1 0;
#X obj 2042 62 + 159;
#X text 2110 7 151=beat*32 .. 152=beat*16 .. 153=beat*8 .. 154=beat*6
.. 155=beat*4 .. 156=beat*3 .. 157=beat*2 .. 158=beat*1.5;
#X text 2111 44 159=beat .. 160=beat/2 .. 161=beat*2 .. 162=beat/3
.. 163=beat/4 .. 164=beat/6 .. 165=beat/8 .. 166=beat/16;
#X obj 1954 159 hradio 15 1 0 5 empty empty empty 0 -8 0 10 -262144
-1 -1 0;
#X obj 1839 174 clip 0 4;
#X text 2037 160 0=tri .. 1=rev. saw .. 2=saw .. 3=square .. 4=random
;
#X obj 1833 271 clip 0 127;
#X obj 1829 366 clip 0 43;
#X obj 1940 442 hradio 15 1 0 2 empty empty empty 0 -8 0 10 -262144
-1 -1 0;
#X text 1982 443 0=off .. 1=on;
#X obj 1825 457 clip 0 1;
#X obj 1838 51 r lfoFour_freq;
#X obj 1839 148 r lfoFour_shape;
#X obj 1833 245 r lfoFour_ammount;
#X obj 1829 340 r lfoFour_dest;
#X obj 1825 431 r lfoFour_keySync;
#X obj 1932 92 nrpn_out 52;
#X obj 1932 189 nrpn_out 53;
#X obj 1926 286 nrpn_out 54;
#X obj 1922 381 nrpn_out 55;
#X obj 1921 472 nrpn_out 56;
#X connect 0 0 2 0;
#X connect 2 0 1 0;
#X connect 3 0 2 0;
#X connect 4 0 3 0;
#X connect 5 0 6 0;
#X connect 6 0 2 0;
#X connect 9 0 11 0;
#X connect 11 0 10 0;
#X connect 12 0 11 0;
#X connect 14 0 15 0;
#X connect 15 0 16 0;
#X connect 17 0 18 0;
#X connect 18 0 19 0;
#X connect 20 0 49 0;
#X connect 21 0 49 0;
#X connect 24 0 43 0;
#X connect 25 0 24 0;
#X connect 26 0 25 0;
#X connect 27 0 28 0;
#X connect 28 0 24 0;
#X connect 31 0 32 0;
#X connect 32 0 44 0;
#X connect 34 0 45 0;
#X connect 35 0 46 0;
#X connect 36 0 48 0;
#X connect 38 0 24 0;
#X connect 39 0 32 0;
#X connect 40 0 34 0;
#X connect 41 0 35 0;
#X connect 42 0 48 0;
#X connect 48 0 47 0;
#X connect 49 0 22 0;
#X connect 50 0 70 0;
#X connect 51 0 50 0;
#X connect 52 0 51 0;
#X connect 53 0 54 0;
#X connect 54 0 50 0;
#X connect 57 0 58 0;
#X connect 58 0 71 0;
#X connect 60 0 72 0;
#X connect 61 0 73 0;
#X connect 62 0 64 0;
#X connect 64 0 74 0;
#X connect 65 0 50 0;
#X connect 66 0 58 0;
#X connect 67 0 60 0;
#X connect 68 0 61 0;
#X connect 69 0 64 0;
#X connect 75 0 95 0;
#X connect 76 0 75 0;
#X connect 77 0 76 0;
#X connect 78 0 79 0;
#X connect 79 0 75 0;
#X connect 82 0 83 0;
#X connect 83 0 96 0;
#X connect 85 0 97 0;
#X connect 86 0 98 0;
#X connect 87 0 89 0;
#X connect 89 0 99 0;
#X connect 90 0 75 0;
#X connect 91 0 83 0;
#X connect 92 0 85 0;
#X connect 93 0 86 0;
#X connect 94 0 89 0;
#X restore 587 445 pd lfo;
#N canvas 1 87 1022 511 mod 0;
#X obj 23 38 r modOne_source;
#X obj 23 64 clip 0 20;
#X obj 116 79 nrpn_out 65;
#X obj 22 158 clip 0 254;
#X obj 115 173 nrpn_out 66;
#X obj 18 228 r modOne_dest;
#X obj 22 132 r modOne_amount;
#X obj 18 254 clip 0 47;
#X obj 111 268 nrpn_out 67;
#X obj 219 64 clip 0 20;
#X obj 218 158 clip 0 254;
#X obj 214 254 clip 0 47;
#X obj 405 67 clip 0 20;
#X obj 404 161 clip 0 254;
#X obj 400 257 clip 0 47;
#X obj 591 70 clip 0 20;
#X obj 590 164 clip 0 254;
#X obj 586 260 clip 0 47;
#X obj 219 38 r modTwo_source;
#X obj 218 132 r modTwo_amount;
#X obj 214 228 r modTwo_dest;
#X obj 312 79 nrpn_out 68;
#X obj 311 173 nrpn_out 69;
#X obj 307 268 nrpn_out 70;
#X obj 405 41 r modThree_source;
#X obj 404 135 r modThree_amount;
#X obj 400 231 r modThree_dest;
#X obj 498 82 nrpn_out 71;
#X obj 497 176 nrpn_out 72;
#X obj 493 271 nrpn_out 73;
#X obj 591 44 r modFour_source;
#X obj 590 138 r modFour_amount;
#X obj 586 234 r modFour_dest;
#X obj 684 85 nrpn_out 74;
#X obj 683 179 nrpn_out 75;
#X obj 679 274 nrpn_out 76;
#X connect 0 0 1 0;
#X connect 1 0 2 0;
#X connect 3 0 4 0;
#X connect 5 0 7 0;
#X connect 6 0 3 0;
#X connect 7 0 8 0;
#X connect 9 0 21 0;
#X connect 10 0 22 0;
#X connect 11 0 23 0;
#X connect 12 0 27 0;
#X connect 13 0 28 0;
#X connect 14 0 29 0;
#X connect 15 0 33 0;
#X connect 16 0 34 0;
#X connect 17 0 35 0;
#X connect 18 0 9 0;
#X connect 19 0 10 0;
#X connect 20 0 11 0;
#X connect 24 0 12 0;
#X connect 25 0 13 0;
#X connect 26 0 14 0;
#X connect 30 0 15 0;
#X connect 31 0 16 0;
#X connect 32 0 17 0;
#X restore 566 602 pd mod;
#X obj 482 518 s modOne_source;
#X obj 482 536 s modOne_amount;
#X obj 482 555 s modOne_dest;
#X obj 585 518 s modTwo_source;
#X obj 586 537 s modTwo_amount;
#X obj 586 555 s modTwo_dest;
#X obj 689 516 s modThree_source;
#X obj 690 536 s modThree_amount;
#X obj 690 554 s modThree_dest;
#X obj 807 515 s modFour_source;
#X obj 807 534 s modFour_amount;
#X obj 807 552 s modFour_dest;
#N canvas 1 104 889 494 other 1;
#X obj 41 30 r feedbackGain;
#X obj 41 56 clip 0 127;
#X obj 134 71 nrpn_out 110;
#X obj 39 152 clip 0 127;
#X obj 39 126 r feedbackVolume;
#X obj 132 167 nrpn_out 116;
#X obj 40 253 clip 0 127;
#X obj 38 349 clip 0 127;
#X obj 40 227 r subOscOne_level;
#X obj 133 268 nrpn_out 114;
#X obj 131 364 nrpn_out 115;
#X obj 391 96 ctlout 7;
#X obj 391 58 clip 0 127;
#X floatatom 391 78 5 0 0 0 - - -;
#X obj 391 31 r masterVolume;
#X obj 392 224 ctlout 32;
#X floatatom 392 208 5 0 0 0 - - -;
#X obj 392 159 r bankSel;
#X obj 390 345 pgmout;
#X floatatom 390 327 5 0 0 0 - - -;
#X obj 390 308 clip 0 127;
#X obj 390 283 r programSel;
#X obj 392 186 clip 0 3;
#X obj 38 323 r subOscTwo_level;
#X connect 0 0 1 0;
#X connect 1 0 2 0;
#X connect 3 0 5 0;
#X connect 4 0 3 0;
#X connect 6 0 9 0;
#X connect 7 0 10 0;
#X connect 8 0 6 0;
#X connect 12 0 13 0;
#X connect 13 0 11 0;
#X connect 14 0 12 0;
#X connect 16 0 15 0;
#X connect 17 0 22 0;
#X connect 19 0 18 0;
#X connect 20 0 19 0;
#X connect 21 0 20 0;
#X connect 22 0 16 0;
#X connect 23 0 7 0;
#X restore 564 766 pd other;
#X obj 555 679 s feedbackGain;
#X obj 555 697 s feedbackVolume;
#X obj 555 716 s subOscOne_level;
#X obj 555 734 s subOscTwoLevel;
#X obj 112 525 s env_dest;
#X obj 112 546 s env_ammount;
#X obj 111 566 s env_velocityAmmount;
#X obj 284 523 s env_delay;
#X obj 284 544 s env_attack;
#X obj 284 564 s env_decay;
#X obj 284 584 s env_sustain;
#X obj 284 604 s env_release;
#X connect 1 0 0 0;
#X connect 69 0 68 0;
#X connect 71 0 69 0;
#X connect 71 1 84 0;
#X connect 72 0 70 0;
#X connect 73 0 83 0;
#X connect 74 0 73 1;
#X connect 75 0 76 0;
#X connect 76 0 73 0;
#X connect 76 1 74 0;
#X connect 77 0 76 0;
#X connect 78 0 79 0;
#X connect 79 0 77 0;
#X connect 79 1 75 0;
#X connect 80 0 81 0;
#X connect 81 0 72 0;
#X connect 83 0 69 0;
#X connect 83 0 74 1;
#X connect 84 0 72 0;
#X connect 85 0 71 0;
#X connect 86 0 87 0;
#X connect 86 1 88 0;
#X connect 89 0 86 0;
