#N canvas 1 87 1022 511 10;
#N canvas 0 0 450 300 (subpatch) 0;
#X array seq 16 float 3;
#A 0 60 72 60 72 60 72 60 72 60 72 60 72 60 72 60 72;
#X coords 0 127 16 0 300 200 1 0 0;
#X restore 380 104 graph;
#X obj 714 167 tabread seqOne;
#X obj 714 187 int;
#X msg 714 281 12 46;
#X obj 714 207 t b f;
#X obj 741 233 pack;
#X msg 741 260 set \$2 \$1;
#X obj 714 144 t f f;
#X floatatom 714 123 5 0 0 0 - - -;
#X obj 788 233 noteout;
#X obj 787 196 makenote 100 200;
#X obj 763 92 i;
#X obj 799 92 + 1;
#X obj 717 71 metro 200;
#X obj 681 65 tgl 15 0 empty empty empty 17 7 0 10 -262144 -1 -1 0
1;
#X floatatom 837 81 5 0 0 0 - - -;
#X floatatom 835 164 5 0 0 0 - - -;
#X floatatom 872 166 5 0 0 0 - - -;
#X obj 902 232 noteout;
#X obj 901 197 makenote 100 200;
#X obj 905 131 pipe;
#X obj 909 106 * 6;
#X obj 868 379 bendout;
#X floatatom 847 295 5 0 0 0 - - -;
#X floatatom 922 334 5 0 0 0 - - -;
#X obj 847 323 * 16384;
#X obj 847 343 / 1200;
#X obj 856 271 -;
#X msg 844 233 0;
#X obj 856 110 - 2;
#X obj 222 464 pgmout;
#X floatatom 222 446 5 0 0 0 - - -;
#X obj 92 399 ctlout 7;
#X floatatom 92 378 5 0 0 2 MASTER_VOL - -;
#X obj 295 463 ctlout 32;
#X obj 430 431 unpack;
#X floatatom 295 447 5 0 0 0 - - -;
#X obj 763 112 mod 32;
#X obj 222 404 i;
#X obj 249 404 +;
#X msg 244 362 1;
#X obj 222 383 t b f;
#X msg 210 362 -1;
#X obj 210 321 keyup;
#X obj 210 340 sel 45 61;
#X obj 295 405 hradio 15 1 0 4 empty empty BANK 0 -8 0 10 -262144 -1
-1 0;
#X obj 295 425 clip 0 4;
#X text 249 323 PROGRAM;
#X obj 222 427 clip 0 127;
#X obj 633 452 noteout;
#X obj 633 360 unpack 0 0 0 0;
#X msg 633 340 50 54 57 62;
#X msg 720 341 55 59 62 67;
#X obj 633 412 makenote 127 5000;
#X obj 463 451 - 1;
#X msg 481 369 27 4;
#X msg 482 388 1 3;
#X msg 481 408 15 2;
#X msg 430 389 36 4;
#X msg 430 412 18 2;
#X msg 431 369 38 4;
#X msg 532 369 43 4;
#X msg 532 389 44 4;
#X msg 530 408 52 4;
#X msg 531 427 62 4;
#X msg 432 347 100 4;
#X msg 480 347 69 3;
#X msg 531 347 39 3;
#X msg 573 369 3 3;
#X floatatom 15 12 5 0 0 0 - - -;
#X floatatom 53 12 5 0 0 0 - - -;
#X floatatom 90 12 5 0 0 0 - - -;
#X floatatom 128 12 5 0 0 0 - - -;
#X floatatom 165 21 5 0 0 0 - - -;
#X floatatom 203 21 5 0 0 0 - - -;
#X floatatom 240 21 5 0 0 0 - - -;
#X floatatom 278 21 5 0 0 0 - - -;
#X floatatom 316 32 5 0 0 0 - - -;
#X floatatom 354 32 5 0 0 0 - - -;
#X floatatom 391 32 5 0 0 0 - - -;
#X floatatom 429 32 5 0 0 0 - - -;
#X floatatom 465 39 5 0 0 0 - - -;
#X floatatom 503 39 5 0 0 0 - - -;
#X floatatom 540 39 5 0 0 0 - - -;
#X floatatom 578 39 5 0 0 0 - - -;
#N canvas 245 168 450 300 seqence 0;
#X obj 42 21 inlet;
#X obj 60 40 inlet;
#X obj 76 60 inlet;
#X obj 95 79 inlet;
#X obj 148 23 inlet;
#X obj 166 42 inlet;
#X obj 182 62 inlet;
#X obj 201 81 inlet;
#X obj 252 22 inlet;
#X obj 270 41 inlet;
#X obj 286 61 inlet;
#X obj 305 80 inlet;
#X obj 352 24 inlet;
#X obj 370 43 inlet;
#X obj 386 63 inlet;
#X obj 405 82 inlet;
#X msg 42 104 \; seq 0 \$1;
#X msg 60 137 \; seq 1 \$1;
#X msg 76 169 \; seq 2 \$1;
#X msg 95 199 \; seq 3 \$1;
#X msg 148 106 \; seq 4 \$1;
#X msg 166 139 \; seq 5 \$1;
#X msg 182 171 \; seq 6 \$1;
#X msg 201 201 \; seq 7 \$1;
#X msg 252 105 \; seq 8 \$1;
#X msg 270 138 \; seq 9 \$1;
#X msg 286 170 \; seq 10 \$1;
#X msg 305 200 \; seq 11 \$1;
#X msg 352 107 \; seq 12 \$1;
#X msg 370 140 \; seq 13 \$1;
#X msg 386 172 \; seq 14 \$1;
#X msg 405 202 \; seq 15 \$1;
#X connect 0 0 16 0;
#X connect 1 0 17 0;
#X connect 2 0 18 0;
#X connect 3 0 19 0;
#X connect 4 0 20 0;
#X connect 5 0 21 0;
#X connect 6 0 22 0;
#X connect 7 0 23 0;
#X connect 8 0 24 0;
#X connect 9 0 25 0;
#X connect 10 0 26 0;
#X connect 11 0 27 0;
#X connect 12 0 28 0;
#X connect 13 0 29 0;
#X connect 14 0 30 0;
#X connect 15 0 31 0;
#X restore 42 144 pd seqence;
#X msg 27 166 \; seq 0 60 72 60 72 60 72 60 72 60 72 60 72 60 72 60
72;
#X connect 1 0 2 0;
#X connect 1 0 10 0;
#X connect 1 0 20 0;
#X connect 2 0 4 0;
#X connect 4 0 3 0;
#X connect 4 1 5 0;
#X connect 5 0 6 0;
#X connect 6 0 3 0;
#X connect 7 0 1 0;
#X connect 7 1 5 1;
#X connect 8 0 7 0;
#X connect 10 0 9 0;
#X connect 10 1 9 1;
#X connect 11 0 37 0;
#X connect 12 0 11 1;
#X connect 13 0 11 0;
#X connect 14 0 13 0;
#X connect 15 0 13 1;
#X connect 15 0 27 1;
#X connect 15 0 28 0;
#X connect 15 0 29 0;
#X connect 15 0 21 0;
#X connect 16 0 10 1;
#X connect 16 0 19 1;
#X connect 17 0 10 2;
#X connect 17 0 19 2;
#X connect 19 0 18 0;
#X connect 19 1 18 1;
#X connect 20 0 19 0;
#X connect 21 0 20 1;
#X connect 23 0 25 0;
#X connect 24 0 22 1;
#X connect 25 0 26 0;
#X connect 26 0 22 0;
#X connect 27 0 23 0;
#X connect 28 0 27 0;
#X connect 29 0 17 0;
#X connect 31 0 30 0;
#X connect 33 0 32 0;
#X connect 35 0 31 0;
#X connect 35 1 54 0;
#X connect 36 0 34 0;
#X connect 37 0 12 0;
#X connect 37 0 8 0;
#X connect 38 0 48 0;
#X connect 39 0 38 1;
#X connect 40 0 41 0;
#X connect 41 0 38 0;
#X connect 41 1 39 0;
#X connect 42 0 41 0;
#X connect 43 0 44 0;
#X connect 44 0 42 0;
#X connect 44 1 40 0;
#X connect 45 0 46 0;
#X connect 46 0 36 0;
#X connect 48 0 31 0;
#X connect 48 0 39 1;
#X connect 50 0 53 0;
#X connect 50 1 53 0;
#X connect 50 2 53 0;
#X connect 50 3 53 0;
#X connect 51 0 50 0;
#X connect 52 0 50 0;
#X connect 53 0 49 0;
#X connect 53 1 49 1;
#X connect 54 0 36 0;
#X connect 55 0 35 0;
#X connect 56 0 35 0;
#X connect 57 0 35 0;
#X connect 58 0 35 0;
#X connect 59 0 35 0;
#X connect 60 0 35 0;
#X connect 61 0 35 0;
#X connect 62 0 35 0;
#X connect 63 0 35 0;
#X connect 64 0 35 0;
#X connect 65 0 35 0;
#X connect 66 0 35 0;
#X connect 67 0 35 0;
#X connect 68 0 35 0;
#X connect 69 0 85 0;
#X connect 70 0 85 1;
#X connect 71 0 85 2;
#X connect 72 0 85 3;
#X connect 73 0 85 4;
#X connect 74 0 85 5;
#X connect 75 0 85 6;
#X connect 76 0 85 7;
#X connect 77 0 85 8;
#X connect 78 0 85 9;
#X connect 79 0 85 10;
#X connect 80 0 85 11;
#X connect 81 0 85 12;
#X connect 82 0 85 13;
#X connect 83 0 85 14;
#X connect 84 0 85 15;
