#N canvas 221 95 802 272 10;
#X floatatom 51 20 5 0 120 1 V1_OSC_1_FREQ - TETRA_V1_OSC_1_FREQ;
#X floatatom 51 38 5 0 100 1 V1_OSC_1_FREQ_FINE - TETRA_V1_OSC_1_FREQ_FINE
;
#X floatatom 51 56 5 0 103 1 V1_OSC_1_SHAPE - TETRA_V1_OSC_1_SHAPE
;
#X floatatom 51 74 5 0 127 1 V1_GLIDE_1 - TETRA_V1_GLIDE_1;
#X floatatom 51 92 5 0 1 1 V1_OSC_1_KEY - TETRA_V1_OSC_1_KEY;
#X floatatom 213 20 5 0 120 1 V1_OSC_2_FREQ - TETRA_V1_OSC_2_FREQ;
#X floatatom 213 38 5 0 100 1 V1_OSC_2_FREQ_FINE - TETRA_V1_OSC_2_FREQ_FINE
;
#X floatatom 213 56 5 0 103 1 V1_OSC_2_SHAPE - TETRA_V1_OSC_2_SHAPE
;
#X floatatom 213 74 5 0 127 1 V1_GLIDE_2 - TETRA_V1_GLIDE_2;
#X floatatom 213 92 5 0 1 1 V1_OSC_2_KEY - TETRA_V1_OSC_2_KEY;
#X floatatom 376 20 5 0 1 1 V1_SYNC - TETRA_V1_SYNC;
#X floatatom 376 38 5 0 3 1 V1_GLIDE_MODE - TETRA_V1_GLIDE_MODE;
#X floatatom 376 56 5 0 5 1 V1_OSC_SLOPE - TETRA_V1_OSC_SLOPE;
#X floatatom 376 74 5 0 127 1 V1_OSC_MIX - TETRA_V1_OSC_MIX;
#X floatatom 376 92 5 0 127 1 V1_NOISE_LEVEL - TETRA_V1_NOISE_LEVEL
;
#X floatatom 51 182 5 0 164 1 V1_FILTER_FREQ - TETRA_V1_FILTER_FREQ
;
#X floatatom 51 200 5 0 127 1 V1_RESONANCE - TETRA_V1_RESONANCE;
#X floatatom 51 218 5 0 127 1 V1_FIL_KEY_AMT - TETRA_V1_FIL_KEY_AMT
;
#X floatatom 51 236 5 0 127 1 V1_FIL_AUDIO_MOD - TETRA_V1_FIL_AUDIO_MOD
;
#X floatatom 51 254 5 0 1 1 V1_FILTER_POLES - TETRA_V1_FILTER_POLES
;
#X floatatom 213 182 5 0 254 1 V1_FILTER_ENV_AMT - TETRA_V1_FILTER_ENV_AMT
;
#X floatatom 213 200 5 0 127 1 V1_FIL_ENV_VEL_AMT - TETRA_V1_FIL_ENV_VEL_AMT
;
#X floatatom 376 182 5 0 127 1 V1_FIL_DEL - TETRA_V1_FIL_DEL;
#X floatatom 376 200 5 0 127 1 V1_FIL_ATT - TETRA_V1_FIL_ATT;
#X floatatom 376 218 5 0 127 1 V1_FIL_DEC - TETRA_V1_FIL_DEC;
#X floatatom 376 236 5 0 127 1 V1_FIL_SUS - TETRA_V1_FIL_SUS;
#X floatatom 376 254 5 0 127 1 V1_FIL_REL - TETRA_V1_FIL_REL;
#X floatatom 51 318 5 0 127 1 V1_VCA_LEVEL - TETRA_V1_VCA_LEVEL;
#X floatatom 51 336 5 0 127 1 V1_OUTPUT_PAN - TETRA_V1_OUTPUT_PAN;
#X floatatom 51 354 5 0 127 1 V1_PRESET_VOLUME - TETRA_V1_PRESET_VOLUME
;
#X floatatom 51 372 5 0 127 1 V1_VCA_ENV_AMOUNT - TETRA_V1_VCA_ENV_AMOUNT
;
#X floatatom 51 390 5 0 127 1 V1_VCA_ENV_VEL_AMT - TETRA_V1_VCA_ENV_VEL_AMT
;
#X floatatom 216 318 5 0 127 1 V1_VCA_DEL - TETRA_V1_VCA_DEL;
#X floatatom 216 336 5 0 127 1 V1_VCA_ATT - TETRA_V1_VCA_ATT;
#X floatatom 216 354 5 0 127 1 V1_VCA_DEC - TETRA_V1_VCA_DEC;
#X floatatom 216 372 5 0 127 1 V1_VCA_SUS - TETRA_V1_VCA_SUS;
#X floatatom 216 390 5 0 127 1 V1_VCA_REL - TETRA_V1_VCA_REL;
#N canvas 1 87 1022 511 v1_oscillators 0;
#X obj 6 39 clip 0 120;
#X obj 7 132 clip 0 100;
#X obj 6 233 clip 0 103;
#X obj 4 323 clip 0 127;
#X obj 7 422 clip 0 1;
#X obj 384 39 clip 0 120;
#X obj 385 132 clip 0 100;
#X obj 384 233 clip 0 103;
#X obj 382 323 clip 0 127;
#X obj 385 422 clip 0 1;
#X obj 739 41 clip 0 1;
#X obj 750 231 clip 0 5;
#X obj 745 329 clip 0 127;
#X obj 744 426 clip 0 127;
#X obj 742 137 clip 0 3;
#X obj 98 54 nrpn_out 512;
#X obj 101 147 nrpn_out 513;
#X obj 103 248 nrpn_out 514;
#X obj 101 338 nrpn_out 515;
#X obj 104 437 nrpn_out 516;
#X obj 476 54 nrpn_out 517;
#X obj 479 147 nrpn_out 518;
#X obj 481 248 nrpn_out 519;
#X obj 479 338 nrpn_out 520;
#X obj 482 437 nrpn_out 521;
#X obj 836 56 nrpn_out 522;
#X obj 841 152 nrpn_out 523;
#X obj 842 246 nrpn_out 524;
#X obj 842 344 nrpn_out 525;
#X obj 841 441 nrpn_out 526;
#X obj 6 13 r TETRA_V1_OSC_1_FREQ;
#X obj 7 106 r TETRA_V1_OSC_1_FREQ_FINE;
#X obj 6 207 r TETRA_V1_OSC_1_SHAPE;
#X obj 4 297 r TETRA_V1_GLIDE_1;
#X obj 7 396 r TETRA_V1_OSC_1_KEY;
#X obj 384 13 r TETRA_V1_OSC_2_FREQ;
#X obj 385 106 r TETRA_V1_OSC_2_FREQ_FINE;
#X obj 384 207 r TETRA_V1_OSC_2_SHAPE;
#X obj 382 296 r TETRA_V1_GLIDE_2;
#X obj 385 396 r TETRA_V1_OSC_2_KEY;
#X obj 739 15 r TETRA_V1_SYNC;
#X obj 742 113 r TETRA_V1_GLIDE_MODE;
#X obj 750 205 r TETRA_V1_OSC_SLOPE;
#X obj 745 303 r TETRA_V1_OSC_MIX;
#X obj 744 400 r TETRA_V1_NOISE_LEVEL;
#X obj 8 520 clip 0 127;
#X obj 386 520 clip 0 127;
#X obj 8 494 r TETRA_V1_SUB_OSC_1_VOL;
#X obj 386 494 r TETRA_V1_SUB_OSC_2_VOL;
#X obj 101 535 nrpn_out 626;
#X obj 479 535 nrpn_out 627;
#X obj 747 522 clip 0 127;
#X obj 745 618 clip 0 127;
#X obj 747 496 r TETRA_V1_FEEDBACK_GAIN;
#X obj 745 592 r TETRA_V1_FEEDBACK_VOL;
#X obj 838 633 nrpn_out 628;
#X obj 840 537 nrpn_out 622;
#X connect 0 0 15 0;
#X connect 1 0 16 0;
#X connect 2 0 17 0;
#X connect 3 0 18 0;
#X connect 4 0 19 0;
#X connect 5 0 20 0;
#X connect 6 0 21 0;
#X connect 7 0 22 0;
#X connect 8 0 23 0;
#X connect 9 0 24 0;
#X connect 10 0 25 0;
#X connect 11 0 27 0;
#X connect 12 0 28 0;
#X connect 13 0 29 0;
#X connect 14 0 26 0;
#X connect 30 0 0 0;
#X connect 31 0 1 0;
#X connect 32 0 2 0;
#X connect 33 0 3 0;
#X connect 34 0 4 0;
#X connect 35 0 5 0;
#X connect 36 0 6 0;
#X connect 37 0 7 0;
#X connect 38 0 8 0;
#X connect 39 0 9 0;
#X connect 40 0 10 0;
#X connect 41 0 14 0;
#X connect 42 0 11 0;
#X connect 43 0 12 0;
#X connect 44 0 13 0;
#X connect 45 0 49 0;
#X connect 46 0 50 0;
#X connect 47 0 45 0;
#X connect 48 0 46 0;
#X connect 51 0 56 0;
#X connect 52 0 55 0;
#X connect 53 0 51 0;
#X connect 54 0 52 0;
#X restore 640 39 pd v1_oscillators;
#N canvas 1 87 1022 511 v1_filter 0;
#X obj 40 56 clip 0 164;
#X obj 38 144 clip 0 127;
#X obj 34 235 clip 0 127;
#X obj 34 323 clip 0 127;
#X obj 30 414 clip 0 1;
#X obj 309 87 clip 0 254;
#X obj 306 179 clip 0 127;
#X obj 660 56 clip 0 127;
#X obj 660 144 clip 0 127;
#X obj 655 231 clip 0 127;
#X obj 652 322 clip 0 127;
#X obj 647 417 clip 0 127;
#X obj 40 30 r TETRA_V1_FILTER_FREQ;
#X obj 38 118 r TETRA_V1_RESONANCE;
#X obj 34 209 r TETRA_V1_FIL_KEY_AMT;
#X obj 34 297 r TETRA_V1_FIL_AUDIO_MOD;
#X obj 30 388 r TETRA_V1_FILTER_POLES;
#X obj 139 71 nrpn_out 527;
#X obj 137 159 nrpn_out 528;
#X obj 133 250 nrpn_out 529;
#X obj 133 338 nrpn_out 530;
#X obj 129 429 nrpn_out 531;
#X obj 309 61 r TETRA_V1_FILTER_ENV_AMT;
#X obj 306 153 r TETRA_V1_FIL_ENV_VEL_AMT;
#X obj 408 102 nrpn_out 532;
#X obj 405 194 nrpn_out 533;
#X obj 660 30 r TETRA_V1_FIL_DEL;
#X obj 660 118 r TETRA_V1_FIL_ATT;
#X obj 655 205 r TETRA_V1_FIL_DEC;
#X obj 652 295 r TETRA_V1_FIL_SUS;
#X obj 647 390 r TETRA_V1_FIL_REL;
#X obj 759 71 nrpn_out 534;
#X obj 759 159 nrpn_out 535;
#X obj 754 246 nrpn_out 536;
#X obj 751 337 nrpn_out 537;
#X obj 746 432 nrpn_out 538;
#X connect 0 0 17 0;
#X connect 1 0 18 0;
#X connect 2 0 19 0;
#X connect 3 0 20 0;
#X connect 4 0 21 0;
#X connect 5 0 24 0;
#X connect 6 0 25 0;
#X connect 7 0 31 0;
#X connect 8 0 32 0;
#X connect 9 0 33 0;
#X connect 10 0 34 0;
#X connect 11 0 35 0;
#X connect 12 0 0 0;
#X connect 13 0 1 0;
#X connect 14 0 2 0;
#X connect 15 0 3 0;
#X connect 16 0 4 0;
#X connect 22 0 5 0;
#X connect 23 0 6 0;
#X connect 26 0 7 0;
#X connect 27 0 8 0;
#X connect 28 0 9 0;
#X connect 29 0 10 0;
#X connect 30 0 11 0;
#X restore 640 58 pd v1_filter;
#N canvas 1 87 1022 511 v1_vca 0;
#X obj -112 60 clip 0 127;
#X obj -113 156 clip 0 127;
#X obj -114 249 clip 0 127;
#X obj -116 337 clip 0 127;
#X obj -115 425 clip 0 127;
#X obj 154 57 clip 0 127;
#X obj 153 153 clip 0 127;
#X obj 152 246 clip 0 127;
#X obj 150 334 clip 0 127;
#X obj 151 422 clip 0 127;
#X obj -112 34 r TETRA_V1_VCA_LEVEL;
#X obj -113 130 r TETRA_V1_OUTPUT_PAN;
#X obj -114 223 r TETRA_V1_PRESET_VOLUME;
#X obj -116 311 r TETRA_V1_VCA_ENV_AMOUNT;
#X obj -115 399 r TETRA_V1_VCA_ENV_VEL_AMT;
#X obj -15 75 nrpn_out 539;
#X obj -16 171 nrpn_out 540;
#X obj -17 264 nrpn_out 541;
#X obj -19 352 nrpn_out 542;
#X obj -18 440 nrpn_out 543;
#X obj 154 31 r TETRA_V1_VCA_DEL;
#X obj 153 127 r TETRA_V1_VCA_ATT;
#X obj 152 220 r TETRA_V1_VCA_DEC;
#X obj 150 308 r TETRA_V1_VCA_SUS;
#X obj 151 396 r TETRA_V1_VCA_REL;
#X obj 250 72 nrpn_out 544;
#X obj 250 168 nrpn_out 545;
#X obj 249 261 nrpn_out 546;
#X obj 247 349 nrpn_out 547;
#X obj 248 437 nrpn_out 548;
#X connect 0 0 15 0;
#X connect 1 0 16 0;
#X connect 2 0 17 0;
#X connect 3 0 18 0;
#X connect 4 0 19 0;
#X connect 5 0 25 0;
#X connect 6 0 26 0;
#X connect 7 0 27 0;
#X connect 8 0 28 0;
#X connect 9 0 29 0;
#X connect 10 0 0 0;
#X connect 11 0 1 0;
#X connect 12 0 2 0;
#X connect 13 0 3 0;
#X connect 14 0 4 0;
#X connect 20 0 5 0;
#X connect 21 0 6 0;
#X connect 22 0 7 0;
#X connect 23 0 8 0;
#X connect 24 0 9 0;
#X restore 640 77 pd v1_vca;
#N canvas 1 87 1022 511 v1_lfo 0;
#X obj 44 57 clip 0 166;
#X obj 44 154 clip 0 4;
#X obj 38 251 clip 0 127;
#X obj 34 346 clip 0 43;
#X obj 30 437 clip 0 1;
#X obj 44 31 r TETRA_V1_LFO_1_FREQ;
#X obj 44 128 r TETRA_V1_LFO_1_SHAPE;
#X obj 38 225 r TETRA_V1_LFO_1_AMT;
#X obj 34 320 r TETRA_V1_LFO_1_DEST;
#X obj 30 411 r TETRA_V1_LFO_1_SYNC;
#X obj 240 57 clip 0 166;
#X obj 240 154 clip 0 4;
#X obj 234 251 clip 0 127;
#X obj 230 346 clip 0 43;
#X obj 226 437 clip 0 1;
#X obj 440 57 clip 0 166;
#X obj 440 154 clip 0 4;
#X obj 434 251 clip 0 127;
#X obj 430 346 clip 0 43;
#X obj 426 437 clip 0 1;
#X obj 636 57 clip 0 166;
#X obj 636 154 clip 0 4;
#X obj 630 251 clip 0 127;
#X obj 626 346 clip 0 43;
#X obj 622 437 clip 0 1;
#X obj 240 31 r TETRA_V1_LFO_2_FREQ;
#X obj 240 128 r TETRA_V1_LFO_2_SHAPE;
#X obj 234 225 r TETRA_V1_LFO_2_AMT;
#X obj 230 320 r TETRA_V1_LFO_2_DEST;
#X obj 226 411 r TETRA_V1_LFO_2_SYNC;
#X obj 440 31 r TETRA_V1_LFO_3_FREQ;
#X obj 440 128 r TETRA_V1_LFO_3_SHAPE;
#X obj 434 225 r TETRA_V1_LFO_3_AMT;
#X obj 430 320 r TETRA_V1_LFO_3_DEST;
#X obj 426 411 r TETRA_V1_LFO_3_SYNC;
#X obj 137 72 nrpn_out 549;
#X obj 137 169 nrpn_out 550;
#X obj 131 266 nrpn_out 551;
#X obj 127 361 nrpn_out 552;
#X obj 123 452 nrpn_out 553;
#X obj 333 72 nrpn_out 554;
#X obj 333 169 nrpn_out 555;
#X obj 327 266 nrpn_out 556;
#X obj 323 361 nrpn_out 557;
#X obj 319 452 nrpn_out 558;
#X obj 533 72 nrpn_out 559;
#X obj 533 169 nrpn_out 560;
#X obj 527 266 nrpn_out 561;
#X obj 523 361 nrpn_out 562;
#X obj 519 452 nrpn_out 563;
#X obj 729 72 nrpn_out 654;
#X obj 729 169 nrpn_out 656;
#X obj 723 266 nrpn_out 566;
#X obj 719 361 nrpn_out 567;
#X obj 715 452 nrpn_out 568;
#X obj 636 31 r TETRA_V1_LFO_4_FREQ;
#X obj 636 128 r TETRA_V1_LFO_4_SHAPE;
#X obj 630 225 r TETRA_V1_LFO_4_AMT;
#X obj 626 320 r TETRA_V1_LFO_4_DEST;
#X obj 622 411 r TETRA_V1_LFO_4_SYNC;
#X connect 0 0 35 0;
#X connect 1 0 36 0;
#X connect 2 0 37 0;
#X connect 3 0 38 0;
#X connect 4 0 39 0;
#X connect 5 0 0 0;
#X connect 6 0 1 0;
#X connect 7 0 2 0;
#X connect 8 0 3 0;
#X connect 9 0 4 0;
#X connect 10 0 40 0;
#X connect 11 0 41 0;
#X connect 12 0 42 0;
#X connect 13 0 43 0;
#X connect 14 0 44 0;
#X connect 15 0 45 0;
#X connect 16 0 46 0;
#X connect 17 0 47 0;
#X connect 18 0 48 0;
#X connect 19 0 49 0;
#X connect 20 0 50 0;
#X connect 21 0 51 0;
#X connect 22 0 52 0;
#X connect 23 0 53 0;
#X connect 24 0 54 0;
#X connect 25 0 10 0;
#X connect 26 0 11 0;
#X connect 27 0 12 0;
#X connect 28 0 13 0;
#X connect 29 0 14 0;
#X connect 30 0 15 0;
#X connect 31 0 16 0;
#X connect 32 0 17 0;
#X connect 33 0 18 0;
#X connect 34 0 19 0;
#X connect 55 0 20 0;
#X connect 56 0 21 0;
#X connect 57 0 22 0;
#X connect 58 0 23 0;
#X connect 59 0 24 0;
#X restore 640 95 pd v1_lfo;
#X floatatom 51 446 5 0 166 1 V1_LFO_1_FREQ - TETRA_V1_LFO_1_FREQ;
#X floatatom 51 464 5 0 4 1 V1_LFO_1_SHAPE - TETRA_V1_LFO_1_SHAPE;
#X floatatom 51 482 5 0 127 1 V1_LFO_1_AMT - TETRA_V1_LFO_1_AMT;
#X floatatom 51 500 5 0 43 1 V1_LFO_1_DEST - TETRA_V1_LFO_1_DEST;
#X floatatom 51 518 5 0 1 1 V1_LFO_1_SYNC - TETRA_V1_LFO_1_SYNC;
#X floatatom 216 446 5 0 166 1 V1_LFO_2_FREQ - TETRA_V1_LFO_2_FREQ
;
#X floatatom 216 464 5 0 4 1 V1_LFO_2_SHAPE - TETRA_V1_LFO_2_SHAPE
;
#X floatatom 216 482 5 0 127 1 V1_LFO_2_AMT - TETRA_V1_LFO_2_AMT;
#X floatatom 216 500 5 0 43 1 V1_LFO_2_DEST - TETRA_V1_LFO_2_DEST;
#X floatatom 216 518 5 0 1 1 V1_LFO_2_SYNC - TETRA_V1_LFO_2_SYNC;
#X floatatom 372 446 5 0 166 1 V1_LFO_3_FREQ - TETRA_V1_LFO_3_FREQ
;
#X floatatom 372 464 5 0 4 1 V1_LFO_3_SHAPE - TETRA_V1_LFO_3_SHAPE
;
#X floatatom 372 482 5 0 127 1 V1_LFO_3_AMT - TETRA_V1_LFO_3_AMT;
#X floatatom 372 500 5 0 43 1 V1_LFO_3_DEST - TETRA_V1_LFO_3_DEST;
#X floatatom 372 518 5 0 1 1 V1_LFO_3_SYNC - TETRA_V1_LFO_3_SYNC;
#X floatatom 519 446 5 0 166 1 V1_LFO_4_FREQ - TETRA_V1_LFO_4_FREQ
;
#X floatatom 519 464 5 0 4 1 V1_LFO_4_SHAPE - TETRA_V1_LFO_4_SHAPE
;
#X floatatom 519 482 5 0 127 1 V1_LFO_4_AMT - TETRA_V1_LFO_4_AMT;
#X floatatom 519 500 5 0 43 1 V1_LFO_4_DEST - TETRA_V1_LFO_4_DEST;
#X floatatom 519 518 5 0 1 1 V1_LFO_4_SYNC - TETRA_V1_LFO_4_SYNC;
#N canvas 1 87 1022 511 v1_env3 0;
#X obj 110 83 nrpn_out 57;
#X obj 17 68 clip 0 43;
#X obj 110 173 nrpn_out 58;
#X obj 108 261 nrpn_out 59;
#X obj 15 246 clip 0 127;
#X obj 385 68 clip 0 127;
#X obj 478 83 nrpn_out 60;
#X obj 381 161 clip 0 127;
#X obj 378 248 clip 0 127;
#X obj 377 337 clip 0 127;
#X obj 374 430 clip 0 127;
#X obj 474 176 nrpn_out 61;
#X obj 471 263 nrpn_out 62;
#X obj 470 352 nrpn_out 63;
#X obj 467 445 nrpn_out 64;
#X obj 17 42 r TETRA_V1_ENV_3_DEST;
#X obj 17 132 r TETRA_V1_ENV_3_AMT;
#X obj 15 220 r TETRA_V1_ENV_3_VEL_AMT;
#X obj 385 42 r TETRA_V1_ENV_3_DELAY;
#X obj 381 135 r TETRA_V1_ENV_3_ATT;
#X obj 378 222 r TETRA_V1_ENV_3_DEC;
#X obj 377 311 r TETRA_V1_ENV_3_SUS;
#X obj 374 404 r TETRA_V1_ENV_3_REL;
#X obj 17 158 clip 0 254;
#X connect 1 0 0 0;
#X connect 4 0 3 0;
#X connect 5 0 6 0;
#X connect 7 0 11 0;
#X connect 8 0 12 0;
#X connect 9 0 13 0;
#X connect 10 0 14 0;
#X connect 15 0 1 0;
#X connect 16 0 23 0;
#X connect 17 0 4 0;
#X connect 18 0 5 0;
#X connect 19 0 7 0;
#X connect 20 0 8 0;
#X connect 21 0 9 0;
#X connect 22 0 10 0;
#X connect 23 0 2 0;
#X restore 640 113 pd v1_env3;
#X floatatom 51 576 5 0 43 1 V1_ENV_3_DEST - TETRA_V1_ENV_3_DEST;
#X floatatom 51 594 5 0 254 1 V1_ENV_3_AMT - TETRA_V1_ENV_3_AMT;
#X floatatom 51 612 5 0 127 1 V1_ENV_3_VEL_AMT - TETRA_V1_ENV_3_VEL_AMT
;
#X floatatom 216 576 5 0 127 1 V1_ENV_3_DELAY - TETRA_V1_ENV_3_DELAY
;
#X floatatom 216 594 5 0 127 1 V1_ENV_3_ATT - TETRA_V1_ENV_3_ATT;
#X floatatom 216 612 5 0 127 1 V1_ENV_3_DEC - TETRA_V1_ENV_3_DEC;
#X floatatom 216 630 5 0 127 1 V1_ENV_3_SUS - TETRA_V1_ENV_3_SUS;
#X floatatom 216 648 5 0 127 1 V1_ENV_3_REL - TETRA_V1_ENV_3_REL;
#X floatatom 51 696 5 0 20 1 V1_MOD_SOURCE_1 - TETRA_V1_MOD_SOURCE_1
;
#X floatatom 51 714 5 0 254 1 V1_MOD_AMT_1 - TETRA_V1_MOD_AMT_1;
#X floatatom 51 732 5 0 47 1 V1_MOD_DEST_1 - TETRA_V1_MOD_DEST_1;
#X floatatom 221 696 5 0 20 1 V1_MOD_SOURCE_2 - TETRA_V1_MOD_SOURCE_2
;
#X floatatom 221 714 5 0 254 1 V1_MOD_AMT_2 - TETRA_V1_MOD_AMT_2;
#X floatatom 221 732 5 0 47 1 V1_MOD_DEST_2 - TETRA_V1_MOD_DEST_2;
#X floatatom 391 696 5 0 20 1 V1_MOD_SOURCE_3 - TETRA_V1_MOD_SOURCE_3
;
#X floatatom 391 714 5 0 254 1 V1_MOD_AMT_3 - TETRA_V1_MOD_AMT_3;
#X floatatom 391 732 5 0 47 1 V1_MOD_DEST_3 - TETRA_V1_MOD_DEST_3;
#X floatatom 561 696 5 0 20 1 V1_MOD_SOURCE_4 - TETRA_V1_MOD_SOURCE_4
;
#X floatatom 561 714 5 0 254 1 V1_MOD_AMT_4 - TETRA_V1_MOD_AMT_4;
#X floatatom 561 732 5 0 47 1 V1_MOD_DEST_4 - TETRA_V1_MOD_DEST_4;
#N canvas 1 87 1022 511 v1_mod 0;
#X obj 23 64 clip 0 20;
#X obj 116 79 nrpn_out 65;
#X obj 22 158 clip 0 254;
#X obj 115 173 nrpn_out 66;
#X obj 18 254 clip 0 47;
#X obj 111 268 nrpn_out 67;
#X obj 23 38 r TETRA_V1_MOD_SOURCE_1;
#X obj 22 132 r TETRA_V1_MOD_AMT_1;
#X obj 18 228 r TETRA_V1_MOD_DEST_1;
#X obj 223 64 clip 0 20;
#X obj 316 79 nrpn_out 65;
#X obj 222 158 clip 0 254;
#X obj 315 173 nrpn_out 66;
#X obj 218 254 clip 0 47;
#X obj 311 268 nrpn_out 67;
#X obj 423 64 clip 0 20;
#X obj 516 79 nrpn_out 65;
#X obj 422 158 clip 0 254;
#X obj 515 173 nrpn_out 66;
#X obj 418 254 clip 0 47;
#X obj 511 268 nrpn_out 67;
#X obj 623 64 clip 0 20;
#X obj 716 79 nrpn_out 65;
#X obj 622 158 clip 0 254;
#X obj 715 173 nrpn_out 66;
#X obj 618 254 clip 0 47;
#X obj 711 268 nrpn_out 67;
#X obj 223 38 r TETRA_V1_MOD_SOURCE_2;
#X obj 222 132 r TETRA_V1_MOD_AMT_2;
#X obj 218 228 r TETRA_V1_MOD_DEST_2;
#X obj 418 228 r TETRA_V1_MOD_DEST_3;
#X obj 422 132 r TETRA_V1_MOD_AMT_3;
#X obj 423 38 r TETRA_V1_MOD_SOURCE_3;
#X obj 623 38 r TETRA_V1_MOD_SOURCE_4;
#X obj 622 132 r TETRA_V1_MOD_AMT_4;
#X obj 618 228 r TETRA_V1_MOD_DEST_4;
#X connect 0 0 1 0;
#X connect 2 0 3 0;
#X connect 4 0 5 0;
#X connect 6 0 0 0;
#X connect 7 0 2 0;
#X connect 8 0 4 0;
#X connect 9 0 10 0;
#X connect 11 0 12 0;
#X connect 13 0 14 0;
#X connect 15 0 16 0;
#X connect 17 0 18 0;
#X connect 19 0 20 0;
#X connect 21 0 22 0;
#X connect 23 0 24 0;
#X connect 25 0 26 0;
#X connect 27 0 9 0;
#X connect 28 0 11 0;
#X connect 29 0 13 0;
#X connect 30 0 19 0;
#X connect 31 0 17 0;
#X connect 32 0 15 0;
#X connect 33 0 21 0;
#X connect 34 0 23 0;
#X connect 35 0 25 0;
#X restore 640 132 pd v1_mod;
#X floatatom 51 110 5 0 127 1 V1_SUB_OSC_1_VOL - TETRA_V1_SUB_OSC_1_VOL
;
#X floatatom 213 110 5 0 127 1 V1_SUB_OSC_2_VOL - TETRA_V1_SUB_OSC_2_VOL
;
#X floatatom 376 110 5 0 127 1 V1_FEEDBACK_GAIN - TETRA_V1_FEEDBACK_GAIN
;
#X floatatom 376 129 5 0 127 1 V1_FEEDBACK_VOL - TETRA_V1_FEEDBACK_VOL
;
#N canvas 23 287 772 301 globals 1;
#X obj 57 87 ctlout 7;
#X obj 57 49 clip 0 127;
#X floatatom 57 69 5 0 0 0 - - -;
#X obj 56 185 ctlout 32;
#X floatatom 56 167 5 0 0 0 - - -;
#X obj 57 275 pgmout;
#X floatatom 57 258 5 0 0 0 - - -;
#X obj 57 239 clip 0 127;
#X obj 56 145 clip 0 3;
#X obj 57 22 r TETRA_MASTER_VOLUME;
#X obj 56 118 r TETRA_BANK_SELECT;
#X obj 57 214 r TETRA_PROGRAM_CHANGE;
#X connect 1 0 2 0;
#X connect 2 0 0 0;
#X connect 4 0 3 0;
#X connect 6 0 5 0;
#X connect 7 0 6 0;
#X connect 8 0 4 0;
#X connect 9 0 1 0;
#X connect 10 0 8 0;
#X connect 11 0 7 0;
#X restore 640 150 pd globals;
#X floatatom 641 182 5 0 127 1 MASTER_VOLUME - TETRA_MASTER_VOLUME
;
#X floatatom 641 200 5 0 3 1 BANK_SELECT - TETRA_BANK_SELECT;
#X floatatom 641 218 5 0 127 1 PROGRAM_CHANGE - TETRA_PROGRAM_CHANGE
;
