#N canvas 349 99 964 485 10;
#X obj 83 61 s oscOne_freq;
#X obj 83 83 s oscOne_fineTune;
#X obj 83 105 s oscOne_shape;
#X obj 83 127 s oscOne_glide;
#X obj 83 149 s oscOne_keyboard;
#X obj 212 61 s oscTwo_freq;
#X obj 212 83 s oscTwo_fineTune;
#X obj 212 105 s oscTwo_shape;
#X obj 212 127 s oscTwo_glide;
#X obj 212 149 s oscTwo_keyboard;
#X text 83 41 OSCILLATOR 1;
#X text 212 41 OSCILLATOR 2;
#X text 343 41 BOTH OSCs;
#X obj 343 61 s osc_sync;
#X obj 343 83 s osc_glideMode;
#X obj 343 105 s osc_slop;
#X obj 343 127 s osc_mix;
#X obj 343 149 s osc_noise;
#X obj 530 60 s filter_cutoffFreq;
#X obj 530 81 s filter_resonance;
#X obj 530 101 s filter_keyAmmount;
#X obj 530 121 s filter_audioMod;
#X obj 530 140 s filter_pole;
#X obj 666 80 s filter_envVelocityAmmount;
#X obj 666 60 s filter_envAmmount;
#X obj 667 99 s filter_envDelay;
#X obj 667 119 s filter_envAttack;
#X obj 667 139 s filter_envDecay;
#X obj 667 159 s filter_envSustain;
#X obj 667 179 s filter_envRelease;
#X text 633 37 FILTER;
#X text 246 283 VCA;
#X obj 114 322 s vca_initLevel;
#X obj 111 341 s vca_outSpread;
#X obj 111 360 s vca_voiceVol;
#X obj 109 380 s vca_envAmmount;
#X obj 110 401 s vca_envVelocityAmmount;
#X obj 285 322 s vca_envDelay;
#X obj 284 341 s vca_envAttack;
#X obj 284 360 s vca_envDecay;
#X obj 282 380 s vca_envSustain;
#X obj 283 401 s vca_envRelease;
#X obj 479 323 s lfoOne_freq;
#X obj 479 342 s lfoOne_shape;
#X obj 479 361 s lfoOne_ammount;
#X obj 479 379 s lfoOne_dest;
#X obj 479 398 s lfoOne_keySync;
#X obj 598 323 s lfoTwo_freq;
#X obj 598 342 s lfoTwo_shape;
#X obj 598 361 s lfoTwo_ammount;
#X obj 598 379 s lfoTwo_dest;
#X obj 598 398 s lfoTwo_keySync;
#X obj 716 323 s lfoThree_freq;
#X obj 716 342 s lfoThree_shape;
#X obj 716 361 s lfoThree_ammount;
#X obj 716 379 s lfoThree_dest;
#X obj 716 398 s lfoThree_keySync;
#X obj 843 324 s lfoFour_freq;
#X obj 843 343 s lfoFour_shape;
#X obj 843 362 s lfoFour_ammount;
#X obj 843 380 s lfoFour_dest;
#X obj 843 399 s lfoFour_keySync;
#X floatatom 345 679 5 0 127 1 PROGRAM - programSel;
#X obj 344 661 hradio 14 1 0 4 bankSel empty BANK 60 7 0 12 -262144
-1 -1 1;
#N canvas 299 227 450 300 continuousFreq 0;
#X obj 117 45 inlet;
#X obj 144 88 i;
#X obj 117 112 -;
#X obj 117 137 * 100;
#X obj 117 157 moses 50;
#X obj 117 176 t f b;
#X obj 117 66 t f f;
#X msg 144 202 0;
#X obj 162 177 t f b;
#X msg 188 202 1;
#X obj 117 224 + 50;
#X obj 163 224 - 50;
#X obj 117 259 outlet;
#X obj 246 256 outlet;
#X obj 246 233 +;
#X connect 0 0 6 0;
#X connect 1 0 2 1;
#X connect 1 0 14 1;
#X connect 2 0 3 0;
#X connect 3 0 4 0;
#X connect 4 0 5 0;
#X connect 4 1 8 0;
#X connect 5 0 10 0;
#X connect 5 1 7 0;
#X connect 6 0 2 0;
#X connect 6 1 1 0;
#X connect 7 0 14 0;
#X connect 8 0 11 0;
#X connect 8 1 9 0;
#X connect 9 0 14 0;
#X connect 10 0 12 0;
#X connect 11 0 12 0;
#X connect 14 0 13 0;
#X restore 79 743 pd continuousFreq;
#X floatatom 79 764 5 0 0 0 - - -;
#X floatatom 178 764 5 0 0 0 - - -;
#X floatatom 79 724 5 0 0 0 - - -;
#X obj 482 518 s modOne_source;
#X obj 482 536 s modOne_amount;
#X obj 482 555 s modOne_dest;
#X obj 585 518 s modTwo_source;
#X obj 586 537 s modTwo_amount;
#X obj 586 555 s modTwo_dest;
#X obj 689 516 s modThree_source;
#X obj 690 536 s modThree_amount;
#X obj 690 554 s modThree_dest;
#X obj 807 515 s modFour_source;
#X obj 807 534 s modFour_amount;
#X obj 807 552 s modFour_dest;
#X obj 536 684 s feedbackGain;
#X obj 536 702 s feedbackVolume;
#X obj 536 721 s subOscOne_level;
#X obj 112 525 s env_dest;
#X obj 112 546 s env_ammount;
#X obj 111 566 s env_velocityAmmount;
#X obj 284 523 s env_delay;
#X obj 284 544 s env_attack;
#X obj 284 564 s env_decay;
#X obj 284 584 s env_sustain;
#X obj 284 604 s env_release;
#X obj 679 696 s masterVolume;
#X obj 681 717 s bankSel;
#X obj 680 740 s programSel;
#X floatatom 346 695 5 0 127 1 MASTER_VOLUME - masterVolume;
#X floatatom 346 710 5 0 127 1 FEEDBACK_GAIN - feedbackGain;
#X floatatom 346 727 5 0 127 1 FEEDBACK_VOLUME - feedbackVolume;
#X floatatom 347 746 5 0 127 1 SUB_OSC_1_VOL - subOscOne_level;
#X floatatom 348 762 5 0 127 1 SUB_OSC_2_VOL - subOscTwo_level;
#X obj 536 739 s subOscTwo_level;
#X connect 64 0 65 0;
#X connect 64 1 66 0;
#X connect 67 0 64 0;
