#N canvas 175 148 450 300 10;
#X obj 40 41 iemnet/udpreceive;
#X obj 39 68 unpackOSC;
#X msg 40 21 port 8000;
#X obj 112 123 unpack;
#X obj 112 143 s x;
#X obj 145 143 s y;
#X obj 173 123 unpack 0 0 0;
#X obj 207 143 s accy;
#X obj 173 143 s accx;
#X obj 242 143 s accz;
#X obj 112 103 route /3/xy /accxyz /1/fader5 /3/toggle1;
#X obj 340 143 s toggle;
#X obj 289 143 s fader;
#X connect 0 0 1 0;
#X connect 1 0 10 0;
#X connect 2 0 0 0;
#X connect 3 0 4 0;
#X connect 3 1 5 0;
#X connect 6 0 8 0;
#X connect 6 1 7 0;
#X connect 6 2 9 0;
#X connect 10 0 3 0;
#X connect 10 1 6 0;
#X connect 10 2 12 0;
#X connect 10 3 11 0;
