#N canvas 189 224 450 300 10;
#X obj 136 24 inlet;
#X obj 136 54 t b a;
#X obj 136 111 until;
#X obj 171 131 + 1;
#X msg 136 91 16;
#X obj 136 150 mod 16;
#X obj 136 231 pack;
#X obj 136 131 f 0;
#X obj 163 210 i;
#X obj 136 210 i;
#X obj 136 172 t f f;
#X obj 136 263 outlet;
#X obj 176 24 inlet;
#X obj 163 73 s \$1_SEQ_\$2_ARRAY;
#X obj 163 191 tabread \$1_SEQ_\$2_ARRAY;
#X connect 0 0 1 0;
#X connect 1 0 4 0;
#X connect 1 1 13 0;
#X connect 2 0 7 0;
#X connect 3 0 7 1;
#X connect 4 0 2 0;
#X connect 5 0 3 0;
#X connect 5 0 10 0;
#X connect 6 0 11 0;
#X connect 7 0 5 0;
#X connect 8 0 6 1;
#X connect 9 0 6 0;
#X connect 10 0 9 0;
#X connect 10 1 14 0;
#X connect 12 0 4 0;
#X connect 14 0 8 0;
