#N canvas 1 87 1022 511 10;
#X obj 375 70 midiout;
#X msg 375 40 240 \, 45 \, 93 \, 3 \, 65 \, 1 \, 2 \, 3 \, 4 \, 247
;
#X text 428 72 * = SysEx;
#X obj -46 247 TETRA_globals;
#X floatatom -46 144 5 0 127 1 MASTER_VOLUME - TETRA_MASTER_VOLUME
;
#X floatatom -46 181 5 0 3 1 BANK_SELECT - TETRA_BANK_SELECT;
#X floatatom -46 199 5 0 127 1 PROGRAM_CHANGE - TETRA_PROGRAM_CHANGE
;
#X floatatom 104 144 5 0 24 1 MASTER_TRANSPOSE - TETRA_MASTER_TRANSPOSE
;
#X floatatom 104 162 5 0 100 1 MASTER_FINE_TUNE - TETRA_MASTER_FINE_TUNE
;
#X floatatom 104 180 5 0 3 1 AUDIO_OUT - TETRA_AUDIO_OUT;
#X floatatom 264 161 5 0 16 1 MIDI_CHANNEL - TETRA_MIDI_CHANNEL;
#X floatatom 264 179 5 0 100 1 MULTI_MODE - TETRA_MULTI_MODE;
#X floatatom 264 197 5 0 2 1 POT_MODE - TETRA_POT_MODE;
#X floatatom 414 144 5 0 1 1 SELECT_LAYER_AB - TETRA_SELECT_LAYER_AB
;
#X floatatom 414 162 5 0 1 1 PROGRAM_COMBO - TETRA_PROGRAM_COMBO;
#X floatatom 414 180 5 0 4 1 SELECT_VOICE - TETRA_SELECT_VOICE;
#X floatatom 568 162 5 0 127 1 SPLIT_POINT - TETRA_SPLIT_POINT;
#X floatatom 568 144 5 0 2 1 SPLIT_MODE - TETRA_SPLIT_MODE;
#X floatatom -46 162 5 0 13 1 BALANCE_TWEAK - TETRA_BALANCE_TWEAK;
#X floatatom 568 179 5 0 2 1 KEYBOARD_MODE - TETRA_KEYBOARD_MODE;
#X obj 60 35 TETRA_voice B;
#X obj -47 87 TETRA_voice Q;
#X obj -47 70 TETRA_voice V4;
#X obj -47 36 TETRA_voice V2;
#X obj 60 18 TETRA_voice A;
#X obj -47 19 TETRA_voice V1;
#X obj -47 53 TETRA_voice V3;
#X obj 727 117 noteout;
#X obj 730 84 makenote;
#X msg 727 55 60 127 1000;
#X obj 264 140 hradio 15 1 0 4 TETRA_MIDI_CLOCK_SOURCE empty MIDI_CLOCK_SOURCE
0 -8 0 10 -262144 -1 -1 3;
#X connect 1 0 0 0;
#X connect 28 0 27 0;
#X connect 28 1 27 1;
#X connect 29 0 28 0;
