#N canvas 1 87 1022 511 10;
#X obj 28 361 cnv 15 350 130 empty empty empty 20 12 0 14 -261633 -66577
0;
#X obj 45 364 tgl 15 0 TETRA_\$1_\$2_UNISON_ON_OFF empty \$1_\$2_UNISON_ON_OFF
17 7 0 10 -262144 -1 -1 0 1;
#X obj 57 399 hradio 15 1 0 5 TETRA_\$1_\$2_UNISON_MODE empty \$1_\$2_UNISON_MODE
0 -8 0 10 -262144 -1 -1 0;
#X text 56 415 0 1 voice \; 1 all voices \; 2 all voices detune1 \;
3 all voices detune2 \; 4 all voices detune3;
#X obj 220 402 hradio 15 1 0 6 TETRA_\$1_\$2_UNISON_ASSIGN empty \$1_\$2_UNISON_ASSIGN
0 -8 0 10 -262144 -1 -1 0;
#X obj 208 2 cnv 15 170 220 empty empty empty 20 12 0 14 -261633 -66577
0;
#X floatatom 214 8 5 0 120 1 #1_#2_OSC_2_FREQ - TETRA_#1_#2_OSC_2_FREQ
;
#X floatatom 214 66 5 0 100 1 #1_#2_OSC_2_FREQ_FINE - TETRA_#1_#2_OSC_2_FREQ_FINE
;
#X floatatom 218 131 5 0 103 1 #1_#2_OSC_2_SHAPE - TETRA_#1_#2_OSC_2_SHAPE
;
#X floatatom 218 184 5 0 127 1 #1_#2_GLIDE_2 - TETRA_#1_#2_GLIDE_2
;
#X obj 28 2 cnv 15 170 220 empty empty empty 20 12 0 14 -261633 -66577
0;
#X floatatom 38 8 5 0 120 1 #1_#2_OSC_1_FREQ - TETRA_#1_#2_OSC_1_FREQ
;
#X floatatom 38 66 5 0 100 1 #1_OSC_1_#2_FREQ_FINE - TETRA_#1_#2_OSC_1_FREQ_FINE
;
#X floatatom 38 131 5 0 103 1 #1_#2_OSC_1_SHAPE - TETRA_#1_#2_OSC_1_SHAPE
;
#X floatatom 38 184 5 0 127 1 #1_#2_GLIDE_1 - TETRA_#1_#2_GLIDE_1;
#X floatatom 160 101 5 0 99 0 - - -;
#X obj 160 116 + 4;
#X text 98 83 0 off \; 1 saw \; 2 tri \; 3 saw/tri;
#X text 221 420 0 low note \; 1 low retrig \; 2 high note \; 3 high
retrig \; 4 last note \; 5 last retrig;
#X obj 218 97 hradio 15 1 0 4 empty empty empty 0 -8 0 10 -262144 -1
-1 0;
#X floatatom 340 101 5 0 99 0 - - -;
#X obj 340 116 + 4;
#X text 278 83 0 off \; 1 saw \; 2 tri \; 3 saw/tri;
#X msg 160 83 50;
#X msg 340 83 50;
#X obj 218 202 tgl 15 0 TETRA_\$1_\$2_OSC_2_KEY empty \$1_\$2_OSC_2_KEY
17 7 0 10 -262144 -1 -1 0 1;
#X obj 39 203 tgl 15 0 TETRA_\$1_\$2_OSC_1_KEY empty \$1_\$2_OSC_1_KEY
17 7 0 10 -262144 -1 -1 0 1;
#X obj 42 162 hsl 128 15 0 127 0 0 TETRA_\$1_\$2_SUB_OSC_1_VOL empty
\$1_\$2_SUB_OSC_1_VOL -2 -8 0 10 -262144 -1 -1 0 1;
#X obj 221 162 hsl 128 15 0 127 0 0 TETRA_\$1_\$2_SUB_OSC_2_VOL empty
\$1_\$2_SUB_OSC_2_VOL -2 -8 0 10 -262144 -1 -1 0 1;
#X obj 38 97 hradio 15 1 0 4 empty empty empty 0 -8 0 10 -262144 -1
-1 0;
#X obj 28 232 cnv 15 350 120 empty empty empty 20 12 0 14 -261633 -66577
0;
#X floatatom 40 296 5 0 5 1 #1_#2_OSC_SLOP - TETRA_#1_#2_OSC_SLOP;
#X floatatom 145 293 5 0 127 1 #1_#2_FEEDBACK_GAIN - TETRA_#1_#2_FEEDBACK_GAIN
;
#X floatatom 145 312 5 0 127 1 #1_#2_FEEDBACK_VOL - TETRA_#1_#2_FEEDBACK_VOL
;
#X obj 294 267 hradio 15 1 0 4 TETRA_\$1_\$2_GLIDE_MODE empty \$1_\$2_GLIDE_MODE
0 -8 0 10 -262144 -1 -1 0;
#X obj 54 266 tgl 15 0 TETRA_\$1_\$2_SYNC empty \$1_\$2_SYNC 17 7 0
10 -262144 -1 -1 0 1;
#X text 290 282 0 rate \; 1 rate auto \; 2 time \; 3 time auto;
#X obj 142 269 hsl 128 15 0 127 0 0 TETRA_\$1_\$2_OSC_MIX empty \$1_\$2_OSC_MIX
-2 -8 0 10 -262144 -1 -1 0 1;
#X msg 205 254 64;
#X obj 38 332 hsl 128 15 0 127 0 0 TETRA_\$1_\$2_NOISE_LEVEL empty
\$1_\$2_NOISE_LEVEL -2 -8 0 10 -262144 -1 -1 0 1;
#X obj 388 271 cnv 15 320 220 empty empty empty 20 12 0 14 -172851
-66577 0;
#X floatatom 407 458 5 0 127 1 #1_#2_FIL_KEY_AMT - TETRA_#1_#2_FIL_KEY_AMT
;
#X floatatom 407 441 5 0 127 1 #1_#2_FIL_AUDIO_MOD - TETRA_#1_#2_FIL_AUDIO_MOD
;
#X floatatom 562 313 5 0 254 1 #1_#2_FILTER_ENV_AMT - TETRA_#1_#2_FILTER_ENV_AMT
;
#X floatatom 562 330 5 0 127 1 #1_#2_FIL_ENV_VEL_AMT - TETRA_#1_#2_FIL_ENV_VEL_AMT
;
#X obj 402 352 hsl 165 15 0 164 0 0 TETRA_\$1_\$2_FILTER_FREQ empty
\$1_\$2_FILTER_FREQ -2 -8 0 10 -262144 -1 -1 0 1;
#X obj 402 389 hsl 128 15 0 127 0 0 TETRA_\$1_\$2_RESONANCE empty \$1_\$2_RESONANCE
-2 -8 0 10 -262144 -1 -1 0 1;
#X obj 422 299 hradio 15 1 0 2 TETRA_\$1_\$2_FILTER_POLES empty \$1_\$2_FILTER_POLES
0 -8 0 10 -262144 -1 -1 0;
#X text 459 297 0 two \; 1 four;
#X floatatom 563 397 5 0 127 1 #1_#2_FIL_DEL - TETRA_#1_#2_FIL_DEL
;
#X floatatom 563 415 5 0 127 1 #1_#2_FIL_ATT - TETRA_#1_#2_FIL_ATT
;
#X floatatom 563 433 5 0 127 1 #1_#2_FIL_DEC - TETRA_#1_#2_FIL_DEC
;
#X floatatom 563 451 5 0 127 1 #1_#2_FIL_SUS - TETRA_#1_#2_FIL_SUS
;
#X floatatom 563 469 5 0 127 1 #1_#2_FIL_REL - TETRA_#1_#2_FIL_REL
;
#X obj 388 42 cnv 15 320 220 empty empty empty 20 12 0 14 -100878 -66577
0;
#X floatatom 562 73 5 0 127 1 #1_#2_VCA_ENV_AMOUNT - TETRA_#1_#2_VCA_ENV_AMOUNT
;
#X floatatom 562 91 5 0 127 1 #1_#2_VCA_ENV_VEL_AMT - TETRA_#1_#2_VCA_ENV_VEL_AMT
;
#X floatatom 562 151 5 0 127 1 #1_#2_VCA_DEL - TETRA_#1_#2_VCA_DEL
;
#X floatatom 562 169 5 0 127 1 #1_#2_VCA_ATT - TETRA_#1_#2_VCA_ATT
;
#X floatatom 562 187 5 0 127 1 #1_#2_VCA_DEC - TETRA_#1_#2_VCA_DEC
;
#X floatatom 562 205 5 0 127 1 #1_#2_VCA_SUS - TETRA_#1_#2_VCA_SUS
;
#X floatatom 562 223 5 0 127 1 #1_#2_VCA_REL - TETRA_#1_#2_VCA_REL
;
#X obj 412 68 vsl 15 128 0 127 0 0 TETRA_\$1_\$2_VCA_LEVEL empty \$1_\$2_VCA_LEVEL
0 -9 0 10 -262144 -1 -1 0 1;
#X obj 408 238 hsl 128 15 0 127 0 0 TETRA_\$1_\$2_OUTPUT_PAN empty
\$1_\$2_OUTPUT_PAN -2 -8 0 10 -262144 -1 -1 0 1;
#X msg 471 223 64;
#X obj 486 68 vsl 15 128 0 127 0 0 TETRA_\$1_\$2_PRESET_VOLUME empty
\$1_\$2_PRESET_VOLUME 0 -9 0 10 -262144 -1 -1 0 1;
#X obj 30 500 cnv 15 230 160 empty empty empty 20 12 0 14 -221265 -66577
0;
#X obj 270 500 cnv 15 230 160 empty empty empty 20 12 0 14 -221265
-66577 0;
#X obj 510 500 cnv 15 230 160 empty empty empty 20 12 0 14 -221265
-66577 0;
#X obj 750 500 cnv 15 230 160 empty empty empty 20 12 0 14 -221265
-66577 0;
#X floatatom 41 506 5 0 166 1 #1_#2_LFO_1_FREQ - TETRA_#1_#2_LFO_1_FREQ
;
#X floatatom 41 616 5 0 48 1 #1_#2_LFO_1_DEST - TETRA_#1_#2_LFO_1_DEST
;
#X floatatom 281 506 5 0 166 1 #1_#2_LFO_2_FREQ - TETRA_#1_#2_LFO_2_FREQ
;
#X floatatom 281 616 5 0 48 1 #1_#2_LFO_2_DEST - TETRA_#1_#2_LFO_2_DEST
;
#X floatatom 522 506 5 0 166 1 #1_#2_LFO_3_FREQ - TETRA_#1_#2_LFO_3_FREQ
;
#X floatatom 521 616 5 0 48 1 #1_#2_LFO_3_DEST - TETRA_#1_#2_LFO_3_DEST
;
#X floatatom 759 506 5 0 166 1 #1_#2_LFO_4_FREQ - TETRA_#1_#2_LFO_4_FREQ
;
#X floatatom 761 616 5 0 48 1 #1_#2_LFO_4_DEST - TETRA_#1_#2_LFO_4_DEST
;
#X symbolatom 49 600 20 0 0 0 - - -;
#X symbolatom 289 600 20 0 0 0 - - -;
#X symbolatom 529 600 20 0 0 0 - - -;
#X symbolatom 769 600 20 0 0 0 - - -;
#X obj 41 639 tgl 15 0 TETRA_\$1_\$2_LFO_1_SYNC empty \$1_\$2_LFO_1_SYNC
17 7 0 10 -262144 -1 -1 0 1;
#X obj 281 639 tgl 15 0 TETRA_\$1_\$2_LFO_2_SYNC empty \$1_\$2_LFO_2_SYNC
17 7 0 10 -262144 -1 -1 0 1;
#X obj 521 639 tgl 15 0 TETRA_\$1_\$2_LFO_3_SYNC empty \$1_\$2_LFO_3_SYNC
17 7 0 10 -262144 -1 -1 0 1;
#X obj 761 639 tgl 15 0 TETRA_\$1_\$2_LFO_4_SYNC empty \$1_\$2_LFO_4_SYNC
17 7 0 10 -262144 -1 -1 0 1;
#X obj 40 542 hradio 15 1 0 5 TETRA_\$1_\$2_LFO_1_SHAPE empty \$1_\$2_LFO_1_SHAPE
0 -8 0 10 -262144 -1 -1 0;
#X text 124 523 0 tri \; 1 rev saw \; 2 saw \; 3 square \; 4 random
;
#X obj 280 542 hradio 15 1 0 5 TETRA_\$1_\$2_LFO_2_SHAPE empty \$1_\$2_LFO_2_SHAPE
0 -8 0 10 -262144 -1 -1 0;
#X text 364 523 0 tri \; 1 rev saw \; 2 saw \; 3 square \; 4 random
;
#X obj 520 542 hradio 15 1 0 5 TETRA_\$1_\$2_LFO_3_SHAPE empty \$1_\$2_LFO_3_SHAPE
0 -8 0 10 -262144 -1 -1 0;
#X text 604 523 0 tri \; 1 rev saw \; 2 saw \; 3 square \; 4 random
;
#X obj 760 542 hradio 15 1 0 5 TETRA_\$1_\$2_LFO_4_SHAPE empty \$1_\$2_LFO_4_SHAPE
0 -8 0 10 -262144 -1 -1 0;
#X text 844 523 0 tri \; 1 rev saw \; 2 saw \; 3 square \; 4 random
;
#X obj 190 520 vsl 15 128 0 127 0 0 TETRA_\$1_\$2_LFO_1_AMT empty \$1_\$2_LFO_1_AMT
0 -9 0 10 -262144 -1 -1 0 1;
#X obj 430 520 vsl 15 128 0 127 0 0 TETRA_\$1_\$2_LFO_2_AMT empty \$1_\$2_LFO_2_AMT
0 -9 0 10 -262144 -1 -1 0 1;
#X obj 670 520 vsl 15 128 0 127 0 0 TETRA_\$1_\$2_LFO_3_AMT empty \$1_\$2_LFO_3_AMT
0 -9 0 10 -262144 -1 -1 0 1;
#X obj 910 520 vsl 15 128 0 127 0 0 TETRA_\$1_\$2_LFO_4_AMT empty \$1_\$2_LFO_4_AMT
0 -9 0 10 -262144 -1 -1 0 1;
#X obj 719 341 cnv 15 260 150 empty empty empty 20 12 0 14 -221289
-66577 0;
#X floatatom 728 385 5 0 48 1 #1_#2_ENV3_DEST - TETRA_#1_#2_ENV3_DEST
;
#X floatatom 728 448 5 0 254 1 #1_#2_ENV3_AMT - TETRA_#1_#2_ENV3_AMT
;
#X floatatom 728 466 5 0 127 1 #1_#2_ENV3_VEL_AMT - TETRA_#1_#2_ENV3_VEL_AMT
;
#X floatatom 858 396 5 0 127 1 #1_#2_ENV3_DEL - TETRA_#1_#2_ENV3_DEL
;
#X floatatom 858 414 5 0 127 1 #1_#2_ENV3_ATT - TETRA_#1_#2_ENV3_ATT
;
#X floatatom 858 432 5 0 127 1 #1_#2_ENV3_DEC - TETRA_#1_#2_ENV3_DEC
;
#X floatatom 858 450 5 0 127 1 #1_#2_ENV3_SUS - TETRA_#1_#2_ENV3_SUS
;
#X floatatom 858 468 5 0 127 1 #1_#2_ENV3_REL - TETRA_#1_#2_ENV3_REL
;
#X symbolatom 736 369 20 0 0 0 - - -;
#X obj 867 353 tgl 15 0 TETRA_\$1_\$2_ENV3_REPEAT empty \$1_\$2_ENV3_REPEAT
17 7 0 10 -262144 -1 -1 0 1;
#X obj 30 670 cnv 15 230 160 empty empty empty 20 12 0 14 -198882 -66577
0;
#X obj 270 670 cnv 15 230 160 empty empty empty 20 12 0 14 -198882
-66577 0;
#X obj 510 670 cnv 15 230 160 empty empty empty 20 12 0 14 -198882
-66577 0;
#X obj 750 670 cnv 15 230 160 empty empty empty 20 12 0 14 -198882
-66577 0;
#X floatatom 41 710 5 0 20 1 #1_#2_MOD_SOURCE_1 - TETRA_#1_#2_MOD_SOURCE_1
;
#X floatatom 41 796 5 0 48 1 #1_#2_MOD_DEST_1 - TETRA_#1_#2_MOD_DEST_1
;
#X floatatom 281 710 5 0 20 1 #1_#2_MOD_SOURCE_2 - TETRA_#1_#2_MOD_SOURCE_2
;
#X floatatom 281 796 5 0 48 1 #1_#2_MOD_DEST_2 - TETRA_#1_#2_MOD_DEST_2
;
#X floatatom 521 710 5 0 20 1 #1_#2_MOD_SOURCE_3 - TETRA_#1_#2_MOD_SOURCE_3
;
#X floatatom 521 796 5 0 48 1 #1_#2_MOD_DEST_3 - TETRA_#1_#2_MOD_DEST_3
;
#X floatatom 761 710 5 0 20 1 #1_#2_MOD_SOURCE_4 - TETRA_#1_#2_MOD_SOURCE_4
;
#X floatatom 761 796 5 0 48 1 #1_#2_MOD_DEST_4 - TETRA_#1_#2_MOD_DEST_4
;
#X symbolatom 49 781 20 0 0 0 - - -;
#X symbolatom 289 781 20 0 0 0 - - -;
#X symbolatom 529 781 20 0 0 0 - - -;
#X symbolatom 769 781 20 0 0 0 - - -;
#X symbolatom 49 695 20 0 0 0 - - -;
#X symbolatom 289 695 20 0 0 0 - - -;
#X symbolatom 529 695 20 0 0 0 - - -;
#X symbolatom 769 695 20 0 0 0 - - -;
#X obj 190 690 vsl 15 128 0 254 0 0 TETRA_\$1_\$2_MOD_AMT_1 empty \$1_\$2_MOD_AMT_1
0 -9 0 10 -262144 -1 -1 0 1;
#X msg 163 738 127;
#X obj 430 690 vsl 15 128 0 254 0 0 TETRA_\$1_\$2_MOD_AMT_2 empty \$1_\$2_MOD_AMT_2
0 -9 0 10 -262144 -1 -1 0 1;
#X msg 403 738 127;
#X obj 670 690 vsl 15 128 0 254 0 0 TETRA_\$1_\$2_MOD_AMT_3 empty \$1_\$2_MOD_AMT_3
0 -9 0 10 -262144 -1 -1 0 1;
#X msg 643 738 127;
#X obj 910 690 vsl 15 128 0 254 0 0 TETRA_\$1_\$2_MOD_AMT_4 empty \$1_\$2_MOD_AMT_4
0 -9 0 10 -262144 -1 -1 0 1;
#X msg 883 738 127;
#X obj 480 841 cnv 15 500 290 empty empty empty 20 12 0 14 -67108 -66577
0;
#X floatatom 818 894 5 0 48 1 #1_#2_MOD_WHEEL_DEST - TETRA_#1_#2_MOD_WHEEL_DEST
;
#X floatatom 658 893 5 0 48 1 #1_#2_PRESSURE_DEST - TETRA_#1_#2_PRESSURE_DEST
;
#X floatatom 658 1014 5 0 48 1 #1_#2_BREATH_DEST - TETRA_#1_#2_BREATH_DEST
;
#X floatatom 498 893 5 0 48 1 #1_#2_VELOCITY_DEST - TETRA_#1_#2_VELOCITY_DEST
;
#X floatatom 498 1014 5 0 48 1 #1_#2_FOOT_DEST - TETRA_#1_#2_FOOT_DEST
;
#X floatatom 827 977 5 0 12 1 #1_#2_PBEND_RANGE - TETRA_#1_#2_PBEND_RANGE
;
#X floatatom 827 1047 5 0 127 1 #1_#2_PUSH_IT_NOTE - TETRA_#1_#2_PUSH_IT_NOTE
;
#X floatatom 827 1065 5 0 127 1 #1_#2_PUSH_IT_VELOCITY - TETRA_#1_#2_PUSH_IT_VELOCITY
;
#X text 863 1018 0 normal \; 1 toggle;
#X obj 827 1022 hradio 15 1 0 2 TETRA_\$1_\$2_PUSH_IT_MODE empty \$1_\$2_PUSH_IT_MODE
0 -8 0 10 -262144 -1 -1 0;
#X symbolatom 826 877 20 0 0 0 - - -;
#X symbolatom 666 997 20 0 0 0 - - -;
#X symbolatom 506 997 20 0 0 0 - - -;
#X symbolatom 666 877 20 0 0 0 - - -;
#X symbolatom 506 877 20 0 0 0 - - -;
#X obj 822 941 hsl 128 15 0 254 0 0 TETRA_\$1_\$2_MOD_WHEEL_AMT empty
\$1_\$2_MOD_WHEEL_AMT -2 -8 0 10 -262144 -1 -1 0 1;
#X msg 885 926 127;
#X obj 661 1071 hsl 128 15 0 254 0 0 TETRA_\$1_\$2_BREATH_AMT empty
\$1_\$2_BREATH_AMT -2 -8 0 10 -262144 -1 -1 0 1;
#X msg 724 1056 127;
#X obj 501 1071 hsl 128 15 0 254 0 0 TETRA_\$1_\$2_FOOT_AMT empty \$1_\$2_FOOT_AMT
-2 -8 0 10 -262144 -1 -1 0 1;
#X msg 564 1056 127;
#X obj 662 941 hsl 128 15 0 254 0 0 TETRA_\$1_\$2_PRESSURE_AMT empty
\$1_\$2_PRESSURE_AMT -2 -8 0 10 -262144 -1 -1 0 1;
#X msg 725 926 127;
#X obj 501 941 hsl 128 15 0 254 0 0 TETRA_\$1_\$2_VELOCITY_AMT empty
\$1_\$2_VELOCITY_AMT -2 -8 0 10 -262144 -1 -1 0 1;
#X msg 564 926 127;
#X obj 30 841 cnv 15 440 290 empty empty empty 20 12 0 14 -260097 -66577
0;
#X floatatom 50 1008 5 0 14 1 #1_#2_ARP_MODE - TETRA_#1_#2_ARP_MODE
;
#X floatatom 48 886 5 30 250 1 #1_#2_TEMPO - TETRA_#1_#2_TEMPO;
#X floatatom 138 892 5 0 12 1 #1_#2_TIME_SIG - TETRA_#1_#2_TIME_SIG
;
#X floatatom 322 1067 5 0 48 1 #1_#2_SEQ_4_DEST - TETRA_#1_#2_SEQ_4_DEST
;
#X floatatom 322 1007 5 0 48 1 #1_#2_SEQ_3_DEST - TETRA_#1_#2_SEQ_3_DEST
;
#X floatatom 322 947 5 0 48 1 #1_#2_SEQ_2_DEST - TETRA_#1_#2_SEQ_2_DEST
;
#X floatatom 322 887 5 0 48 1 #1_#2_SEQ_1_DEST - TETRA_#1_#2_SEQ_1_DEST
;
#X obj 48 946 tgl 15 0 TETRA_\$1_\$2_ARP_ON_OFF empty \$1_\$2_ARP_ON_OFF
17 7 0 10 -262144 -1 -1 0 1;
#X obj 178 946 tgl 15 0 TETRA_\$1_\$2_SEQ_ON_OFF empty \$1_\$2_SEQ_ON_OFF
17 7 0 10 -262144 -1 -1 0 1;
#X obj 178 985 hradio 15 1 0 5 TETRA_\$1_\$2_SEQ_TRIGGER empty \$1_\$2_SEQ_TRIGGER
0 -8 0 10 -262144 -1 -1 0;
#X symbolatom 330 872 20 0 0 0 - - -;
#X symbolatom 330 932 20 0 0 0 - - -;
#X symbolatom 330 992 20 0 0 0 - - -;
#X symbolatom 330 1052 20 0 0 0 - - -;
#X symbolatom 146 876 20 0 0 0 - - -;
#X text 174 1002 0 normal \; 1 normal no reset \; 2 no gate \; 3 no
gate no reset \; 4 key step;
#X symbolatom 58 990 14 0 0 0 - - -;
#X text 485 1462 ------;
#X obj 30 1141 cnv 15 470 170 empty empty empty 20 12 0 14 -3264 -66577
0;
#N canvas 1 87 450 300 (subpatch) 0;
#X array \$1_\$2_SEQ_1_ARRAY 16 float 2;
#X coords 0 125 16 0 200 140 1 0 0;
#X restore 41 1159 graph;
#X obj 30 1321 cnv 15 470 170 empty empty empty 20 12 0 14 -3264 -66577
0;
#X obj 510 1321 cnv 15 470 170 empty empty empty 20 12 0 14 -3264 -66577
0;
#X obj 510 1141 cnv 15 470 170 empty empty empty 20 12 0 14 -3264 -66577
0;
#N canvas 0 0 450 300 (subpatch) 0;
#X array \$1_\$2_SEQ_2_ARRAY 16 float 2;
#X coords 0 125 16 0 200 140 1 0 0;
#X restore 41 1339 graph;
#N canvas 0 0 450 300 (subpatch) 0;
#X array \$1_\$2_SEQ_3_ARRAY 16 float 2;
#X coords 0 125 16 0 200 140 1 0 0;
#X restore 521 1159 graph;
#N canvas 0 0 450 300 (subpatch) 0;
#X array \$1_\$2_SEQ_4_ARRAY 16 float 2;
#X coords 0 125 16 0 200 140 1 0 0;
#X restore 521 1339 graph;
#X msg 250 1189 0 0 1 2 3 4 5 6 7 8 9 10 11 12 13 14 15;
#X obj 250 1282 s TETRA_\$1_\$2_SEQ_1;
#X obj 367 1241 bng 15 250 50 0 empty empty empty 17 7 0 10 -262144
-1 -1;
#X text 421 1234 0-125 pitch \; 126 reset \; 127 rest;
#X msg 252 1369 0 0 1 2 3 4 5 6 7 8 9 10 11 12 13 14 15;
#X obj 369 1421 bng 15 250 50 0 empty empty empty 17 7 0 10 -262144
-1 -1;
#X text 423 1414 0-125 pitch \; 126 reset;
#X msg 732 1189 0 0 1 2 3 4 5 6 7 8 9 10 11 12 13 14 15;
#X obj 849 1241 bng 15 250 50 0 empty empty empty 17 7 0 10 -262144
-1 -1;
#X text 903 1234 0-125 pitch \; 126 reset;
#X msg 732 1369 0 0 1 2 3 4 5 6 7 8 9 10 11 12 13 14 15;
#X obj 849 1421 bng 15 250 50 0 empty empty empty 17 7 0 10 -262144
-1 -1;
#X text 903 1414 0-125 pitch \; 126 reset;
#X obj 252 1462 s TETRA_\$1_\$2_SEQ_2;
#X obj 732 1282 s TETRA_\$1_\$2_SEQ_3;
#X obj 732 1462 s TETRA_\$1_\$2_SEQ_4;
#X msg 274 1229 8 126;
#X msg 263 1209 4 126;
#X msg 745 1389 4 126;
#X msg 756 1229 8 126;
#X msg 756 1409 8 126;
#X msg 265 1389 4 126;
#X msg 276 1409 8 126;
#X msg 745 1209 6 126;
#X msg 38 48 50;
#X msg 214 48 50;
#X msg 562 295 127;
#X msg 728 430 127;
#X obj 718 51 bng 15 250 50 0 empty empty empty 17 7 0 10 -262144 -1
-1;
#X msg 250 1164 0 0 0 0 0 0 0 0 0 0 0 0 0 0 0 0 0;
#X msg 732 1164 0 0 0 0 0 0 0 0 0 0 0 0 0 0 0 0 0;
#X msg 252 1347 0 0 0 0 0 0 0 0 0 0 0 0 0 0 0 0 0;
#X msg 732 1347 0 0 0 0 0 0 0 0 0 0 0 0 0 0 0 0 0;
#X obj 38 30 r zero_init_\$1;
#X obj 214 30 r zero_init_\$1;
#X obj 205 235 r zero_init_\$1;
#X obj 471 204 r zero_init_\$1;
#X obj 562 276 r zero_init_\$1;
#X obj 728 411 r zero_init_\$1;
#X obj 91 738 r zero_init_\$1;
#X obj 331 738 r zero_init_\$1;
#X obj 571 738 r zero_init_\$1;
#X obj 811 738 r zero_init_\$1;
#X obj 48 852 r zero_init_\$1;
#X msg 48 869 120;
#X obj 885 908 r zero_init_\$1;
#X obj 725 908 r zero_init_\$1;
#X obj 564 908 r zero_init_\$1;
#X obj 724 1038 r zero_init_\$1;
#X obj 564 1038 r zero_init_\$1;
#X obj 250 1145 r zero_init_\$1;
#X obj 732 1327 r zero_init_\$1;
#X obj 732 1145 r zero_init_\$1;
#X obj 252 1328 r zero_init_\$1;
#N canvas 328 103 448 338 init_to_zero 0;
#X obj 54 22 inlet;
#X obj 54 42 symbol \$1 \$2;
#X msg 54 61 \; TETRA_\$1_\$2_OSC_1_FREQ 0 \; TETRA_\$1_\$2_OSC_1_FREQ_FINE
50 \; TETRA_\$1_\$2_OSC_1_SHAPE 0 \; TETRA_\$1_\$2_SUB_OSC_1_VOL 0
\; TETRA_\$1_\$2_GLIDE_1 0 \; TETRA_\$1_\$2_OSC_1_KEY 0 \; \; TETRA_\$1_\$2_OSC_2_FREQ
0 \; TETRA_\$1_\$2_OSC_2_FREQ_FINE 50 \; TETRA_\$1_\$2_OSC_2_SHAPE
0 \; TETRA_\$1_\$2_SUB_OSC_2_VOL 0 \; TETRA_\$1_\$2_GLIDE_2 0 \; TETRA_\$1_\$2_OSC_2_KEY
0 \; \; TETRA_\$1_\$2_SYNC 0 \; TETRA_\$1_\$2_OSC_MIX 64 \; TETRA_\$1_\$2_GLIDE_MODE
0 \; TETRA_\$1_\$2_OSC_SLOP 0 \; TETRA_\$1_\$2_FEEDBACK_GAIN 0 \; TETRA_\$1_\$2_FEEDBACK_VOL
0 \; TETRA_\$1_\$2_NOISE_LEVEL 0 \; TETRA_\$1_\$2_UNISON_ON_OFF 0 \;
TETRA_\$1_\$2_UNISON_MODE 0 \; TETRA_\$1_\$2_UNISON_ASSIGN 0 \; \;
TETRA_\$1_\$2_VCA_LEVEL 0 \; TETRA_\$1_\$2_PRESET_VOLUME 0 \; TETRA_\$1_\$2_OUTPUT_PAN
64 \; TETRA_\$1_\$2_VCA_ENV_AMOUNT 0 \; TETRA_\$1_\$2_VCA_ENV_VEL_AMT
0 \; TETRA_\$1_\$2_VCA_DEL 0 \; TETRA_\$1_\$2_VCA_ATT 0 \; TETRA_\$1_\$2_VCA_DEC
0 \; TETRA_\$1_\$2_VCA_SUS 0 \; TETRA_\$1_\$2_VCA_REL 0 \; \; TETRA_\$1_\$2_FILTER_POLES
0 \; TETRA_\$1_\$2_FILTER_FREQ 0 \; TETRA_\$1_\$2_RESONANCE 0 \; TETRA_\$1_\$2_FIL_AUDIO_MOD
0 \; TETRA_\$1_\$2_FIL_KEY_AMT 0 \; TETRA_\$1_\$2_FILTER_ENV_AMT 127
\; TETRA_\$1_\$2_FIL_ENV_VEL_AMT 0 \; TETRA_\$1_\$2_FIL_DEL 0 \; TETRA_\$1_\$2_FIL_ATT
0 \; TETRA_\$1_\$2_FIL_DEC 0 \; TETRA_\$1_\$2_FIL_SUS 0 \; TETRA_\$1_\$2_FIL_REL
0 \; \; TETRA_\$1_\$2_ENV3_DEST 0 \; TETRA_\$1_\$2_ENV3_REPEAT 0 \;
TETRA_\$1_\$2_ENV3_AMT 127 \; TETRA_\$1_\$2_ENV3_VEL_AMT 0 \; TETRA_\$1_\$2_ENV3_DEL
0 \; TETRA_\$1_\$2_ENV3_ATT 0 \; TETRA_\$1_\$2_ENV3_DEC 0 \; TETRA_\$1_\$2_ENV3_SUS
0 \; TETRA_\$1_\$2_ENV3_REL 0 \; \; TETRA_\$1_\$2_LFO_1_FREQ 0 \; TETRA_\$1_\$2_LFO_1_SHAPE
0 \; TETRA_\$1_\$2_LFO_1_DEST 0 \; TETRA_\$1_\$2_LFO_1_SYNC 0 \; TETRA_\$1_\$2_LFO_1_AMT
0 \; \; TETRA_\$1_\$2_LFO_2_FREQ 0 \; TETRA_\$1_\$2_LFO_2_SHAPE 0 \;
TETRA_\$1_\$2_LFO_2_DEST 0 \; TETRA_\$1_\$2_LFO_2_SYNC 0 \; TETRA_\$1_\$2_LFO_2_AMT
0 \; \; TETRA_\$1_\$2_LFO_3_FREQ 0 \; TETRA_\$1_\$2_LFO_3_SHAPE 0 \;
TETRA_\$1_\$2_LFO_3_DEST 0 \; TETRA_\$1_\$2_LFO_3_SYNC 0 \; TETRA_\$1_\$2_LFO_3_AMT
0 \; \; TETRA_\$1_\$2_LFO_4_FREQ 0 \; TETRA_\$1_\$2_LFO_4_SHAPE 0 \;
TETRA_\$1_\$2_LFO_4_DEST 0 \; TETRA_\$1_\$2_LFO_4_SYNC 0 \; TETRA_\$1_\$2_LFO_4_AMT
0 \; \; TETRA_\$1_\$2_MOD_SOURCE_1 0 \; TETRA_\$1_\$2_MOD_DEST_1 0
\; TETRA_\$1_\$2_MOD_AMT_1 127 \; \; TETRA_\$1_\$2_MOD_SOURCE_2 0 \;
TETRA_\$1_\$2_MOD_DEST_2 0 \; TETRA_\$1_\$2_MOD_AMT_2 127 \; \; TETRA_\$1_\$2_MOD_SOURCE_3
0 \; TETRA_\$1_\$2_MOD_DEST_3 0 \; TETRA_\$1_\$2_MOD_AMT_3 127 \; \;
TETRA_\$1_\$2_MOD_SOURCE_4 0 \; TETRA_\$1_\$2_MOD_DEST_4 0 \; TETRA_\$1_\$2_MOD_AMT_4
127 \; \; TETRA_\$1_\$2_TEMPO 30 \; TETRA_\$1_\$2_TIME_SIG 0 \; TETRA_\$1_\$2_ARP_ON_OFF
0 \; TETRA_\$1_\$2_ARP_MODE 0 \; TETRA_\$1_\$2_SEQ_ON_OFF 0 \; TETRA_\$1_\$2_SEQ_TRIGGER
0 \; TETRA_\$1_\$2_SEQ_1_DEST 0 \; TETRA_\$1_\$2_SEQ_2_DEST 0 \; TETRA_\$1_\$2_SEQ_3_DEST
0 \; TETRA_\$1_\$2_SEQ_4_DEST 0 \; \; TETRA_\$1_\$2_VELOCITY_DEST 0
\; TETRA_\$1_\$2_VELOCITY_AMT 127 \; TETRA_\$1_\$2_PRESSURE_DEST 0
\; TETRA_\$1_\$2_PRESSURE_AMT 127 \; TETRA_\$1_\$2_MOD_WHEEL_DEST 0
\; TETRA_\$1_\$2_MOD_WHEEL_AMT 127 \; TETRA_\$1_\$2_FOOT_DEST 0 \;
TETRA_\$1_\$2_FOOT_AMT 127 \; TETRA_\$1_\$2_BREATH_DEST 0 \; TETRA_\$1_\$2_BREATH_AMT
127 \; TETRA_\$1_\$2_PBEND_RANGE 0 \; TETRA_\$1_\$2_PUSH_IT_MODE 0
\; TETRA_\$1_\$2_PUSH_IT_NOTE 0 \; TETRA_\$1_\$2_PUSH_IT_VELOCITY 0
\; TETRA_\$1_\$2_KEYBOARD_MODE 0 \; TETRA_\$1_\$2_SPLIT_POINT 127 \;
\; zero_init_\$1 bang;
#X connect 0 0 1 0;
#X connect 1 0 2 0;
#X restore 718 73 pd init_to_zero;
#X text 735 57 CAUTION: can freeze Tetra (re-plug power);
#X obj 521 584 TETRA_dest;
#X obj 281 679 TETRA_src;
#X obj 50 975 TETRA_arp;
#X obj 322 856 TETRA_dest;
#X obj 41 584 TETRA_dest;
#X obj 281 584 TETRA_dest;
#X obj 761 584 TETRA_dest;
#X obj 728 353 TETRA_dest;
#X obj 41 765 TETRA_dest;
#X obj 281 765 TETRA_dest;
#X obj 521 765 TETRA_dest;
#X obj 761 765 TETRA_dest;
#X obj 818 861 TETRA_dest;
#X obj 658 981 TETRA_dest;
#X obj 498 981 TETRA_dest;
#X obj 658 861 TETRA_dest;
#X obj 498 861 TETRA_dest;
#X obj 322 916 TETRA_dest;
#X obj 322 976 TETRA_dest;
#X obj 322 1036 TETRA_dest;
#X obj 41 679 TETRA_src;
#X obj 521 679 TETRA_src;
#X obj 761 679 TETRA_src;
#X obj 138 860 TETRA_div;
#X obj 448 12 TETRA_mappings 1;
#X obj 732 1262 TETRA_sequencer \$1_\$2 3;
#X obj 732 1442 TETRA_sequencer \$1_\$2 4;
#X obj 252 1442 TETRA_sequencer \$1_\$2 2;
#X obj 250 1262 TETRA_sequencer \$1_\$2 1;
#X obj 653 1112 hradio 15 1 0 3 TETRA_\$1_\$2_KEYBOARD_MODE empty \$1_\$2_KEYBOARD_MODE
0 -8 0 10 -262144 -1 -1 0;
#X text 763 1094 0 normal \; 1 stack \; 2 split;
#X floatatom 841 1108 5 0 127 1 #1_#2_SPLIT_POINT - TETRA_#1_#2_SPLIT_POINT
;
#X connect 15 0 16 0;
#X connect 16 0 13 0;
#X connect 19 0 8 0;
#X connect 20 0 21 0;
#X connect 21 0 8 0;
#X connect 23 0 15 0;
#X connect 24 0 20 0;
#X connect 29 0 13 0;
#X connect 38 0 37 0;
#X connect 64 0 63 0;
#X connect 130 0 129 0;
#X connect 132 0 131 0;
#X connect 134 0 133 0;
#X connect 136 0 135 0;
#X connect 154 0 153 0;
#X connect 156 0 155 0;
#X connect 158 0 157 0;
#X connect 160 0 159 0;
#X connect 162 0 161 0;
#X connect 190 0 274 0;
#X connect 192 0 274 1;
#X connect 194 0 273 0;
#X connect 195 0 273 1;
#X connect 197 0 271 0;
#X connect 198 0 271 1;
#X connect 200 0 272 0;
#X connect 201 0 272 1;
#X connect 206 0 274 0;
#X connect 207 0 274 0;
#X connect 208 0 272 0;
#X connect 209 0 271 0;
#X connect 210 0 272 0;
#X connect 211 0 273 0;
#X connect 212 0 273 0;
#X connect 213 0 271 0;
#X connect 214 0 12 0;
#X connect 215 0 7 0;
#X connect 216 0 43 0;
#X connect 217 0 100 0;
#X connect 218 0 244 0;
#X connect 219 0 274 0;
#X connect 220 0 271 0;
#X connect 221 0 273 0;
#X connect 222 0 272 0;
#X connect 223 0 214 0;
#X connect 224 0 215 0;
#X connect 225 0 38 0;
#X connect 226 0 64 0;
#X connect 227 0 216 0;
#X connect 228 0 217 0;
#X connect 229 0 130 0;
#X connect 230 0 132 0;
#X connect 231 0 134 0;
#X connect 232 0 136 0;
#X connect 233 0 234 0;
#X connect 234 0 165 0;
#X connect 235 0 154 0;
#X connect 236 0 160 0;
#X connect 237 0 162 0;
#X connect 238 0 156 0;
#X connect 240 0 219 0;
#X connect 241 0 222 0;
#X connect 242 0 220 0;
#X connect 243 0 221 0;
#X connect 246 0 75 0;
#X connect 246 1 80 0;
#X connect 247 0 115 0;
#X connect 247 1 126 0;
#X connect 248 0 164 0;
#X connect 248 1 180 0;
#X connect 249 0 170 0;
#X connect 249 1 174 0;
#X connect 250 0 71 0;
#X connect 250 1 78 0;
#X connect 251 0 73 0;
#X connect 251 1 79 0;
#X connect 252 0 77 0;
#X connect 252 1 81 0;
#X connect 253 0 99 0;
#X connect 253 1 107 0;
#X connect 254 0 114 0;
#X connect 254 1 121 0;
#X connect 255 0 116 0;
#X connect 255 1 122 0;
#X connect 256 0 118 0;
#X connect 256 1 123 0;
#X connect 257 0 120 0;
#X connect 257 1 124 0;
#X connect 258 0 138 0;
#X connect 258 1 148 0;
#X connect 259 0 140 0;
#X connect 259 1 149 0;
#X connect 260 0 142 0;
#X connect 260 1 150 0;
#X connect 261 0 139 0;
#X connect 261 1 151 0;
#X connect 262 0 141 0;
#X connect 262 1 152 0;
#X connect 263 0 169 0;
#X connect 263 1 175 0;
#X connect 264 0 168 0;
#X connect 264 1 176 0;
#X connect 265 0 167 0;
#X connect 265 1 177 0;
#X connect 266 0 113 0;
#X connect 266 1 125 0;
#X connect 267 0 117 0;
#X connect 267 1 127 0;
#X connect 268 0 119 0;
#X connect 268 1 128 0;
#X connect 269 0 166 0;
#X connect 269 1 178 0;
#X connect 271 0 204 0;
#X connect 272 0 205 0;
#X connect 273 0 203 0;
#X connect 274 0 191 0;
