#N canvas 163 282 278 312 10;
#X obj 90 352 outlet;
#X obj 47 352 outlet;
#X msg -22 27 0 off;
#X obj -22 337 unpack f s;
#X obj 138 337 unpack f s;
#X msg -22 57 1 Sequence_1;
#X msg -22 77 2 Sequence_2;
#X msg -22 97 3 Sequence_3;
#X msg -22 117 4 Sequence_4;
#X msg -22 147 5 LFO_1;
#X msg -22 167 6 LFO_2;
#X msg -22 187 7 LFO_3;
#X msg -22 207 8 LFO_4;
#X msg -22 237 9 Filter_Envelope;
#X msg -22 257 10 Amp_Envelope;
#X msg -22 277 11 Envelope_3;
#X msg 138 27 12 Pitch_Bend;
#X msg 138 47 13 Mod_Wheel;
#X msg 138 67 14 Pressure;
#X msg 138 87 15 Breath;
#X msg 138 107 16 Foot;
#X msg 138 127 17 Expression;
#X msg 138 157 18 Velocity;
#X msg 138 177 19 Note_Number;
#X msg 138 207 20 Noise;
#X obj -22 3 r zero_init;
#X connect 2 0 3 0;
#X connect 3 0 1 0;
#X connect 3 1 0 0;
#X connect 4 0 1 0;
#X connect 4 1 0 0;
#X connect 5 0 3 0;
#X connect 6 0 3 0;
#X connect 7 0 3 0;
#X connect 8 0 3 0;
#X connect 9 0 3 0;
#X connect 10 0 3 0;
#X connect 11 0 3 0;
#X connect 12 0 3 0;
#X connect 13 0 3 0;
#X connect 14 0 3 0;
#X connect 15 0 3 0;
#X connect 16 0 4 0;
#X connect 17 0 4 0;
#X connect 18 0 4 0;
#X connect 19 0 4 0;
#X connect 20 0 4 0;
#X connect 21 0 4 0;
#X connect 22 0 4 0;
#X connect 23 0 4 0;
#X connect 24 0 4 0;
#X connect 25 0 2 0;
