#N canvas 1 175 450 300 10;
#N canvas 1 87 1022 511 B_oscillators 1;
#X obj 6 39 clip 0 120;
#X obj 7 132 clip 0 100;
#X obj 6 233 clip 0 103;
#X obj 4 323 clip 0 127;
#X obj 7 422 clip 0 1;
#X obj 234 39 clip 0 120;
#X obj 235 132 clip 0 100;
#X obj 234 233 clip 0 103;
#X obj 232 323 clip 0 127;
#X obj 235 422 clip 0 1;
#X obj 459 41 clip 0 1;
#X obj 470 231 clip 0 5;
#X obj 462 137 clip 0 3;
#X obj 8 520 clip 0 127;
#X obj 236 520 clip 0 127;
#X obj 467 522 clip 0 127;
#X obj 465 618 clip 0 127;
#X obj 6 13 r TETRA_B_OSC_1_FREQ;
#X obj 7 106 r TETRA_B_OSC_1_FREQ_FINE;
#X obj 6 207 r TETRA_B_OSC_1_SHAPE;
#X obj 4 297 r TETRA_B_GLIDE_1;
#X obj 7 396 r TETRA_B_OSC_1_KEY;
#X obj 8 494 r TETRA_B_SUB_OSC_1_VOL;
#X obj 236 494 r TETRA_B_SUB_OSC_2_VOL;
#X obj 235 396 r TETRA_B_OSC_2_KEY;
#X obj 467 496 r TETRA_B_FEEDBACK_GAIN;
#X obj 465 592 r TETRA_B_FEEDBACK_VOL;
#X obj 558 633 send_nrpn 316;
#X obj 560 537 send_nrpn 310;
#X obj 329 535 send_nrpn 315;
#X obj 101 535 send_nrpn 314;
#X obj 465 303 r TETRA_B_OSC_MIX;
#X obj 470 205 r TETRA_B_OSC_SLOP;
#X obj 462 113 r TETRA_B_GLIDE_MODE;
#X obj 459 15 r TETRA_B_SYNC;
#X obj 234 13 r TETRA_B_OSC_2_FREQ;
#X obj 235 106 r TETRA_B_OSC_2_FREQ_FINE;
#X obj 234 207 r TETRA_B_OSC_2_SHAPE;
#X obj 232 296 r TETRA_B_GLIDE_2;
#X obj 98 54 send_nrpn 200;
#X obj 101 147 send_nrpn 201;
#X obj 105 249 send_nrpn 202;
#X obj 102 338 send_nrpn 203;
#X obj 105 437 send_nrpn 204;
#X obj 326 54 send_nrpn 205;
#X obj 329 147 send_nrpn 206;
#X obj 331 248 send_nrpn 207;
#X obj 329 338 send_nrpn 208;
#X obj 332 437 send_nrpn 209;
#X obj 556 57 send_nrpn 210;
#X obj 561 152 send_nrpn 211;
#X obj 562 246 send_nrpn 212;
#X obj 562 344 send_nrpn 213;
#X obj 561 441 send_nrpn 214;
#X obj 464 400 r TETRA_B_NOISE_LEVEL;
#X obj 679 44 clip 0 1;
#X obj 679 244 clip 0 4;
#X obj 679 144 clip 0 5;
#X obj 679 18 r TETRA_B_UNISON_ON_OFF;
#X obj 679 218 r TETRA_B_UNISON_MODE;
#X obj 771 58 send_nrpn 299;
#X obj 771 158 send_nrpn 296;
#X obj 771 258 send_nrpn 295;
#X obj 465 329 clip 0 127;
#X obj 464 426 clip 0 127;
#X obj 679 118 r TETRA_B_UNISON_ASSIGN;
#X connect 0 0 39 0;
#X connect 1 0 40 0;
#X connect 2 0 41 0;
#X connect 3 0 42 0;
#X connect 4 0 43 0;
#X connect 5 0 44 0;
#X connect 6 0 45 0;
#X connect 7 0 46 0;
#X connect 8 0 47 0;
#X connect 9 0 48 0;
#X connect 10 0 49 0;
#X connect 11 0 51 0;
#X connect 12 0 50 0;
#X connect 13 0 30 0;
#X connect 14 0 29 0;
#X connect 15 0 28 0;
#X connect 16 0 27 0;
#X connect 17 0 0 0;
#X connect 18 0 1 0;
#X connect 19 0 2 0;
#X connect 20 0 3 0;
#X connect 21 0 4 0;
#X connect 22 0 13 0;
#X connect 23 0 14 0;
#X connect 24 0 9 0;
#X connect 25 0 15 0;
#X connect 26 0 16 0;
#X connect 31 0 63 0;
#X connect 32 0 11 0;
#X connect 33 0 12 0;
#X connect 34 0 10 0;
#X connect 35 0 5 0;
#X connect 36 0 6 0;
#X connect 37 0 7 0;
#X connect 38 0 8 0;
#X connect 54 0 64 0;
#X connect 55 0 60 0;
#X connect 56 0 62 0;
#X connect 57 0 61 0;
#X connect 58 0 55 0;
#X connect 59 0 56 0;
#X connect 63 0 52 0;
#X connect 64 0 53 0;
#X connect 65 0 57 0;
#X restore 40 36 pd B_oscillators;
#N canvas 1 87 1022 511 B_filter 0;
#X obj 40 56 clip 0 164;
#X obj 38 144 clip 0 127;
#X obj 34 235 clip 0 127;
#X obj 34 323 clip 0 127;
#X obj 30 414 clip 0 1;
#X obj 309 87 clip 0 254;
#X obj 306 179 clip 0 127;
#X obj 660 56 clip 0 127;
#X obj 660 144 clip 0 127;
#X obj 655 231 clip 0 127;
#X obj 652 322 clip 0 127;
#X obj 647 417 clip 0 127;
#X obj 139 71 send_nrpn 215;
#X obj 137 159 send_nrpn 216;
#X obj 133 250 send_nrpn 217;
#X obj 133 338 send_nrpn 218;
#X obj 129 429 send_nrpn 219;
#X obj 408 102 send_nrpn 220;
#X obj 405 194 send_nrpn 221;
#X obj 759 71 send_nrpn 222;
#X obj 759 159 send_nrpn 223;
#X obj 754 246 send_nrpn 224;
#X obj 751 337 send_nrpn 225;
#X obj 746 432 send_nrpn 226;
#X obj 40 30 r TETRA_B_FILTER_FREQ;
#X obj 38 118 r TETRA_B_RESONANCE;
#X obj 34 209 r TETRA_B_FIL_KEY_AMT;
#X obj 34 297 r TETRA_B_FIL_AUDIO_MOD;
#X obj 30 388 r TETRA_B_FILTER_POLES;
#X obj 309 61 r TETRA_B_FILTER_ENV_AMT;
#X obj 306 153 r TETRA_B_FIL_ENV_VEL_AMT;
#X obj 660 30 r TETRA_B_FIL_DEL;
#X obj 660 118 r TETRA_B_FIL_ATT;
#X obj 655 205 r TETRA_B_FIL_DEC;
#X obj 652 295 r TETRA_B_FIL_SUS;
#X obj 647 390 r TETRA_B_FIL_REL;
#X connect 0 0 12 0;
#X connect 1 0 13 0;
#X connect 2 0 14 0;
#X connect 3 0 15 0;
#X connect 4 0 16 0;
#X connect 5 0 17 0;
#X connect 6 0 18 0;
#X connect 7 0 19 0;
#X connect 8 0 20 0;
#X connect 9 0 21 0;
#X connect 10 0 22 0;
#X connect 11 0 23 0;
#X connect 24 0 0 0;
#X connect 25 0 1 0;
#X connect 26 0 2 0;
#X connect 27 0 3 0;
#X connect 28 0 4 0;
#X connect 29 0 5 0;
#X connect 30 0 6 0;
#X connect 31 0 7 0;
#X connect 32 0 8 0;
#X connect 33 0 9 0;
#X connect 34 0 10 0;
#X connect 35 0 11 0;
#X restore 40 55 pd B_filter;
#N canvas 1 87 1022 511 B_vca 0;
#X obj -112 60 clip 0 127;
#X obj -113 156 clip 0 127;
#X obj -114 249 clip 0 127;
#X obj -116 337 clip 0 127;
#X obj -115 425 clip 0 127;
#X obj 154 57 clip 0 127;
#X obj 153 153 clip 0 127;
#X obj 152 246 clip 0 127;
#X obj 150 334 clip 0 127;
#X obj 151 422 clip 0 127;
#X obj -112 34 r TETRA_B_VCA_LEVEL;
#X obj -113 130 r TETRA_B_OUTPUT_PAN;
#X obj -114 223 r TETRA_B_PRESET_VOLUME;
#X obj -116 311 r TETRA_B_VCA_ENV_AMOUNT;
#X obj -115 399 r TETRA_B_VCA_ENV_VEL_AMT;
#X obj 151 396 r TETRA_B_VCA_REL;
#X obj 150 308 r TETRA_B_VCA_SUS;
#X obj 152 220 r TETRA_B_VCA_DEC;
#X obj 153 127 r TETRA_B_VCA_ATT;
#X obj 154 31 r TETRA_B_VCA_DEL;
#X obj -15 75 send_nrpn 227;
#X obj -16 171 send_nrpn 228;
#X obj -17 264 send_nrpn 229;
#X obj -19 352 send_nrpn 230;
#X obj -18 440 send_nrpn 231;
#X obj 248 437 send_nrpn 236;
#X obj 247 349 send_nrpn 235;
#X obj 249 261 send_nrpn 234;
#X obj 250 168 send_nrpn 233;
#X obj 250 72 send_nrpn 232;
#X connect 0 0 20 0;
#X connect 1 0 21 0;
#X connect 2 0 22 0;
#X connect 3 0 23 0;
#X connect 4 0 24 0;
#X connect 5 0 29 0;
#X connect 6 0 28 0;
#X connect 7 0 27 0;
#X connect 8 0 26 0;
#X connect 9 0 25 0;
#X connect 10 0 0 0;
#X connect 11 0 1 0;
#X connect 12 0 2 0;
#X connect 13 0 3 0;
#X connect 14 0 4 0;
#X connect 15 0 9 0;
#X connect 16 0 8 0;
#X connect 17 0 7 0;
#X connect 18 0 6 0;
#X connect 19 0 5 0;
#X restore 40 74 pd B_vca;
#N canvas 1 87 1022 511 B_lfo 0;
#X obj 44 57 clip 0 166;
#X obj 44 154 clip 0 4;
#X obj 38 251 clip 0 127;
#X obj 30 437 clip 0 1;
#X obj 240 57 clip 0 166;
#X obj 240 154 clip 0 4;
#X obj 234 251 clip 0 127;
#X obj 226 437 clip 0 1;
#X obj 440 57 clip 0 166;
#X obj 440 154 clip 0 4;
#X obj 434 251 clip 0 127;
#X obj 426 437 clip 0 1;
#X obj 636 57 clip 0 166;
#X obj 636 154 clip 0 4;
#X obj 630 251 clip 0 127;
#X obj 622 437 clip 0 1;
#X obj 34 346 clip 0 48;
#X obj 230 346 clip 0 48;
#X obj 430 346 clip 0 48;
#X obj 626 346 clip 0 48;
#X obj 44 31 r TETRA_B_LFO_1_FREQ;
#X obj 44 128 r TETRA_B_LFO_1_SHAPE;
#X obj 38 225 r TETRA_B_LFO_1_AMT;
#X obj 34 320 r TETRA_B_LFO_1_DEST;
#X obj 30 411 r TETRA_B_LFO_1_SYNC;
#X obj 226 411 r TETRA_B_LFO_2_SYNC;
#X obj 230 320 r TETRA_B_LFO_2_DEST;
#X obj 234 225 r TETRA_B_LFO_2_AMT;
#X obj 240 128 r TETRA_B_LFO_2_SHAPE;
#X obj 240 31 r TETRA_B_LFO_2_FREQ;
#X obj 440 31 r TETRA_B_LFO_3_FREQ;
#X obj 440 128 r TETRA_B_LFO_3_SHAPE;
#X obj 434 225 r TETRA_B_LFO_3_AMT;
#X obj 430 320 r TETRA_B_LFO_3_DEST;
#X obj 426 411 r TETRA_B_LFO_3_SYNC;
#X obj 622 411 r TETRA_B_LFO_4_SYNC;
#X obj 626 320 r TETRA_B_LFO_4_DEST;
#X obj 630 225 r TETRA_B_LFO_4_AMT;
#X obj 636 128 r TETRA_B_LFO_4_SHAPE;
#X obj 636 31 r TETRA_B_LFO_4_FREQ;
#X obj 137 72 send_nrpn 237;
#X obj 137 169 send_nrpn 238;
#X obj 131 266 send_nrpn 239;
#X obj 127 361 send_nrpn 240;
#X obj 123 452 send_nrpn 241;
#X obj 319 452 send_nrpn 246;
#X obj 323 361 send_nrpn 245;
#X obj 327 266 send_nrpn 244;
#X obj 333 169 send_nrpn 243;
#X obj 333 72 send_nrpn 242;
#X obj 533 72 send_nrpn 247;
#X obj 533 169 send_nrpn 248;
#X obj 527 266 send_nrpn 249;
#X obj 523 361 send_nrpn 250;
#X obj 519 452 send_nrpn 251;
#X obj 715 452 send_nrpn 256;
#X obj 719 361 send_nrpn 255;
#X obj 723 266 send_nrpn 254;
#X obj 729 169 send_nrpn 253;
#X obj 729 72 send_nrpn 252;
#X connect 0 0 40 0;
#X connect 1 0 41 0;
#X connect 2 0 42 0;
#X connect 3 0 44 0;
#X connect 4 0 49 0;
#X connect 5 0 48 0;
#X connect 6 0 47 0;
#X connect 7 0 45 0;
#X connect 8 0 50 0;
#X connect 9 0 51 0;
#X connect 10 0 52 0;
#X connect 11 0 54 0;
#X connect 12 0 59 0;
#X connect 13 0 58 0;
#X connect 14 0 57 0;
#X connect 15 0 55 0;
#X connect 16 0 43 0;
#X connect 17 0 46 0;
#X connect 18 0 53 0;
#X connect 19 0 56 0;
#X connect 20 0 0 0;
#X connect 21 0 1 0;
#X connect 22 0 2 0;
#X connect 23 0 16 0;
#X connect 24 0 3 0;
#X connect 25 0 7 0;
#X connect 26 0 17 0;
#X connect 27 0 6 0;
#X connect 28 0 5 0;
#X connect 29 0 4 0;
#X connect 30 0 8 0;
#X connect 31 0 9 0;
#X connect 32 0 10 0;
#X connect 33 0 18 0;
#X connect 34 0 11 0;
#X connect 35 0 15 0;
#X connect 36 0 19 0;
#X connect 37 0 14 0;
#X connect 38 0 13 0;
#X connect 39 0 12 0;
#X restore 40 92 pd B_lfo;
#N canvas 1 87 1022 511 B_env3 0;
#X obj 15 246 clip 0 127;
#X obj 385 68 clip 0 127;
#X obj 381 161 clip 0 127;
#X obj 378 248 clip 0 127;
#X obj 377 337 clip 0 127;
#X obj 374 430 clip 0 127;
#X obj 17 158 clip 0 254;
#X obj 17 68 clip 0 48;
#X obj 17 42 r TETRA_B_ENV_3_DEST;
#X obj 17 132 r TETRA_B_ENV_3_AMT;
#X obj 15 220 r TETRA_B_ENV_3_VEL_AMT;
#X obj 385 42 r TETRA_B_ENV_3_DELAY;
#X obj 381 135 r TETRA_B_ENV_3_ATT;
#X obj 378 222 r TETRA_B_ENV_3_DEC;
#X obj 377 311 r TETRA_B_ENV_3_SUS;
#X obj 374 404 r TETRA_B_ENV_3_REL;
#X obj 110 83 send_nrpn 257;
#X obj 110 173 send_nrpn 258;
#X obj 108 261 send_nrpn 259;
#X obj 478 83 send_nrpn 260;
#X obj 474 176 send_nrpn 261;
#X obj 471 263 send_nrpn 262;
#X obj 470 352 send_nrpn 263;
#X obj 467 445 send_nrpn 264;
#X obj 15 336 clip 0 1;
#X obj 15 310 r TETRA_B_ENV_3_REPEAT;
#X obj 108 351 send_nrpn 298;
#X connect 0 0 18 0;
#X connect 1 0 19 0;
#X connect 2 0 20 0;
#X connect 3 0 21 0;
#X connect 4 0 22 0;
#X connect 5 0 23 0;
#X connect 6 0 17 0;
#X connect 7 0 16 0;
#X connect 8 0 7 0;
#X connect 9 0 6 0;
#X connect 10 0 0 0;
#X connect 11 0 1 0;
#X connect 12 0 2 0;
#X connect 13 0 3 0;
#X connect 14 0 4 0;
#X connect 15 0 5 0;
#X connect 24 0 26 0;
#X connect 25 0 24 0;
#X restore 40 110 pd B_env3;
#N canvas 1 87 1022 511 B_mod 0;
#X obj 23 64 clip 0 20;
#X obj 22 158 clip 0 254;
#X obj 223 64 clip 0 20;
#X obj 222 158 clip 0 254;
#X obj 423 64 clip 0 20;
#X obj 422 158 clip 0 254;
#X obj 623 64 clip 0 20;
#X obj 622 158 clip 0 254;
#X obj 18 254 clip 0 48;
#X obj 218 254 clip 0 48;
#X obj 418 254 clip 0 48;
#X obj 618 254 clip 0 48;
#X obj 23 38 r TETRA_B_MOD_SOURCE_1;
#X obj 22 132 r TETRA_B_MOD_AMT_1;
#X obj 18 228 r TETRA_B_MOD_DEST_1;
#X obj 218 228 r TETRA_B_MOD_DEST_2;
#X obj 222 132 r TETRA_B_MOD_AMT_2;
#X obj 223 38 r TETRA_B_MOD_SOURCE_2;
#X obj 423 38 r TETRA_B_MOD_SOURCE_3;
#X obj 422 132 r TETRA_B_MOD_AMT_3;
#X obj 418 228 r TETRA_B_MOD_DEST_3;
#X obj 618 228 r TETRA_B_MOD_DEST_4;
#X obj 622 132 r TETRA_B_MOD_AMT_4;
#X obj 623 38 r TETRA_B_MOD_SOURCE_4;
#X obj 116 79 send_nrpn 265;
#X obj 115 173 send_nrpn 266;
#X obj 111 268 send_nrpn 267;
#X obj 311 268 send_nrpn 270;
#X obj 315 173 send_nrpn 269;
#X obj 316 79 send_nrpn 268;
#X obj 516 79 send_nrpn 271;
#X obj 515 173 send_nrpn 272;
#X obj 511 268 send_nrpn 273;
#X obj 711 268 send_nrpn 276;
#X obj 715 173 send_nrpn 275;
#X obj 716 79 send_nrpn 274;
#X connect 0 0 24 0;
#X connect 1 0 25 0;
#X connect 2 0 29 0;
#X connect 3 0 28 0;
#X connect 4 0 30 0;
#X connect 5 0 31 0;
#X connect 6 0 35 0;
#X connect 7 0 34 0;
#X connect 8 0 26 0;
#X connect 9 0 27 0;
#X connect 10 0 32 0;
#X connect 11 0 33 0;
#X connect 12 0 0 0;
#X connect 13 0 1 0;
#X connect 14 0 8 0;
#X connect 15 0 9 0;
#X connect 16 0 3 0;
#X connect 17 0 2 0;
#X connect 18 0 4 0;
#X connect 19 0 5 0;
#X connect 20 0 10 0;
#X connect 21 0 11 0;
#X connect 22 0 7 0;
#X connect 23 0 6 0;
#X restore 40 129 pd B_mod;
#N canvas 1 87 1022 511 B_controlers 0;
#X obj 51 61 clip 0 255;
#X obj 50 155 clip 0 48;
#X obj 51 251 clip 0 255;
#X obj 50 345 clip 0 48;
#X obj 271 61 clip 0 255;
#X obj 270 155 clip 0 48;
#X obj 271 251 clip 0 255;
#X obj 270 345 clip 0 48;
#X obj 481 61 clip 0 255;
#X obj 480 155 clip 0 48;
#X obj 478 345 clip 0 12;
#X obj 729 68 clip 0 127;
#X obj 729 168 clip 0 127;
#X obj 729 268 clip 0 1;
#X obj 51 35 r TETRA_B_MOD_WHEEL_AMT;
#X obj 50 129 r TETRA_B_MOD_WHEEL_DEST;
#X obj 51 225 r TETRA_B_PRESSURE_AMT;
#X obj 50 319 r TETRA_B_PRESSURE_DEST;
#X obj 271 35 r TETRA_B_BREATH_AMT;
#X obj 270 129 r TETRA_B_BREATH_DEST;
#X obj 271 225 r TETRA_B_VELOCITY_AMT;
#X obj 270 319 r TETRA_B_VELOCITY_DEST;
#X obj 481 35 r TETRA_B_FOOT_AMT;
#X obj 480 129 r TETRA_B_FOOT_DEST;
#X obj 478 319 r TETRA_B_PBEND_RANGE;
#X obj 729 42 r TETRA_B_PUSH_IT_NOTE;
#X obj 729 142 r TETRA_B_PUSH_IT_VELOCITY;
#X obj 729 242 r TETRA_B_PUSH_IT_MODE;
#X obj 144 76 send_nrpn 281;
#X obj 143 170 send_nrpn 282;
#X obj 144 266 send_nrpn 283;
#X obj 143 360 send_nrpn 284;
#X obj 364 76 send_nrpn 285;
#X obj 363 170 send_nrpn 286;
#X obj 364 266 send_nrpn 287;
#X obj 363 360 send_nrpn 288;
#X obj 574 76 send_nrpn 289;
#X obj 573 170 send_nrpn 290;
#X obj 571 360 send_nrpn 293;
#X obj 822 82 send_nrpn 311;
#X obj 822 182 send_nrpn 312;
#X obj 822 282 send_nrpn 313;
#X connect 0 0 28 0;
#X connect 1 0 29 0;
#X connect 2 0 30 0;
#X connect 3 0 31 0;
#X connect 4 0 32 0;
#X connect 5 0 33 0;
#X connect 6 0 34 0;
#X connect 7 0 35 0;
#X connect 8 0 36 0;
#X connect 9 0 37 0;
#X connect 10 0 38 0;
#X connect 11 0 39 0;
#X connect 12 0 40 0;
#X connect 13 0 41 0;
#X connect 14 0 0 0;
#X connect 15 0 1 0;
#X connect 16 0 2 0;
#X connect 17 0 3 0;
#X connect 18 0 4 0;
#X connect 19 0 5 0;
#X connect 20 0 6 0;
#X connect 21 0 7 0;
#X connect 22 0 8 0;
#X connect 23 0 9 0;
#X connect 24 0 10 0;
#X connect 25 0 11 0;
#X connect 26 0 12 0;
#X connect 27 0 13 0;
#X restore 40 147 pd B_controlers;
#N canvas 1 87 1022 511 B_seq_arp 0;
#X obj 245 62 clip 0 1;
#X obj 52 58 clip 0 1;
#X obj 245 252 clip 30 250;
#X obj 244 346 clip 0 12;
#X obj 458 254 clip 0 48;
#X obj 458 354 clip 0 48;
#X obj 462 158 clip 0 48;
#X obj 463 64 clip 0 48;
#X obj 248 158 clip 0 4;
#X obj 52 32 r TETRA_B_ARP_ON_OFF;
#X obj 145 73 send_nrpn 300;
#X obj 53 124 r TETRA_B_ARP_MODE;
#X obj 146 165 send_nrpn 297;
#X obj 245 36 r TETRA_B_SEQ_ON_OFF;
#X obj 248 132 r TETRA_B_SEQ_TRIGGER;
#X obj 338 77 send_nrpn 301;
#X obj 341 173 send_nrpn 294;
#X obj 245 226 r TETRA_B_TEMPO;
#X obj 244 320 r TETRA_B_TIME_SIG;
#X obj 338 267 send_nrpn 291;
#X obj 337 361 send_nrpn 292;
#X obj 463 38 r TETRA_B_SEQ_1_DEST;
#X obj 462 132 r TETRA_B_SEQ_2_DEST;
#X obj 458 228 r TETRA_B_SEQ_3_DEST;
#X obj 458 328 r TETRA_B_SEQ_4_DEST;
#X obj 556 79 send_nrpn 277;
#X obj 555 173 send_nrpn 278;
#X obj 551 268 send_nrpn 279;
#X obj 551 368 send_nrpn 280;
#X obj 53 150 clip 0 14;
#X connect 0 0 15 0;
#X connect 1 0 10 0;
#X connect 2 0 19 0;
#X connect 3 0 20 0;
#X connect 4 0 27 0;
#X connect 5 0 28 0;
#X connect 6 0 26 0;
#X connect 7 0 25 0;
#X connect 8 0 16 0;
#X connect 9 0 1 0;
#X connect 11 0 29 0;
#X connect 13 0 0 0;
#X connect 14 0 8 0;
#X connect 17 0 2 0;
#X connect 18 0 3 0;
#X connect 21 0 7 0;
#X connect 22 0 6 0;
#X connect 23 0 4 0;
#X connect 24 0 5 0;
#X connect 29 0 12 0;
#X restore 40 166 pd B_seq_arp;
#N canvas 1 87 1022 511 B_sequencers 0;
#X obj 48 47 unpack;
#X obj 48 90 clip 0 127;
#X obj 123 89 clip 0 15;
#X obj 48 187 unpack;
#X obj 123 229 clip 0 15;
#X obj 233 48 unpack;
#X obj 308 90 clip 0 15;
#X obj 233 188 unpack;
#X obj 308 230 clip 0 15;
#X obj 48 230 clip 0 126;
#X obj 233 91 clip 0 126;
#X obj 233 231 clip 0 126;
#X obj 48 27 r TETRA_B_SEQ_1;
#X obj 48 167 r TETRA_B_SEQ_2;
#X obj 233 28 r TETRA_B_SEQ_3;
#X obj 233 168 r TETRA_B_SEQ_4;
#X obj 48 109 send_nrpn 320;
#X obj 48 249 send_nrpn 336;
#X obj 233 110 send_nrpn 352;
#X obj 233 250 send_nrpn 368;
#X obj 48 67 swap;
#X obj 233 68 swap;
#X obj 233 208 swap;
#X obj 48 207 swap;
#X connect 0 0 20 0;
#X connect 0 1 20 1;
#X connect 1 0 16 0;
#X connect 2 0 16 1;
#X connect 3 0 23 0;
#X connect 3 1 23 1;
#X connect 4 0 17 1;
#X connect 5 0 21 0;
#X connect 6 0 18 1;
#X connect 7 0 22 0;
#X connect 7 1 22 1;
#X connect 8 0 19 1;
#X connect 9 0 17 0;
#X connect 10 0 18 0;
#X connect 11 0 19 0;
#X connect 12 0 0 0;
#X connect 13 0 3 0;
#X connect 14 0 5 0;
#X connect 15 0 7 0;
#X connect 20 0 1 0;
#X connect 20 1 2 0;
#X connect 21 0 10 0;
#X connect 21 1 6 0;
#X connect 22 0 11 0;
#X connect 22 1 8 0;
#X connect 23 0 9 0;
#X connect 23 1 4 0;
#X restore 40 184 pd B_sequencers;
