#N canvas 1 87 1022 511 10;
#X obj 375 70 midiout;
#X msg 375 40 240 \, 45 \, 93 \, 3 \, 65 \, 1 \, 2 \, 3 \, 4 \, 247
;
#X text 428 72 * = SysEx;
#X obj -18 332 TETRA_globals;
#X floatatom -46 144 5 0 127 1 MASTER_VOLUME - TETRA_MASTER_VOLUME
;
#X floatatom -46 180 5 0 127 1 PROGRAM_CHANGE - TETRA_PROGRAM_CHANGE
;
#X floatatom 104 144 5 0 24 1 MASTER_TRANSPOSE - TETRA_MASTER_TRANSPOSE
;
#X floatatom 104 162 5 0 100 1 MASTER_FINE_TUNE - TETRA_MASTER_FINE_TUNE
;
#X floatatom 104 180 5 0 3 1 AUDIO_OUT - TETRA_AUDIO_OUT;
#X floatatom 264 144 5 0 16 1 MIDI_CHANNEL - TETRA_MIDI_CHANNEL;
#X floatatom 264 162 5 0 1 1 MULTI_MODE - TETRA_MULTI_MODE;
#X floatatom 264 180 5 0 2 1 POT_MODE - TETRA_POT_MODE;
#X floatatom 414 144 5 0 1 1 SELECT_LAYER_AB - TETRA_SELECT_LAYER_AB
;
#X floatatom 414 162 5 0 1 1 PROGRAM_COMBO - TETRA_PROGRAM_COMBO;
#X floatatom 414 180 5 0 4 1 SELECT_VOICE - TETRA_SELECT_VOICE;
#X floatatom 568 162 5 0 127 1 SPLIT_POINT - TETRA_SPLIT_POINT;
#X floatatom -46 162 5 0 13 1 BALANCE_TWEAK - TETRA_BALANCE_TWEAK;
#X floatatom 568 144 5 0 2 1 KEYBOARD_MODE - TETRA_KEYBOARD_MODE;
#X obj 730 105 noteout;
#X obj 730 84 makenote;
#X msg 730 63 60 127 1000;
#X obj 265 215 hradio 15 1 0 5 TETRA_MIDI_CLOCK_SOURCE empty MIDI_CLOCK_SOURCE
0 -8 0 10 -262144 -1 -1 0;
#X obj -46 211 hradio 15 1 0 4 TETRA_BANK_SELECT empty BANK_SELECT
0 -8 0 10 -262144 -1 -1 0;
#X text -43 230 0 bank 1 \; 1 bank 2 \; 2 bank 3 \; 3 bank 4 \;;
#X text 268 233 0 internal \; 1 v1 master \; 2 midi out \; 3 midi in
\; 4 midi in/out;
#X text 729 40 note \, vel \, dur;
#X obj 455 330 midiout;
#X obj 749 465 TETRA_voice Q;
#X obj 749 377 TETRA_voice V1;
#X obj 749 411 TETRA_voice V3;
#X obj 749 394 TETRA_voice V2;
#X obj 856 393 TETRA_voice B;
#X obj 749 428 TETRA_voice V4;
#X text 747 452 NOT WORKING!!!;
#X obj 77 33 TETRA_voice A 1;
#X obj 77 53 TETRA_voice A 2;
#X obj 77 73 TETRA_voice A 3;
#X obj 77 93 TETRA_voice A 4;
#X connect 1 0 0 0;
#X connect 19 0 18 0;
#X connect 19 1 18 1;
#X connect 20 0 19 0;
