#N canvas 1 135 450 300 10;
#N canvas 1 87 1022 511 v1_oscillators 0;
#X obj 6 39 clip 0 120;
#X obj 7 132 clip 0 100;
#X obj 6 233 clip 0 103;
#X obj 4 323 clip 0 127;
#X obj 7 422 clip 0 1;
#X obj 244 39 clip 0 120;
#X obj 245 132 clip 0 100;
#X obj 244 233 clip 0 103;
#X obj 242 323 clip 0 127;
#X obj 245 422 clip 0 1;
#X obj 489 41 clip 0 1;
#X obj 500 231 clip 0 5;
#X obj 495 329 clip 0 127;
#X obj 494 426 clip 0 127;
#X obj 492 137 clip 0 3;
#X obj 98 54 send_nrpn 512;
#X obj 101 147 send_nrpn 513;
#X obj 103 248 send_nrpn 514;
#X obj 101 338 send_nrpn 515;
#X obj 104 437 send_nrpn 516;
#X obj 336 54 send_nrpn 517;
#X obj 339 147 send_nrpn 518;
#X obj 341 248 send_nrpn 519;
#X obj 339 338 send_nrpn 520;
#X obj 342 437 send_nrpn 521;
#X obj 586 56 send_nrpn 522;
#X obj 591 152 send_nrpn 523;
#X obj 592 246 send_nrpn 524;
#X obj 592 344 send_nrpn 525;
#X obj 591 441 send_nrpn 526;
#X obj 6 13 r TETRA_V1_OSC_1_FREQ;
#X obj 7 106 r TETRA_V1_OSC_1_FREQ_FINE;
#X obj 6 207 r TETRA_V1_OSC_1_SHAPE;
#X obj 4 297 r TETRA_V1_GLIDE_1;
#X obj 7 396 r TETRA_V1_OSC_1_KEY;
#X obj 244 13 r TETRA_V1_OSC_2_FREQ;
#X obj 245 106 r TETRA_V1_OSC_2_FREQ_FINE;
#X obj 244 207 r TETRA_V1_OSC_2_SHAPE;
#X obj 242 296 r TETRA_V1_GLIDE_2;
#X obj 245 396 r TETRA_V1_OSC_2_KEY;
#X obj 489 15 r TETRA_V1_SYNC;
#X obj 492 113 r TETRA_V1_GLIDE_MODE;
#X obj 495 303 r TETRA_V1_OSC_MIX;
#X obj 494 400 r TETRA_V1_NOISE_LEVEL;
#X obj 8 520 clip 0 127;
#X obj 246 520 clip 0 127;
#X obj 8 494 r TETRA_V1_SUB_OSC_1_VOL;
#X obj 246 494 r TETRA_V1_SUB_OSC_2_VOL;
#X obj 101 535 send_nrpn 626;
#X obj 339 535 send_nrpn 627;
#X obj 497 522 clip 0 127;
#X obj 495 618 clip 0 127;
#X obj 497 496 r TETRA_V1_FEEDBACK_GAIN;
#X obj 495 592 r TETRA_V1_FEEDBACK_VOL;
#X obj 588 633 send_nrpn 628;
#X obj 590 537 send_nrpn 622;
#X obj 500 205 r TETRA_V1_OSC_SLOP;
#X obj 719 44 clip 0 1;
#X obj 719 244 clip 0 4;
#X obj 719 144 clip 0 5;
#X obj 719 18 r TETRA_V1_UNISON_ON_OFF;
#X obj 719 118 r TETRA_V1_UNISON_ASIGN;
#X obj 719 218 r TETRA_V1_UNISON_MODE;
#X obj 811 258 send_nrpn 607;
#X obj 811 58 send_nrpn 611;
#X obj 811 158 send_nrpn 608;
#X connect 0 0 15 0;
#X connect 1 0 16 0;
#X connect 2 0 17 0;
#X connect 3 0 18 0;
#X connect 4 0 19 0;
#X connect 5 0 20 0;
#X connect 6 0 21 0;
#X connect 7 0 22 0;
#X connect 8 0 23 0;
#X connect 9 0 24 0;
#X connect 10 0 25 0;
#X connect 11 0 27 0;
#X connect 12 0 28 0;
#X connect 13 0 29 0;
#X connect 14 0 26 0;
#X connect 30 0 0 0;
#X connect 31 0 1 0;
#X connect 32 0 2 0;
#X connect 33 0 3 0;
#X connect 34 0 4 0;
#X connect 35 0 5 0;
#X connect 36 0 6 0;
#X connect 37 0 7 0;
#X connect 38 0 8 0;
#X connect 39 0 9 0;
#X connect 40 0 10 0;
#X connect 41 0 14 0;
#X connect 42 0 12 0;
#X connect 43 0 13 0;
#X connect 44 0 48 0;
#X connect 45 0 49 0;
#X connect 46 0 44 0;
#X connect 47 0 45 0;
#X connect 50 0 55 0;
#X connect 51 0 54 0;
#X connect 52 0 50 0;
#X connect 53 0 51 0;
#X connect 56 0 11 0;
#X connect 57 0 64 0;
#X connect 58 0 63 0;
#X connect 59 0 65 0;
#X connect 60 0 57 0;
#X connect 61 0 59 0;
#X connect 62 0 58 0;
#X restore 49 35 pd v1_oscillators;
#N canvas 1 87 1022 511 v1_filter 0;
#X obj 40 56 clip 0 164;
#X obj 38 144 clip 0 127;
#X obj 34 235 clip 0 127;
#X obj 34 323 clip 0 127;
#X obj 30 414 clip 0 1;
#X obj 309 87 clip 0 254;
#X obj 306 179 clip 0 127;
#X obj 660 56 clip 0 127;
#X obj 660 144 clip 0 127;
#X obj 655 231 clip 0 127;
#X obj 652 322 clip 0 127;
#X obj 647 417 clip 0 127;
#X obj 40 30 r TETRA_V1_FILTER_FREQ;
#X obj 38 118 r TETRA_V1_RESONANCE;
#X obj 34 209 r TETRA_V1_FIL_KEY_AMT;
#X obj 34 297 r TETRA_V1_FIL_AUDIO_MOD;
#X obj 30 388 r TETRA_V1_FILTER_POLES;
#X obj 139 71 send_nrpn 527;
#X obj 137 159 send_nrpn 528;
#X obj 133 250 send_nrpn 529;
#X obj 133 338 send_nrpn 530;
#X obj 129 429 send_nrpn 531;
#X obj 309 61 r TETRA_V1_FILTER_ENV_AMT;
#X obj 306 153 r TETRA_V1_FIL_ENV_VEL_AMT;
#X obj 408 102 send_nrpn 532;
#X obj 405 194 send_nrpn 533;
#X obj 660 30 r TETRA_V1_FIL_DEL;
#X obj 660 118 r TETRA_V1_FIL_ATT;
#X obj 655 205 r TETRA_V1_FIL_DEC;
#X obj 652 295 r TETRA_V1_FIL_SUS;
#X obj 647 390 r TETRA_V1_FIL_REL;
#X obj 759 71 send_nrpn 534;
#X obj 759 159 send_nrpn 535;
#X obj 754 246 send_nrpn 536;
#X obj 751 337 send_nrpn 537;
#X obj 746 432 send_nrpn 538;
#X connect 0 0 17 0;
#X connect 1 0 18 0;
#X connect 2 0 19 0;
#X connect 3 0 20 0;
#X connect 4 0 21 0;
#X connect 5 0 24 0;
#X connect 6 0 25 0;
#X connect 7 0 31 0;
#X connect 8 0 32 0;
#X connect 9 0 33 0;
#X connect 10 0 34 0;
#X connect 11 0 35 0;
#X connect 12 0 0 0;
#X connect 13 0 1 0;
#X connect 14 0 2 0;
#X connect 15 0 3 0;
#X connect 16 0 4 0;
#X connect 22 0 5 0;
#X connect 23 0 6 0;
#X connect 26 0 7 0;
#X connect 27 0 8 0;
#X connect 28 0 9 0;
#X connect 29 0 10 0;
#X connect 30 0 11 0;
#X restore 49 54 pd v1_filter;
#N canvas 1 87 1022 511 v1_vca 0;
#X obj -112 60 clip 0 127;
#X obj -113 156 clip 0 127;
#X obj -114 249 clip 0 127;
#X obj -116 337 clip 0 127;
#X obj -115 425 clip 0 127;
#X obj 154 57 clip 0 127;
#X obj 153 153 clip 0 127;
#X obj 152 246 clip 0 127;
#X obj 150 334 clip 0 127;
#X obj 151 422 clip 0 127;
#X obj -112 34 r TETRA_V1_VCA_LEVEL;
#X obj -113 130 r TETRA_V1_OUTPUT_PAN;
#X obj -114 223 r TETRA_V1_PRESET_VOLUME;
#X obj -116 311 r TETRA_V1_VCA_ENV_AMOUNT;
#X obj -115 399 r TETRA_V1_VCA_ENV_VEL_AMT;
#X obj -15 75 send_nrpn 539;
#X obj -16 171 send_nrpn 540;
#X obj -17 264 send_nrpn 541;
#X obj -19 352 send_nrpn 542;
#X obj -18 440 send_nrpn 543;
#X obj 154 31 r TETRA_V1_VCA_DEL;
#X obj 153 127 r TETRA_V1_VCA_ATT;
#X obj 152 220 r TETRA_V1_VCA_DEC;
#X obj 150 308 r TETRA_V1_VCA_SUS;
#X obj 151 396 r TETRA_V1_VCA_REL;
#X obj 250 72 send_nrpn 544;
#X obj 250 168 send_nrpn 545;
#X obj 249 261 send_nrpn 546;
#X obj 247 349 send_nrpn 547;
#X obj 248 437 send_nrpn 548;
#X connect 0 0 15 0;
#X connect 1 0 16 0;
#X connect 2 0 17 0;
#X connect 3 0 18 0;
#X connect 4 0 19 0;
#X connect 5 0 25 0;
#X connect 6 0 26 0;
#X connect 7 0 27 0;
#X connect 8 0 28 0;
#X connect 9 0 29 0;
#X connect 10 0 0 0;
#X connect 11 0 1 0;
#X connect 12 0 2 0;
#X connect 13 0 3 0;
#X connect 14 0 4 0;
#X connect 20 0 5 0;
#X connect 21 0 6 0;
#X connect 22 0 7 0;
#X connect 23 0 8 0;
#X connect 24 0 9 0;
#X restore 49 73 pd v1_vca;
#N canvas 1 87 1022 511 v1_lfo 0;
#X obj 44 57 clip 0 166;
#X obj 44 154 clip 0 4;
#X obj 38 251 clip 0 127;
#X obj 30 437 clip 0 1;
#X obj 44 31 r TETRA_V1_LFO_1_FREQ;
#X obj 44 128 r TETRA_V1_LFO_1_SHAPE;
#X obj 38 225 r TETRA_V1_LFO_1_AMT;
#X obj 34 320 r TETRA_V1_LFO_1_DEST;
#X obj 30 411 r TETRA_V1_LFO_1_SYNC;
#X obj 240 57 clip 0 166;
#X obj 240 154 clip 0 4;
#X obj 234 251 clip 0 127;
#X obj 226 437 clip 0 1;
#X obj 440 57 clip 0 166;
#X obj 440 154 clip 0 4;
#X obj 434 251 clip 0 127;
#X obj 426 437 clip 0 1;
#X obj 636 57 clip 0 166;
#X obj 636 154 clip 0 4;
#X obj 630 251 clip 0 127;
#X obj 622 437 clip 0 1;
#X obj 240 31 r TETRA_V1_LFO_2_FREQ;
#X obj 240 128 r TETRA_V1_LFO_2_SHAPE;
#X obj 234 225 r TETRA_V1_LFO_2_AMT;
#X obj 230 320 r TETRA_V1_LFO_2_DEST;
#X obj 226 411 r TETRA_V1_LFO_2_SYNC;
#X obj 440 31 r TETRA_V1_LFO_3_FREQ;
#X obj 440 128 r TETRA_V1_LFO_3_SHAPE;
#X obj 434 225 r TETRA_V1_LFO_3_AMT;
#X obj 430 320 r TETRA_V1_LFO_3_DEST;
#X obj 426 411 r TETRA_V1_LFO_3_SYNC;
#X obj 137 72 send_nrpn 549;
#X obj 137 169 send_nrpn 550;
#X obj 131 266 send_nrpn 551;
#X obj 127 361 send_nrpn 552;
#X obj 123 452 send_nrpn 553;
#X obj 333 72 send_nrpn 554;
#X obj 333 169 send_nrpn 555;
#X obj 327 266 send_nrpn 556;
#X obj 323 361 send_nrpn 557;
#X obj 319 452 send_nrpn 558;
#X obj 533 72 send_nrpn 559;
#X obj 533 169 send_nrpn 560;
#X obj 527 266 send_nrpn 561;
#X obj 523 361 send_nrpn 562;
#X obj 519 452 send_nrpn 563;
#X obj 729 72 send_nrpn 654;
#X obj 729 169 send_nrpn 656;
#X obj 723 266 send_nrpn 566;
#X obj 719 361 send_nrpn 567;
#X obj 715 452 send_nrpn 568;
#X obj 636 31 r TETRA_V1_LFO_4_FREQ;
#X obj 636 128 r TETRA_V1_LFO_4_SHAPE;
#X obj 630 225 r TETRA_V1_LFO_4_AMT;
#X obj 626 320 r TETRA_V1_LFO_4_DEST;
#X obj 622 411 r TETRA_V1_LFO_4_SYNC;
#X obj 34 346 clip 0 48;
#X obj 230 346 clip 0 48;
#X obj 430 346 clip 0 48;
#X obj 626 346 clip 0 48;
#X connect 0 0 31 0;
#X connect 1 0 32 0;
#X connect 2 0 33 0;
#X connect 3 0 35 0;
#X connect 4 0 0 0;
#X connect 5 0 1 0;
#X connect 6 0 2 0;
#X connect 7 0 56 0;
#X connect 8 0 3 0;
#X connect 9 0 36 0;
#X connect 10 0 37 0;
#X connect 11 0 38 0;
#X connect 12 0 40 0;
#X connect 13 0 41 0;
#X connect 14 0 42 0;
#X connect 15 0 43 0;
#X connect 16 0 45 0;
#X connect 17 0 46 0;
#X connect 18 0 47 0;
#X connect 19 0 48 0;
#X connect 20 0 50 0;
#X connect 21 0 9 0;
#X connect 22 0 10 0;
#X connect 23 0 11 0;
#X connect 24 0 57 0;
#X connect 25 0 12 0;
#X connect 26 0 13 0;
#X connect 27 0 14 0;
#X connect 28 0 15 0;
#X connect 29 0 58 0;
#X connect 30 0 16 0;
#X connect 51 0 17 0;
#X connect 52 0 18 0;
#X connect 53 0 19 0;
#X connect 54 0 59 0;
#X connect 55 0 20 0;
#X connect 56 0 34 0;
#X connect 57 0 39 0;
#X connect 58 0 44 0;
#X connect 59 0 49 0;
#X restore 49 91 pd v1_lfo;
#N canvas 1 87 1022 511 v1_env3 0;
#X obj 15 246 clip 0 127;
#X obj 385 68 clip 0 127;
#X obj 381 161 clip 0 127;
#X obj 378 248 clip 0 127;
#X obj 377 337 clip 0 127;
#X obj 374 430 clip 0 127;
#X obj 17 42 r TETRA_V1_ENV_3_DEST;
#X obj 17 132 r TETRA_V1_ENV_3_AMT;
#X obj 15 220 r TETRA_V1_ENV_3_VEL_AMT;
#X obj 385 42 r TETRA_V1_ENV_3_DELAY;
#X obj 381 135 r TETRA_V1_ENV_3_ATT;
#X obj 378 222 r TETRA_V1_ENV_3_DEC;
#X obj 377 311 r TETRA_V1_ENV_3_SUS;
#X obj 374 404 r TETRA_V1_ENV_3_REL;
#X obj 17 158 clip 0 254;
#X obj 17 68 clip 0 48;
#X obj 110 83 send_nrpn 569;
#X obj 110 173 send_nrpn 570;
#X obj 108 261 send_nrpn 571;
#X obj 478 83 send_nrpn 572;
#X obj 474 176 send_nrpn 573;
#X obj 471 263 send_nrpn 574;
#X obj 470 352 send_nrpn 575;
#X obj 467 445 send_nrpn 576;
#X obj 15 336 clip 0 1;
#X obj 15 310 r TETRA_V1_ENV_3_REPEAT;
#X obj 108 351 send_nrpn 610;
#X connect 0 0 18 0;
#X connect 1 0 19 0;
#X connect 2 0 20 0;
#X connect 3 0 21 0;
#X connect 4 0 22 0;
#X connect 5 0 23 0;
#X connect 6 0 15 0;
#X connect 7 0 14 0;
#X connect 8 0 0 0;
#X connect 9 0 1 0;
#X connect 10 0 2 0;
#X connect 11 0 3 0;
#X connect 12 0 4 0;
#X connect 13 0 5 0;
#X connect 14 0 17 0;
#X connect 15 0 16 0;
#X connect 24 0 26 0;
#X connect 25 0 24 0;
#X restore 49 109 pd v1_env3;
#N canvas 1 87 1022 511 v1_mod 0;
#X obj 23 64 clip 0 20;
#X obj 22 158 clip 0 254;
#X obj 23 38 r TETRA_V1_MOD_SOURCE_1;
#X obj 22 132 r TETRA_V1_MOD_AMT_1;
#X obj 18 228 r TETRA_V1_MOD_DEST_1;
#X obj 223 64 clip 0 20;
#X obj 222 158 clip 0 254;
#X obj 423 64 clip 0 20;
#X obj 422 158 clip 0 254;
#X obj 623 64 clip 0 20;
#X obj 622 158 clip 0 254;
#X obj 223 38 r TETRA_V1_MOD_SOURCE_2;
#X obj 222 132 r TETRA_V1_MOD_AMT_2;
#X obj 218 228 r TETRA_V1_MOD_DEST_2;
#X obj 418 228 r TETRA_V1_MOD_DEST_3;
#X obj 422 132 r TETRA_V1_MOD_AMT_3;
#X obj 423 38 r TETRA_V1_MOD_SOURCE_3;
#X obj 623 38 r TETRA_V1_MOD_SOURCE_4;
#X obj 622 132 r TETRA_V1_MOD_AMT_4;
#X obj 618 228 r TETRA_V1_MOD_DEST_4;
#X obj 18 254 clip 0 48;
#X obj 218 254 clip 0 48;
#X obj 418 254 clip 0 48;
#X obj 618 254 clip 0 48;
#X obj 116 79 send_nrpn 577;
#X obj 115 173 send_nrpn 578;
#X obj 111 268 send_nrpn 579;
#X obj 316 79 send_nrpn 580;
#X obj 315 173 send_nrpn 581;
#X obj 311 268 send_nrpn 582;
#X obj 516 79 send_nrpn 583;
#X obj 515 173 send_nrpn 584;
#X obj 511 268 send_nrpn 585;
#X obj 716 79 send_nrpn 586;
#X obj 715 173 send_nrpn 587;
#X obj 711 268 send_nrpn 588;
#X connect 0 0 24 0;
#X connect 1 0 25 0;
#X connect 2 0 0 0;
#X connect 3 0 1 0;
#X connect 4 0 20 0;
#X connect 5 0 27 0;
#X connect 6 0 28 0;
#X connect 7 0 30 0;
#X connect 8 0 31 0;
#X connect 9 0 33 0;
#X connect 10 0 34 0;
#X connect 11 0 5 0;
#X connect 12 0 6 0;
#X connect 13 0 21 0;
#X connect 14 0 22 0;
#X connect 15 0 8 0;
#X connect 16 0 7 0;
#X connect 17 0 9 0;
#X connect 18 0 10 0;
#X connect 19 0 23 0;
#X connect 20 0 26 0;
#X connect 21 0 29 0;
#X connect 22 0 32 0;
#X connect 23 0 35 0;
#X restore 49 128 pd v1_mod;
#N canvas 1 87 1022 511 v1_controlers 0;
#X obj 51 61 clip 0 255;
#X obj 50 155 clip 0 48;
#X obj 51 251 clip 0 255;
#X obj 50 345 clip 0 48;
#X obj 271 61 clip 0 255;
#X obj 270 155 clip 0 48;
#X obj 271 251 clip 0 255;
#X obj 270 345 clip 0 48;
#X obj 481 61 clip 0 255;
#X obj 480 155 clip 0 48;
#X obj 479 343 clip 0 12;
#X obj 730 63 clip 0 127;
#X obj 730 163 clip 0 127;
#X obj 730 263 clip 0 1;
#X obj 51 35 r TETRA_V1_MOD_WHEEL_AMT;
#X obj 50 129 r TETRA_V1_MOD_WHEEL_DEST;
#X obj 51 225 r TETRA_V1_PRESSURE_AMT;
#X obj 50 319 r TETRA_V1_PRESSURE_DEST;
#X obj 271 35 r TETRA_V1_BREATH_AMT;
#X obj 270 129 r TETRA_V1_BREATH_DEST;
#X obj 271 225 r TETRA_V1_VELOCITY_AMT;
#X obj 270 319 r TETRA_V1_VELOCITY_DEST;
#X obj 481 35 r TETRA_V1_FOOT_AMT;
#X obj 480 129 r TETRA_V1_FOOT_DEST;
#X obj 479 317 r TETRA_V1_PBEND_RANGE;
#X obj 730 37 r TETRA_V1_PUSH_IT_NOTE;
#X obj 730 137 r TETRA_V1_PUSH_IT_VELOCITY;
#X obj 730 237 r TETRA_V1_PUSH_IT_MODE;
#X obj 144 76 send_nrpn 593;
#X obj 143 170 send_nrpn 594;
#X obj 144 266 send_nrpn 595;
#X obj 143 360 send_nrpn 596;
#X obj 364 76 send_nrpn 597;
#X obj 363 170 send_nrpn 598;
#X obj 364 266 send_nrpn 599;
#X obj 363 360 send_nrpn 600;
#X obj 574 76 send_nrpn 601;
#X obj 573 170 send_nrpn 602;
#X obj 572 358 send_nrpn 605;
#X obj 823 77 send_nrpn 623;
#X obj 823 177 send_nrpn 624;
#X obj 823 277 send_nrpn 625;
#X connect 0 0 28 0;
#X connect 1 0 29 0;
#X connect 2 0 30 0;
#X connect 3 0 31 0;
#X connect 4 0 32 0;
#X connect 5 0 33 0;
#X connect 6 0 34 0;
#X connect 7 0 35 0;
#X connect 8 0 36 0;
#X connect 9 0 37 0;
#X connect 10 0 38 0;
#X connect 11 0 39 0;
#X connect 12 0 40 0;
#X connect 13 0 41 0;
#X connect 14 0 0 0;
#X connect 15 0 1 0;
#X connect 16 0 2 0;
#X connect 17 0 3 0;
#X connect 18 0 4 0;
#X connect 19 0 5 0;
#X connect 20 0 6 0;
#X connect 21 0 7 0;
#X connect 22 0 8 0;
#X connect 23 0 9 0;
#X connect 24 0 10 0;
#X connect 25 0 11 0;
#X connect 26 0 12 0;
#X connect 27 0 13 0;
#X restore 49 147 pd v1_controlers;
#N canvas 1 87 1022 511 v1_seq_arp 0;
#X obj 245 62 clip 0 1;
#X obj 52 58 clip 0 1;
#X obj 245 252 clip 30 250;
#X obj 244 346 clip 0 12;
#X obj 458 254 clip 0 48;
#X obj 458 354 clip 0 48;
#X obj 462 158 clip 0 48;
#X obj 463 64 clip 0 48;
#X obj 248 158 clip 0 4;
#X obj 52 32 r TETRA_V1_ARP_ON_OFF;
#X obj 53 124 r TETRA_V1_ARP_MODE;
#X obj 245 36 r TETRA_V1_SEQ_ON_OFF;
#X obj 248 132 r TETRA_V1_SEQ_TRIGGER;
#X obj 245 226 r TETRA_V1_TEMPO;
#X obj 244 320 r TETRA_V1_TIME_SIG;
#X obj 463 38 r TETRA_V1_SEQ_1_DEST;
#X obj 462 132 r TETRA_V1_SEQ_2_DEST;
#X obj 458 228 r TETRA_V1_SEQ_3_DEST;
#X obj 458 328 r TETRA_V1_SEQ_4_DEST;
#X obj 556 79 send_nrpn 589;
#X obj 555 173 send_nrpn 590;
#X obj 551 268 send_nrpn 591;
#X obj 551 368 send_nrpn 592;
#X obj 341 173 send_nrpn 606;
#X obj 338 77 send_nrpn 613;
#X obj 338 267 send_nrpn 603;
#X obj 337 361 send_nrpn 604;
#X obj 145 73 send_nrpn 612;
#X obj 146 165 send_nrpn 609;
#X obj 53 150 clip 0 14;
#X connect 0 0 24 0;
#X connect 1 0 27 0;
#X connect 2 0 25 0;
#X connect 3 0 26 0;
#X connect 4 0 21 0;
#X connect 5 0 22 0;
#X connect 6 0 20 0;
#X connect 7 0 19 0;
#X connect 8 0 23 0;
#X connect 9 0 1 0;
#X connect 10 0 29 0;
#X connect 11 0 0 0;
#X connect 12 0 8 0;
#X connect 13 0 2 0;
#X connect 14 0 3 0;
#X connect 15 0 7 0;
#X connect 16 0 6 0;
#X connect 17 0 4 0;
#X connect 18 0 5 0;
#X connect 29 0 28 0;
#X restore 49 165 pd v1_seq_arp;
#N canvas 1 87 1022 511 v1_sequencers 1;
#X obj 48 47 unpack;
#X obj 48 90 clip 0 127;
#X obj 123 89 clip 0 15;
#X obj 48 187 unpack;
#X obj 123 229 clip 0 15;
#X obj 247 47 unpack;
#X obj 322 89 clip 0 15;
#X obj 247 187 unpack;
#X obj 322 229 clip 0 15;
#X obj 48 230 clip 0 126;
#X obj 247 90 clip 0 126;
#X obj 247 230 clip 0 126;
#X obj 48 27 r TETRA_V1_SEQ_1;
#X obj 48 167 r TETRA_V1_SEQ_2;
#X obj 247 27 r TETRA_V1_SEQ_3;
#X obj 247 167 r TETRA_V1_SEQ_4;
#X obj 48 109 send_nrpn 632;
#X obj 48 249 send_nrpn 648;
#X obj 247 109 send_nrpn 664;
#X obj 247 249 send_nrpn 680;
#X obj 48 67 swap;
#X obj 247 67 swap;
#X obj 247 207 swap;
#X obj 48 207 swap;
#X connect 0 0 20 0;
#X connect 0 1 20 1;
#X connect 1 0 16 0;
#X connect 2 0 16 1;
#X connect 3 0 23 0;
#X connect 3 1 23 1;
#X connect 4 0 17 1;
#X connect 5 0 21 0;
#X connect 5 1 21 1;
#X connect 6 0 18 1;
#X connect 7 0 22 0;
#X connect 7 1 22 1;
#X connect 8 0 19 1;
#X connect 9 0 17 0;
#X connect 10 0 18 0;
#X connect 11 0 19 0;
#X connect 12 0 0 0;
#X connect 13 0 3 0;
#X connect 14 0 5 0;
#X connect 15 0 7 0;
#X connect 20 0 1 0;
#X connect 20 1 2 0;
#X connect 21 0 10 0;
#X connect 21 1 6 0;
#X connect 22 0 11 0;
#X connect 22 1 8 0;
#X connect 23 0 9 0;
#X connect 23 1 4 0;
#X restore 49 183 pd v1_sequencers;
