#N canvas 429 220 450 300 10;
#X obj 136 24 inlet;
#X obj 136 54 t b a;
#X obj 136 111 until;
#X obj 171 131 + 1;
#X msg 136 91 16;
#X obj 136 150 mod 16;
#X obj 136 131 f 0;
#X obj 136 172 t f f;
#X obj 136 251 outlet;
#X obj 176 24 inlet;
#X obj 181 226 * 2;
#X obj 181 251 outlet;
#X obj 163 73 s \$1_SEQ_\$2_TABLE;
#X obj 181 206 tabread \$1_SEQ_\$2_TABLE;
#X connect 0 0 1 0;
#X connect 1 0 4 0;
#X connect 1 1 12 0;
#X connect 2 0 6 0;
#X connect 3 0 6 1;
#X connect 4 0 2 0;
#X connect 5 0 3 0;
#X connect 5 0 7 0;
#X connect 6 0 5 0;
#X connect 7 0 13 0;
#X connect 7 1 8 0;
#X connect 9 0 4 0;
#X connect 10 0 11 0;
#X connect 13 0 10 0;
