#N canvas 204 87 746 511 10;
#X obj 57 87 ctlout 7;
#X obj 57 49 clip 0 127;
#X floatatom 57 69 5 0 0 0 - - -;
#X obj 56 288 ctlout 32;
#X floatatom 56 270 5 0 0 0 - - -;
#X obj 57 378 pgmout;
#X floatatom 57 361 5 0 0 0 - - -;
#X obj 57 342 clip 0 127;
#X obj 56 248 clip 0 3;
#X obj 57 22 r TETRA_MASTER_VOLUME;
#X obj 56 221 r TETRA_BANK_SELECT;
#X obj 57 317 r TETRA_PROGRAM_CHANGE;
#X obj 241 22 r TETRA_MASTER_TRANSPOSE;
#X obj 241 121 r TETRA_MASTER_FINE_TUNE;
#X obj 241 49 clip 0 24;
#X obj 241 149 clip 0 100;
#X obj 338 64 send_nrpn 384;
#X obj 338 164 send_nrpn 385;
#X obj 241 221 r TETRA_AUDIO_OUT;
#X obj 241 249 clip 0 3;
#X obj 338 264 send_nrpn 400;
#X obj 481 125 r TETRA_MIDI_CHANNEL;
#X obj 481 224 r TETRA_MULTI_MODE;
#X obj 481 152 clip 0 16;
#X obj 578 167 send_nrpn 386;
#X obj 578 267 send_nrpn 407;
#X obj 481 324 r TETRA_POT_MODE;
#X obj 578 367 send_nrpn 404;
#X obj 481 352 clip 0 2;
#X obj 711 49 clip 0 1;
#X obj 808 64 send_nrpn 411;
#X obj 808 164 send_nrpn 412;
#X obj 711 121 r TETRA_PROGRAM_COMBO;
#X obj 711 149 clip 0 1;
#X obj 808 264 send_nrpn 413;
#X obj 711 221 r TETRA_SELECT_VOICE;
#X obj 711 249 clip 0 4;
#X obj 711 22 r TETRA_SELECT_LAYER_AB;
#X obj 928 146 clip 0 127;
#X obj 1021 161 send_nrpn 118;
#X obj 928 120 r TETRA_SPLIT_POINT;
#X obj 481 22 r TETRA_MIDI_CLOCK_SOURCE;
#X obj 578 64 send_nrpn 388;
#X obj 481 49 clip 0 3;
#X obj 55 122 r TETRA_BALANCE_TWEAK;
#X obj 152 164 send_nrpn 403;
#X obj 55 149 clip 0 13;
#X obj 928 20 r TETRA_KEYBOARD_MODE;
#X obj 928 46 clip 0 2;
#X obj 1021 61 send_nrpn 119;
#X obj 481 252 clip 0 1;
#X connect 1 0 2 0;
#X connect 2 0 0 0;
#X connect 4 0 3 0;
#X connect 6 0 5 0;
#X connect 7 0 6 0;
#X connect 8 0 4 0;
#X connect 9 0 1 0;
#X connect 10 0 8 0;
#X connect 11 0 7 0;
#X connect 12 0 14 0;
#X connect 13 0 15 0;
#X connect 14 0 16 0;
#X connect 15 0 17 0;
#X connect 18 0 19 0;
#X connect 19 0 20 0;
#X connect 21 0 23 0;
#X connect 22 0 50 0;
#X connect 23 0 24 0;
#X connect 26 0 28 0;
#X connect 28 0 27 0;
#X connect 29 0 30 0;
#X connect 32 0 33 0;
#X connect 33 0 31 0;
#X connect 35 0 36 0;
#X connect 36 0 34 0;
#X connect 37 0 29 0;
#X connect 38 0 39 0;
#X connect 40 0 38 0;
#X connect 41 0 43 0;
#X connect 43 0 42 0;
#X connect 44 0 46 0;
#X connect 46 0 45 0;
#X connect 47 0 48 0;
#X connect 48 0 49 0;
#X connect 50 0 25 0;
