#N canvas 1 119 450 300 10;
#N canvas 0 86 511 514 Q_oscillators 0;
#X obj 6 39 clip 0 120;
#X obj 7 132 clip 0 100;
#X obj 6 233 clip 0 103;
#X obj 4 323 clip 0 127;
#X obj 7 422 clip 0 1;
#X obj 234 39 clip 0 120;
#X obj 235 132 clip 0 100;
#X obj 234 233 clip 0 103;
#X obj 232 323 clip 0 127;
#X obj 235 422 clip 0 1;
#X obj 469 41 clip 0 1;
#X obj 480 231 clip 0 5;
#X obj 475 329 clip 0 127;
#X obj 474 426 clip 0 127;
#X obj 472 137 clip 0 3;
#X obj 8 520 clip 0 127;
#X obj 236 520 clip 0 127;
#X obj 477 522 clip 0 127;
#X obj 475 618 clip 0 127;
#X obj 6 13 r TETRA_Q_OSC_1_FREQ;
#X obj 7 106 r TETRA_Q_OSC_1_FREQ_FINE;
#X obj 6 207 r TETRA_Q_OSC_1_SHAPE;
#X obj 4 297 r TETRA_Q_GLIDE_1;
#X obj 7 396 r TETRA_Q_OSC_1_KEY;
#X obj 8 494 r TETRA_Q_SUB_OSC_1_VOL;
#X obj 236 494 r TETRA_Q_SUB_OSC_2_VOL;
#X obj 477 496 r TETRA_Q_FEEDBACK_GAIN;
#X obj 475 592 r TETRA_Q_FEEDBACK_VOL;
#X obj 235 396 r TETRA_Q_OSC_2_KEY;
#X obj 232 296 r TETRA_Q_GLIDE_2;
#X obj 234 207 r TETRA_Q_OSC_2_SHAPE;
#X obj 235 106 r TETRA_Q_OSC_2_FREQ_FINE;
#X obj 234 13 r TETRA_Q_OSC_2_FREQ;
#X obj 469 15 r TETRA_Q_SYNC;
#X obj 472 113 r TETRA_Q_GLIDE_MODE;
#X obj 475 303 r TETRA_Q_OSC_MIX;
#X obj 474 400 r TETRA_Q_NOISE_LEVEL;
#X obj 101 535 send_nrpn 1650;
#X obj 329 535 send_nrpn 1651;
#X obj 568 633 send_nrpn 1652;
#X obj 570 537 send_nrpn 1646;
#X obj 98 54 send_nrpn 1536;
#X obj 101 147 send_nrpn 1537;
#X obj 103 248 send_nrpn 1538;
#X obj 101 338 send_nrpn 1539;
#X obj 104 437 send_nrpn 1540;
#X obj 326 54 send_nrpn 1541;
#X obj 329 147 send_nrpn 1542;
#X obj 331 248 send_nrpn 1543;
#X obj 329 338 send_nrpn 1544;
#X obj 332 437 send_nrpn 1545;
#X obj 566 56 send_nrpn 1546;
#X obj 571 152 send_nrpn 1547;
#X obj 572 246 send_nrpn 1548;
#X obj 572 344 send_nrpn 1549;
#X obj 571 441 send_nrpn 1550;
#X obj 480 205 r TETRA_Q_OSC_SLOP;
#X obj 719 44 clip 0 1;
#X obj 719 144 clip 0 5;
#X obj 811 158 send_nrpn 608;
#X obj 811 58 send_nrpn 611;
#X obj 719 18 r TETRA_Q_UNISON_ON_OFF;
#X obj 719 118 r TETRA_Q_UNISON_ASIGN;
#X connect 0 0 41 0;
#X connect 1 0 42 0;
#X connect 2 0 43 0;
#X connect 3 0 44 0;
#X connect 4 0 45 0;
#X connect 5 0 46 0;
#X connect 6 0 47 0;
#X connect 7 0 48 0;
#X connect 8 0 49 0;
#X connect 9 0 50 0;
#X connect 10 0 51 0;
#X connect 11 0 53 0;
#X connect 12 0 54 0;
#X connect 13 0 55 0;
#X connect 14 0 52 0;
#X connect 15 0 37 0;
#X connect 16 0 38 0;
#X connect 17 0 40 0;
#X connect 18 0 39 0;
#X connect 19 0 0 0;
#X connect 20 0 1 0;
#X connect 21 0 2 0;
#X connect 22 0 3 0;
#X connect 23 0 4 0;
#X connect 24 0 15 0;
#X connect 25 0 16 0;
#X connect 26 0 17 0;
#X connect 27 0 18 0;
#X connect 28 0 9 0;
#X connect 29 0 8 0;
#X connect 30 0 7 0;
#X connect 31 0 6 0;
#X connect 32 0 5 0;
#X connect 33 0 10 0;
#X connect 34 0 14 0;
#X connect 35 0 12 0;
#X connect 36 0 13 0;
#X connect 56 0 11 0;
#X connect 57 0 60 0;
#X connect 58 0 59 0;
#X connect 61 0 57 0;
#X connect 62 0 58 0;
#X restore 76 44 pd Q_oscillators;
#N canvas 1 87 1022 511 Q_filter 0;
#X obj 40 56 clip 0 164;
#X obj 38 144 clip 0 127;
#X obj 34 235 clip 0 127;
#X obj 34 323 clip 0 127;
#X obj 30 414 clip 0 1;
#X obj 309 87 clip 0 254;
#X obj 306 179 clip 0 127;
#X obj 660 56 clip 0 127;
#X obj 660 144 clip 0 127;
#X obj 655 231 clip 0 127;
#X obj 652 322 clip 0 127;
#X obj 647 417 clip 0 127;
#X obj 40 30 r TETRA_Q_FILTER_FREQ;
#X obj 38 118 r TETRA_Q_RESONANCE;
#X obj 34 210 r TETRA_Q_FIL_KEY_AMT;
#X obj 34 297 r TETRA_Q_FIL_AUDIO_MOD;
#X obj 30 388 r TETRA_Q_FILTER_POLES;
#X obj 309 61 r TETRA_Q_FILTER_ENV_AMT;
#X obj 306 153 r TETRA_Q_FIL_ENV_VEL_AMT;
#X obj 660 30 r TETRA_Q_FIL_DEL;
#X obj 660 118 r TETRA_Q_FIL_ATT;
#X obj 655 205 r TETRA_Q_FIL_DEC;
#X obj 652 295 r TETRA_Q_FIL_SUS;
#X obj 647 391 r TETRA_Q_FIL_REL;
#X obj 139 71 send_nrpn 1551;
#X obj 137 159 send_nrpn 1552;
#X obj 133 250 send_nrpn 1553;
#X obj 133 338 send_nrpn 1554;
#X obj 129 429 send_nrpn 1555;
#X obj 408 102 send_nrpn 1556;
#X obj 405 194 send_nrpn 1557;
#X obj 759 71 send_nrpn 1558;
#X obj 759 159 send_nrpn 1559;
#X obj 754 246 send_nrpn 1560;
#X obj 751 337 send_nrpn 1561;
#X obj 746 432 send_nrpn 1562;
#X connect 0 0 24 0;
#X connect 1 0 25 0;
#X connect 2 0 26 0;
#X connect 3 0 27 0;
#X connect 4 0 28 0;
#X connect 5 0 29 0;
#X connect 6 0 30 0;
#X connect 7 0 31 0;
#X connect 8 0 32 0;
#X connect 9 0 33 0;
#X connect 10 0 34 0;
#X connect 11 0 35 0;
#X connect 12 0 0 0;
#X connect 13 0 1 0;
#X connect 14 0 2 0;
#X connect 15 0 3 0;
#X connect 16 0 4 0;
#X connect 17 0 5 0;
#X connect 18 0 6 0;
#X connect 19 0 7 0;
#X connect 20 0 8 0;
#X connect 21 0 9 0;
#X connect 22 0 10 0;
#X connect 23 0 11 0;
#X restore 76 63 pd Q_filter;
#N canvas 1 87 1022 511 Q_vca 0;
#X obj -112 60 clip 0 127;
#X obj -113 156 clip 0 127;
#X obj -116 337 clip 0 127;
#X obj -115 425 clip 0 127;
#X obj 154 57 clip 0 127;
#X obj 153 153 clip 0 127;
#X obj 152 246 clip 0 127;
#X obj 150 334 clip 0 127;
#X obj 151 422 clip 0 127;
#X obj -112 34 r TETRA_Q_VCA_LEVEL;
#X obj -113 130 r TETRA_Q_OUTPUT_PAN;
#X obj -116 311 r TETRA_Q_VCA_ENV_AMOUNT;
#X obj -115 399 r TETRA_Q_VCA_ENV_VEL_AMT;
#X obj 154 31 r TETRA_Q_VCA_DEL;
#X obj 153 127 r TETRA_Q_VCA_ATT;
#X obj 152 220 r TETRA_Q_VCA_DEC;
#X obj 150 308 r TETRA_Q_VCA_SUS;
#X obj 151 396 r TETRA_Q_VCA_REL;
#X obj -15 75 send_nrpn 1563;
#X obj -16 171 send_nrpn 1564;
#X obj -19 352 send_nrpn 1566;
#X obj -18 440 send_nrpn 1567;
#X obj 250 72 send_nrpn 1568;
#X obj 250 168 send_nrpn 1569;
#X obj 249 261 send_nrpn 1570;
#X obj 247 349 send_nrpn 1571;
#X obj 248 437 send_nrpn 1572;
#X connect 0 0 18 0;
#X connect 1 0 19 0;
#X connect 2 0 20 0;
#X connect 3 0 21 0;
#X connect 4 0 22 0;
#X connect 5 0 23 0;
#X connect 6 0 24 0;
#X connect 7 0 25 0;
#X connect 8 0 26 0;
#X connect 9 0 0 0;
#X connect 10 0 1 0;
#X connect 11 0 2 0;
#X connect 12 0 3 0;
#X connect 13 0 4 0;
#X connect 14 0 5 0;
#X connect 15 0 6 0;
#X connect 16 0 7 0;
#X connect 17 0 8 0;
#X restore 76 82 pd Q_vca;
#N canvas 1 87 1022 511 Q_lfo 0;
#X obj 44 57 clip 0 166;
#X obj 44 154 clip 0 4;
#X obj 38 251 clip 0 127;
#X obj 30 437 clip 0 1;
#X obj 240 57 clip 0 166;
#X obj 240 154 clip 0 4;
#X obj 234 251 clip 0 127;
#X obj 226 437 clip 0 1;
#X obj 440 57 clip 0 166;
#X obj 440 154 clip 0 4;
#X obj 434 251 clip 0 127;
#X obj 426 437 clip 0 1;
#X obj 636 57 clip 0 166;
#X obj 636 154 clip 0 4;
#X obj 630 251 clip 0 127;
#X obj 622 437 clip 0 1;
#X obj 34 346 clip 0 48;
#X obj 230 346 clip 0 48;
#X obj 430 346 clip 0 48;
#X obj 626 346 clip 0 48;
#X obj 44 31 r TETRA_Q_LFO_1_FREQ;
#X obj 44 128 r TETRA_Q_LFO_1_SHAPE;
#X obj 38 225 r TETRA_Q_LFO_1_AMT;
#X obj 34 320 r TETRA_Q_LFO_1_DEST;
#X obj 30 411 r TETRA_Q_LFO_1_SYNC;
#X obj 240 31 r TETRA_Q_LFO_2_FREQ;
#X obj 240 128 r TETRA_Q_LFO_2_SHAPE;
#X obj 234 225 r TETRA_Q_LFO_2_AMT;
#X obj 230 320 r TETRA_Q_LFO_2_DEST;
#X obj 226 411 r TETRA_Q_LFO_2_SYNC;
#X obj 426 411 r TETRA_Q_LFO_3_SYNC;
#X obj 430 320 r TETRA_Q_LFO_3_DEST;
#X obj 434 225 r TETRA_Q_LFO_3_AMT;
#X obj 440 128 r TETRA_Q_LFO_3_SHAPE;
#X obj 440 31 r TETRA_Q_LFO_3_FREQ;
#X obj 636 31 r TETRA_Q_LFO_4_FREQ;
#X obj 636 128 r TETRA_Q_LFO_4_SHAPE;
#X obj 630 225 r TETRA_Q_LFO_4_AMT;
#X obj 626 320 r TETRA_Q_LFO_4_DEST;
#X obj 622 411 r TETRA_Q_LFO_4_SYNC;
#X obj 137 72 send_nrpn 1573;
#X obj 137 169 send_nrpn 1574;
#X obj 131 266 send_nrpn 1575;
#X obj 127 361 send_nrpn 1576;
#X obj 123 452 send_nrpn 1577;
#X obj 333 72 send_nrpn 1578;
#X obj 333 169 send_nrpn 1579;
#X obj 327 266 send_nrpn 1580;
#X obj 323 361 send_nrpn 1581;
#X obj 319 452 send_nrpn 1582;
#X obj 533 72 send_nrpn 1583;
#X obj 533 169 send_nrpn 1584;
#X obj 527 266 send_nrpn 1585;
#X obj 523 361 send_nrpn 1586;
#X obj 519 452 send_nrpn 1587;
#X obj 729 72 send_nrpn 1588;
#X obj 729 169 send_nrpn 1589;
#X obj 723 266 send_nrpn 1590;
#X obj 719 361 send_nrpn 1591;
#X obj 715 452 send_nrpn 1592;
#X connect 0 0 40 0;
#X connect 1 0 41 0;
#X connect 2 0 42 0;
#X connect 3 0 44 0;
#X connect 4 0 45 0;
#X connect 5 0 46 0;
#X connect 6 0 47 0;
#X connect 7 0 49 0;
#X connect 8 0 50 0;
#X connect 9 0 51 0;
#X connect 10 0 52 0;
#X connect 11 0 54 0;
#X connect 12 0 55 0;
#X connect 13 0 56 0;
#X connect 14 0 57 0;
#X connect 15 0 59 0;
#X connect 16 0 43 0;
#X connect 17 0 48 0;
#X connect 18 0 53 0;
#X connect 19 0 58 0;
#X connect 20 0 0 0;
#X connect 21 0 1 0;
#X connect 22 0 2 0;
#X connect 23 0 16 0;
#X connect 24 0 3 0;
#X connect 25 0 4 0;
#X connect 26 0 5 0;
#X connect 27 0 6 0;
#X connect 28 0 17 0;
#X connect 29 0 7 0;
#X connect 30 0 11 0;
#X connect 31 0 18 0;
#X connect 32 0 10 0;
#X connect 33 0 9 0;
#X connect 34 0 8 0;
#X connect 35 0 12 0;
#X connect 36 0 13 0;
#X connect 37 0 14 0;
#X connect 38 0 19 0;
#X connect 39 0 15 0;
#X restore 76 100 pd Q_lfo;
#N canvas 1 87 1022 511 Q_env3 0;
#X obj 15 246 clip 0 127;
#X obj 385 68 clip 0 127;
#X obj 381 161 clip 0 127;
#X obj 378 248 clip 0 127;
#X obj 377 337 clip 0 127;
#X obj 374 430 clip 0 127;
#X obj 17 158 clip 0 254;
#X obj 17 68 clip 0 48;
#X obj 17 42 r TETRA_Q_ENV_3_DEST;
#X obj 17 132 r TETRA_Q_ENV_3_AMT;
#X obj 15 220 r TETRA_Q_ENV_3_VEL_AMT;
#X obj 385 42 r TETRA_Q_ENV_3_DELAY;
#X obj 381 135 r TETRA_Q_ENV_3_ATT;
#X obj 378 222 r TETRA_Q_ENV_3_DEC;
#X obj 377 311 r TETRA_Q_ENV_3_SUS;
#X obj 374 404 r TETRA_Q_ENV_3_REL;
#X obj 110 83 send_nrpn 1593;
#X obj 110 173 send_nrpn 1594;
#X obj 108 261 send_nrpn 1595;
#X obj 478 83 send_nrpn 1596;
#X obj 474 176 send_nrpn 1597;
#X obj 471 263 send_nrpn 1598;
#X obj 470 352 send_nrpn 1599;
#X obj 467 445 send_nrpn 1600;
#X obj 15 336 clip 0 1;
#X obj 15 310 r TETRA_Q_ENV_3_REPEAT;
#X obj 108 351 send_nrpn 1634;
#X connect 0 0 18 0;
#X connect 1 0 19 0;
#X connect 2 0 20 0;
#X connect 3 0 21 0;
#X connect 4 0 22 0;
#X connect 5 0 23 0;
#X connect 6 0 17 0;
#X connect 7 0 16 0;
#X connect 8 0 7 0;
#X connect 9 0 6 0;
#X connect 10 0 0 0;
#X connect 11 0 1 0;
#X connect 12 0 2 0;
#X connect 13 0 3 0;
#X connect 14 0 4 0;
#X connect 15 0 5 0;
#X connect 24 0 26 0;
#X connect 25 0 24 0;
#X restore 76 118 pd Q_env3;
#N canvas 1 87 1022 511 Q_mod 0;
#X obj 23 64 clip 0 20;
#X obj 22 158 clip 0 254;
#X obj 223 64 clip 0 20;
#X obj 222 158 clip 0 254;
#X obj 423 64 clip 0 20;
#X obj 422 158 clip 0 254;
#X obj 623 64 clip 0 20;
#X obj 622 158 clip 0 254;
#X obj 18 254 clip 0 48;
#X obj 218 254 clip 0 48;
#X obj 418 254 clip 0 48;
#X obj 618 254 clip 0 48;
#X obj 23 38 r TETRA_Q_MOD_SOURCE_1;
#X obj 22 132 r TETRA_Q_MOD_AMT_1;
#X obj 18 228 r TETRA_Q_MOD_DEST_1;
#X obj 218 228 r TETRA_Q_MOD_DEST_2;
#X obj 222 132 r TETRA_Q_MOD_AMT_2;
#X obj 223 38 r TETRA_Q_MOD_SOURCE_2;
#X obj 423 38 r TETRA_Q_MOD_SOURCE_3;
#X obj 422 132 r TETRA_Q_MOD_AMT_3;
#X obj 418 228 r TETRA_Q_MOD_DEST_3;
#X obj 618 228 r TETRA_Q_MOD_DEST_4;
#X obj 622 132 r TETRA_Q_MOD_AMT_4;
#X obj 623 38 r TETRA_Q_MOD_SOURCE_4;
#X obj 116 79 send_nrpn 1601;
#X obj 115 173 send_nrpn 1602;
#X obj 111 268 send_nrpn 1603;
#X obj 316 79 send_nrpn 1604;
#X obj 315 173 send_nrpn 1605;
#X obj 311 268 send_nrpn 1606;
#X obj 516 79 send_nrpn 1607;
#X obj 515 173 send_nrpn 1608;
#X obj 511 268 send_nrpn 1609;
#X obj 716 79 send_nrpn 1610;
#X obj 715 173 send_nrpn 1611;
#X obj 711 268 send_nrpn 1612;
#X connect 0 0 24 0;
#X connect 1 0 25 0;
#X connect 2 0 27 0;
#X connect 3 0 28 0;
#X connect 4 0 30 0;
#X connect 5 0 31 0;
#X connect 6 0 33 0;
#X connect 7 0 34 0;
#X connect 8 0 26 0;
#X connect 9 0 29 0;
#X connect 10 0 32 0;
#X connect 11 0 35 0;
#X connect 12 0 0 0;
#X connect 13 0 1 0;
#X connect 14 0 8 0;
#X connect 15 0 9 0;
#X connect 16 0 3 0;
#X connect 17 0 2 0;
#X connect 18 0 4 0;
#X connect 19 0 5 0;
#X connect 20 0 10 0;
#X connect 21 0 11 0;
#X connect 22 0 7 0;
#X connect 23 0 6 0;
#X restore 76 137 pd Q_mod;
#N canvas 1 87 1022 511 Q_controlers 0;
#X obj 51 61 clip 0 255;
#X obj 50 155 clip 0 48;
#X obj 51 251 clip 0 255;
#X obj 50 345 clip 0 48;
#X obj 271 61 clip 0 255;
#X obj 270 155 clip 0 48;
#X obj 271 251 clip 0 255;
#X obj 270 345 clip 0 48;
#X obj 481 61 clip 0 255;
#X obj 480 155 clip 0 48;
#X obj 490 347 clip 0 12;
#X obj 723 60 clip 0 127;
#X obj 723 160 clip 0 127;
#X obj 723 260 clip 0 1;
#X obj 51 35 r TETRA_Q_MOD_WHEEL_AMT;
#X obj 50 129 r TETRA_Q_MOD_WHEEL_DEST;
#X obj 51 225 r TETRA_Q_PRESSURE_AMT;
#X obj 50 319 r TETRA_Q_PRESSURE_DEST;
#X obj 270 319 r TETRA_Q_VELOCITY_DEST;
#X obj 271 225 r TETRA_Q_VELOCITY_AMT;
#X obj 270 129 r TETRA_Q_BREATH_DEST;
#X obj 271 35 r TETRA_Q_BREATH_AMT;
#X obj 481 35 r TETRA_Q_FOOT_AMT;
#X obj 480 129 r TETRA_Q_FOOT_DEST;
#X obj 490 321 r TETRA_Q_PBEND_RANGE;
#X obj 723 34 r TETRA_Q_PUSH_IT_NOTE;
#X obj 723 134 r TETRA_Q_PUSH_IT_VELOCITY;
#X obj 723 234 r TETRA_Q_PUSH_IT_MODE;
#X obj 144 76 send_nrpn 1617;
#X obj 143 170 send_nrpn 1618;
#X obj 144 266 send_nrpn 1619;
#X obj 143 360 send_nrpn 1620;
#X obj 364 76 send_nrpn 1621;
#X obj 363 170 send_nrpn 1622;
#X obj 364 266 send_nrpn 1623;
#X obj 363 360 send_nrpn 1624;
#X obj 574 76 send_nrpn 1625;
#X obj 573 170 send_nrpn 1626;
#X obj 583 362 send_nrpn 1629;
#X obj 816 74 send_nrpn 1647;
#X obj 816 174 send_nrpn 1648;
#X obj 816 274 send_nrpn 1649;
#X connect 0 0 28 0;
#X connect 1 0 29 0;
#X connect 2 0 30 0;
#X connect 3 0 31 0;
#X connect 4 0 32 0;
#X connect 5 0 33 0;
#X connect 6 0 34 0;
#X connect 7 0 35 0;
#X connect 8 0 36 0;
#X connect 9 0 37 0;
#X connect 10 0 38 0;
#X connect 11 0 39 0;
#X connect 12 0 40 0;
#X connect 13 0 41 0;
#X connect 14 0 0 0;
#X connect 15 0 1 0;
#X connect 16 0 2 0;
#X connect 17 0 3 0;
#X connect 18 0 7 0;
#X connect 19 0 6 0;
#X connect 20 0 5 0;
#X connect 21 0 4 0;
#X connect 22 0 8 0;
#X connect 23 0 9 0;
#X connect 24 0 10 0;
#X connect 25 0 11 0;
#X connect 26 0 12 0;
#X connect 27 0 13 0;
#X restore 76 155 pd Q_controlers;
#N canvas 511 87 511 511 Q_seq_arp 0;
#X obj 245 62 clip 0 1;
#X obj 245 252 clip 30 250;
#X obj 244 346 clip 0 12;
#X obj 458 254 clip 0 48;
#X obj 458 354 clip 0 48;
#X obj 462 158 clip 0 48;
#X obj 463 64 clip 0 48;
#X obj 248 158 clip 0 4;
#X obj 245 36 r TETRA_Q_SEQ_ON_OFF;
#X obj 248 132 r TETRA_Q_SEQ_TRIGGER;
#X obj 245 226 r TETRA_Q_TEMPO;
#X obj 244 320 r TETRA_Q_TIME_SIG;
#X obj 458 328 r TETRA_Q_SEQ_4_DEST;
#X obj 458 228 r TETRA_Q_SEQ_3_DEST;
#X obj 462 132 r TETRA_Q_SEQ_2_DEST;
#X obj 463 38 r TETRA_Q_SEQ_1_DEST;
#X obj 338 77 send_nrpn 1637;
#X obj 341 173 send_nrpn 1630;
#X obj 338 267 send_nrpn 1627;
#X obj 337 361 send_nrpn 1628;
#X obj 556 79 send_nrpn 1613;
#X obj 555 173 send_nrpn 1614;
#X obj 551 268 send_nrpn 1615;
#X obj 551 368 send_nrpn 1616;
#X connect 0 0 16 0;
#X connect 1 0 18 0;
#X connect 2 0 19 0;
#X connect 3 0 22 0;
#X connect 4 0 23 0;
#X connect 5 0 21 0;
#X connect 6 0 20 0;
#X connect 7 0 17 0;
#X connect 8 0 0 0;
#X connect 9 0 7 0;
#X connect 10 0 1 0;
#X connect 11 0 2 0;
#X connect 12 0 4 0;
#X connect 13 0 3 0;
#X connect 14 0 5 0;
#X connect 15 0 6 0;
#X restore 76 173 pd Q_seq_arp;
#N canvas 1 87 1022 511 Q_sequencers 1;
#X obj 48 47 unpack;
#X obj 48 70 clip 0 127;
#X obj 123 69 clip 0 15;
#X obj 48 167 unpack;
#X obj 123 189 clip 0 15;
#X obj 48 287 unpack;
#X obj 123 309 clip 0 15;
#X obj 48 407 unpack;
#X obj 123 429 clip 0 15;
#X obj 48 190 clip 0 126;
#X obj 48 310 clip 0 126;
#X obj 48 430 clip 0 126;
#X obj 48 27 r TETRA_Q_SEQ_1;
#X obj 48 147 r TETRA_Q_SEQ_2;
#X obj 48 267 r TETRA_Q_SEQ_3;
#X obj 48 387 r TETRA_Q_SEQ_4;
#X obj 48 89 send_nrpn 1656;
#X obj 48 209 send_nrpn 1672;
#X obj 48 329 send_nrpn 1688;
#X obj 48 449 send_nrpn 1704;
#X connect 0 0 2 0;
#X connect 0 1 1 0;
#X connect 1 0 16 0;
#X connect 2 0 16 1;
#X connect 3 0 4 0;
#X connect 3 1 9 0;
#X connect 4 0 17 1;
#X connect 5 0 6 0;
#X connect 5 1 10 0;
#X connect 6 0 18 1;
#X connect 7 0 8 0;
#X connect 7 1 11 0;
#X connect 8 0 19 1;
#X connect 9 0 17 0;
#X connect 10 0 18 0;
#X connect 11 0 19 0;
#X connect 12 0 0 0;
#X connect 13 0 3 0;
#X connect 14 0 5 0;
#X connect 15 0 7 0;
#X restore 76 191 pd Q_sequencers;
