#N canvas 1 89 1021 480 10;
#X obj 101 115 cnv 15 178 304 empty empty empty 20 12 0 14 -257985
-66577 0;
#X floatatom 339 95 5 0 14 1 Arpeg/Mode - /Tetr4/#1/#2/Arpeg/Mode;
#X floatatom -4 114 5 0 12 1 ClockDiv - /Tetr4/#1/#2/Clock/ClockDiv
;
#X obj 140 232 tgl 15 0 /Tetr4/\$1/\$2/Arpegiator/OnOff empty Arpegiator/OnOff
17 7 0 10 -262144 -1 -1 0 128;
#X obj 139 306 tgl 15 0 /Tetr4/\$1/\$2/Sequencer/OnOff empty Sequencer/OnOff
17 7 0 10 -262144 -1 -1 0 1;
#X obj 138 345 hradio 15 1 0 5 /Tetr4/\$1/\$2/Sequencer/Trigger empty
Sequencer/Trigger 0 -8 0 10 -262144 -1 -1 0;
#X symbolatom 140 190 14 0 0 0 - - -;
#X text 124 362 0 normal \; 1 normal no reset \; 2 no gate \; 3 no
gate no reset \; 4 key step;
#X symbolatom 139 264 14 0 0 0 - - -;
#X obj 143 143 hsl 111 15 30 250 0 0 /Tetr4/\$1/\$2/Clock/BPM empty
BPM -2 -8 0 10 -262144 -1 -1 0 1;
#X floatatom 140 158 5 0 0 0 - - -;
#X obj -3 25 inlet;
#X obj 339 14 inlet;
#X obj 773 365 symbol;
#X obj 963 365 symbol;
#X obj 572 177 symbol;
#X obj 580 60 sel 0 1 2 3 4 5 6 7 8 9;
#X obj 770 60 sel 10 11 12 13 14;
#X msg 773 91 Up;
#X msg 773 111 Down;
#X msg 773 131 Up/Down;
#X msg 773 151 Assign;
#X msg 773 171 Random;
#X msg 773 191 2oct_Up;
#X msg 773 211 2oct_Down;
#X msg 773 231 2oct_Up/Down;
#X msg 773 251 2oct_Assign;
#X msg 773 271 2oct_Random;
#X msg 963 91 3oct_Up;
#X msg 963 111 3oct_Down;
#X msg 963 131 3oct_Up/Down;
#X msg 963 151 3oct_Assign;
#X msg 963 171 3oct_Random;
#X obj 241 763 symbol;
#X obj 40 575 symbol;
#X obj 48 458 sel 0 1 2 3 4 5;
#X obj 403 764 symbol;
#X obj 210 459 sel 6 7 8 9 10 11 12;
#X msg 241 489 1/2;
#X msg 241 509 1/4;
#X msg 241 529 1/8;
#X msg 241 549 1/8_swing;
#X msg 241 569 1/8_shuffle;
#X msg 241 589 1/8_triplet;
#X msg 403 490 1/16;
#X msg 403 510 1/16_swing;
#X msg 403 530 1/16_shuffle;
#X msg 403 550 1/16_triplet;
#X msg 403 570 1/32;
#X msg 403 590 1/32_triplet;
#X msg 403 610 1/64_triplet;
#X text 137 174 ClockDiv;
#X text 136 248 Arpeg/Mode;
#X obj 19 52 r /Tetr4/\$1/\$2/Clock/ClockDiv-set;
#X obj 401 10 r /Tetr4/\$1/\$2/Arpeg/Mode-set;
#X obj 325 177 r /Tetr4/\$1/\$2/Clock/BPM-set;
#X obj 296 264 r /Tetr4/\$1/\$2/Arpegiator/OnOff-set;
#X obj 309 345 r /Tetr4/\$1/\$2/Sequencer/OnOff-set;
#X obj 312 383 r /Tetr4/\$1/\$2/Sequencer/Trigger-set;
#X obj 423 69 unpack s f;
#X obj 26 195 unpack s f;
#X connect 9 0 10 0;
#X connect 11 0 2 0;
#X connect 11 0 35 0;
#X connect 12 0 1 0;
#X connect 12 0 16 0;
#X connect 13 0 15 0;
#X connect 14 0 15 0;
#X connect 15 0 8 0;
#X connect 16 0 18 0;
#X connect 16 1 19 0;
#X connect 16 2 20 0;
#X connect 16 3 21 0;
#X connect 16 4 22 0;
#X connect 16 5 23 0;
#X connect 16 6 24 0;
#X connect 16 7 25 0;
#X connect 16 8 26 0;
#X connect 16 9 27 0;
#X connect 16 10 17 0;
#X connect 17 0 28 0;
#X connect 17 1 29 0;
#X connect 17 2 30 0;
#X connect 17 3 31 0;
#X connect 17 4 32 0;
#X connect 18 0 13 0;
#X connect 19 0 13 0;
#X connect 20 0 13 0;
#X connect 21 0 13 0;
#X connect 22 0 13 0;
#X connect 23 0 13 0;
#X connect 24 0 13 0;
#X connect 25 0 13 0;
#X connect 26 0 13 0;
#X connect 27 0 13 0;
#X connect 28 0 14 0;
#X connect 29 0 14 0;
#X connect 30 0 14 0;
#X connect 31 0 14 0;
#X connect 32 0 14 0;
#X connect 33 0 34 0;
#X connect 34 0 6 0;
#X connect 35 0 38 0;
#X connect 35 1 39 0;
#X connect 35 2 40 0;
#X connect 35 3 41 0;
#X connect 35 4 42 0;
#X connect 35 5 43 0;
#X connect 35 6 37 0;
#X connect 36 0 34 0;
#X connect 37 0 44 0;
#X connect 37 1 45 0;
#X connect 37 2 46 0;
#X connect 37 3 47 0;
#X connect 37 4 48 0;
#X connect 37 5 49 0;
#X connect 37 6 50 0;
#X connect 38 0 33 0;
#X connect 39 0 33 0;
#X connect 40 0 33 0;
#X connect 41 0 33 0;
#X connect 42 0 33 0;
#X connect 43 0 33 0;
#X connect 44 0 36 0;
#X connect 45 0 36 0;
#X connect 46 0 36 0;
#X connect 47 0 36 0;
#X connect 48 0 36 0;
#X connect 49 0 36 0;
#X connect 50 0 36 0;
#X connect 53 0 2 0;
#X connect 53 0 60 0;
#X connect 54 0 1 0;
#X connect 54 0 59 0;
#X connect 55 0 9 0;
#X connect 56 0 3 0;
#X connect 57 0 4 0;
#X connect 58 0 5 0;
#X connect 59 1 16 0;
#X connect 60 1 35 0;
#X coords 0 -1 1 1 180 320 1 100 100;
