#N canvas 1 89 1021 465 10;
#X obj 101 115 cnv 15 178 304 empty empty empty 20 12 0 14 -257985
-66577 0;
#X obj 129 154 tgl 15 0 /Tetr4/\$1/\$2/Env3/Repeat empty Repeat 17
7 0 10 -262144 -1 -1 0 5;
#X symbolatom 129 132 20 0 0 0 - - -;
#X obj 129 270 hsl 128 15 0 127 0 0 /Tetr4/\$1/\$2/Env3/EnvDelay empty
EnvDelay -2 -8 0 10 -262144 -1 -1 0 1;
#X obj 129 300 hsl 128 15 0 127 0 0 /Tetr4/\$1/\$2/Env3/EnvAttack empty
EnvAttack -2 -8 0 10 -262144 -1 -1 0 1;
#X obj 129 330 hsl 128 15 0 127 0 0 /Tetr4/\$1/\$2/Env3/EnvDecay empty
EnvDecay -2 -8 0 10 -262144 -1 -1 0 1;
#X obj 129 360 hsl 128 15 0 127 0 0 /Tetr4/\$1/\$2/Env3/EnvSustain
empty EnvSustain -2 -8 0 10 -262144 -1 -1 0 1;
#X obj 129 390 hsl 128 15 0 127 0 0 /Tetr4/\$1/\$2/Env3/EnvRelease
empty EnvRelease -2 -8 0 10 -262144 -1 -1 0 1;
#X obj 129 190 hsl 128 15 0 255 0 0 /Tetr4/\$1/\$2/Env3/Amount empty
Amount -2 -8 0 10 -262144 -1 -1 0 1;
#X obj 129 220 hsl 128 15 0 127 0 0 /Tetr4/\$1/\$2/Env3/EnvVelocity
empty EnvVelocity -2 -8 0 10 -262144 -1 -1 0 1;
#X floatatom 52 85 5 0 48 1 Dest - /Tetr4/#1/#2/Env3/Dest;
#X obj 52 7 inlet;
#X text 128 115 Dest;
#X msg 752 73 Osc_1_Freq;
#X msg 752 93 Osc_2_Freq;
#X msg 752 113 Osc_All_Freq;
#X obj 752 347 symbol;
#X obj 559 22 sel 0 1 2 3 4 5 6 7 8 9 10 11 12 13;
#X msg 752 53 off;
#X msg 752 133 Osc_Mix;
#X msg 752 153 Noise_Level;
#X msg 752 173 Osc_1_Pulse_Width;
#X msg 752 193 Osc_2_Pulse_Width;
#X msg 752 213 Osc_All_Pulse_Width;
#X msg 752 233 Filter_Cutoff;
#X msg 752 253 Filter_Resonance;
#X msg 752 273 Filter_Audio_Mod_Amt;
#X msg 752 293 VCA_Level;
#X msg 752 313 Pan_Spread;
#X obj 1062 347 symbol;
#X obj 815 22 sel 14 15 16 17 18 19 20 21 22 23 24 25 26 27;
#X msg 1062 53 LFO_1_Freq;
#X msg 1062 73 LFO_2_Freq;
#X msg 1062 93 LFO_3_Freq;
#X msg 1062 113 LFO_4_Freq;
#X msg 1062 133 LFO_All_Freq;
#X msg 1062 153 LFO_1_Amt;
#X msg 1062 173 LFO_2_Amt;
#X msg 1062 193 LFO_3_Amt;
#X msg 1062 213 LFO_4_Amt;
#X msg 1062 233 LFO_All_Amt;
#X msg 1062 253 Env_1_Amt;
#X msg 1062 313 Env_All_Amt;
#X msg 1062 273 Env_2_Amt;
#X msg 1062 293 Env_3_Amt;
#X obj 752 744 symbol;
#X obj 1062 744 symbol;
#X obj 505 419 sel 28 29 30 31 32 33 34 35 36 37 38 39;
#X msg 752 450 Env_1_Attack;
#X msg 752 470 Env_2_Attack;
#X msg 752 490 Env_3_Attack;
#X msg 752 510 Env_All_Attack;
#X msg 752 530 Env_1_Decay;
#X msg 752 550 Env_2_Decay;
#X msg 752 570 Env_3_Decay;
#X msg 752 590 Env_All_Decay;
#X msg 752 610 Env_1_Release;
#X msg 752 630 Env_2_Release;
#X msg 752 650 Env_3_Release;
#X msg 752 670 Env_All_Release;
#X obj 815 419 sel 40 41 42 43 44 45 46 47 48;
#X obj 562 106 symbol;
#X msg 1062 450 Mod_1_Amt;
#X msg 1062 470 Mod_2_Amt;
#X msg 1062 490 Mod_3_Amt;
#X msg 1062 510 Mod_4_Amt;
#X msg 1062 530 Feedback_Volume;
#X msg 1062 550 Sub_Osc_1_Level;
#X msg 1062 570 Sub_Osc_2_Level;
#X msg 1061 592 Feedback_Gain;
#X msg 1062 610 Slew;
#X obj 62 35 r /Tetr4/\$1/\$2/Env3/Dest-set;
#X obj 286 125 r /Tetr4/\$1/\$2/Env3/Repeat-set;
#X obj 283 174 r /Tetr4/\$1/\$2/Env3/Amount-set;
#X obj 286 204 r /Tetr4/\$1/\$2/Env3/EnvVelocity-set;
#X obj 287 252 r /Tetr4/\$1/\$2/Env3/EnvDelay-set;
#X obj 287 286 r /Tetr4/\$1/\$2/Env3/EnvAttack-set;
#X obj 290 312 r /Tetr4/\$1/\$2/Env3/EnvDecay-set;
#X obj 288 342 r /Tetr4/\$1/\$2/Env3/EnvSustain-set;
#X obj 289 374 r /Tetr4/\$1/\$2/Env3/EnvRelease-set;
#X obj 320 46 unpack s f;
#X connect 11 0 10 0;
#X connect 11 0 17 0;
#X connect 13 0 16 0;
#X connect 14 0 16 0;
#X connect 15 0 16 0;
#X connect 16 0 61 0;
#X connect 17 0 18 0;
#X connect 17 1 13 0;
#X connect 17 2 14 0;
#X connect 17 3 15 0;
#X connect 17 4 19 0;
#X connect 17 5 20 0;
#X connect 17 6 21 0;
#X connect 17 7 22 0;
#X connect 17 8 23 0;
#X connect 17 9 24 0;
#X connect 17 10 25 0;
#X connect 17 11 26 0;
#X connect 17 12 27 0;
#X connect 17 13 28 0;
#X connect 17 14 30 0;
#X connect 18 0 16 0;
#X connect 19 0 16 0;
#X connect 20 0 16 0;
#X connect 21 0 16 0;
#X connect 22 0 16 0;
#X connect 23 0 16 0;
#X connect 24 0 16 0;
#X connect 25 0 16 0;
#X connect 26 0 16 0;
#X connect 27 0 16 0;
#X connect 28 0 16 0;
#X connect 29 0 61 0;
#X connect 30 0 31 0;
#X connect 30 1 32 0;
#X connect 30 2 33 0;
#X connect 30 3 34 0;
#X connect 30 4 35 0;
#X connect 30 5 36 0;
#X connect 30 6 37 0;
#X connect 30 7 38 0;
#X connect 30 8 39 0;
#X connect 30 9 40 0;
#X connect 30 10 41 0;
#X connect 30 11 43 0;
#X connect 30 12 44 0;
#X connect 30 13 42 0;
#X connect 30 14 47 0;
#X connect 31 0 29 0;
#X connect 32 0 29 0;
#X connect 33 0 29 0;
#X connect 34 0 29 0;
#X connect 35 0 29 0;
#X connect 36 0 29 0;
#X connect 37 0 29 0;
#X connect 38 0 29 0;
#X connect 39 0 29 0;
#X connect 40 0 29 0;
#X connect 41 0 29 0;
#X connect 42 0 29 0;
#X connect 43 0 29 0;
#X connect 44 0 29 0;
#X connect 45 0 61 0;
#X connect 46 0 61 0;
#X connect 47 0 48 0;
#X connect 47 1 49 0;
#X connect 47 2 50 0;
#X connect 47 3 51 0;
#X connect 47 4 52 0;
#X connect 47 5 53 0;
#X connect 47 6 54 0;
#X connect 47 7 55 0;
#X connect 47 8 56 0;
#X connect 47 9 57 0;
#X connect 47 10 58 0;
#X connect 47 11 59 0;
#X connect 47 12 60 0;
#X connect 48 0 45 0;
#X connect 49 0 45 0;
#X connect 50 0 45 0;
#X connect 51 0 45 0;
#X connect 52 0 45 0;
#X connect 53 0 45 0;
#X connect 54 0 45 0;
#X connect 55 0 45 0;
#X connect 56 0 45 0;
#X connect 57 0 45 0;
#X connect 58 0 45 0;
#X connect 59 0 45 0;
#X connect 60 0 62 0;
#X connect 60 1 63 0;
#X connect 60 2 64 0;
#X connect 60 3 65 0;
#X connect 60 4 66 0;
#X connect 60 5 67 0;
#X connect 60 6 68 0;
#X connect 60 7 69 0;
#X connect 60 8 70 0;
#X connect 61 0 2 0;
#X connect 62 0 46 0;
#X connect 63 0 46 0;
#X connect 64 0 46 0;
#X connect 65 0 46 0;
#X connect 66 0 46 0;
#X connect 67 0 46 0;
#X connect 68 0 46 0;
#X connect 69 0 46 0;
#X connect 70 0 46 0;
#X connect 71 0 10 0;
#X connect 71 0 80 0;
#X connect 72 0 1 0;
#X connect 73 0 8 0;
#X connect 74 0 9 0;
#X connect 75 0 3 0;
#X connect 76 0 4 0;
#X connect 77 0 5 0;
#X connect 78 0 6 0;
#X connect 79 0 7 0;
#X connect 80 1 17 0;
#X coords 0 -1 1 1 180 320 1 100 100;
