#N canvas 1 89 1021 480 10;
#X obj 101 115 cnv 15 178 304 empty empty empty 20 12 0 14 -257985
-66577 0;
#X floatatom 305 123 5 0 48 1 Dest - /Tetr4/#1/#2/LFO3/Dest;
#X obj 155 198 tgl 15 0 /Tetr4/\$1/\$2/LFO3/KeySync empty KeySync 17
7 0 10 -262144 -1 -1 0 128;
#X obj 153 237 hradio 15 1 0 5 /Tetr4/\$1/\$2/LFO3/Shape empty Shape
0 -8 0 10 -262144 -1 -1 0;
#X text 167 258 0 tri \; 1 rev saw \; 2 saw \; 3 square \; 4 random
;
#X symbolatom 128 396 20 0 0 0 - - -;
#X obj 125 347 hsl 128 15 0 127 0 0 /Tetr4/\$1/\$2/LFO3/Amount empty
Amount -2 -8 0 10 -262144 -1 -1 0 1;
#X symbolatom 117 131 20 0 0 0 - - -;
#X obj 114 164 hsl 151 15 0 150 0 0 empty empty UnsyncedFreq -2 -8
0 10 -262144 -1 -1 0 1;
#X floatatom -64 129 5 0 166 1 Freqncy - /Tetr4/#1/#2/LFO3/Freqncy
;
#X obj 302 42 inlet;
#X obj -81 26 inlet;
#X obj 36 118 moses 151;
#X text 117 116 Freqncy;
#X text 127 379 Dest;
#X msg 744 75 Osc_1_Freq;
#X msg 744 95 Osc_2_Freq;
#X msg 744 115 Osc_All_Freq;
#X obj 744 349 symbol;
#X obj 551 24 sel 0 1 2 3 4 5 6 7 8 9 10 11 12 13;
#X msg 744 55 off;
#X msg 744 135 Osc_Mix;
#X msg 744 155 Noise_Level;
#X msg 744 175 Osc_1_Pulse_Width;
#X msg 744 195 Osc_2_Pulse_Width;
#X msg 744 215 Osc_All_Pulse_Width;
#X msg 744 235 Filter_Cutoff;
#X msg 744 255 Filter_Resonance;
#X msg 744 275 Filter_Audio_Mod_Amt;
#X msg 744 295 VCA_Level;
#X msg 744 315 Pan_Spread;
#X obj 1054 349 symbol;
#X obj 807 24 sel 14 15 16 17 18 19 20 21 22 23 24 25 26 27;
#X msg 1054 55 LFO_1_Freq;
#X msg 1054 75 LFO_2_Freq;
#X msg 1054 95 LFO_3_Freq;
#X msg 1054 115 LFO_4_Freq;
#X msg 1054 135 LFO_All_Freq;
#X msg 1054 155 LFO_1_Amt;
#X msg 1054 175 LFO_2_Amt;
#X msg 1054 195 LFO_3_Amt;
#X msg 1054 215 LFO_4_Amt;
#X msg 1054 235 LFO_All_Amt;
#X msg 1054 255 Env_1_Amt;
#X msg 1054 315 Env_All_Amt;
#X msg 1054 275 Env_2_Amt;
#X msg 1054 295 Env_3_Amt;
#X obj 744 746 symbol;
#X obj 1054 746 symbol;
#X obj 497 421 sel 28 29 30 31 32 33 34 35 36 37 38 39;
#X msg 744 452 Env_1_Attack;
#X msg 744 472 Env_2_Attack;
#X msg 744 492 Env_3_Attack;
#X msg 744 512 Env_All_Attack;
#X msg 744 532 Env_1_Decay;
#X msg 744 552 Env_2_Decay;
#X msg 744 572 Env_3_Decay;
#X msg 744 592 Env_All_Decay;
#X msg 744 612 Env_1_Release;
#X msg 744 632 Env_2_Release;
#X msg 744 652 Env_3_Release;
#X msg 744 672 Env_All_Release;
#X obj 807 421 sel 40 41 42 43 44 45 46 47 48;
#X obj 554 108 symbol;
#X msg 1054 452 Mod_1_Amt;
#X msg 1054 472 Mod_2_Amt;
#X msg 1054 492 Mod_3_Amt;
#X msg 1054 512 Mod_4_Amt;
#X msg 1054 532 Feedback_Volume;
#X msg 1054 552 Sub_Osc_1_Level;
#X msg 1054 572 Sub_Osc_2_Level;
#X msg 1053 594 Feedback_Gain;
#X msg 1054 612 Slew;
#X obj 208 794 symbol;
#X obj 518 794 symbol;
#X obj -31 575 symbol;
#X obj -39 469 sel 151 152 153 154 155 156 157 158 159;
#X obj 271 469 sel 160 161 162 163 164 165 166;
#X msg 208 500 32_steps;
#X msg 208 520 16_steps;
#X msg 208 540 8_steps;
#X msg 208 560 6_steps;
#X msg 208 580 4_steps;
#X msg 208 600 3_steps;
#X msg 208 620 2_steps;
#X msg 208 640 3/2_step;
#X msg 208 660 1_step;
#X msg 518 500 2/3_step;
#X msg 518 520 1/2_step;
#X msg 518 540 1/3_step;
#X msg 518 560 1/4_step;
#X msg 518 580 1/6_step;
#X msg 518 600 1/8_step;
#X msg 518 620 1/16_step;
#X msg 518 646 Unsynced;
#X obj -13 57 r /Tetr4/\$1/\$2/LFO3/Freqncy-set;
#X obj 331 68 r /Tetr4/\$1/\$2/LFO3/Dest-set;
#X obj 299 180 r /Tetr4/\$1/\$2/LFO3/KeySync-set;
#X obj 301 214 r /Tetr4/\$1/\$2/LFO3/Shape-set;
#X obj 297 329 r /Tetr4/\$1/\$2/LFO3/Amount-set;
#X obj 340 96 unpack s f;
#X obj -14 86 unpack s f;
#X connect 8 0 76 0;
#X connect 8 0 9 0;
#X connect 10 0 1 0;
#X connect 10 0 19 0;
#X connect 11 0 9 0;
#X connect 11 0 12 0;
#X connect 11 0 76 0;
#X connect 12 0 8 0;
#X connect 15 0 18 0;
#X connect 16 0 18 0;
#X connect 17 0 18 0;
#X connect 18 0 63 0;
#X connect 19 0 20 0;
#X connect 19 1 15 0;
#X connect 19 2 16 0;
#X connect 19 3 17 0;
#X connect 19 4 21 0;
#X connect 19 5 22 0;
#X connect 19 6 23 0;
#X connect 19 7 24 0;
#X connect 19 8 25 0;
#X connect 19 9 26 0;
#X connect 19 10 27 0;
#X connect 19 11 28 0;
#X connect 19 12 29 0;
#X connect 19 13 30 0;
#X connect 19 14 32 0;
#X connect 20 0 18 0;
#X connect 21 0 18 0;
#X connect 22 0 18 0;
#X connect 23 0 18 0;
#X connect 24 0 18 0;
#X connect 25 0 18 0;
#X connect 26 0 18 0;
#X connect 27 0 18 0;
#X connect 28 0 18 0;
#X connect 29 0 18 0;
#X connect 30 0 18 0;
#X connect 31 0 63 0;
#X connect 32 0 33 0;
#X connect 32 1 34 0;
#X connect 32 2 35 0;
#X connect 32 3 36 0;
#X connect 32 4 37 0;
#X connect 32 5 38 0;
#X connect 32 6 39 0;
#X connect 32 7 40 0;
#X connect 32 8 41 0;
#X connect 32 9 42 0;
#X connect 32 10 43 0;
#X connect 32 11 45 0;
#X connect 32 12 46 0;
#X connect 32 13 44 0;
#X connect 32 14 49 0;
#X connect 33 0 31 0;
#X connect 34 0 31 0;
#X connect 35 0 31 0;
#X connect 36 0 31 0;
#X connect 37 0 31 0;
#X connect 38 0 31 0;
#X connect 39 0 31 0;
#X connect 40 0 31 0;
#X connect 41 0 31 0;
#X connect 42 0 31 0;
#X connect 43 0 31 0;
#X connect 44 0 31 0;
#X connect 45 0 31 0;
#X connect 46 0 31 0;
#X connect 47 0 63 0;
#X connect 48 0 63 0;
#X connect 49 0 50 0;
#X connect 49 1 51 0;
#X connect 49 2 52 0;
#X connect 49 3 53 0;
#X connect 49 4 54 0;
#X connect 49 5 55 0;
#X connect 49 6 56 0;
#X connect 49 7 57 0;
#X connect 49 8 58 0;
#X connect 49 9 59 0;
#X connect 49 10 60 0;
#X connect 49 11 61 0;
#X connect 49 12 62 0;
#X connect 50 0 47 0;
#X connect 51 0 47 0;
#X connect 52 0 47 0;
#X connect 53 0 47 0;
#X connect 54 0 47 0;
#X connect 55 0 47 0;
#X connect 56 0 47 0;
#X connect 57 0 47 0;
#X connect 58 0 47 0;
#X connect 59 0 47 0;
#X connect 60 0 47 0;
#X connect 61 0 47 0;
#X connect 62 0 64 0;
#X connect 62 1 65 0;
#X connect 62 2 66 0;
#X connect 62 3 67 0;
#X connect 62 4 68 0;
#X connect 62 5 69 0;
#X connect 62 6 70 0;
#X connect 62 7 71 0;
#X connect 62 8 72 0;
#X connect 63 0 5 0;
#X connect 64 0 48 0;
#X connect 65 0 48 0;
#X connect 66 0 48 0;
#X connect 67 0 48 0;
#X connect 68 0 48 0;
#X connect 69 0 48 0;
#X connect 70 0 48 0;
#X connect 71 0 48 0;
#X connect 72 0 48 0;
#X connect 73 0 75 0;
#X connect 74 0 75 0;
#X connect 75 0 7 0;
#X connect 76 0 78 0;
#X connect 76 1 79 0;
#X connect 76 2 80 0;
#X connect 76 3 81 0;
#X connect 76 4 82 0;
#X connect 76 5 83 0;
#X connect 76 6 84 0;
#X connect 76 7 85 0;
#X connect 76 8 86 0;
#X connect 76 9 77 0;
#X connect 77 0 87 0;
#X connect 77 1 88 0;
#X connect 77 2 89 0;
#X connect 77 3 90 0;
#X connect 77 4 91 0;
#X connect 77 5 92 0;
#X connect 77 6 93 0;
#X connect 77 7 94 0;
#X connect 78 0 73 0;
#X connect 79 0 73 0;
#X connect 80 0 73 0;
#X connect 81 0 73 0;
#X connect 82 0 73 0;
#X connect 83 0 73 0;
#X connect 84 0 73 0;
#X connect 85 0 73 0;
#X connect 86 0 73 0;
#X connect 87 0 74 0;
#X connect 88 0 74 0;
#X connect 89 0 74 0;
#X connect 90 0 74 0;
#X connect 91 0 74 0;
#X connect 92 0 74 0;
#X connect 93 0 74 0;
#X connect 94 0 74 0;
#X connect 95 0 9 0;
#X connect 95 0 101 0;
#X connect 96 0 1 0;
#X connect 96 0 100 0;
#X connect 97 0 2 0;
#X connect 98 0 3 0;
#X connect 99 0 6 0;
#X connect 100 1 19 0;
#X connect 101 1 12 0;
#X connect 101 1 76 0;
#X coords 0 -1 1 1 180 320 1 100 100;
