#N canvas 1 119 1022 450 10;
#X obj 101 115 cnv 15 178 304 empty empty empty 20 12 0 14 -257985
-66577 0;
#X obj 124 130 hsl 128 15 0 255 0 0 /Tetr4/\$1/\$2/Lowpass/EnvelopeAmt
empty EnvelopeAmt -2 -8 0 10 -262144 -1 -1 0 1;
#X obj 123 230 hsl 128 15 0 127 0 0 /Tetr4/\$1/\$2/Lowpass/EnvDelay
empty EnvDelay -2 -8 0 10 -262144 -1 -1 0 1;
#X obj 123 270 hsl 128 15 0 127 0 0 /Tetr4/\$1/\$2/Lowpass/EnvAttack
empty EnvAttack -2 -8 0 10 -262144 -1 -1 0 1;
#X obj 123 310 hsl 128 15 0 127 0 0 /Tetr4/\$1/\$2/Lowpass/EnvDecay
empty EnvDecay -2 -8 0 10 -262144 -1 -1 0 1;
#X obj 123 350 hsl 128 15 0 127 0 0 /Tetr4/\$1/\$2/Lowpass/EnvSustain
empty EnvSustain -2 -8 0 10 -262144 -1 -1 0 1;
#X obj 123 390 hsl 128 15 0 127 0 0 /Tetr4/\$1/\$2/Lowpass/EnvRelease
empty EnvRelease -2 -8 0 10 -262144 -1 -1 0 1;
#X obj 124 170 hsl 128 15 0 127 0 0 /Tetr4/\$1/\$2/Lowpass/EnvVelocity
empty EnvVelocity -2 -8 0 10 -262144 -1 -1 0 1;
#X obj 290 109 r /Tetr4/\$1/\$2/Lowpass/EnvelopeAmt-set;
#X obj 292 147 r /Tetr4/\$1/\$2/Lowpass/EnvVelocity-set;
#X obj 292 210 r /Tetr4/\$1/\$2/Lowpass/EnvDelay-set;
#X obj 294 252 r /Tetr4/\$1/\$2/Lowpass/EnvAttack-set;
#X obj 289 293 r /Tetr4/\$1/\$2/Lowpass/EnvDecay-set;
#X obj 291 330 r /Tetr4/\$1/\$2/Lowpass/EnvSustain-set;
#X obj 292 373 r /Tetr4/\$1/\$2/Lowpass/EnvRelease-set;
#X connect 8 0 1 0;
#X connect 9 0 7 0;
#X connect 10 0 2 0;
#X connect 11 0 3 0;
#X connect 12 0 4 0;
#X connect 13 0 5 0;
#X connect 14 0 6 0;
#X coords 0 -1 1 1 180 320 1 100 100;
