#N canvas 1 119 1022 450 10;
#X obj 101 115 cnv 15 178 304 empty empty empty 20 12 0 14 -257985
-66577 0;
#X obj 107 200 hsl 165 15 0 164 0 0 /Tetr4/\$1/\$2/Lowpass/Frequency
empty Frequency -2 -8 0 10 -262144 -1 -1 0 1;
#X obj 126 240 hsl 128 15 0 127 0 0 /Tetr4/\$1/\$2/Lowpass/Resonance
empty Resonance -2 -8 0 10 -262144 -1 -1 0 1;
#X obj 123 140 hradio 15 1 0 2 /Tetr4/\$1/\$2/Lowpass/Config empty
Config 0 -8 0 10 -262144 -1 -1 0;
#X obj 124 310 hsl 128 15 0 127 0 0 /Tetr4/\$1/\$2/Lowpass/KeyboardAmt
empty KeyboardAmt -2 -8 0 10 -262144 -1 -1 0 1;
#X obj 124 350 hsl 128 15 0 127 0 0 /Tetr4/\$1/\$2/Lowpass/AudioMod
empty AudioMod -2 -8 0 10 -262144 -1 -1 0 1;
#X text 160 138 0 2-pole \; 1 4-pole;
#X obj 283 120 r /Tetr4/\$1/\$2/Lowpass/Config-set;
#X obj 289 179 r /Tetr4/\$1/\$2/Lowpass/Frequency-set;
#X obj 289 217 r /Tetr4/\$1/\$2/Lowpass/Resonance-set;
#X obj 287 291 r /Tetr4/\$1/\$2/Lowpass/KeyboardAmt-set;
#X obj 289 329 r /Tetr4/\$1/\$2/Lowpass/AudioMod-set;
#X connect 7 0 3 0;
#X connect 8 0 1 0;
#X connect 9 0 2 0;
#X connect 10 0 4 0;
#X connect 11 0 5 0;
#X coords 0 -1 1 1 180 320 1 100 100;
