#N canvas 1 104 890 780 10;
#X obj 101 115 cnv 15 178 304 empty empty empty 20 12 0 14 -257985
-66577 0;
#X obj 124 130 hsl 128 15 0 255 0 0 Tetr4/\$1/\$2/Lowpass/EnvelopeAmt
empty EnvelopeAmt -2 -8 0 10 -262144 -1 -1 0 1;
#X obj 123 230 hsl 128 15 0 127 0 0 Tetr4/\$1/\$2/Lowpass/EnvDelay
empty EnvDelay -2 -8 0 10 -262144 -1 -1 0 1;
#X obj 123 270 hsl 128 15 0 127 0 0 Tetr4/\$1/\$2/Lowpass/EnvAttack
empty EnvAttack -2 -8 0 10 -262144 -1 -1 0 1;
#X obj 123 310 hsl 128 15 0 127 0 0 Tetr4/\$1/\$2/Lowpass/EnvDecay
empty EnvDecay -2 -8 0 10 -262144 -1 -1 0 1;
#X obj 123 350 hsl 128 15 0 127 0 0 Tetr4/\$1/\$2/Lowpass/EnvSustain
empty EnvSustain -2 -8 0 10 -262144 -1 -1 0 1;
#X obj 123 390 hsl 128 15 0 127 0 0 Tetr4/\$1/\$2/Lowpass/EnvRelease
empty EnvRelease -2 -8 0 10 -262144 -1 -1 0 1;
#X obj 124 170 hsl 128 15 0 127 0 0 Tetr4/\$1/\$2/Lowpass/EnvVelocity
empty EnvVelocity -2 -8 0 10 -262144 -1 -1 0 1;
#X obj 290 169 sssad Tetr4/\$1/\$2/Lowpass/EnvelopeAmt;
#X obj 292 207 sssad Tetr4/\$1/\$2/Lowpass/EnvVelocity;
#X obj 292 270 sssad Tetr4/\$1/\$2/Lowpass/EnvDelay;
#X obj 294 312 sssad Tetr4/\$1/\$2/Lowpass/EnvAttack;
#X obj 289 353 sssad Tetr4/\$1/\$2/Lowpass/EnvDecay;
#X obj 291 390 sssad Tetr4/\$1/\$2/Lowpass/EnvSustain;
#X obj 292 433 sssad Tetr4/\$1/\$2/Lowpass/EnvRelease;
#X connect 1 0 8 1;
#X connect 2 0 10 1;
#X connect 3 0 11 1;
#X connect 4 0 12 1;
#X connect 5 0 13 1;
#X connect 6 0 14 1;
#X connect 7 0 9 1;
#X connect 8 0 1 0;
#X connect 9 0 7 0;
#X connect 10 0 2 0;
#X connect 11 0 3 0;
#X connect 12 0 4 0;
#X connect 13 0 5 0;
#X connect 14 0 6 0;
#X coords 0 -1 1 1 180 320 1 100 100;
