#N canvas 1 104 890 780 10;
#X obj 101 115 cnv 15 178 304 empty empty empty 20 12 0 14 -257985
-66577 0;
#X obj 107 200 hsl 165 15 0 164 0 0 Tetr4/\$1/\$2/Lowpass/Frequency
empty Frequency -2 -8 0 10 -262144 -1 -1 0 1;
#X obj 126 240 hsl 128 15 0 127 0 0 Tetr4/\$1/\$2/Lowpass/Resonance
empty Resonance -2 -8 0 10 -262144 -1 -1 0 1;
#X obj 123 140 hradio 15 1 0 2 Tetr4/\$1/\$2/Lowpass/Config empty Config
0 -8 0 10 -262144 -1 -1 0;
#X obj 124 310 hsl 128 15 0 127 0 0 Tetr4/\$1/\$2/Lowpass/KeyboardAmt
empty KeyboardAmt -2 -8 0 10 -262144 -1 -1 0 1;
#X obj 124 350 hsl 128 15 0 127 0 0 Tetr4/\$1/\$2/Lowpass/AudioMod
empty AudioMod -2 -8 0 10 -262144 -1 -1 0 1;
#X obj 283 170 sssad Tetr4/\$1/\$2/Lowpass/Config;
#X text 160 138 0 2-pole \; 1 4-pole;
#X obj 289 229 sssad Tetr4/\$1/\$2/Lowpass/Frequency;
#X obj 289 267 sssad Tetr4/\$1/\$2/Lowpass/Resonance;
#X obj 287 341 sssad Tetr4/\$1/\$2/Lowpass/KeyboardAmt;
#X obj 289 379 sssad Tetr4/\$1/\$2/Lowpass/AudioMod;
#X connect 1 0 8 1;
#X connect 2 0 9 1;
#X connect 3 0 6 1;
#X connect 4 0 10 1;
#X connect 5 0 11 1;
#X connect 6 0 3 0;
#X connect 8 0 1 0;
#X connect 9 0 2 0;
#X connect 10 0 4 0;
#X connect 11 0 5 0;
#X coords 0 -1 1 1 180 320 1 100 100;
