#N canvas 1 89 890 780 8;
#X obj 1928 143 r TETRA_A_\$1_SEQ_1_STEP;
#X obj 1928 213 r TETRA_A_\$1_SEQ_2_STEP;
#X obj 1928 283 r TETRA_A_\$1_SEQ_3_STEP;
#X obj 1928 353 r TETRA_A_\$1_SEQ_4_STEP;
#X floatatom 2139 30 5 0 0 0 - - -;
#X obj 2139 47 pgmout \$1;
#X floatatom 2139 96 5 0 0 0 - - -;
#X obj 2139 114 ctlout 32 \$1;
#X obj 1488 452 send_nrpn \$1 A Unison/Assign 96;
#X obj 1928 162 send_nrpn \$1 A SEQ_1 120;
#X obj 1928 232 send_nrpn \$1 A SEQ_2 136;
#X obj 1928 302 send_nrpn \$1 A SEQ_3 152;
#X obj 1928 372 send_nrpn \$1 A SEQ_4 168;
#X obj 18 12 send_nrpn \$1 A Osc1/Frequency 0;
#X obj 18 52 send_nrpn \$1 A Osc1/FineFreq 1;
#X obj 18 92 send_nrpn \$1 A Osc1/Shape 2;
#X obj 18 132 send_nrpn \$1 A Osc1/Glide 3;
#X obj 18 172 send_nrpn \$1 A Osc1/Keyboard 4;
#X obj 18 212 send_nrpn \$1 A Osc2/Frequency 5;
#X obj 18 252 send_nrpn \$1 A Osc2/FineFreq 6;
#X obj 18 292 send_nrpn \$1 A Osc2/Shape 7;
#X obj 18 332 send_nrpn \$1 A Osc2/Glide 8;
#X obj 18 372 send_nrpn \$1 A Osc2/Keyboard 9;
#X obj 18 412 send_nrpn \$1 A MiscOsc/Sync21 10;
#X obj 18 452 send_nrpn \$1 A MiscOsc/Glide 11;
#X obj 218 12 send_nrpn \$1 A MiscOsc/Slop 12;
#X obj 218 52 send_nrpn \$1 A Mixer/OscMix 13;
#X obj 218 92 send_nrpn \$1 A Mixer/NoiseLevel 14;
#X obj 218 132 send_nrpn \$1 A Lowpass/Frequency 15;
#X obj 218 172 send_nrpn \$1 A Lowpass/Resonance 16;
#X obj 218 212 send_nrpn \$1 A Lowpass/KeyboardAmt 17;
#X obj 218 252 send_nrpn \$1 A Lowpass/AudioMod 18;
#X obj 218 292 send_nrpn \$1 A Lowpass/Config 19;
#X obj 218 332 send_nrpn \$1 A Lowpass/EnvelopeAmt 20;
#X obj 218 372 send_nrpn \$1 A Lowpass/EnvVelocity 21;
#X obj 218 412 send_nrpn \$1 A Lowpass/EnvDelay 22;
#X obj 218 452 send_nrpn \$1 A Lowpass/EnvAttack 23;
#X obj 448 12 send_nrpn \$1 A Lowpass/EnvDecay 24;
#X obj 448 52 send_nrpn \$1 A Lowpass/EnvSustain 25;
#X obj 448 92 send_nrpn \$1 A Lowpass/EnvRelease 26;
#X obj 448 132 send_nrpn \$1 A VCA/Level 27;
#X obj 448 172 send_nrpn \$1 A VCA/PanSpread 28;
#X obj 448 212 send_nrpn \$1 A Program/Volume 29;
#X obj 448 252 send_nrpn \$1 A VCA/EnvelopeAmt 30;
#X obj 448 292 send_nrpn \$1 A VCA/EnvVelocity 31;
#X obj 448 332 send_nrpn \$1 A VCA/EnvDelay 32;
#X obj 448 372 send_nrpn \$1 A VCA/EnvAttack 33;
#X obj 448 412 send_nrpn \$1 A VCA/EnvDecay 34;
#X obj 448 452 send_nrpn \$1 A VCA/EnvSustain 35;
#X obj 668 12 send_nrpn \$1 A VCA/EnvRelease 36;
#X obj 668 52 send_nrpn \$1 A LFO1/Freqncy 37;
#X obj 668 92 send_nrpn \$1 A LFO1/Shape 38;
#X obj 668 132 send_nrpn \$1 A LFO1/Amount 39;
#X obj 668 172 send_nrpn \$1 A LFO1/Dest 40;
#X obj 668 212 send_nrpn \$1 A LFO1/KeySync 41;
#X obj 668 252 send_nrpn \$1 A LFO2/Freqncy 42;
#X obj 668 292 send_nrpn \$1 A LFO2/Shape 43;
#X obj 668 332 send_nrpn \$1 A LFO2/Amount 44;
#X obj 668 372 send_nrpn \$1 A LFO2/Dest 45;
#X obj 668 412 send_nrpn \$1 A LFO2/KeySync 46;
#X obj 668 452 send_nrpn \$1 A LFO3/Freqncy 47;
#X obj 868 12 send_nrpn \$1 A LFO3/Shape 48;
#X obj 868 92 send_nrpn \$1 A LFO3/Dest 50;
#X obj 868 52 send_nrpn \$1 A LFO3/Amount 49;
#X obj 868 132 send_nrpn \$1 A LFO3/KeySync 51;
#X obj 868 172 send_nrpn \$1 A LFO4/Freqncy 52;
#X obj 868 212 send_nrpn \$1 A LFO4/Shape 53;
#X obj 868 252 send_nrpn \$1 A LFO4/Amount 54;
#X obj 868 292 send_nrpn \$1 A LFO4/Dest 55;
#X obj 868 332 send_nrpn \$1 A LFO4/KeySync 56;
#X obj 868 372 send_nrpn \$1 A Env3/Dest 57;
#X obj 868 412 send_nrpn \$1 A Env3/Amount 58;
#X obj 868 452 send_nrpn \$1 A Env3/EnvVelocity 59;
#X obj 1078 12 send_nrpn \$1 A Env3/EnvDelay 60;
#X obj 1078 52 send_nrpn \$1 A Env3/EnvAttack 61;
#X obj 1078 92 send_nrpn \$1 A Env3/EnvDecay 62;
#X obj 1078 132 send_nrpn \$1 A Env3/EnvSustain 63;
#X obj 1078 172 send_nrpn \$1 A Env3/EnvRelease 64;
#X obj 1078 212 send_nrpn \$1 A Mod1/Source 65;
#X obj 1078 252 send_nrpn \$1 A Mod1/Amount 66;
#X obj 1078 292 send_nrpn \$1 A Mod1/Dest 67;
#X obj 1078 332 send_nrpn \$1 A Mod2/Source 68;
#X obj 1078 372 send_nrpn \$1 A Mod2/Amount 69;
#X obj 1078 452 send_nrpn \$1 A Mod3/Source 71;
#X obj 1078 412 send_nrpn \$1 A Mod2/Dest 70;
#X obj 1288 12 send_nrpn \$1 A Mod3/Amount 72;
#X obj 1288 52 send_nrpn \$1 A Mod3/Dest 73;
#X obj 1288 92 send_nrpn \$1 A Mod4/Source 74;
#X obj 1288 132 send_nrpn \$1 A Mod4/Amount 75;
#X obj 1288 172 send_nrpn \$1 A Mod4/Dest 76;
#X obj 1288 212 send_nrpn \$1 A Seq1/Dest 77;
#X obj 1288 252 send_nrpn \$1 A Seq2/Dest 78;
#X obj 1288 292 send_nrpn \$1 A Seq3/Dest 79;
#X obj 1288 332 send_nrpn \$1 A Seq4/Dest 80;
#X obj 1288 372 send_nrpn \$1 A ModWhl/Amount 81;
#X obj 1288 412 send_nrpn \$1 A ModWhl/Dest 82;
#X obj 1288 452 send_nrpn \$1 A Press/Amount 83;
#X obj 1488 12 send_nrpn \$1 A Press/Dest 84;
#X obj 1488 52 send_nrpn \$1 A Breath/Amount 85;
#X obj 1488 92 send_nrpn \$1 A Breath/Dest 86;
#X obj 1488 132 send_nrpn \$1 A Veloc/Amount 87;
#X obj 1488 172 send_nrpn \$1 A Veloc/Dest 88;
#X obj 1488 212 send_nrpn \$1 A Foot/Amount 89;
#X obj 1488 252 send_nrpn \$1 A Foot/Dest 90;
#X obj 1488 292 send_nrpn \$1 A Clock/BPM 91;
#X obj 1488 332 send_nrpn \$1 A Clock/ClockDiv 92;
#X obj 1488 372 send_nrpn \$1 A PWRange/Semitones 93;
#X obj 1488 412 send_nrpn \$1 A Sequencer/Trigger 94;
#X obj 1708 52 send_nrpn \$1 A Arpeg/Mode 97;
#X obj 1708 92 send_nrpn \$1 A Env3/Repeat 98;
#X obj 1708 132 send_nrpn \$1 A Unison/OnOff 99;
#X obj 1708 172 send_nrpn \$1 A Arpegiator/OnOff 100;
#X obj 1708 212 send_nrpn \$1 A Sequencer/OnOff 101;
#X obj 1708 252 send_nrpn \$1 A Feedback/Gain 110;
#X obj 1708 292 send_nrpn \$1 A PushItSw/Note 111;
#X obj 1708 332 send_nrpn \$1 A PushItSw/Velocity 112;
#X obj 1708 372 send_nrpn \$1 A PushItSw/Mode 113;
#X obj 1708 412 send_nrpn \$1 A Osc1/SubOsc1 114;
#X obj 1708 452 send_nrpn \$1 A Osc2/SubOsc2 115;
#X obj 1928 12 send_nrpn \$1 A Feedback/Volume 116;
#X obj 1928 52 send_nrpn \$1 A KeyMode/Split 118;
#X obj 1928 92 send_nrpn \$1 A KeyMode/Mode 119;
#X obj 1708 12 send_nrpn \$1 A Unison/Mode 95;
#X obj 2139 12 r /Tetr4/\$1/ProgramChange;
#X obj 2139 77 r /Tetr4/\$1/BankSelect;
#X connect 0 0 9 0;
#X connect 1 0 10 0;
#X connect 2 0 11 0;
#X connect 3 0 12 0;
#X connect 4 0 5 0;
#X connect 6 0 7 0;
#X connect 123 0 4 0;
#X connect 124 0 6 0;
