#N canvas 1 89 1021 480 10;
#X obj 101 115 cnv 15 178 304 empty empty empty 20 12 0 14 -257985
-66577 0;
#X floatatom -20 162 5 0 20 1 Source - /Tetr4/#1/#2/Mod3/Source;
#X floatatom 324 130 5 0 48 1 Dest - /Tetr4/#1/#2/Mod3/Dest;
#X symbolatom 128 161 20 0 0 0 - - -;
#X symbolatom 128 291 20 0 0 0 - - -;
#X obj 128 221 hsl 128 15 0 255 0 0 /Tetr4/\$1/\$2/Mod3/Amount empty
Amount -2 -8 0 10 -262144 -1 -1 0 1;
#X obj -10 14 inlet;
#X obj 340 36 inlet;
#X msg 759 89 Osc_1_Freq;
#X msg 759 109 Osc_2_Freq;
#X msg 759 129 Osc_All_Freq;
#X obj 759 363 symbol;
#X obj 566 38 sel 0 1 2 3 4 5 6 7 8 9 10 11 12 13;
#X msg 759 69 off;
#X msg 759 149 Osc_Mix;
#X msg 759 169 Noise_Level;
#X msg 759 189 Osc_1_Pulse_Width;
#X msg 759 209 Osc_2_Pulse_Width;
#X msg 759 229 Osc_All_Pulse_Width;
#X msg 759 249 Filter_Cutoff;
#X msg 759 269 Filter_Resonance;
#X msg 759 289 Filter_Audio_Mod_Amt;
#X msg 759 309 VCA_Level;
#X msg 759 329 Pan_Spread;
#X obj 1069 363 symbol;
#X obj 822 38 sel 14 15 16 17 18 19 20 21 22 23 24 25 26 27;
#X msg 1069 69 LFO_1_Freq;
#X msg 1069 89 LFO_2_Freq;
#X msg 1069 109 LFO_3_Freq;
#X msg 1069 129 LFO_4_Freq;
#X msg 1069 149 LFO_All_Freq;
#X msg 1069 169 LFO_1_Amt;
#X msg 1069 189 LFO_2_Amt;
#X msg 1069 209 LFO_3_Amt;
#X msg 1069 229 LFO_4_Amt;
#X msg 1069 249 LFO_All_Amt;
#X msg 1069 269 Env_1_Amt;
#X msg 1069 329 Env_All_Amt;
#X msg 1069 289 Env_2_Amt;
#X msg 1069 309 Env_3_Amt;
#X obj 759 760 symbol;
#X obj 1069 760 symbol;
#X obj 512 435 sel 28 29 30 31 32 33 34 35 36 37 38 39;
#X msg 759 466 Env_1_Attack;
#X msg 759 486 Env_2_Attack;
#X msg 759 506 Env_3_Attack;
#X msg 759 526 Env_All_Attack;
#X msg 759 546 Env_1_Decay;
#X msg 759 566 Env_2_Decay;
#X msg 759 586 Env_3_Decay;
#X msg 759 606 Env_All_Decay;
#X msg 759 626 Env_1_Release;
#X msg 759 646 Env_2_Release;
#X msg 759 666 Env_3_Release;
#X msg 759 686 Env_All_Release;
#X obj 822 435 sel 40 41 42 43 44 45 46 47 48;
#X obj 569 122 symbol;
#X msg 1069 466 Mod_1_Amt;
#X msg 1069 486 Mod_2_Amt;
#X msg 1069 506 Mod_3_Amt;
#X msg 1069 526 Mod_4_Amt;
#X msg 1069 546 Feedback_Volume;
#X msg 1069 566 Sub_Osc_1_Level;
#X msg 1069 586 Sub_Osc_2_Level;
#X msg 1068 608 Feedback_Gain;
#X msg 1069 626 Slew;
#X obj 231 755 symbol;
#X msg 231 481 off;
#X obj 38 450 sel 0 1 2 3 4 5 6 7 8 9 10 11;
#X msg 231 501 Sequence_1;
#X msg 231 521 Sequence_2;
#X msg 231 541 Sequence_3;
#X msg 231 561 Sequence_4;
#X msg 231 581 LFO_1;
#X msg 231 601 LFO_2;
#X msg 231 621 LFO_3;
#X msg 231 641 LFO_4;
#X msg 231 661 Filter_Envelope;
#X msg 231 681 Amp_Envelope;
#X msg 231 701 Envelope_3;
#X obj 421 755 symbol;
#X obj 228 450 sel 12 13 14 15 16 17 18 19 20;
#X msg 421 481 Pitch_Bend;
#X msg 421 501 Mod_Wheel;
#X msg 421 521 Pressure;
#X msg 421 541 Breath;
#X msg 421 561 Foot;
#X msg 421 581 Expression;
#X msg 421 601 Velocity;
#X msg 421 621 Note_Number;
#X msg 421 641 Noise;
#X obj 30 567 symbol;
#X text 127 144 Source;
#X text 127 274 Dest;
#X obj 22 37 r /Tetr4/\$1/\$2/Mod3/Source-set;
#X obj 351 61 r /Tetr4/\$1/\$2/Mod3/Dest-set;
#X obj 335 255 r /Tetr4/\$1/\$2/Mod3/Amount-set;
#X obj 363 100 unpack s f;
#X obj 19 106 unpack s f;
#X connect 6 0 1 0;
#X connect 6 0 68 0;
#X connect 7 0 2 0;
#X connect 7 0 12 0;
#X connect 8 0 11 0;
#X connect 9 0 11 0;
#X connect 10 0 11 0;
#X connect 11 0 56 0;
#X connect 12 0 13 0;
#X connect 12 1 8 0;
#X connect 12 2 9 0;
#X connect 12 3 10 0;
#X connect 12 4 14 0;
#X connect 12 5 15 0;
#X connect 12 6 16 0;
#X connect 12 7 17 0;
#X connect 12 8 18 0;
#X connect 12 9 19 0;
#X connect 12 10 20 0;
#X connect 12 11 21 0;
#X connect 12 12 22 0;
#X connect 12 13 23 0;
#X connect 12 14 25 0;
#X connect 13 0 11 0;
#X connect 14 0 11 0;
#X connect 15 0 11 0;
#X connect 16 0 11 0;
#X connect 17 0 11 0;
#X connect 18 0 11 0;
#X connect 19 0 11 0;
#X connect 20 0 11 0;
#X connect 21 0 11 0;
#X connect 22 0 11 0;
#X connect 23 0 11 0;
#X connect 24 0 56 0;
#X connect 25 0 26 0;
#X connect 25 1 27 0;
#X connect 25 2 28 0;
#X connect 25 3 29 0;
#X connect 25 4 30 0;
#X connect 25 5 31 0;
#X connect 25 6 32 0;
#X connect 25 7 33 0;
#X connect 25 8 34 0;
#X connect 25 9 35 0;
#X connect 25 10 36 0;
#X connect 25 11 38 0;
#X connect 25 12 39 0;
#X connect 25 13 37 0;
#X connect 25 14 42 0;
#X connect 26 0 24 0;
#X connect 27 0 24 0;
#X connect 28 0 24 0;
#X connect 29 0 24 0;
#X connect 30 0 24 0;
#X connect 31 0 24 0;
#X connect 32 0 24 0;
#X connect 33 0 24 0;
#X connect 34 0 24 0;
#X connect 35 0 24 0;
#X connect 36 0 24 0;
#X connect 37 0 24 0;
#X connect 38 0 24 0;
#X connect 39 0 24 0;
#X connect 40 0 56 0;
#X connect 41 0 56 0;
#X connect 42 0 43 0;
#X connect 42 1 44 0;
#X connect 42 2 45 0;
#X connect 42 3 46 0;
#X connect 42 4 47 0;
#X connect 42 5 48 0;
#X connect 42 6 49 0;
#X connect 42 7 50 0;
#X connect 42 8 51 0;
#X connect 42 9 52 0;
#X connect 42 10 53 0;
#X connect 42 11 54 0;
#X connect 42 12 55 0;
#X connect 43 0 40 0;
#X connect 44 0 40 0;
#X connect 45 0 40 0;
#X connect 46 0 40 0;
#X connect 47 0 40 0;
#X connect 48 0 40 0;
#X connect 49 0 40 0;
#X connect 50 0 40 0;
#X connect 51 0 40 0;
#X connect 52 0 40 0;
#X connect 53 0 40 0;
#X connect 54 0 40 0;
#X connect 55 0 57 0;
#X connect 55 1 58 0;
#X connect 55 2 59 0;
#X connect 55 3 60 0;
#X connect 55 4 61 0;
#X connect 55 5 62 0;
#X connect 55 6 63 0;
#X connect 55 7 64 0;
#X connect 55 8 65 0;
#X connect 56 0 4 0;
#X connect 57 0 41 0;
#X connect 58 0 41 0;
#X connect 59 0 41 0;
#X connect 60 0 41 0;
#X connect 61 0 41 0;
#X connect 62 0 41 0;
#X connect 63 0 41 0;
#X connect 64 0 41 0;
#X connect 65 0 41 0;
#X connect 66 0 91 0;
#X connect 67 0 66 0;
#X connect 68 0 67 0;
#X connect 68 1 69 0;
#X connect 68 2 70 0;
#X connect 68 3 71 0;
#X connect 68 4 72 0;
#X connect 68 5 73 0;
#X connect 68 6 74 0;
#X connect 68 7 75 0;
#X connect 68 8 76 0;
#X connect 68 9 77 0;
#X connect 68 10 78 0;
#X connect 68 11 79 0;
#X connect 68 12 81 0;
#X connect 69 0 66 0;
#X connect 70 0 66 0;
#X connect 71 0 66 0;
#X connect 72 0 66 0;
#X connect 73 0 66 0;
#X connect 74 0 66 0;
#X connect 75 0 66 0;
#X connect 76 0 66 0;
#X connect 77 0 66 0;
#X connect 78 0 66 0;
#X connect 79 0 66 0;
#X connect 80 0 91 0;
#X connect 81 0 82 0;
#X connect 81 1 83 0;
#X connect 81 2 84 0;
#X connect 81 3 85 0;
#X connect 81 4 86 0;
#X connect 81 5 87 0;
#X connect 81 6 88 0;
#X connect 81 7 89 0;
#X connect 81 8 90 0;
#X connect 82 0 80 0;
#X connect 83 0 80 0;
#X connect 84 0 80 0;
#X connect 85 0 80 0;
#X connect 86 0 80 0;
#X connect 87 0 80 0;
#X connect 88 0 80 0;
#X connect 89 0 80 0;
#X connect 90 0 80 0;
#X connect 91 0 3 0;
#X connect 94 0 1 0;
#X connect 94 0 98 0;
#X connect 95 0 2 0;
#X connect 95 0 97 0;
#X connect 96 0 5 0;
#X connect 97 1 12 0;
#X connect 98 1 68 0;
#X coords 0 -1 1 1 180 320 1 100 100;
