#N canvas 1 89 1021 480 10;
#X obj 101 115 cnv 15 178 304 empty empty empty 20 12 0 14 -257985
-66577 0;
#X obj 191 397 tgl 15 0 /Tetr4/\$1/\$2/Osc2/Keyboard empty Keyboard
17 7 0 10 -262144 -1 -1 0 1;
#X obj 124 310 hsl 128 15 0 127 0 0 /Tetr4/\$1/\$2/Osc2/SubOsc2 empty
SubOsc2 -2 -8 0 10 -262144 -1 -1 0 1;
#X obj 125 361 hsl 128 15 0 127 0 0 /Tetr4/\$1/\$2/Osc2/Glide empty
Glide -2 -8 0 10 -262144 -1 -1 0 1;
#X obj 124 260 hsl 102 15 0 101 0 0 /Tetr4/\$1/\$2/Osc2/FineFreq empty
FineFreq -2 -8 0 10 -262144 -1 -1 0 1;
#X obj 124 217 hsl 122 15 0 121 0 0 /Tetr4/\$1/\$2/Osc2/Frequency empty
Frequency -2 -8 0 10 -262144 -1 -1 0 1;
#X floatatom 121 232 5 0 0 0 - - -;
#X floatatom 121 275 5 0 0 0 - - -;
#X symbolatom 123 138 14 0 0 0 - - -;
#X obj 125 167 hsl 100 15 4 103 0 0 empty empty PulseWidth -2 -8 0
10 -262144 -1 -1 0 1;
#X floatatom -133 226 5 0 166 1 Shape - /Tetr4/#1/#2/Osc2/Shape;
#X obj -133 38 inlet;
#X obj -110 96 sel 0 1 2 3 54;
#X msg -110 119 symbol Off;
#X msg -94 139 symbol Saw;
#X msg -78 159 symbol Tri;
#X msg -62 181 symbol Saw/Tri;
#X msg -46 203 symbol Square;
#X msg -29 222 symbol Pulse;
#X text 123 121 Shape;
#X msg -4 114 54;
#X obj 51 182 sel 54;
#X obj -109 53 r /Tetr4/\$1/\$2/Osc2/Shape-set;
#X obj 280 200 r /Tetr4/\$1/\$2/Osc2/Frequency-set;
#X obj 280 243 r /Tetr4/\$1/\$2/Osc2/FineFreq-set;
#X obj 280 293 r /Tetr4/\$1/\$2/Osc2/SubOsc2-set;
#X obj 280 344 r /Tetr4/\$1/\$2/Osc2/Glide-set;
#X obj 280 380 r /Tetr4/\$1/\$2/Osc2/Keyboard-set;
#X obj -109 75 unpack s f;
#X connect 4 0 7 0;
#X connect 5 0 6 0;
#X connect 9 0 10 0;
#X connect 9 0 21 0;
#X connect 11 0 10 0;
#X connect 11 0 12 0;
#X connect 12 0 13 0;
#X connect 12 1 14 0;
#X connect 12 2 15 0;
#X connect 12 3 16 0;
#X connect 12 4 17 0;
#X connect 12 4 20 0;
#X connect 12 5 18 0;
#X connect 12 5 9 0;
#X connect 13 0 8 0;
#X connect 14 0 8 0;
#X connect 15 0 8 0;
#X connect 16 0 8 0;
#X connect 17 0 8 0;
#X connect 18 0 8 0;
#X connect 20 0 9 0;
#X connect 21 0 17 0;
#X connect 21 1 18 0;
#X connect 22 0 10 0;
#X connect 22 0 28 0;
#X connect 23 0 5 0;
#X connect 23 0 6 0;
#X connect 24 0 4 0;
#X connect 24 0 7 0;
#X connect 25 0 2 0;
#X connect 26 0 3 0;
#X connect 27 0 1 0;
#X connect 28 1 12 0;
#X coords 0 -1 1 1 180 320 1 100 100;
