#N canvas 1 119 1022 435 10;
#X obj 106 115 sysexin;
#X obj 106 177 t f b;
#X obj 154 220 mod 8;
#X obj 191 191 + 1;
#X obj 154 194 f;
#X obj 246 359 v MS_BITS_PACKET;
#N canvas 1 134 1022 450 packet_bit 0;
#X obj 84 117 t f b;
#X obj 111 154 v MS_BITS_PACKET;
#X msg 138 229 128;
#X obj 84 254 +;
#X obj 111 202 sel 0;
#X obj 84 279 outlet;
#X obj 84 37 inlet;
#X obj 126 37 inlet;
#X msg 111 229 0;
#X obj 111 179 &;
#X obj 157 92 - 1;
#X msg 126 92 2;
#X obj 126 116 pow;
#X obj 126 63 t b f;
#X connect 0 0 3 0;
#X connect 0 1 1 0;
#X connect 1 0 9 0;
#X connect 2 0 3 1;
#X connect 3 0 5 0;
#X connect 4 0 8 0;
#X connect 4 1 2 0;
#X connect 6 0 0 0;
#X connect 7 0 13 0;
#X connect 8 0 3 1;
#X connect 9 0 4 0;
#X connect 10 0 12 1;
#X connect 11 0 12 0;
#X connect 12 0 9 1;
#X connect 13 0 11 0;
#X connect 13 1 10 0;
#X restore 106 414 pd packet_bit;
#X obj 106 355 spigot;
#X obj 154 246 sel 0;
#X msg 171 317 1;
#X msg 139 317 0;
#X obj 246 335 spigot;
#X msg 311 297 1;
#X msg 279 297 0;
#X msg 154 162 1;
#X obj 266 145 t f b;
#X msg 266 119 240 \, 1 \, 38 \, 5 \, \$2 \, \$1 \, 247;
#X obj 266 171 midiout 1;
#N canvas 1 134 1022 435 enumerate 0;
#X obj 92 16 inlet;
#X obj 92 105 list prepend;
#X obj 161 73 f;
#X obj 193 73 + 1;
#X obj 161 16 inlet;
#X obj 92 134 outlet;
#X msg 161 45 -7;
#X obj 92 56 t a b;
#X connect 0 0 7 0;
#X connect 1 0 5 0;
#X connect 2 0 3 0;
#X connect 2 0 1 1;
#X connect 3 0 2 1;
#X connect 4 0 6 0;
#X connect 6 0 2 0;
#X connect 7 0 1 0;
#X connect 7 1 2 0;
#X restore 106 467 pd enumerate;
#N canvas 1 134 1022 435 router 1;
#X obj 23 100 route 0 1 2 3 4 5 6 7 8 9;
#X obj 23 76 r /Tetr4/Dump;
#X obj 23 40 s /Tetr4/Dump;
#X obj 23 18 inlet;
#X obj 383 76 r /Tetr4/Dump;
#X obj 383 100 route 10 11 12 13 14 15 16 17 18 19;
#X obj 384 123 s /Tetr4/\$1/\$2/Osc2/Keyboard-set;
#X obj 397 144 s /Tetr4/\$1/\$2/Osc2/SubOsc2-set;
#X obj 412 164 s /Tetr4/\$1/\$2/MiscOsc/Sync21-set;
#X obj 427 184 s /Tetr4/\$1/\$2/MiscOsc/Glide-set;
#X obj 441 205 s /Tetr4/\$1/\$2/MiscOsc/Slop-set;
#X obj 456 235 s /Tetr4/\$1/\$2/PWRange/Semitones-set;
#X obj 471 256 s /Tetr4/\$1/\$2/Mixer/OscMix-set;
#X obj 486 277 s /Tetr4/\$1/\$2/Mixer/NoiseLevel-set;
#X obj 500 297 s /Tetr4/\$1/\$2/Feedback/Volume-set;
#X obj 515 317 s /Tetr4/\$1/\$2/Feedback/Gain-set;
#X obj 763 76 r /Tetr4/Dump;
#X obj 763 100 route 20 21 22 23 24 25 26 27 28 29;
#X obj 763 123 s /Tetr4/\$1/\$2/Lowpass/Frequency-set;
#X obj 777 144 s /Tetr4/\$1/\$2/Lowpass/Resonance-set;
#X obj 792 164 s /Tetr4/\$1/\$2/Lowpass/KeyboardAmt-set;
#X obj 807 184 s /Tetr4/\$1/\$2/Lowpass/AudioMod-set;
#X obj 821 205 s /Tetr4/\$1/\$2/Lowpass/Config-set;
#X obj 836 235 s /Tetr4/\$1/\$2/Lowpass/EnvelopeAmt-set;
#X obj 851 256 s /Tetr4/\$1/\$2/Lowpass/EnvVelocity-set;
#X obj 866 277 s /Tetr4/\$1/\$2/Lowpass/EnvDelay-set;
#X obj 880 297 s /Tetr4/\$1/\$2/Lowpass/EnvAttack-set;
#X obj 895 317 s /Tetr4/\$1/\$2/Lowpass/EnvDecay-set;
#X obj 1163 76 r /Tetr4/Dump;
#X obj 1163 100 route 30 31 32 33 34 35 36 37 38 39;
#X obj 1163 123 s /Tetr4/\$1/\$2/Lowpass/EnvSustain-set;
#X obj 1177 144 s /Tetr4/\$1/\$2/Lowpass/EnvRelease-set;
#X obj 1192 164 s /Tetr4/\$1/\$2/VCA/Level-set;
#X obj 1207 184 s /Tetr4/\$1/\$2/VCA/EnvelopeAmt-set;
#X obj 1221 205 s /Tetr4/\$1/\$2/VCA/EnvVelocity-set;
#X obj 1236 235 s /Tetr4/\$1/\$2/VCA/EnvDelay-set;
#X obj 1251 256 s /Tetr4/\$1/\$2/VCA/EnvAttack-set;
#X obj 1266 277 s /Tetr4/\$1/\$2/VCA/EnvDecay-set;
#X obj 1280 297 s /Tetr4/\$1/\$2/VCA/EnvSustain-set;
#X obj 1295 317 s /Tetr4/\$1/\$2/VCA/EnvRelease-set;
#X obj 1553 76 r /Tetr4/Dump;
#X obj 1553 100 route 40 41 42 43 44 45 46 47 48 49;
#X obj 1553 123 s /Tetr4/\$1/\$2/VCA/PanSpread-set;
#X obj 1567 144 s /Tetr4/\$1/\$2/Program/Volume-set;
#X obj 1582 164 s /Tetr4/\$1/\$2/LFO1/Freqncy-set;
#X obj 1597 184 s /Tetr4/\$1/\$2/LFO1/Shape-set;
#X obj 1611 205 s /Tetr4/\$1/\$2/LFO1/Amount-set;
#X obj 1626 235 s /Tetr4/\$1/\$2/LFO1/Dest-set;
#X obj 1641 256 s /Tetr4/\$1/\$2/LFO1/KeySync-set;
#X obj 1656 277 s /Tetr4/\$1/\$2/LFO2/Freqncy-set;
#X obj 1670 297 s /Tetr4/\$1/\$2/LFO2/Shape-set;
#X obj 1685 317 s /Tetr4/\$1/\$2/LFO2/Amount-set;
#X obj 23 373 r /Tetr4/Dump;
#X obj 23 397 route 50 51 52 53 54 55 56 57 58 59;
#X obj 23 420 s /Tetr4/\$1/\$2/LFO2/Dest-set;
#X obj 37 441 s /Tetr4/\$1/\$2/LFO2/KeySync-set;
#X obj 52 461 s /Tetr4/\$1/\$2/LFO3/Freqncy-set;
#X obj 67 481 s /Tetr4/\$1/\$2/LFO3/Shape-set;
#X obj 81 502 s /Tetr4/\$1/\$2/LFO3/Amount-set;
#X obj 96 532 s /Tetr4/\$1/\$2/LFO3/Dest-set;
#X obj 111 553 s /Tetr4/\$1/\$2/LFO3/KeySync-set;
#X obj 126 574 s /Tetr4/\$1/\$2/LFO4/Freqncy-set;
#X obj 140 594 s /Tetr4/\$1/\$2/LFO4/Shape-set;
#X obj 155 614 s /Tetr4/\$1/\$2/LFO4/Amount-set;
#X obj 383 373 r /Tetr4/Dump;
#X obj 383 397 route 60 61 62 63 64 65 66 67 68 69;
#X obj 383 420 s /Tetr4/\$1/\$2/LFO4/Dest-set;
#X obj 397 441 s /Tetr4/\$1/\$2/LFO4/KeySync-set;
#X obj 412 461 s /Tetr4/\$1/\$2/Env3/Dest-set;
#X obj 427 481 s /Tetr4/\$1/\$2/Env3/Amount-set;
#X obj 441 502 s /Tetr4/\$1/\$2/Env3/EnvVelocity-set;
#X obj 456 532 s /Tetr4/\$1/\$2/Env3/EnvDelay-set;
#X obj 471 553 s /Tetr4/\$1/\$2/Env3/EnvAttack-set;
#X obj 486 574 s /Tetr4/\$1/\$2/Env3/EnvDecay-set;
#X obj 500 594 s /Tetr4/\$1/\$2/Env3/EnvSustain-set;
#X obj 515 614 s /Tetr4/\$1/\$2/Env3/EnvRelease-set;
#X obj 763 373 r /Tetr4/Dump;
#X obj 763 397 route 70 71 72 73 74 75 76 77 78 79;
#X obj 763 420 s /Tetr4/\$1/\$2/Env3/Repeat-set;
#X obj 777 441 s /Tetr4/\$1/\$2/Mod1/Source-set;
#X obj 792 461 s /Tetr4/\$1/\$2/Mod1/Amount-set;
#X obj 807 481 s /Tetr4/\$1/\$2/Mod1/Dest-set;
#X obj 821 502 s /Tetr4/\$1/\$2/Mod2/Source-set;
#X obj 836 532 s /Tetr4/\$1/\$2/Mod2/Amount-set;
#X obj 851 553 s /Tetr4/\$1/\$2/Mod2/Dest-set;
#X obj 866 574 s /Tetr4/\$1/\$2/Mod3/Source-set;
#X obj 880 594 s /Tetr4/\$1/\$2/Mod3/Amount-set;
#X obj 895 614 s /Tetr4/\$1/\$2/Mod3/Dest-set;
#X obj 1163 373 r /Tetr4/Dump;
#X obj 1163 397 route 80 81 82 83 84 85 86 87 88 89;
#X obj 1163 420 s /Tetr4/\$1/\$2/Mod4/Source-set;
#X obj 1177 441 s /Tetr4/\$1/\$2/Mod4/Amount-set;
#X obj 1192 461 s /Tetr4/\$1/\$2/Mod4/Dest-set;
#X obj 1207 481 s /Tetr4/\$1/\$2/ModWhl/Amount-set;
#X obj 1221 502 s /Tetr4/\$1/\$2/ModWhl/Dest-set;
#X obj 1236 532 s /Tetr4/\$1/\$2/Press/Amount-set;
#X obj 1251 553 s /Tetr4/\$1/\$2/Press/Dest-set;
#X obj 1266 574 s /Tetr4/\$1/\$2/Breath/Amount-set;
#X obj 1280 594 s /Tetr4/\$1/\$2/Breath/Dest-set;
#X obj 1295 614 s /Tetr4/\$1/\$2/Veloc/Amount-set;
#X obj 1553 373 r /Tetr4/Dump;
#X obj 1553 397 route 90 91 92 93 94 95 96 97 98 99;
#X obj 1553 420 s /Tetr4/\$1/\$2/Veloc/Dest-set;
#X obj 1567 441 s /Tetr4/\$1/\$2/Foot/Amount-set;
#X obj 1582 461 s /Tetr4/\$1/\$2/Foot/Dest-set;
#X obj 1597 481 s /Tetr4/\$1/\$2/Unison/Mode-set;
#X obj 1611 502 s /Tetr4/\$1/\$2/Unison/Assign-set;
#X obj 1626 532 s /Tetr4/\$1/\$2/Unison/OnOff-set;
#X obj 1641 553 s /Tetr4/\$1/\$2/PushItSw/Note-set;
#X obj 1656 574 s /Tetr4/\$1/\$2/PushItSw/Velocity-set;
#X obj 1670 594 s /Tetr4/\$1/\$2/PushItSw/Mode-set;
#X obj 1685 614 s /Tetr4/\$1/\$2/KeyMode/Split-set;
#X obj 23 666 r /Tetr4/Dump;
#X obj 23 690 route 100 101 102 103 104 105 106 107 108 109;
#X obj 23 713 s /Tetr4/\$1/\$2/KeyMode/Mode-set;
#X obj 37 734 s /Tetr4/\$1/\$2/Clock/BPM-set;
#X obj 52 754 s /Tetr4/\$1/\$2/Clock/ClockDiv-set;
#X obj 67 774 s /Tetr4/\$1/\$2/Arpeg/Mode-set;
#X obj 81 795 s /Tetr4/\$1/\$2/Arpegiator/OnOff-set;
#X obj 96 825 s /Tetr4/\$1/\$2/Sequencer/Trigger-set;
#X obj 111 846 s /Tetr4/\$1/\$2/Sequencer/OnOff-set;
#X obj 126 867 s /Tetr4/\$1/\$2/Seq1/Dest-set;
#X obj 140 887 s /Tetr4/\$1/\$2/Seq2/Dest-set;
#X obj 155 907 s /Tetr4/\$1/\$2/Seq3/Dest-set;
#X obj 383 666 r /Tetr4/Dump;
#X obj 383 713 s /Tetr4/\$1/\$2/Seq4/Dest-set;
#X obj 397 734 s /Tetr4/\$1/\$2/Assignable/Knob1-set;
#X obj 412 754 s /Tetr4/\$1/\$2/Assignable/Knob2-set;
#X obj 427 774 s /Tetr4/\$1/\$2/Assignable/Knob3-set;
#X obj 441 795 s /Tetr4/\$1/\$2/Assignable/Knob4-set;
#X obj 456 825 s /Tetr4/\$1/\$2/Osc1/WaveReset-set;
#X obj 471 846 s /Tetr4/\$1/\$2/Osc2/WaveReset-set;
#X obj 383 690 route 110 111 112 113 114 115 116;
#X obj 23 122 s /Tetr4/\$1/\$2/Osc1/Frequency-set;
#X obj 37 144 s /Tetr4/\$1/\$2/Osc1/FineFreq-set;
#X obj 52 164 s /Tetr4/\$1/\$2/Osc1/Shape-set;
#X obj 67 184 s /Tetr4/\$1/\$2/Osc1/Glide-set;
#X obj 81 205 s /Tetr4/\$1/\$2/Osc1/Keyboard-set;
#X obj 96 235 s /Tetr4/\$1/\$2/Osc1/SubOsc1-set;
#X obj 111 256 s /Tetr4/\$1/\$2/Osc2/Frequency-set;
#X obj 126 277 s /Tetr4/\$1/\$2/Osc2/FineFreq-set;
#X obj 140 297 s /Tetr4/\$1/\$2/Osc2/Shape-set;
#X obj 155 317 s /Tetr4/\$1/\$2/Osc2/Glide-set;
#X connect 0 0 133 0;
#X connect 0 1 134 0;
#X connect 0 2 135 0;
#X connect 0 3 136 0;
#X connect 0 4 137 0;
#X connect 0 5 138 0;
#X connect 0 6 139 0;
#X connect 0 7 140 0;
#X connect 0 8 141 0;
#X connect 0 9 142 0;
#X connect 1 0 0 0;
#X connect 3 0 2 0;
#X connect 4 0 5 0;
#X connect 5 0 6 0;
#X connect 5 1 7 0;
#X connect 5 2 8 0;
#X connect 5 3 9 0;
#X connect 5 4 10 0;
#X connect 5 5 11 0;
#X connect 5 6 12 0;
#X connect 5 7 13 0;
#X connect 5 8 14 0;
#X connect 5 9 15 0;
#X connect 16 0 17 0;
#X connect 17 0 18 0;
#X connect 17 1 19 0;
#X connect 17 2 20 0;
#X connect 17 3 21 0;
#X connect 17 4 22 0;
#X connect 17 5 23 0;
#X connect 17 6 24 0;
#X connect 17 7 25 0;
#X connect 17 8 26 0;
#X connect 17 9 27 0;
#X connect 28 0 29 0;
#X connect 29 0 30 0;
#X connect 29 1 31 0;
#X connect 29 2 32 0;
#X connect 29 3 33 0;
#X connect 29 4 34 0;
#X connect 29 5 35 0;
#X connect 29 6 36 0;
#X connect 29 7 37 0;
#X connect 29 8 38 0;
#X connect 29 9 39 0;
#X connect 40 0 41 0;
#X connect 41 0 42 0;
#X connect 41 1 43 0;
#X connect 41 2 44 0;
#X connect 41 3 45 0;
#X connect 41 4 46 0;
#X connect 41 5 47 0;
#X connect 41 6 48 0;
#X connect 41 7 49 0;
#X connect 41 8 50 0;
#X connect 41 9 51 0;
#X connect 52 0 53 0;
#X connect 53 0 54 0;
#X connect 53 1 55 0;
#X connect 53 2 56 0;
#X connect 53 3 57 0;
#X connect 53 4 58 0;
#X connect 53 5 59 0;
#X connect 53 6 60 0;
#X connect 53 7 61 0;
#X connect 53 8 62 0;
#X connect 53 9 63 0;
#X connect 64 0 65 0;
#X connect 65 0 66 0;
#X connect 65 1 67 0;
#X connect 65 2 68 0;
#X connect 65 3 69 0;
#X connect 65 4 70 0;
#X connect 65 5 71 0;
#X connect 65 6 72 0;
#X connect 65 7 73 0;
#X connect 65 8 74 0;
#X connect 65 9 75 0;
#X connect 76 0 77 0;
#X connect 77 0 78 0;
#X connect 77 1 79 0;
#X connect 77 2 80 0;
#X connect 77 3 81 0;
#X connect 77 4 82 0;
#X connect 77 5 83 0;
#X connect 77 6 84 0;
#X connect 77 7 85 0;
#X connect 77 8 86 0;
#X connect 77 9 87 0;
#X connect 88 0 89 0;
#X connect 89 0 90 0;
#X connect 89 1 91 0;
#X connect 89 2 92 0;
#X connect 89 3 93 0;
#X connect 89 4 94 0;
#X connect 89 5 95 0;
#X connect 89 6 96 0;
#X connect 89 7 97 0;
#X connect 89 8 98 0;
#X connect 89 9 99 0;
#X connect 100 0 101 0;
#X connect 101 0 102 0;
#X connect 101 1 103 0;
#X connect 101 2 104 0;
#X connect 101 3 105 0;
#X connect 101 4 106 0;
#X connect 101 5 107 0;
#X connect 101 6 108 0;
#X connect 101 7 109 0;
#X connect 101 8 110 0;
#X connect 101 9 111 0;
#X connect 112 0 113 0;
#X connect 113 0 114 0;
#X connect 113 1 115 0;
#X connect 113 2 116 0;
#X connect 113 3 117 0;
#X connect 113 4 118 0;
#X connect 113 5 119 0;
#X connect 113 6 120 0;
#X connect 113 7 121 0;
#X connect 113 8 122 0;
#X connect 113 9 123 0;
#X connect 124 0 132 0;
#X connect 132 0 125 0;
#X connect 132 1 126 0;
#X connect 132 2 127 0;
#X connect 132 3 128 0;
#X connect 132 4 129 0;
#X connect 132 5 130 0;
#X connect 132 6 131 0;
#X restore 106 515 pd router 1 A;
#X obj 266 92 inlet;
#X obj 106 440 list prepend set;
#X connect 0 0 1 0;
#X connect 1 0 7 0;
#X connect 1 0 11 0;
#X connect 1 1 4 0;
#X connect 2 0 3 0;
#X connect 2 0 8 0;
#X connect 3 0 4 1;
#X connect 4 0 2 0;
#X connect 6 0 21 0;
#X connect 7 0 6 0;
#X connect 8 0 10 0;
#X connect 8 0 12 0;
#X connect 8 1 6 1;
#X connect 8 1 13 0;
#X connect 8 1 9 0;
#X connect 9 0 7 1;
#X connect 10 0 7 1;
#X connect 11 0 5 0;
#X connect 12 0 11 1;
#X connect 13 0 11 1;
#X connect 14 0 4 0;
#X connect 15 0 17 0;
#X connect 15 1 14 0;
#X connect 15 1 18 1;
#X connect 16 0 15 0;
#X connect 18 0 19 0;
#X connect 20 0 16 0;
#X connect 21 0 18 0;
