#N canvas 1 74 890 810 10;
#X obj 106 115 sysexin;
#X obj 106 177 t f b;
#X obj 154 220 mod 8;
#X obj 191 191 + 1;
#X obj 154 194 f;
#X obj 246 359 v MS_BITS_PACKET;
#N canvas 894 589 545 295 packet_bit 0;
#X obj 84 117 t f b;
#X obj 111 154 v MS_BITS_PACKET;
#X msg 138 229 128;
#X obj 84 254 +;
#X obj 111 202 sel 0;
#X obj 84 279 outlet;
#X obj 84 37 inlet;
#X obj 126 37 inlet;
#X msg 111 229 0;
#X obj 111 179 &;
#X obj 157 92 - 1;
#X msg 126 92 2;
#X obj 126 116 pow;
#X obj 126 63 t b f;
#X connect 0 0 3 0;
#X connect 0 1 1 0;
#X connect 1 0 9 0;
#X connect 2 0 3 1;
#X connect 3 0 5 0;
#X connect 4 0 8 0;
#X connect 4 1 2 0;
#X connect 6 0 0 0;
#X connect 7 0 13 0;
#X connect 8 0 3 1;
#X connect 9 0 4 0;
#X connect 10 0 12 1;
#X connect 11 0 12 0;
#X connect 12 0 9 1;
#X connect 13 0 11 0;
#X connect 13 1 10 0;
#X restore 106 414 pd packet_bit;
#X obj 106 355 spigot;
#X obj 154 246 sel 0;
#X msg 171 317 1;
#X msg 139 317 0;
#X obj 246 335 spigot;
#X msg 311 297 1;
#X msg 279 297 0;
#X msg 154 162 1;
#X obj 266 145 t f b;
#X msg 266 119 240 \, 1 \, 38 \, 5 \, \$2 \, \$1 \, 247;
#X obj 266 35 unpack;
#X obj 266 88 pack;
#X obj 266 171 midiout 1;
#X obj 266 61 - 1;
#X obj 299 61 - 1;
#N canvas 893 701 546 183 enumerate 0;
#X obj 92 16 inlet;
#X obj 92 105 list prepend;
#X obj 161 73 f;
#X obj 193 73 + 1;
#X obj 161 16 inlet;
#X obj 92 134 outlet;
#X obj 92 56 t f b;
#X msg 161 45 -7;
#X connect 0 0 6 0;
#X connect 1 0 5 0;
#X connect 2 0 3 0;
#X connect 2 0 1 1;
#X connect 3 0 2 1;
#X connect 4 0 7 0;
#X connect 6 0 1 0;
#X connect 6 1 2 0;
#X connect 7 0 2 0;
#X restore 106 437 pd enumerate;
#N canvas 1 89 890 795 router 0;
#X obj 23 100 route 0 1 2 3 4 5 6 7 8 9;
#X obj 23 389 s SSSAD-set;
#X obj 50 368 s SSSAD;
#X obj 23 123 list prepend Tetr4/\$1/\$2/Osc1/Frequency;
#X obj 23 76 r Tetr4/Dump;
#X obj 37 144 list prepend Tetr4/\$1/\$2/Osc1/FineFreq;
#X obj 52 164 list prepend Tetr4/\$1/\$2/Osc1/Shape;
#X obj 67 184 list prepend Tetr4/\$1/\$2/Osc1/Glide;
#X obj 96 235 list prepend Tetr4/\$1/\$2/Osc1/SubOsc1;
#X obj 111 256 list prepend Tetr4/\$1/\$2/Osc2/Frequency;
#X obj 126 277 list prepend Tetr4/\$1/\$2/Osc2/FineFreq;
#X obj 140 297 list prepend Tetr4/\$1/\$2/Osc2/Shape;
#X obj 155 317 list prepend Tetr4/\$1/\$2/Osc2/Glide;
#X obj 23 346 t a a;
#X obj 23 40 s Tetr4/Dump;
#X obj 23 18 inlet;
#X obj 81 205 list prepend Tetr4/\$1/\$2/Osc1/Keyboard;
#X obj 383 389 s SSSAD-set;
#X obj 410 368 s SSSAD;
#X obj 383 76 r Tetr4/Dump;
#X obj 383 346 t a a;
#X obj 383 100 route 10 11 12 13 14 15 16 17 18 19;
#X obj 383 123 list prepend Tetr4/\$1/\$2/Osc2/Keyboard;
#X obj 397 144 list prepend Tetr4/\$1/\$2/Osc2/SubOsc2;
#X obj 412 164 list prepend Tetr4/\$1/\$2/MiscOsc/Sync21;
#X obj 427 184 list prepend Tetr4/\$1/\$2/MiscOsc/Glide;
#X obj 441 205 list prepend Tetr4/\$1/\$2/MiscOsc/Slop;
#X obj 456 235 list prepend Tetr4/\$1/\$2/PWRange/Semitones;
#X obj 471 256 list prepend Tetr4/\$1/\$2/Mixer/OscMix;
#X obj 486 277 list prepend Tetr4/\$1/\$2/Mixer/NoiseLevel;
#X obj 500 297 list prepend Tetr4/\$1/\$2/Feedback/Volume;
#X obj 515 317 list prepend Tetr4/\$1/\$2/Feedback/Gain;
#X obj 763 389 s SSSAD-set;
#X obj 790 368 s SSSAD;
#X obj 763 76 r Tetr4/Dump;
#X obj 763 346 t a a;
#X obj 763 100 route 20 21 22 23 24 25 26 27 28 29;
#X obj 763 123 list prepend Tetr4/\$1/\$2/Lowpass/Frequency;
#X obj 777 144 list prepend Tetr4/\$1/\$2/Lowpass/Resonance;
#X obj 792 164 list prepend Tetr4/\$1/\$2/Lowpass/KeyboardAmt;
#X obj 807 184 list prepend Tetr4/\$1/\$2/Lowpass/AudioMod;
#X obj 821 205 list prepend Tetr4/\$1/\$2/Lowpass/Config;
#X obj 836 235 list prepend Tetr4/\$1/\$2/Lowpass/EnvelopeAmt;
#X obj 851 256 list prepend Tetr4/\$1/\$2/Lowpass/EnvVelocity;
#X obj 866 277 list prepend Tetr4/\$1/\$2/Lowpass/EnvDelay;
#X obj 880 297 list prepend Tetr4/\$1/\$2/Lowpass/EnvAttack;
#X obj 895 317 list prepend Tetr4/\$1/\$2/Lowpass/EnvDecay;
#X obj 1163 389 s SSSAD-set;
#X obj 1190 368 s SSSAD;
#X obj 1163 76 r Tetr4/Dump;
#X obj 1163 346 t a a;
#X obj 1163 100 route 30 31 32 33 34 35 36 37 38 39;
#X obj 1163 123 list prepend Tetr4/\$1/\$2/Lowpass/EnvSustain;
#X obj 1177 144 list prepend Tetr4/\$1/\$2/Lowpass/EnvRelease;
#X obj 1192 164 list prepend Tetr4/\$1/\$2/VCA/Level;
#X obj 1207 184 list prepend Tetr4/\$1/\$2/VCA/EnvelopeAmt;
#X obj 1221 205 list prepend Tetr4/\$1/\$2/VCA/EnvVelocity;
#X obj 1236 235 list prepend Tetr4/\$1/\$2/VCA/EnvDelay;
#X obj 1251 256 list prepend Tetr4/\$1/\$2/VCA/EnvAttack;
#X obj 1266 277 list prepend Tetr4/\$1/\$2/VCA/EnvDecay;
#X obj 1280 297 list prepend Tetr4/\$1/\$2/VCA/EnvSustain;
#X obj 1295 317 list prepend Tetr4/\$1/\$2/VCA/EnvRelease;
#X obj 1553 389 s SSSAD-set;
#X obj 1580 368 s SSSAD;
#X obj 1553 76 r Tetr4/Dump;
#X obj 1553 346 t a a;
#X obj 1553 100 route 40 41 42 43 44 45 46 47 48 49;
#X obj 1553 123 list prepend Tetr4/\$1/\$2/VCA/PanSpread;
#X obj 1567 144 list prepend Tetr4/\$1/\$2/Program/Volume;
#X obj 1582 164 list prepend Tetr4/\$1/\$2/LFO1/Freqncy;
#X obj 1597 184 list prepend Tetr4/\$1/\$2/LFO1/Shape;
#X obj 1611 205 list prepend Tetr4/\$1/\$2/LFO1/Amount;
#X obj 1626 235 list prepend Tetr4/\$1/\$2/LFO1/Dest;
#X obj 1641 256 list prepend Tetr4/\$1/\$2/LFO1/KeySync;
#X obj 1656 277 list prepend Tetr4/\$1/\$2/LFO2/Freqncy;
#X obj 1670 297 list prepend Tetr4/\$1/\$2/LFO2/Shape;
#X obj 1685 317 list prepend Tetr4/\$1/\$2/LFO2/Amount;
#X obj 23 746 s SSSAD-set;
#X obj 50 725 s SSSAD;
#X obj 23 433 r Tetr4/Dump;
#X obj 23 703 t a a;
#X obj 23 457 route 50 51 52 53 54 55 56 57 58 59;
#X obj 23 480 list prepend Tetr4/\$1/\$2/LFO2/Dest;
#X obj 37 501 list prepend Tetr4/\$1/\$2/LFO2/KeySync;
#X obj 52 521 list prepend Tetr4/\$1/\$2/LFO3/Freqncy;
#X obj 67 541 list prepend Tetr4/\$1/\$2/LFO3/Shape;
#X obj 81 562 list prepend Tetr4/\$1/\$2/LFO3/Amount;
#X obj 96 592 list prepend Tetr4/\$1/\$2/LFO3/Dest;
#X obj 111 613 list prepend Tetr4/\$1/\$2/LFO3/KeySync;
#X obj 126 634 list prepend Tetr4/\$1/\$2/LFO4/Freqncy;
#X obj 140 654 list prepend Tetr4/\$1/\$2/LFO4/Shape;
#X obj 155 674 list prepend Tetr4/\$1/\$2/LFO4/Amount;
#X obj 383 746 s SSSAD-set;
#X obj 410 725 s SSSAD;
#X obj 383 433 r Tetr4/Dump;
#X obj 383 703 t a a;
#X obj 383 457 route 60 61 62 63 64 65 66 67 68 69;
#X obj 383 480 list prepend Tetr4/\$1/\$2/LFO4/Dest;
#X obj 397 501 list prepend Tetr4/\$1/\$2/LFO4/KeySync;
#X obj 412 521 list prepend Tetr4/\$1/\$2/Env3/Dest;
#X obj 427 541 list prepend Tetr4/\$1/\$2/Env3/Amount;
#X obj 441 562 list prepend Tetr4/\$1/\$2/Env3/EnvVelocity;
#X obj 456 592 list prepend Tetr4/\$1/\$2/Env3/EnvDelay;
#X obj 471 613 list prepend Tetr4/\$1/\$2/Env3/EnvAttack;
#X obj 486 634 list prepend Tetr4/\$1/\$2/Env3/EnvDecay;
#X obj 500 654 list prepend Tetr4/\$1/\$2/Env3/EnvSustain;
#X obj 515 674 list prepend Tetr4/\$1/\$2/Env3/EnvRelease;
#X obj 763 746 s SSSAD-set;
#X obj 790 725 s SSSAD;
#X obj 763 433 r Tetr4/Dump;
#X obj 763 703 t a a;
#X obj 763 457 route 70 71 72 73 74 75 76 77 78 79;
#X obj 763 480 list prepend Tetr4/\$1/\$2/Env3/Repeat;
#X obj 777 501 list prepend Tetr4/\$1/\$2/Mod1/Source;
#X obj 792 521 list prepend Tetr4/\$1/\$2/Mod1/Amount;
#X obj 807 541 list prepend Tetr4/\$1/\$2/Mod1/Dest;
#X obj 821 562 list prepend Tetr4/\$1/\$2/Mod2/Source;
#X obj 836 592 list prepend Tetr4/\$1/\$2/Mod2/Amount;
#X obj 851 613 list prepend Tetr4/\$1/\$2/Mod2/Dest;
#X obj 866 634 list prepend Tetr4/\$1/\$2/Mod3/Source;
#X obj 880 654 list prepend Tetr4/\$1/\$2/Mod3/Amount;
#X obj 895 674 list prepend Tetr4/\$1/\$2/Mod3/Dest;
#X obj 1163 746 s SSSAD-set;
#X obj 1190 725 s SSSAD;
#X obj 1163 433 r Tetr4/Dump;
#X obj 1163 703 t a a;
#X obj 1163 457 route 80 81 82 83 84 85 86 87 88 89;
#X obj 1163 480 list prepend Tetr4/\$1/\$2/Mod4/Source;
#X obj 1177 501 list prepend Tetr4/\$1/\$2/Mod4/Amount;
#X obj 1192 521 list prepend Tetr4/\$1/\$2/Mod4/Dest;
#X obj 1207 541 list prepend Tetr4/\$1/\$2/ModWhl/Amount;
#X obj 1221 562 list prepend Tetr4/\$1/\$2/ModWhl/Dest;
#X obj 1236 592 list prepend Tetr4/\$1/\$2/Press/Amount;
#X obj 1251 613 list prepend Tetr4/\$1/\$2/Press/Dest;
#X obj 1266 634 list prepend Tetr4/\$1/\$2/Breath/Amount;
#X obj 1280 654 list prepend Tetr4/\$1/\$2/Breath/Dest;
#X obj 1295 674 list prepend Tetr4/\$1/\$2/Veloc/Amount;
#X obj 1553 746 s SSSAD-set;
#X obj 1580 725 s SSSAD;
#X obj 1553 433 r Tetr4/Dump;
#X obj 1553 703 t a a;
#X obj 1553 457 route 90 91 92 93 94 95 96 97 98 99;
#X obj 1553 480 list prepend Tetr4/\$1/\$2/Veloc/Dest;
#X obj 1567 501 list prepend Tetr4/\$1/\$2/Foot/Amount;
#X obj 1582 521 list prepend Tetr4/\$1/\$2/Foot/Dest;
#X obj 1597 541 list prepend Tetr4/\$1/\$2/Unison/Mode;
#X obj 1611 562 list prepend Tetr4/\$1/\$2/Unison/Assign;
#X obj 1626 592 list prepend Tetr4/\$1/\$2/Unison/OnOff;
#X obj 1641 613 list prepend Tetr4/\$1/\$2/PushItSw/Note;
#X obj 1656 634 list prepend Tetr4/\$1/\$2/PushItSw/Velocity;
#X obj 1670 654 list prepend Tetr4/\$1/\$2/PushItSw/Mode;
#X obj 1685 674 list prepend Tetr4/\$1/\$2/KeyMode/Split;
#X obj 23 1109 s SSSAD-set;
#X obj 50 1088 s SSSAD;
#X obj 23 796 r Tetr4/Dump;
#X obj 23 1066 t a a;
#X obj 23 820 route 100 101 102 103 104 105 106 107 108 109;
#X obj 23 843 list prepend Tetr4/\$1/\$2/KeyMode/Mode;
#X obj 37 864 list prepend Tetr4/\$1/\$2/Clock/BPM;
#X obj 52 884 list prepend Tetr4/\$1/\$2/Clock/ClockDiv;
#X obj 67 904 list prepend Tetr4/\$1/\$2/Arpeg/Mode;
#X obj 81 925 list prepend Tetr4/\$1/\$2/Arpegiator/OnOff;
#X obj 96 955 list prepend Tetr4/\$1/\$2/Sequencer/Trigger;
#X obj 111 976 list prepend Tetr4/\$1/\$2/Sequencer/OnOff;
#X obj 126 997 list prepend Tetr4/\$1/\$2/Seq1/Dest;
#X obj 140 1017 list prepend Tetr4/\$1/\$2/Seq2/Dest;
#X obj 155 1037 list prepend Tetr4/\$1/\$2/Seq3/Dest;
#X obj 383 1109 s SSSAD-set;
#X obj 410 1088 s SSSAD;
#X obj 383 796 r Tetr4/Dump;
#X obj 383 1066 t a a;
#X obj 383 843 list prepend Tetr4/\$1/\$2/Seq4/Dest;
#X obj 397 864 list prepend Tetr4/\$1/\$2/Assignable/Knob1;
#X obj 412 884 list prepend Tetr4/\$1/\$2/Assignable/Knob2;
#X obj 427 904 list prepend Tetr4/\$1/\$2/Assignable/Knob3;
#X obj 441 925 list prepend Tetr4/\$1/\$2/Assignable/Knob4;
#X obj 456 955 list prepend Tetr4/\$1/\$2/Osc1/WaveReset;
#X obj 471 976 list prepend Tetr4/\$1/\$2/Osc2/WaveReset;
#X obj 383 820 route 110 111 112 113 114 115 116;
#X connect 0 0 3 0;
#X connect 0 1 5 0;
#X connect 0 2 6 0;
#X connect 0 3 7 0;
#X connect 0 4 16 0;
#X connect 0 5 8 0;
#X connect 0 6 9 0;
#X connect 0 7 10 0;
#X connect 0 8 11 0;
#X connect 0 9 12 0;
#X connect 3 0 13 0;
#X connect 4 0 0 0;
#X connect 5 0 13 0;
#X connect 6 0 13 0;
#X connect 7 0 13 0;
#X connect 8 0 13 0;
#X connect 9 0 13 0;
#X connect 10 0 13 0;
#X connect 11 0 13 0;
#X connect 12 0 13 0;
#X connect 13 0 1 0;
#X connect 13 1 2 0;
#X connect 15 0 14 0;
#X connect 16 0 13 0;
#X connect 19 0 21 0;
#X connect 20 0 17 0;
#X connect 20 1 18 0;
#X connect 21 0 22 0;
#X connect 21 1 23 0;
#X connect 21 2 24 0;
#X connect 21 3 25 0;
#X connect 21 4 26 0;
#X connect 21 5 27 0;
#X connect 21 6 28 0;
#X connect 21 7 29 0;
#X connect 21 8 30 0;
#X connect 21 9 31 0;
#X connect 22 0 20 0;
#X connect 23 0 20 0;
#X connect 24 0 20 0;
#X connect 25 0 20 0;
#X connect 26 0 20 0;
#X connect 27 0 20 0;
#X connect 28 0 20 0;
#X connect 29 0 20 0;
#X connect 30 0 20 0;
#X connect 31 0 20 0;
#X connect 34 0 36 0;
#X connect 35 0 32 0;
#X connect 35 1 33 0;
#X connect 36 0 37 0;
#X connect 36 1 38 0;
#X connect 36 2 39 0;
#X connect 36 3 40 0;
#X connect 36 4 41 0;
#X connect 36 5 42 0;
#X connect 36 6 43 0;
#X connect 36 7 44 0;
#X connect 36 8 45 0;
#X connect 36 9 46 0;
#X connect 37 0 35 0;
#X connect 38 0 35 0;
#X connect 39 0 35 0;
#X connect 40 0 35 0;
#X connect 41 0 35 0;
#X connect 42 0 35 0;
#X connect 43 0 35 0;
#X connect 44 0 35 0;
#X connect 45 0 35 0;
#X connect 46 0 35 0;
#X connect 49 0 51 0;
#X connect 50 0 47 0;
#X connect 50 1 48 0;
#X connect 51 0 52 0;
#X connect 51 1 53 0;
#X connect 51 2 54 0;
#X connect 51 3 55 0;
#X connect 51 4 56 0;
#X connect 51 5 57 0;
#X connect 51 6 58 0;
#X connect 51 7 59 0;
#X connect 51 8 60 0;
#X connect 51 9 61 0;
#X connect 52 0 50 0;
#X connect 53 0 50 0;
#X connect 54 0 50 0;
#X connect 55 0 50 0;
#X connect 56 0 50 0;
#X connect 57 0 50 0;
#X connect 58 0 50 0;
#X connect 59 0 50 0;
#X connect 60 0 50 0;
#X connect 61 0 50 0;
#X connect 64 0 66 0;
#X connect 65 0 62 0;
#X connect 65 1 63 0;
#X connect 66 0 67 0;
#X connect 66 1 68 0;
#X connect 66 2 69 0;
#X connect 66 3 70 0;
#X connect 66 4 71 0;
#X connect 66 5 72 0;
#X connect 66 6 73 0;
#X connect 66 7 74 0;
#X connect 66 8 75 0;
#X connect 66 9 76 0;
#X connect 67 0 65 0;
#X connect 68 0 65 0;
#X connect 69 0 65 0;
#X connect 70 0 65 0;
#X connect 71 0 65 0;
#X connect 72 0 65 0;
#X connect 73 0 65 0;
#X connect 74 0 65 0;
#X connect 75 0 65 0;
#X connect 76 0 65 0;
#X connect 79 0 81 0;
#X connect 80 0 77 0;
#X connect 80 1 78 0;
#X connect 81 0 82 0;
#X connect 81 1 83 0;
#X connect 81 2 84 0;
#X connect 81 3 85 0;
#X connect 81 4 86 0;
#X connect 81 5 87 0;
#X connect 81 6 88 0;
#X connect 81 7 89 0;
#X connect 81 8 90 0;
#X connect 81 9 91 0;
#X connect 82 0 80 0;
#X connect 83 0 80 0;
#X connect 84 0 80 0;
#X connect 85 0 80 0;
#X connect 86 0 80 0;
#X connect 87 0 80 0;
#X connect 88 0 80 0;
#X connect 89 0 80 0;
#X connect 90 0 80 0;
#X connect 91 0 80 0;
#X connect 94 0 96 0;
#X connect 95 0 92 0;
#X connect 95 1 93 0;
#X connect 96 0 97 0;
#X connect 96 1 98 0;
#X connect 96 2 99 0;
#X connect 96 3 100 0;
#X connect 96 4 101 0;
#X connect 96 5 102 0;
#X connect 96 6 103 0;
#X connect 96 7 104 0;
#X connect 96 8 105 0;
#X connect 96 9 106 0;
#X connect 97 0 95 0;
#X connect 98 0 95 0;
#X connect 99 0 95 0;
#X connect 100 0 95 0;
#X connect 101 0 95 0;
#X connect 102 0 95 0;
#X connect 103 0 95 0;
#X connect 104 0 95 0;
#X connect 105 0 95 0;
#X connect 106 0 95 0;
#X connect 109 0 111 0;
#X connect 110 0 107 0;
#X connect 110 1 108 0;
#X connect 111 0 112 0;
#X connect 111 1 113 0;
#X connect 111 2 114 0;
#X connect 111 3 115 0;
#X connect 111 4 116 0;
#X connect 111 5 117 0;
#X connect 111 6 118 0;
#X connect 111 7 119 0;
#X connect 111 8 120 0;
#X connect 111 9 121 0;
#X connect 112 0 110 0;
#X connect 113 0 110 0;
#X connect 114 0 110 0;
#X connect 115 0 110 0;
#X connect 116 0 110 0;
#X connect 117 0 110 0;
#X connect 118 0 110 0;
#X connect 119 0 110 0;
#X connect 120 0 110 0;
#X connect 121 0 110 0;
#X connect 124 0 126 0;
#X connect 125 0 122 0;
#X connect 125 1 123 0;
#X connect 126 0 127 0;
#X connect 126 1 128 0;
#X connect 126 2 129 0;
#X connect 126 3 130 0;
#X connect 126 4 131 0;
#X connect 126 5 132 0;
#X connect 126 6 133 0;
#X connect 126 7 134 0;
#X connect 126 8 135 0;
#X connect 126 9 136 0;
#X connect 127 0 125 0;
#X connect 128 0 125 0;
#X connect 129 0 125 0;
#X connect 130 0 125 0;
#X connect 131 0 125 0;
#X connect 132 0 125 0;
#X connect 133 0 125 0;
#X connect 134 0 125 0;
#X connect 135 0 125 0;
#X connect 136 0 125 0;
#X connect 139 0 141 0;
#X connect 140 0 137 0;
#X connect 140 1 138 0;
#X connect 141 0 142 0;
#X connect 141 1 143 0;
#X connect 141 2 144 0;
#X connect 141 3 145 0;
#X connect 141 4 146 0;
#X connect 141 5 147 0;
#X connect 141 6 148 0;
#X connect 141 7 149 0;
#X connect 141 8 150 0;
#X connect 141 9 151 0;
#X connect 142 0 140 0;
#X connect 143 0 140 0;
#X connect 144 0 140 0;
#X connect 145 0 140 0;
#X connect 146 0 140 0;
#X connect 147 0 140 0;
#X connect 148 0 140 0;
#X connect 149 0 140 0;
#X connect 150 0 140 0;
#X connect 151 0 140 0;
#X connect 154 0 156 0;
#X connect 155 0 152 0;
#X connect 155 1 153 0;
#X connect 156 0 157 0;
#X connect 156 1 158 0;
#X connect 156 2 159 0;
#X connect 156 3 160 0;
#X connect 156 4 161 0;
#X connect 156 5 162 0;
#X connect 156 6 163 0;
#X connect 156 7 164 0;
#X connect 156 8 165 0;
#X connect 156 9 166 0;
#X connect 157 0 155 0;
#X connect 158 0 155 0;
#X connect 159 0 155 0;
#X connect 160 0 155 0;
#X connect 161 0 155 0;
#X connect 162 0 155 0;
#X connect 163 0 155 0;
#X connect 164 0 155 0;
#X connect 165 0 155 0;
#X connect 166 0 155 0;
#X connect 169 0 178 0;
#X connect 170 0 167 0;
#X connect 170 1 168 0;
#X connect 171 0 170 0;
#X connect 172 0 170 0;
#X connect 173 0 170 0;
#X connect 174 0 170 0;
#X connect 175 0 170 0;
#X connect 176 0 170 0;
#X connect 177 0 170 0;
#X connect 178 0 171 0;
#X connect 178 1 172 0;
#X connect 178 2 173 0;
#X connect 178 3 174 0;
#X connect 178 4 175 0;
#X connect 178 5 176 0;
#X connect 178 6 177 0;
#X restore 106 515 pd router 1 A;
#X obj 266 12 inlet;
#X connect 0 0 1 0;
#X connect 1 0 7 0;
#X connect 1 0 11 0;
#X connect 1 1 4 0;
#X connect 2 0 3 0;
#X connect 2 0 8 0;
#X connect 3 0 4 1;
#X connect 4 0 2 0;
#X connect 6 0 22 0;
#X connect 7 0 6 0;
#X connect 8 0 10 0;
#X connect 8 0 12 0;
#X connect 8 1 6 1;
#X connect 8 1 13 0;
#X connect 8 1 9 0;
#X connect 9 0 7 1;
#X connect 10 0 7 1;
#X connect 11 0 5 0;
#X connect 12 0 11 1;
#X connect 13 0 11 1;
#X connect 14 0 4 0;
#X connect 15 0 19 0;
#X connect 15 1 14 0;
#X connect 15 1 22 1;
#X connect 16 0 15 0;
#X connect 17 0 20 0;
#X connect 17 1 21 0;
#X connect 18 0 16 0;
#X connect 20 0 18 0;
#X connect 21 0 18 1;
#X connect 22 0 23 0;
#X connect 24 0 17 0;
