#N canvas 1 74 890 795 10;
#X text 839 124 0 bank 1 \; 1 bank 2 \; 2 bank 3 \; 3 bank 4 \;;
#X obj 834 109 hradio 15 1 0 4 Tetr4/\$1/BankSelect empty BankSelect
0 -8 0 10 -262144 -1 -1 0;
#X obj 832 41 hsl 128 15 1 128 0 0 Tetr4/\$1/ProgramChange empty ProgramChange
-2 -8 0 10 -262144 -1 -1 700 1;
#X msg 29 -107 0 Off;
#X msg 29 -92 1 Saw;
#X msg 29 -77 2 Triangle;
#X msg 29 -62 3 Saw/Triangle;
#X msg 29 -47 54 Square;
#X msg 209 -107 0 Off;
#X msg 209 -92 1 Saw;
#X msg 209 -77 2 Triangle;
#X msg 209 -62 3 Saw/Triangle;
#X msg 209 -47 54 Square;
#X msg 24 1347 0 0 0 0 0 0 0 0 0 0 0 0 0 0 0 0 0;
#X msg 264 1347 0 0 0 0 0 0 0 0 0 0 0 0 0 0 0 0 0;
#X msg 504 1347 0 0 0 0 0 0 0 0 0 0 0 0 0 0 0 0 0;
#X msg 744 1347 0 0 0 0 0 0 0 0 0 0 0 0 0 0 0 0 0;
#X obj 24 1725 TETRA_CONTROLLERS \$1 \$2;
#X obj 264 1725 TETRA_CONTROLLERS_VEL \$1 \$2;
#X obj 264 1895 TETRA_CONTROLLERS_MODW \$1 \$2;
#X obj 504 1895 TETRA_CONTROLLERS_FOOT \$1 \$2;
#X obj 744 1725 TETRA_CONTROLLERS_BREATH \$1 \$2;
#X obj 24 1385 TETRA_SEQ_1 \$1 \$2;
#X obj 264 1385 TETRA_SEQ_2 \$1 \$2;
#X obj 504 1385 TETRA_SEQ_3 \$1 \$2;
#X obj 745 1385 TETRA_SEQ_4 \$1 \$2;
#X obj 28 1010 TETRA_MOD_1 \$1 \$2;
#X obj 208 1010 TETRA_MOD_2 \$1 \$2;
#X obj 388 1010 TETRA_MOD_3 \$1 \$2;
#X obj 568 1010 TETRA_MOD_4 \$1 \$2;
#X obj 768 1010 TETRA_TEMPO \$1 \$2;
#X obj 430 -90 cnv 15 150 40 empty empty empty 20 12 0 14 -233017 -66577
0;
#N canvas 1 104 1022 465 presets 0;
#X obj 13 315 cnv 15 400 300 empty empty Restore 300 12 0 14 -233017
-123526 0;
#X obj 13 12 cnv 15 400 300 empty empty Save 300 12 0 14 -233017 -123526
0;
#X obj 239 237 textfile;
#X msg 128 138 clear;
#X msg 313 220 print;
#X obj 239 161 list prepend add;
#X obj 239 187 list trim;
#X obj 86 520 textfile;
#X obj 86 550 s SSSAD;
#X msg 30 503 print;
#X text 81 572 also received inside sssad;
#X obj 106 238 s SSSAD_ADMIN;
#X obj 239 93 r SSSAD_ADMIN;
#X obj 239 137 route persist;
#X obj 239 115 list trim;
#X msg 106 172 save;
#X msg 120 211 set;
#X obj 84 59 savepanel;
#X obj 84 102 t a b b;
#X msg 84 285 write \$1;
#X obj 84 31 bng 24 250 50 0 empty empty save 0 -6 0 8 -262144 -1 -1
;
#X obj 86 418 t b a;
#X msg 113 497 read \$1 \, rewind;
#X obj 86 337 bng 24 250 50 0 empty empty load 0 -6 0 8 -262144 -1
-1;
#X obj 86 365 openpanel;
#X obj 84 81 symbol;
#X msg 27 63 bang;
#X text 25 43 again;
#X obj 86 395 symbol;
#X msg 29 378 bang;
#X text 27 358 again;
#X obj 476 520 textfile;
#X obj 476 550 s SSSAD;
#X obj 476 462 until;
#X msg 476 441 100;
#X msg 420 503 print;
#X text 471 572 also received inside sssad;
#X obj 544 547 s SSSAD_ADMIN;
#X msg 544 522 set;
#X obj 476 418 t b a;
#X msg 523 463 read \$1 \, rewind;
#X obj 476 337 bng 24 250 50 0 empty empty load 0 -6 0 8 -262144 -1
-1;
#X obj 476 365 openpanel;
#X text 508 441 Avoid loops. A bang normally also works.;
#X obj 476 395 symbol;
#X msg 419 378 bang;
#X text 417 358 again;
#X obj 31 553 print;
#X obj 67 586 s SSSAD-set;
#X msg 86 438 1;
#X msg 120 438 0;
#X obj 86 471 metro 20;
#X connect 3 0 2 0;
#X connect 4 0 2 0;
#X connect 5 0 6 0;
#X connect 6 0 2 0;
#X connect 7 0 8 0;
#X connect 7 0 47 0;
#X connect 7 0 48 0;
#X connect 7 1 50 0;
#X connect 9 0 7 0;
#X connect 12 0 14 0;
#X connect 13 0 5 0;
#X connect 14 0 13 0;
#X connect 15 0 11 0;
#X connect 16 0 11 0;
#X connect 17 0 25 0;
#X connect 18 0 19 0;
#X connect 18 1 15 0;
#X connect 18 2 3 0;
#X connect 19 0 2 0;
#X connect 20 0 17 0;
#X connect 21 0 49 0;
#X connect 21 1 22 0;
#X connect 22 0 7 0;
#X connect 23 0 24 0;
#X connect 24 0 28 0;
#X connect 25 0 18 0;
#X connect 26 0 25 0;
#X connect 28 0 21 0;
#X connect 29 0 28 0;
#X connect 31 0 32 0;
#X connect 31 1 33 1;
#X connect 31 1 38 0;
#X connect 33 0 31 0;
#X connect 34 0 33 0;
#X connect 35 0 31 0;
#X connect 38 0 37 0;
#X connect 39 0 34 0;
#X connect 39 1 40 0;
#X connect 40 0 31 0;
#X connect 41 0 42 0;
#X connect 42 0 44 0;
#X connect 44 0 39 0;
#X connect 45 0 44 0;
#X connect 49 0 51 0;
#X connect 50 0 51 0;
#X connect 51 0 7 0;
#X restore 444 -78 pd presets;
#X obj 504 1725 TETRA_CONTROLLERS_PRESS \$1 \$2;
#X obj 28 -30 Osc1 \$1 \$2;
#X obj 208 -30 Osc2 \$1 \$2;
#X obj 408 -30 OscMisc \$1 \$2;
#X obj 588 -30 Unison \$1 \$2;
#X obj 839 -81 MappingsA \$1;
#X obj 28 310 VCA \$1 \$2;
#X obj 208 310 VCAEnv \$1 \$2;
#X obj 408 310 Lowpass \$1 \$2;
#X obj 588 310 LowpassEnv \$1 \$2;
#X obj 788 310 Env3 \$1 \$2;
#X obj 38 643 SyncFreq;
#X obj 218 643 SyncFreq;
#X obj 400 643 SyncFreq;
#X obj 576 643 SyncFreq;
#X obj 28 660 LFO1 \$1 \$2;
#X obj 208 660 LFO2 \$1 \$2;
#X obj 388 660 LFO3 \$1 \$2;
#X obj 568 660 LFO4 \$1 \$2;
#X obj 778 993 ClockDiv;
#X obj 880 993 ArpMode;
#X obj 274 1708 ModDest;
#X obj 274 1878 ModDest;
#X obj 514 1878 ModDest;
#X obj 514 1708 ModDest;
#X obj 754 1708 ModDest;
#X obj 850 1368 ModDest;
#X obj 610 1368 ModDest;
#X obj 370 1368 ModDest;
#X obj 130 1368 ModDest;
#X obj 134 993 ModDest;
#X obj 314 993 ModDest;
#X obj 494 993 ModDest;
#X obj 674 993 ModDest;
#X obj 674 643 ModDest;
#X obj 788 293 ModDest;
#X obj 494 643 ModDest;
#X obj 314 643 ModDest;
#X obj 134 643 ModDest;
#X obj 38 993 ModSrc;
#X obj 218 993 ModSrc;
#X obj 398 993 ModSrc;
#X obj 578 993 ModSrc;
#X connect 3 0 34 0;
#X connect 4 0 34 0;
#X connect 5 0 34 0;
#X connect 6 0 34 0;
#X connect 7 0 34 0;
#X connect 8 0 35 0;
#X connect 9 0 35 0;
#X connect 10 0 35 0;
#X connect 11 0 35 0;
#X connect 12 0 35 0;
#X connect 13 0 22 0;
#X connect 14 0 23 0;
#X connect 15 0 24 0;
#X connect 16 0 25 0;
#X connect 44 0 48 0;
#X connect 45 0 49 0;
#X connect 46 0 50 0;
#X connect 47 0 51 0;
#X connect 52 0 30 0;
#X connect 53 0 30 1;
#X connect 54 0 18 0;
#X connect 55 0 19 0;
#X connect 56 0 20 0;
#X connect 57 0 33 0;
#X connect 58 0 21 0;
#X connect 59 0 25 1;
#X connect 60 0 24 1;
#X connect 61 0 23 1;
#X connect 62 0 22 1;
#X connect 63 0 26 1;
#X connect 64 0 27 1;
#X connect 65 0 28 1;
#X connect 66 0 29 1;
#X connect 67 0 51 1;
#X connect 68 0 43 0;
#X connect 69 0 50 1;
#X connect 70 0 49 1;
#X connect 71 0 48 1;
#X connect 72 0 26 0;
#X connect 73 0 27 0;
#X connect 74 0 28 0;
#X connect 75 0 29 0;
