#N canvas 1 89 1021 480 10;
#X obj 871 87 hradio 15 1 0 4 /Tetr4/\$1/BankSelect empty BankSelect
0 -8 0 10 -262144 -1 -1 0;
#X obj 824 51 hsl 128 15 1 128 0 0 /Tetr4/\$1/ProgramChange empty ProgramChange
-2 -8 0 10 -262144 -1 -1 200 1;
#X msg 29 -107 0 Off;
#X msg 29 -92 1 Saw;
#X msg 29 -77 2 Triangle;
#X msg 29 -62 3 Saw/Triangle;
#X msg 29 -47 54 Square;
#X msg 209 -107 0 Off;
#X msg 209 -92 1 Saw;
#X msg 209 -77 2 Triangle;
#X msg 209 -62 3 Saw/Triangle;
#X msg 209 -47 54 Square;
#X msg 24 1347 0 0 0 0 0 0 0 0 0 0 0 0 0 0 0 0 0;
#X msg 264 1347 0 0 0 0 0 0 0 0 0 0 0 0 0 0 0 0 0;
#X msg 504 1347 0 0 0 0 0 0 0 0 0 0 0 0 0 0 0 0 0;
#X msg 745 1347 0 0 0 0 0 0 0 0 0 0 0 0 0 0 0 0 0;
#X obj 28 -30 Osc1 \$1 \$2;
#X obj 208 -30 Osc2 \$1 \$2;
#X obj 408 -30 OscMisc \$1 \$2;
#X obj 588 -30 Unison \$1 \$2;
#X obj 809 -61 MappingsA \$1;
#X obj 28 310 VCA \$1 \$2;
#X obj 208 310 VCAEnv \$1 \$2;
#X obj 408 310 Lowpass \$1 \$2;
#X obj 588 310 LowpassEnv \$1 \$2;
#X obj 788 310 Env3 \$1 \$2;
#X obj 576 643 SyncFreq;
#X obj 28 660 LFO1 \$1 \$2;
#X obj 388 660 LFO3 \$1 \$2;
#X obj 568 660 LFO4 \$1 \$2;
#X obj 778 993 ClockDiv;
#X obj 880 993 ArpMode;
#X obj 788 293 ModDest;
#X obj 274 1708 ModDest;
#X obj 274 1878 ModDest;
#X obj 514 1878 ModDest;
#X obj 514 1708 ModDest;
#X obj 754 1708 ModDest;
#X obj 850 1368 ModDest;
#X obj 610 1368 ModDest;
#X obj 370 1368 ModDest;
#X obj 130 1368 ModDest;
#X obj 134 993 ModDest;
#X obj 314 993 ModDest;
#X obj 494 993 ModDest;
#X obj 674 993 ModDest;
#X obj 674 643 ModDest;
#X obj 494 643 ModDest;
#X obj 314 643 ModDest;
#X obj 134 643 ModDest;
#X obj 218 993 ModSrc;
#X obj 398 993 ModSrc;
#X obj 578 993 ModSrc;
#X obj 38 993 ModSrc;
#X obj 38 643 SyncFreq;
#X obj 218 643 SyncFreq;
#X obj 400 643 SyncFreq;
#X obj 28 1010 Mod1 \$1 \$2;
#X obj 208 1010 Mod2 \$1 \$2;
#X obj 388 1010 Mod3 \$1 \$2;
#X obj 568 1010 Mod4 \$1 \$2;
#X obj 768 1010 Clock \$1 \$2;
#X obj 264 1725 Veloc \$1 \$2;
#X obj 24 1725 Controllers \$1 \$2;
#X obj 744 1725 Breath \$1 \$2;
#X obj 504 1725 Press \$1 \$2;
#X obj 264 1895 ModWhl \$1 \$2;
#X obj 504 1895 Foot \$1 \$2;
#X obj 24 1385 Seq1 \$1 \$2;
#X obj 264 1385 Seq2 \$1 \$2;
#X obj 504 1385 Seq3 \$1 \$2;
#X obj 745 1385 Seq4 \$1 \$2;
#X obj 789 135 ParameterDump 1 A;
#X obj 789 111 pack;
#X floatatom 789 -35 5 1 128 0 - - -;
#X floatatom 839 -35 5 1 4 0 - - -;
#X obj 839 -16 - 1;
#X obj 839 6 t f f;
#X obj 789 6 t f f;
#X obj 789 28 - 1;
#X obj 208 660 LFO2 \$1 \$2;
#X obj 822 82 t b f;
#X connect 2 0 16 0;
#X connect 3 0 16 0;
#X connect 4 0 16 0;
#X connect 5 0 16 0;
#X connect 6 0 16 0;
#X connect 7 0 17 0;
#X connect 8 0 17 0;
#X connect 9 0 17 0;
#X connect 10 0 17 0;
#X connect 11 0 17 0;
#X connect 12 0 68 0;
#X connect 13 0 69 0;
#X connect 14 0 70 0;
#X connect 15 0 71 0;
#X connect 26 0 29 0;
#X connect 30 0 61 0;
#X connect 31 0 61 1;
#X connect 32 0 25 0;
#X connect 33 0 62 0;
#X connect 34 0 66 0;
#X connect 35 0 67 0;
#X connect 36 0 65 0;
#X connect 37 0 64 0;
#X connect 38 0 71 1;
#X connect 39 0 70 1;
#X connect 40 0 69 1;
#X connect 41 0 68 1;
#X connect 42 0 57 1;
#X connect 43 0 58 1;
#X connect 44 0 59 1;
#X connect 45 0 60 1;
#X connect 46 0 29 1;
#X connect 47 0 28 1;
#X connect 48 0 80 1;
#X connect 49 0 27 1;
#X connect 50 0 58 0;
#X connect 51 0 59 0;
#X connect 52 0 60 0;
#X connect 53 0 57 0;
#X connect 54 0 27 0;
#X connect 55 0 80 0;
#X connect 56 0 28 0;
#X connect 73 0 72 0;
#X connect 74 0 78 0;
#X connect 75 0 76 0;
#X connect 76 0 77 0;
#X connect 77 0 81 0;
#X connect 77 1 0 0;
#X connect 78 0 79 0;
#X connect 78 1 1 0;
#X connect 79 0 73 0;
#X connect 81 0 73 0;
#X connect 81 1 73 1;
