#N canvas 1 89 1021 480 10;
#X obj 101 115 cnv 15 178 304 empty empty empty 20 12 0 14 -257985
-66577 0;
#X obj 224 258 bng 15 250 50 0 empty empty WRITE 17 7 0 10 -262144
-1 -1;
#X symbolatom 130 318 20 0 0 0 - - -;
#X floatatom 358 170 5 0 48 1 Dest - /Tetr4/#1/#2/Seq2/Dest;
#X obj 242 48 inlet;
#X obj 348 40 inlet;
#X text 104 366 0-63 pitch (0.5 resolution) \; 63 reset \;;
#X obj 298 332 s TETRA_\$1_\$2_SEQ_2_STEP;
#X obj 433 352 s TETRA_\$1_\$2_SEQ_2;
#N canvas 0 0 450 300 (subpatch) 0;
#X array \$1_\$2_SEQ_2_TABLE 16 float 1;
#A 0 0 0 0 0 0 0 0 0 0 0 0 0 0 0 0 0;
#X coords 0 127 15 0 160 120 1 0 0;
#X restore 110 131 graph;
#X msg 789 119 Osc_1_Freq;
#X msg 789 139 Osc_2_Freq;
#X msg 789 159 Osc_All_Freq;
#X obj 789 393 symbol;
#X obj 596 68 sel 0 1 2 3 4 5 6 7 8 9 10 11 12 13;
#X msg 789 99 off;
#X msg 789 179 Osc_Mix;
#X msg 789 199 Noise_Level;
#X msg 789 219 Osc_1_Pulse_Width;
#X msg 789 239 Osc_2_Pulse_Width;
#X msg 789 259 Osc_All_Pulse_Width;
#X msg 789 279 Filter_Cutoff;
#X msg 789 299 Filter_Resonance;
#X msg 789 319 Filter_Audio_Mod_Amt;
#X msg 789 339 VCA_Level;
#X msg 789 359 Pan_Spread;
#X obj 1099 393 symbol;
#X obj 852 68 sel 14 15 16 17 18 19 20 21 22 23 24 25 26 27;
#X msg 1099 99 LFO_1_Freq;
#X msg 1099 119 LFO_2_Freq;
#X msg 1099 139 LFO_3_Freq;
#X msg 1099 159 LFO_4_Freq;
#X msg 1099 179 LFO_All_Freq;
#X msg 1099 199 LFO_1_Amt;
#X msg 1099 219 LFO_2_Amt;
#X msg 1099 239 LFO_3_Amt;
#X msg 1099 259 LFO_4_Amt;
#X msg 1099 279 LFO_All_Amt;
#X msg 1099 299 Env_1_Amt;
#X msg 1099 359 Env_All_Amt;
#X msg 1099 319 Env_2_Amt;
#X msg 1099 339 Env_3_Amt;
#X obj 789 790 symbol;
#X obj 1099 790 symbol;
#X obj 542 465 sel 28 29 30 31 32 33 34 35 36 37 38 39;
#X msg 789 496 Env_1_Attack;
#X msg 789 516 Env_2_Attack;
#X msg 789 536 Env_3_Attack;
#X msg 789 556 Env_All_Attack;
#X msg 789 576 Env_1_Decay;
#X msg 789 596 Env_2_Decay;
#X msg 789 616 Env_3_Decay;
#X msg 789 636 Env_All_Decay;
#X msg 789 656 Env_1_Release;
#X msg 789 676 Env_2_Release;
#X msg 789 696 Env_3_Release;
#X msg 789 716 Env_All_Release;
#X obj 852 465 sel 40 41 42 43 44 45 46 47 48;
#X obj 599 152 symbol;
#X msg 1099 496 Mod_1_Amt;
#X msg 1099 516 Mod_2_Amt;
#X msg 1099 536 Mod_3_Amt;
#X msg 1099 556 Mod_4_Amt;
#X msg 1099 576 Feedback_Volume;
#X msg 1099 596 Sub_Osc_1_Level;
#X msg 1099 616 Sub_Osc_2_Level;
#X msg 1098 638 Feedback_Gain;
#X msg 1099 656 Slew;
#X obj 298 303 Sequencer \$1_\$2 2;
#X text 129 303 Dest;
#X obj 93 67 r TETRA_\$1_\$2_SEQ_2-set;
#X obj 398 37 r /Tetr4/\$1/\$2/Seq2/Dest-set;
#X obj 412 103 unpack s f;
#X connect 1 0 68 1;
#X connect 4 0 68 0;
#X connect 5 0 14 0;
#X connect 5 0 3 0;
#X connect 10 0 13 0;
#X connect 11 0 13 0;
#X connect 12 0 13 0;
#X connect 13 0 58 0;
#X connect 14 0 15 0;
#X connect 14 1 10 0;
#X connect 14 2 11 0;
#X connect 14 3 12 0;
#X connect 14 4 16 0;
#X connect 14 5 17 0;
#X connect 14 6 18 0;
#X connect 14 7 19 0;
#X connect 14 8 20 0;
#X connect 14 9 21 0;
#X connect 14 10 22 0;
#X connect 14 11 23 0;
#X connect 14 12 24 0;
#X connect 14 13 25 0;
#X connect 14 14 27 0;
#X connect 15 0 13 0;
#X connect 16 0 13 0;
#X connect 17 0 13 0;
#X connect 18 0 13 0;
#X connect 19 0 13 0;
#X connect 20 0 13 0;
#X connect 21 0 13 0;
#X connect 22 0 13 0;
#X connect 23 0 13 0;
#X connect 24 0 13 0;
#X connect 25 0 13 0;
#X connect 26 0 58 0;
#X connect 27 0 28 0;
#X connect 27 1 29 0;
#X connect 27 2 30 0;
#X connect 27 3 31 0;
#X connect 27 4 32 0;
#X connect 27 5 33 0;
#X connect 27 6 34 0;
#X connect 27 7 35 0;
#X connect 27 8 36 0;
#X connect 27 9 37 0;
#X connect 27 10 38 0;
#X connect 27 11 40 0;
#X connect 27 12 41 0;
#X connect 27 13 39 0;
#X connect 27 14 44 0;
#X connect 28 0 26 0;
#X connect 29 0 26 0;
#X connect 30 0 26 0;
#X connect 31 0 26 0;
#X connect 32 0 26 0;
#X connect 33 0 26 0;
#X connect 34 0 26 0;
#X connect 35 0 26 0;
#X connect 36 0 26 0;
#X connect 37 0 26 0;
#X connect 38 0 26 0;
#X connect 39 0 26 0;
#X connect 40 0 26 0;
#X connect 41 0 26 0;
#X connect 42 0 58 0;
#X connect 43 0 58 0;
#X connect 44 0 45 0;
#X connect 44 1 46 0;
#X connect 44 2 47 0;
#X connect 44 3 48 0;
#X connect 44 4 49 0;
#X connect 44 5 50 0;
#X connect 44 6 51 0;
#X connect 44 7 52 0;
#X connect 44 8 53 0;
#X connect 44 9 54 0;
#X connect 44 10 55 0;
#X connect 44 11 56 0;
#X connect 44 12 57 0;
#X connect 45 0 42 0;
#X connect 46 0 42 0;
#X connect 47 0 42 0;
#X connect 48 0 42 0;
#X connect 49 0 42 0;
#X connect 50 0 42 0;
#X connect 51 0 42 0;
#X connect 52 0 42 0;
#X connect 53 0 42 0;
#X connect 54 0 42 0;
#X connect 55 0 42 0;
#X connect 56 0 42 0;
#X connect 57 0 59 0;
#X connect 57 1 60 0;
#X connect 57 2 61 0;
#X connect 57 3 62 0;
#X connect 57 4 63 0;
#X connect 57 5 64 0;
#X connect 57 6 65 0;
#X connect 57 7 66 0;
#X connect 57 8 67 0;
#X connect 58 0 2 0;
#X connect 59 0 43 0;
#X connect 60 0 43 0;
#X connect 61 0 43 0;
#X connect 62 0 43 0;
#X connect 63 0 43 0;
#X connect 64 0 43 0;
#X connect 65 0 43 0;
#X connect 66 0 43 0;
#X connect 67 0 43 0;
#X connect 68 0 7 0;
#X connect 68 1 8 0;
#X connect 70 0 68 0;
#X connect 71 0 3 0;
#X connect 71 0 72 0;
#X connect 72 1 14 0;
#X coords 0 -1 1 1 180 320 1 100 100;
