#N canvas 1 104 633 480 10;
#X obj 101 115 cnv 15 178 304 empty empty empty 20 12 0 14 -257985
-66577 0;
#X obj 224 258 bng 15 250 50 0 empty empty WRITE 17 7 0 10 -262144
-1 -1;
#X symbolatom 130 318 20 0 0 0 - - -;
#X floatatom 358 170 5 0 48 1 SEQ_2_DEST - TETRA_#1_#2_SEQ_2_DEST;
#X obj 343 98 unpack f s;
#X obj 242 48 inlet;
#X obj 348 40 inlet;
#X text 104 366 0-63 pitch (0.5 resolution) \; 63 reset \;;
#X obj 298 303 TETRA_sequencer \$1_\$2 2;
#X obj 298 332 s TETRA_\$1_\$2_SEQ_2_STEP;
#X obj 433 352 s TETRA_\$1_\$2_SEQ_2;
#X text 129 303 SEQ_2_DEST;
#N canvas 0 0 450 300 (subpatch) 0;
#X array \$1_\$2_SEQ_2_TABLE 16 float 1;
#A 0 0 0 0 0 0 0 0 0 0 0 0 0 0 0 0 0;
#X coords 0 127 15 0 160 120 1 0 0;
#X restore 110 131 graph;
#X obj 431 74 sssad TETRA_\$1_\$2_SEQ_2_DEST;
#X obj 93 67 sssad TETRA_\$1_\$2_SEQ_2;
#X connect 1 0 8 1;
#X connect 4 0 3 0;
#X connect 4 1 2 0;
#X connect 5 0 8 0;
#X connect 5 0 14 1;
#X connect 6 0 4 0;
#X connect 6 0 13 1;
#X connect 8 0 9 0;
#X connect 8 1 10 0;
#X connect 13 0 4 0;
#X connect 14 0 8 0;
#X coords 0 -1 1 1 180 320 1 100 100;
