#N canvas 1 104 633 465 10;
#X obj 101 115 cnv 15 178 134 empty empty empty 20 12 0 14 -257985
-66577 0;
#X obj 122 206 hsl 128 15 0 255 0 0 TETRA_\$1_\$2_FOOT_AMT empty FOOT_AMT
-2 -8 0 10 -262144 -1 -1 0 1;
#X symbolatom 124 161 20 0 0 0 - - -;
#X floatatom 42 104 5 0 48 1 FOOT_DEST - TETRA_#1_#2_FOOT_DEST;
#X obj 42 68 unpack f s;
#X obj 40 0 inlet;
#X text 123 146 FOOT_DEST;
#X obj 231 51 sssad TETRA_\$1_\$2_FOOT_DEST;
#X obj 285 243 sssad TETRA_\$1_\$2_FOOT_AMT;
#X connect 1 0 8 1;
#X connect 4 0 3 0;
#X connect 4 1 2 0;
#X connect 5 0 4 0;
#X connect 5 0 7 1;
#X connect 7 0 4 0;
#X connect 8 0 1 0;
#X coords 0 -1 1 1 180 150 1 100 100;
