#N canvas 1 104 633 465 10;
#X obj 101 115 cnv 15 178 134 empty empty empty 20 12 0 14 -257985
-66577 0;
#X obj 127 211 hsl 128 15 0 255 0 0 TETRA_\$1_\$2_BREATH_AMT empty
BREATH_AMT -2 -8 0 10 -262144 -1 -1 0 1;
#X symbolatom 127 169 20 0 0 0 - - -;
#X floatatom 57 87 5 0 48 1 BREATH_DEST - TETRA_#1_#2_BREATH_DEST;
#X obj 57 51 unpack f s;
#X obj 57 -17 inlet;
#X text 126 150 BREATH_DEST;
#X obj 272 37 sssad TETRA_\$1_\$2_BREATH_DEST;
#X obj 274 240 sssad TETRA_\$1_\$2_BREATH_AMT;
#X connect 1 0 8 1;
#X connect 4 0 3 0;
#X connect 4 1 2 0;
#X connect 5 0 4 0;
#X connect 5 0 7 1;
#X connect 7 0 4 0;
#X connect 8 0 1 0;
#X coords 0 -1 1 1 180 150 1 100 100;
