#N canvas 465 121 450 466 10;
#X msg 301 193 99;
#X msg 235 193 98;
#X obj 206 192 f;
#X msg 156 241 6;
#X obj 127 275 >> 7;
#X msg 85 241 38;
#X text 25 9 sends nrpn to midi out;
#X text 26 23 \$1 is controller number;
#X text 26 38 \$2 is channel (default 1);
#X text 26 52 jason plumb :: noisybox.net;
#X obj 367 139 select 0;
#X msg 367 160 1;
#X obj 287 42 loadbang;
#X text 397 118 chan;
#X obj 68 137 t f b f b b b b b;
#X obj 268 193 f;
#X obj 221 143 % 128;
#X text 186 210 ctrl low#;
#X text 262 210 ctrl high#;
#X obj 283 145 >> 7;
#X obj 51 270 % 128;
#X text 247 114 num;
#X obj 68 116 clip 0 16384;
#X text 149 113 val;
#X obj 201 24 cnv 15 78 25 empty empty empty 20 12 0 14 -203904 -66577
0;
#X floatatom 219 32 6 0 0 0 - - -;
#X obj 295 90 inlet;
#X obj 283 120 +;
#X floatatom 311 309 5 0 0 0 - - -;
#X floatatom 370 327 5 0 0 0 - - -;
#X obj 159 364 ctlout;
#X obj 367 118 \$2;
#X obj 68 95 r TETRA_\$1_\$2_\$3;
#X obj 221 84 \$4;
#X connect 0 0 30 1;
#X connect 1 0 30 1;
#X connect 2 0 30 0;
#X connect 3 0 30 1;
#X connect 4 0 30 0;
#X connect 5 0 30 1;
#X connect 10 0 11 0;
#X connect 10 1 30 2;
#X connect 11 0 30 2;
#X connect 12 0 31 0;
#X connect 12 0 33 0;
#X connect 14 0 20 0;
#X connect 14 1 5 0;
#X connect 14 2 4 0;
#X connect 14 3 3 0;
#X connect 14 4 2 0;
#X connect 14 5 1 0;
#X connect 14 6 15 0;
#X connect 14 7 0 0;
#X connect 15 0 30 0;
#X connect 16 0 2 1;
#X connect 16 0 28 0;
#X connect 19 0 15 1;
#X connect 19 0 29 0;
#X connect 20 0 30 0;
#X connect 22 0 14 0;
#X connect 22 0 25 0;
#X connect 26 0 27 0;
#X connect 27 0 19 0;
#X connect 27 0 16 0;
#X connect 31 0 10 0;
#X connect 32 0 22 0;
#X connect 33 0 16 0;
#X connect 33 0 19 0;
#X connect 33 0 27 1;
#X coords 0 -1 1 1 80 40 1 200 10;
