#N canvas 1 87 1022 511 10;
#X floatatom 365 95 5 0 48 1 LFO_2_DEST - TETRA_#1_#2_LFO_2_DEST;
#X obj 155 198 tgl 15 0 TETRA_\$1_\$2_LFO_2_SYNC empty LFO_2_SYNC 17
7 0 10 -262144 -1 -1 0 1;
#X obj 153 237 hradio 15 1 0 5 TETRA_\$1_\$2_LFO_2_SHAPE empty LFO_2_SHAPE
0 -8 0 10 -262144 -1 -1 0;
#X text 167 258 0 tri \; 1 rev saw \; 2 saw \; 3 square \; 4 random
;
#N canvas 1 87 830 535 m 0;
#X msg 170 157 set \$1;
#X obj 170 197 outlet;
#X obj 170 139 inlet;
#X obj 222 162 r init_\$1_\$2_\$3;
#X msg 170 177 0;
#X connect 0 0 4 0;
#X connect 2 0 0 0;
#X connect 3 0 4 0;
#X connect 4 0 1 0;
#X restore 124 198 pd m;
#X symbolatom 128 396 20 0 0 0 - - -;
#N canvas 1 87 830 535 m 0;
#X msg 170 157 set \$1;
#X obj 170 197 outlet;
#X obj 170 139 inlet;
#X obj 222 162 r init_\$1_\$2_\$3;
#X msg 170 177 off;
#X connect 0 0 4 0;
#X connect 2 0 0 0;
#X connect 3 0 4 0;
#X connect 4 0 1 0;
#X restore 347 122 pd m;
#N canvas 1 87 830 535 m 0;
#X msg 170 157 set \$1;
#X obj 170 197 outlet;
#X obj 170 139 inlet;
#X obj 222 162 r init_\$1_\$2_\$3;
#X msg 170 177 0;
#X connect 0 0 4 0;
#X connect 2 0 0 0;
#X connect 3 0 4 0;
#X connect 4 0 1 0;
#X restore 365 77 pd m;
#X obj 377 122 symbol;
#N canvas 1 87 830 535 m 0;
#X msg 170 157 set \$1;
#X obj 170 197 outlet;
#X obj 170 139 inlet;
#X obj 222 162 r init_\$1_\$2_\$3;
#X msg 170 177 0;
#X connect 0 0 4 0;
#X connect 2 0 0 0;
#X connect 3 0 4 0;
#X connect 4 0 1 0;
#X restore 122 237 pd m;
#X obj 125 347 hsl 128 15 0 127 0 0 TETRA_\$1_\$2_LFO_2_AMT empty LFO_2_AMT
-2 -8 0 10 -262144 -1 -1 0 1;
#N canvas 1 87 830 535 m 0;
#X msg 170 157 set \$1;
#X obj 170 197 outlet;
#X obj 170 139 inlet;
#X obj 222 162 r init_\$1_\$2_\$3;
#X msg 170 177 0;
#X connect 0 0 4 0;
#X connect 2 0 0 0;
#X connect 3 0 4 0;
#X connect 4 0 1 0;
#X restore 92 347 pd m;
#X symbolatom 117 131 20 0 0 0 - - -;
#N canvas 415 87 415 535 m 0;
#X msg 170 157 set \$1;
#X obj 170 197 outlet;
#X obj 170 139 inlet;
#X obj 222 162 r init_\$1_\$2_\$3;
#X msg 170 177 No_sync;
#X connect 0 0 4 0;
#X connect 2 0 0 0;
#X connect 3 0 4 0;
#X connect 4 0 1 0;
#X restore 48 174 pd m;
#X obj 18 155 symbol;
#N canvas 1 87 830 535 m 0;
#X msg 170 157 set \$1;
#X obj 170 197 outlet;
#X obj 170 139 inlet;
#X obj 222 162 r init_\$1_\$2_\$3;
#X msg 170 177 0;
#X connect 0 0 4 0;
#X connect 2 0 0 0;
#X connect 3 0 4 0;
#X connect 4 0 1 0;
#X restore 17 174 pd m;
#X obj 114 164 hsl 151 15 0 150 0 0 empty empty UNSYNCED_FREQ -2 -8
0 10 -262144 -1 -1 0 1;
#X msg 18 138 No_sync;
#X floatatom 7 230 5 0 166 1 LFO_2_FREQ - TETRA_#1_#2_LFO_2_FREQ;
#X obj 17 192 moses 151;
#X obj 61 67 unpack f s;
#X obj 241 66 unpack f s;
#X obj 262 28 inlet;
#X obj 71 22 inlet;
#X text 117 116 LFO_2_FREQ;
#X text 127 379 LFO_2_DEST;
#X connect 1 0 4 0;
#X connect 2 0 9 0;
#X connect 4 0 1 0;
#X connect 6 0 8 0;
#X connect 7 0 0 0;
#X connect 8 0 5 0;
#X connect 9 0 2 0;
#X connect 10 0 11 0;
#X connect 11 0 10 0;
#X connect 13 0 14 0;
#X connect 14 0 12 0;
#X connect 14 0 13 0;
#X connect 15 0 19 0;
#X connect 16 0 15 0;
#X connect 16 0 17 0;
#X connect 16 0 18 0;
#X connect 17 0 14 0;
#X connect 19 0 16 0;
#X connect 19 1 18 0;
#X connect 20 0 15 0;
#X connect 20 0 18 0;
#X connect 20 1 12 0;
#X connect 20 1 13 0;
#X connect 21 0 7 0;
#X connect 21 0 0 0;
#X connect 21 1 6 0;
#X connect 21 1 5 0;
#X connect 22 0 21 0;
#X connect 23 0 20 0;
#X coords 0 -1 1 1 180 320 1 100 100;
