#N canvas 1 95 450 300 10;
#X obj 181 397 tgl 15 0 TETRA_\$1_\$2_OSC_2_KEY empty OSC_2_KEY 17
7 0 10 -262144 -1 -1 0 1;
#X obj 114 310 hsl 128 15 0 127 0 0 TETRA_\$1_\$2_SUB_OSC_2_VOL empty
SUB_OSC_2_VOL -2 -8 0 10 -262144 -1 -1 0 1;
#N canvas 1 104 1438 780 m 0;
#X msg 170 157 set \$1;
#X obj 170 197 outlet;
#X obj 170 139 inlet;
#X msg 170 177 0;
#X obj 222 162 r init_\$1_\$2_\$3;
#X connect 0 0 3 0;
#X connect 2 0 0 0;
#X connect 3 0 1 0;
#X connect 4 0 3 0;
#X restore 149 397 pd m;
#N canvas 1 104 1438 780 m 0;
#X msg 170 157 set \$1;
#X obj 170 197 outlet;
#X obj 170 139 inlet;
#X msg 170 177 0;
#X obj 222 162 r init_\$1_\$2_\$3;
#X connect 0 0 3 0;
#X connect 2 0 0 0;
#X connect 3 0 1 0;
#X connect 4 0 3 0;
#X restore 80 300 pd m;
#X obj 115 361 hsl 128 15 0 127 0 0 TETRA_\$1_\$2_GLIDE_2 empty GLIDE_2
-2 -8 0 10 -262144 -1 -1 0 1;
#N canvas 1 104 1438 780 m 0;
#X msg 170 157 set \$1;
#X obj 170 197 outlet;
#X obj 170 139 inlet;
#X msg 170 177 0;
#X obj 222 162 r init_\$1_\$2_\$3;
#X connect 0 0 3 0;
#X connect 2 0 0 0;
#X connect 3 0 1 0;
#X connect 4 0 3 0;
#X restore 80 351 pd m;
#X obj 114 260 hsl 102 15 0 101 0 0 TETRA_\$1_\$2_OSC_2_FREQ_FINE empty
OSC_2_FREQ_FINE -2 -8 0 10 -262144 -1 -1 0 1;
#N canvas 1 111 830 511 m 0;
#X msg 170 157 set \$1;
#X obj 170 197 outlet;
#X obj 170 139 inlet;
#X obj 222 162 r init_\$1_\$2_\$3;
#X msg 170 177 0;
#X connect 0 0 4 0;
#X connect 2 0 0 0;
#X connect 3 0 4 0;
#X connect 4 0 1 0;
#X restore 80 250 pd m;
#X obj 114 217 hsl 122 15 0 121 0 0 TETRA_\$1_\$2_OSC_2_FREQ empty
OSC_2_FREQ -2 -8 0 10 -262144 -1 -1 3600 1;
#N canvas 1 104 1438 780 m 0;
#X msg 170 157 set \$1;
#X obj 170 197 outlet;
#X obj 170 139 inlet;
#X msg 170 177 36;
#X obj 222 162 r init_\$1_\$2_\$3;
#X connect 0 0 3 0;
#X connect 2 0 0 0;
#X connect 3 0 1 0;
#X connect 4 0 3 0;
#X restore 80 207 pd m;
#X floatatom 111 232 5 0 0 0 - - -;
#X floatatom 111 275 5 0 0 0 - - -;
#X obj 31 128 unpack f s;
#X msg 107 85 54 Square;
#X symbolatom 113 136 14 0 0 0 - - -;
#N canvas 415 87 415 535 m 0;
#X msg 170 157 set \$1;
#X obj 170 197 outlet;
#X obj 170 139 inlet;
#X obj 222 162 r init_\$1_\$2_\$3;
#X msg 170 177 Off;
#X connect 0 0 4 0;
#X connect 2 0 0 0;
#X connect 3 0 4 0;
#X connect 4 0 1 0;
#X restore 2 133 pd m;
#X obj -28 114 symbol;
#N canvas 1 87 830 535 m 0;
#X msg 170 157 set \$1;
#X obj 170 197 outlet;
#X obj 170 139 inlet;
#X obj 222 162 r init_\$1_\$2_\$3;
#X msg 170 177 0;
#X connect 0 0 4 0;
#X connect 2 0 0 0;
#X connect 3 0 4 0;
#X connect 4 0 1 0;
#X restore -28 133 pd m;
#X obj 115 167 hsl 100 15 4 103 0 0 empty empty PULSE_WIDTH -2 -8 0
10 -262144 -1 -1 0 1;
#X floatatom -18 197 5 0 166 1 OSC_2_SHAPE - TETRA_#1_#2_OSC_2_SHAPE
;
#X msg -28 97 Pulse;
#X obj -27 151 moses 4;
#X obj -27 169 sel 54;
#X obj 85 -13 inlet;
#X text 113 119 OSC_2_SHAPE;
#X connect 0 0 2 0;
#X connect 1 0 3 0;
#X connect 2 0 0 0;
#X connect 3 0 1 0;
#X connect 4 0 5 0;
#X connect 5 0 4 0;
#X connect 6 0 7 0;
#X connect 6 0 11 0;
#X connect 7 0 6 0;
#X connect 8 0 9 0;
#X connect 8 0 10 0;
#X connect 9 0 8 0;
#X connect 12 0 17 0;
#X connect 12 0 19 0;
#X connect 12 1 15 0;
#X connect 12 1 14 0;
#X connect 13 0 12 0;
#X connect 15 0 16 0;
#X connect 16 0 14 0;
#X connect 16 0 15 0;
#X connect 17 0 21 0;
#X connect 18 0 17 0;
#X connect 18 0 20 0;
#X connect 18 0 19 0;
#X connect 20 0 16 0;
#X connect 21 0 19 0;
#X connect 21 1 22 0;
#X connect 22 0 13 0;
#X connect 22 1 18 0;
#X connect 23 0 12 0;
#X coords 0 -1 1 1 180 320 1 100 100;
