#N canvas 1 104 633 465 10;
#X obj 101 115 cnv 15 178 304 empty empty empty 20 12 0 14 -257985
-66577 0;
#X obj 130 230 hsl 128 15 0 127 0 0 TETRA_\$1_\$2_VCA_DEL empty VCA_DEL
-2 -8 0 10 -262144 -1 -1 0 1;
#X obj 130 270 hsl 128 15 0 127 0 0 TETRA_\$1_\$2_VCA_ATT empty VCA_ATT
-2 -8 0 10 -262144 -1 -1 0 1;
#X obj 130 310 hsl 128 15 0 127 0 0 TETRA_\$1_\$2_VCA_DEC empty VCA_DEC
-2 -8 0 10 -262144 -1 -1 0 1;
#X obj 130 350 hsl 128 15 0 127 0 0 TETRA_\$1_\$2_VCA_SUS empty VCA_SUS
-2 -8 0 10 -262144 -1 -1 0 1;
#X obj 130 390 hsl 128 15 0 127 0 0 TETRA_\$1_\$2_VCA_REL empty VCA_REL
-2 -8 0 10 -262144 -1 -1 0 1;
#X obj 130 130 hsl 128 15 0 127 0 0 TETRA_\$1_\$2_VCA_ENV_AMOUNT empty
VCA_ENV_AMOUNT -2 -8 0 10 -262144 -1 -1 0 1;
#X obj 130 170 hsl 128 15 0 127 0 0 TETRA_\$1_\$2_VCA_ENV_VEL_AMT empty
VCA_ENV_VEL_AMT -2 -8 0 10 -262144 -1 -1 0 1;
#X obj 294 160 sssad TETRA_\$1_\$2_VCA_ENV_AMOUNT;
#X obj 288 203 sssad TETRA_\$1_\$2_VCA_ENV_VEL_AMT;
#X obj 297 260 sssad TETRA_\$1_\$2_VCA_DEL;
#X obj 295 302 sssad TETRA_\$1_\$2_VCA_ATT;
#X obj 293 339 sssad TETRA_\$1_\$2_VCA_DEC;
#X obj 297 379 sssad TETRA_\$1_\$2_VCA_SUS;
#X obj 294 422 sssad TETRA_\$1_\$2_VCA_REL;
#X connect 1 0 10 1;
#X connect 2 0 11 1;
#X connect 3 0 12 1;
#X connect 4 0 13 1;
#X connect 5 0 14 1;
#X connect 6 0 8 1;
#X connect 7 0 9 1;
#X connect 8 0 6 0;
#X connect 9 0 7 0;
#X connect 10 0 1 0;
#X connect 11 0 2 0;
#X connect 12 0 3 0;
#X connect 13 0 4 0;
#X connect 14 0 5 0;
#X coords 0 -1 1 1 180 320 1 100 100;
