#N canvas 1 74 673 480 10;
#X floatatom 295 97 5 0 48 1 LFO_1_DEST - TETRA_#1_#2_LFO_1_DEST;
#X obj 155 198 tgl 15 0 TETRA_\$1_\$2_LFO_1_SYNC empty LFO_1_SYNC 17
7 0 10 -262144 -1 -1 0 1;
#X obj 153 237 hradio 15 1 0 5 TETRA_\$1_\$2_LFO_1_SHAPE empty LFO_1_SHAPE
0 -8 0 10 -262144 -1 -1 0;
#X text 167 258 0 tri \; 1 rev saw \; 2 saw \; 3 square \; 4 random
;
#X symbolatom 128 396 20 0 0 0 - - -;
#X obj 125 347 hsl 128 15 0 127 0 0 TETRA_\$1_\$2_LFO_1_AMT empty LFO_1_AMT
-2 -8 0 10 -262144 -1 -1 0 1;
#X symbolatom 117 131 20 0 0 0 - - -;
#X obj 114 164 hsl 151 15 0 150 0 0 empty empty UNSYNCED_FREQ -2 -8
0 10 -262144 -1 -1 11600 1;
#X floatatom -108 138 5 0 166 1 LFO_1_FREQ - TETRA_#1_#2_LFO_1_FREQ
;
#X obj -107 105 unpack f s;
#X obj 294 74 unpack f s;
#X obj 293 29 inlet;
#X obj -134 43 inlet;
#X text 117 116 LFO_1_FREQ;
#X text 127 379 LFO_1_DEST;
#X obj -48 32 list append No_sync;
#X obj -68 72 sssad TETRA_\$1_\$2_LFO_1_FREQ;
#X obj 318 51 sssad TETRA_\$1_\$2_LFO_1_DEST;
#X obj 303 238 sssad TETRA_\$1_\$2_LFO_1_SYNC;
#X obj 304 277 sssad TETRA_\$1_\$2_LFO_1_SHAPE;
#X obj 302 388 sssad TETRA_\$1_\$2_LFO_1_AMT;
#X obj -12 101 unpack f s;
#X obj -12 121 moses 151;
#X connect 1 0 18 1;
#X connect 2 0 19 1;
#X connect 5 0 20 1;
#X connect 7 0 15 0;
#X connect 9 0 8 0;
#X connect 9 1 6 0;
#X connect 10 0 0 0;
#X connect 10 1 4 0;
#X connect 11 0 10 0;
#X connect 11 0 17 1;
#X connect 12 0 9 0;
#X connect 12 0 16 1;
#X connect 15 0 16 1;
#X connect 15 0 9 0;
#X connect 16 0 21 0;
#X connect 17 0 10 0;
#X connect 18 0 1 0;
#X connect 19 0 2 0;
#X connect 20 0 5 0;
#X connect 21 0 22 0;
#X connect 21 1 6 0;
#X connect 22 0 7 0;
#X coords 0 -1 1 1 180 320 1 100 100;
