#N canvas 1 87 450 300 10;
#X obj 122 206 hsl 128 15 0 255 0 0 TETRA_\$1_\$2_FOOT_AMT empty FOOT_AMT
-2 -8 0 10 -262144 -1 -1 0 1;
#X symbolatom 124 161 20 0 0 0 - - -;
#N canvas 0 86 415 538 m 0;
#X msg 170 157 set \$1;
#X obj 170 197 outlet;
#X obj 170 139 inlet;
#X obj 222 162 r init_\$1_\$2_\$3;
#X msg 170 177 off;
#X connect 0 0 4 0;
#X connect 2 0 0 0;
#X connect 3 0 4 0;
#X connect 4 0 1 0;
#X restore 109 68 pd m;
#X obj 140 68 symbol;
#N canvas 0 86 415 538 m 0;
#X msg 170 157 set \$1;
#X obj 170 197 outlet;
#X obj 170 139 inlet;
#X obj 222 162 r init_\$1_\$2_\$3;
#X msg 170 177 0;
#X connect 0 0 4 0;
#X connect 2 0 0 0;
#X connect 3 0 4 0;
#X connect 4 0 1 0;
#X restore 42 86 pd m;
#N canvas 1 87 830 535 m 0;
#X msg 170 157 set \$1;
#X obj 170 197 outlet;
#X obj 170 139 inlet;
#X obj 222 162 r init_\$1_\$2_\$3;
#X msg 170 177 127.339;
#X connect 0 0 4 0;
#X connect 2 0 0 0;
#X connect 3 0 4 0;
#X connect 4 0 1 0;
#X restore 89 206 pd m;
#X floatatom 42 104 5 0 48 1 FOOT_DEST - TETRA_#1_#2_FOOT_DEST;
#X obj 42 68 unpack f s;
#X obj 40 0 inlet;
#X text 123 146 FOOT_DEST;
#X connect 0 0 5 0;
#X connect 2 0 3 0;
#X connect 3 0 1 0;
#X connect 4 0 6 0;
#X connect 5 0 0 0;
#X connect 7 0 4 0;
#X connect 7 0 6 0;
#X connect 7 1 1 0;
#X connect 7 1 2 0;
#X connect 8 0 7 0;
#X coords 0 -1 1 1 180 150 1 100 100;
