#N canvas 1 59 673 510 10;
#X floatatom 305 123 5 0 48 1 LFO_3_DEST - TETRA_#1_#2_LFO_3_DEST;
#X obj 155 198 tgl 15 0 TETRA_\$1_\$2_LFO_3_SYNC empty LFO_3_SYNC 17
7 0 10 -262144 -1 -1 0 1;
#X obj 153 237 hradio 15 1 0 5 TETRA_\$1_\$2_LFO_3_SHAPE empty LFO_3_SHAPE
0 -8 0 10 -262144 -1 -1 0;
#X text 167 258 0 tri \; 1 rev saw \; 2 saw \; 3 square \; 4 random
;
#X symbolatom 128 396 20 0 0 0 - - -;
#X obj 125 347 hsl 128 15 0 127 0 0 TETRA_\$1_\$2_LFO_3_AMT empty LFO_3_AMT
-2 -8 0 10 -262144 -1 -1 0 1;
#X symbolatom 117 131 20 0 0 0 - - -;
#X obj 114 164 hsl 151 15 0 150 0 0 empty empty UNSYNCED_FREQ -2 -8
0 10 -262144 -1 -1 0 1;
#X floatatom -64 129 5 0 166 1 LFO_3_FREQ - TETRA_#1_#2_LFO_3_FREQ
;
#X obj 306 95 unpack f s;
#X obj 302 42 inlet;
#X text 117 116 LFO_3_FREQ;
#X text 127 379 LFO_3_DEST;
#X obj -64 103 unpack f s;
#X obj -81 26 inlet;
#X obj 3 17 list append No_sync;
#X obj -20 69 sssad TETRA_\$1_\$2_LFO_3_FREQ;
#X obj 331 68 sssad TETRA_\$1_\$2_LFO_3_DEST;
#X obj 299 230 sssad TETRA_\$1_\$2_LFO_3_SYNC;
#X obj 301 264 sssad TETRA_\$1_\$2_LFO_3_SHAPE;
#X obj 297 379 sssad TETRA_\$1_\$2_LFO_3_AMT;
#X obj 36 98 unpack f s;
#X obj 36 118 moses 151;
#X connect 1 0 18 1;
#X connect 2 0 19 1;
#X connect 5 0 20 1;
#X connect 7 0 15 0;
#X connect 9 0 0 0;
#X connect 9 1 4 0;
#X connect 10 0 9 0;
#X connect 10 0 17 1;
#X connect 13 0 8 0;
#X connect 13 1 6 0;
#X connect 14 0 13 0;
#X connect 14 0 16 1;
#X connect 15 0 13 0;
#X connect 15 0 16 1;
#X connect 16 0 21 0;
#X connect 17 0 9 0;
#X connect 18 0 1 0;
#X connect 19 0 2 0;
#X connect 20 0 5 0;
#X connect 21 0 22 0;
#X connect 21 1 6 0;
#X connect 22 0 7 0;
#X coords 0 -1 1 1 180 320 1 100 100;
