#N canvas 1 96 666 456 10;
#X obj 124 130 hsl 128 15 0 255 0 0 TETRA_\$1_\$2_FILTER_ENV_AMT empty
FILTER_ENV_AMT -2 -8 0 10 -262144 -1 -1 0 1;
#X obj 123 230 hsl 128 15 0 127 0 0 TETRA_\$1_\$2_FIL_DEL empty FIL_DEL
-2 -8 0 10 -262144 -1 -1 0 1;
#X obj 123 270 hsl 128 15 0 127 0 0 TETRA_\$1_\$2_FIL_ATT empty FIL_ATT
-2 -8 0 10 -262144 -1 -1 0 1;
#X obj 123 310 hsl 128 15 0 127 0 0 TETRA_\$1_\$2_FIL_DEC empty FIL_DEC
-2 -8 0 10 -262144 -1 -1 0 1;
#X obj 123 350 hsl 128 15 0 127 0 0 TETRA_\$1_\$2_FIL_SUS empty FIL_SUS
-2 -8 0 10 -262144 -1 -1 0 1;
#X obj 123 390 hsl 128 15 0 127 0 0 TETRA_\$1_\$2_FIL_REL empty FIL_REL
-2 -8 0 10 -262144 -1 -1 0 1;
#X obj 124 170 hsl 128 15 0 127 0 0 TETRA_\$1_\$2_FIL_ENV_VEL_AMT empty
FIL_ENV_VEL_AMT -2 -8 0 10 -262144 -1 -1 0 1;
#X obj 290 129 sssad TETRA_\$1_\$2_FILTER_ENV_AMT TETRA_FILTER_ENV_\$1_\$2
;
#X obj 292 167 sssad TETRA_\$1_\$2_FIL_ENV_VEL_AMT TETRA_FILTER_ENV_\$1_\$2
;
#X obj 292 230 sssad TETRA_\$1_\$2_FIL_DEL TETRA_FILTER_ENV_\$1_\$2
;
#X obj 294 272 sssad TETRA_\$1_\$2_FIL_ATT TETRA_FILTER_ENV_\$1_\$2
;
#X obj 289 313 sssad TETRA_\$1_\$2_FIL_DEC TETRA_FILTER_ENV_\$1_\$2
;
#X obj 291 350 sssad TETRA_\$1_\$2_FIL_SUS TETRA_FILTER_ENV_\$1_\$2
;
#X obj 292 393 sssad TETRA_\$1_\$2_FIL_REL TETRA_FILTER_ENV_\$1_\$2
;
#X connect 0 0 7 0;
#X connect 1 0 9 0;
#X connect 2 0 10 0;
#X connect 3 0 11 0;
#X connect 4 0 12 0;
#X connect 5 0 13 0;
#X connect 6 0 8 0;
#X connect 7 0 0 0;
#X connect 8 0 6 0;
#X connect 9 0 1 0;
#X connect 10 0 2 0;
#X connect 11 0 3 0;
#X connect 12 0 4 0;
#X connect 13 0 5 0;
#X coords 0 -1 1 1 180 320 1 100 100;
