#N canvas 1 87 450 300 10;
#X symbolatom 127 164 20 0 0 0 - - -;
#X obj 127 210 hsl 128 15 0 255 0 0 TETRA_\$1_\$2_PRESSURE_AMT empty
PRESSURE_AMT -2 -8 0 10 -262144 -1 -1 0 1;
#N canvas 0 86 415 538 m 0;
#X msg 170 157 set \$1;
#X obj 170 197 outlet;
#X obj 170 139 inlet;
#X obj 222 162 r init_\$1_\$2_\$3;
#X msg 170 177 off;
#X connect 0 0 4 0;
#X connect 2 0 0 0;
#X connect 3 0 4 0;
#X connect 4 0 1 0;
#X restore 23 172 pd m;
#X obj 54 172 symbol;
#N canvas 0 86 415 538 m 0;
#X msg 170 157 set \$1;
#X obj 170 197 outlet;
#X obj 170 139 inlet;
#X obj 222 162 r init_\$1_\$2_\$3;
#X msg 170 177 0;
#X connect 0 0 4 0;
#X connect 2 0 0 0;
#X connect 3 0 4 0;
#X connect 4 0 1 0;
#X restore 29 137 pd m;
#N canvas 1 87 830 535 m 0;
#X msg 170 157 set \$1;
#X obj 170 197 outlet;
#X obj 170 139 inlet;
#X obj 222 162 r init_\$1_\$2_\$3;
#X msg 170 177 127.219;
#X connect 0 0 4 0;
#X connect 2 0 0 0;
#X connect 3 0 4 0;
#X connect 4 0 1 0;
#X restore 93 210 pd m;
#X floatatom 29 155 5 0 48 1 PRESSURE_DEST - TETRA_#1_#2_PRESSURE_DEST
;
#X obj 29 119 unpack f s;
#X obj 38 71 inlet;
#X text 127 147 PRESSURE_DEST;
#X connect 1 0 5 0;
#X connect 2 0 3 0;
#X connect 3 0 0 0;
#X connect 4 0 6 0;
#X connect 5 0 1 0;
#X connect 7 0 4 0;
#X connect 7 0 6 0;
#X connect 7 1 0 0;
#X connect 7 1 2 0;
#X connect 8 0 7 0;
#X coords 0 -1 1 1 180 150 1 100 100;
