#N canvas 1 87 1022 511 10;
#X obj 224 258 bng 15 250 50 0 empty empty WRITE 17 7 0 10 -262144
-1 -1;
#X symbolatom 130 318 20 0 0 0 - - -;
#N canvas 0 86 415 538 m 0;
#X msg 170 157 set \$1;
#X obj 170 197 outlet;
#X obj 170 139 inlet;
#X obj 222 162 r init_\$1_\$2_\$3;
#X msg 170 177 off;
#X connect 0 0 4 0;
#X connect 2 0 0 0;
#X connect 3 0 4 0;
#X connect 4 0 1 0;
#X restore 364 131 pd m;
#X obj 395 131 symbol;
#N canvas 0 86 415 538 m 0;
#X msg 170 157 set \$1;
#X obj 170 197 outlet;
#X obj 170 139 inlet;
#X obj 222 162 r init_\$1_\$2_\$3;
#X msg 170 177 0;
#X connect 0 0 4 0;
#X connect 2 0 0 0;
#X connect 3 0 4 0;
#X connect 4 0 1 0;
#X restore 358 151 pd m;
#X floatatom 358 170 5 0 48 1 SEQ_2_DEST - TETRA_#1_#2_SEQ_2_DEST;
#X obj 343 98 unpack f s;
#X obj 246 60 inlet;
#X obj 343 58 inlet;
#X text 104 366 0-63 pitch (0.5 resolution) \; 63 reset \;;
#X obj 298 303 TETRA_sequencer \$1_\$2 2;
#X obj 298 332 s TETRA_\$1_\$2_SEQ_2_STEP;
#X obj 433 352 s TETRA_\$1_\$2_SEQ_2;
#X text 129 303 SEQ_2_DEST;
#N canvas 0 0 450 300 (subpatch) 0;
#X array \$1_#2_SEQ_2_TABLE 16 float 1;
#A 0 0 0 0 0 0 0 0 0 0 0 0 0 0 0 0 0;
#X coords 0 127 15 0 160 120 1 0 0;
#X restore 110 131 graph;
#X connect 0 0 10 1;
#X connect 2 0 3 0;
#X connect 3 0 1 0;
#X connect 4 0 5 0;
#X connect 6 0 4 0;
#X connect 6 0 5 0;
#X connect 6 1 2 0;
#X connect 6 1 1 0;
#X connect 7 0 10 0;
#X connect 8 0 6 0;
#X connect 10 0 11 0;
#X connect 10 1 12 0;
#X coords 0 -1 1 1 180 320 1 100 100;
