#N canvas 1 59 1022 525 10;
#X text 168 147 0 normal \; 1 toggle;
#X obj 127 151 hradio 15 1 0 2 TETRA_\$1_\$2_PUSH_IT_MODE empty PUSH_IT_MODE
0 -8 0 10 -262144 -1 -1 0;
#X obj 127 353 hradio 15 1 0 3 TETRA_\$1_\$2_KEYBOARD_MODE empty KEYBOARD_MODE
0 -8 0 10 -262144 -1 -1 0;
#X text 215 337 0 normal \; 1 stack \; 2 split;
#X obj 125 394 hsl 128 15 0 127 0 0 TETRA_\$1_\$2_SPLIT_POINT empty
SPLIT_POINT -2 -8 0 10 -262144 -1 -1 0 1;
#X obj 125 286 hsl 24 15 0 12 0 0 TETRA_\$1_\$2_PBEND_RANGE empty PBEND_RANGE
-2 -8 0 10 -262144 -1 -1 0 1;
#X obj 127 197 hsl 128 15 0 127 0 0 TETRA_\$1_\$2_PUSH_IT_NOTE empty
PUSH_IT_NOTE -2 -8 0 10 -262144 -1 -1 0 1;
#X obj 127 227 hsl 128 15 0 127 0 0 TETRA_\$1_\$2_PUSH_IT_VELOCITY
empty PUSH_IT_VELOCITY -2 -8 0 10 -262144 -1 -1 0 1;
#X obj 287 433 sssad TETRA_\$1_\$2_SPLIT_POINT;
#X obj 287 391 sssad TETRA_\$1_\$2_KEYBOARD_MODE;
#X obj 285 321 sssad TETRA_\$1_\$2_PBEND_RANGE;
#X obj 282 279 sssad TETRA_\$1_\$2_PUSH_IT_VELOCITY;
#X obj 284 239 sssad TETRA_\$1_\$2_PUSH_IT_NOTE;
#X obj 287 192 sssad TETRA_\$1_\$2_PUSH_IT_MODE;
#X connect 1 0 13 1;
#X connect 2 0 9 1;
#X connect 4 0 8 1;
#X connect 5 0 10 1;
#X connect 6 0 12 1;
#X connect 7 0 11 1;
#X connect 8 0 4 0;
#X connect 9 0 2 0;
#X connect 10 0 5 0;
#X connect 11 0 7 0;
#X connect 12 0 6 0;
#X connect 13 0 1 0;
#X coords 0 -1 1 1 180 320 1 100 100;
