#N canvas 1 104 633 465 10;
#X obj 101 115 cnv 15 178 304 empty empty empty 20 12 0 14 -257985
-66577 0;
#X floatatom 313 92 5 0 48 1 LFO_2_DEST - TETRA_#1_#2_LFO_2_DEST;
#X obj 155 198 tgl 15 0 TETRA_\$1_\$2_LFO_2_SYNC empty LFO_2_SYNC 17
7 0 10 -262144 -1 -1 0 1;
#X obj 153 237 hradio 15 1 0 5 TETRA_\$1_\$2_LFO_2_SHAPE empty LFO_2_SHAPE
0 -8 0 10 -262144 -1 -1 0;
#X text 167 258 0 tri \; 1 rev saw \; 2 saw \; 3 square \; 4 random
;
#X symbolatom 128 396 20 0 0 0 - - -;
#X obj 125 347 hsl 128 15 0 127 0 0 TETRA_\$1_\$2_LFO_2_AMT empty LFO_2_AMT
-2 -8 0 10 -262144 -1 -1 0 1;
#X symbolatom 117 131 20 0 0 0 - - -;
#X obj 114 164 hsl 151 15 0 150 0 0 empty empty UNSYNCED_FREQ -2 -8
0 10 -262144 -1 -1 0 1;
#X floatatom -64 150 5 0 166 1 LFO_2_FREQ - TETRA_#1_#2_LFO_2_FREQ
;
#X obj 311 74 unpack f s;
#X obj 312 26 inlet;
#X text 117 116 LFO_2_FREQ;
#X text 127 379 LFO_2_DEST;
#X obj -64 103 unpack f s;
#X obj -91 41 inlet;
#X obj -31 41 list append No_sync;
#X obj -18 72 sssad TETRA_\$1_\$2_LFO_2_FREQ;
#X obj 352 51 sssad TETRA_\$1_\$2_LFO_2_DEST;
#X obj 305 232 sssad TETRA_\$1_\$2_LFO_2_SYNC;
#X obj 311 277 sssad TETRA_\$1_\$2_LFO_2_SHAPE;
#X obj 295 388 sssad TETRA_\$1_\$2_LFO_2_AMT;
#X obj 22 98 unpack f s;
#X obj 22 118 moses 151;
#X connect 2 0 19 1;
#X connect 3 0 20 1;
#X connect 6 0 21 1;
#X connect 8 0 16 0;
#X connect 10 0 1 0;
#X connect 10 1 5 0;
#X connect 11 0 10 0;
#X connect 11 0 18 1;
#X connect 14 0 9 0;
#X connect 14 1 7 0;
#X connect 15 0 14 0;
#X connect 15 0 17 1;
#X connect 16 0 14 0;
#X connect 16 0 17 1;
#X connect 17 0 22 0;
#X connect 18 0 10 0;
#X connect 19 0 2 0;
#X connect 20 0 3 0;
#X connect 21 0 6 0;
#X connect 22 0 23 0;
#X connect 22 1 7 0;
#X connect 23 0 8 0;
#X coords 0 -1 1 1 180 320 1 100 100;
