#N canvas 1 88 830 534 10;
#X obj 28 361 cnv 15 350 130 empty empty empty 20 12 0 14 -261633 -66577
0;
#X obj 77 369 tgl 15 0 TETRA_\$1_\$2_UNISON_ON_OFF empty UNISON_ON_OFF
17 7 0 10 -262144 -1 -1 0 76;
#X obj 77 409 hradio 15 1 0 5 TETRA_\$1_\$2_UNISON_MODE empty UNISON_MODE
0 -8 0 10 -262144 -1 -1 0;
#X text 76 425 0 1 voice \; 1 all voices \; 2 all voices detune1 \;
3 all voices detune2 \; 4 all voices detune3;
#X obj 250 389 hradio 15 1 0 6 TETRA_\$1_\$2_UNISON_ASSIGN empty UNISON_ASSIGN
0 -8 0 10 -262144 -1 -1 0;
#X obj 378 -48 cnv 15 340 240 empty empty empty 20 12 0 14 -261633
-66577 0;
#X obj 28 -48 cnv 15 340 240 empty empty empty 20 12 0 14 -261633 -66577
0;
#X text 251 407 0 low note \; 1 low retrig \; 2 high note \; 3 high
retrig \; 4 last note \; 5 last retrig;
#X obj 579 172 tgl 15 0 TETRA_\$1_\$2_OSC_2_KEY empty OSC_2_KEY 17
7 0 10 -262144 -1 -1 1 1;
#X obj 230 173 tgl 15 0 TETRA_\$1_\$2_OSC_1_KEY empty OSC_1_KEY 17
7 0 10 -262144 -1 -1 1 1;
#X obj 232 122 hsl 128 15 0 127 0 0 TETRA_\$1_\$2_SUB_OSC_1_VOL empty
SUB_OSC_1_VOL -2 -8 0 10 -262144 -1 -1 0 1;
#X obj 581 122 hsl 128 15 0 127 0 0 TETRA_\$1_\$2_SUB_OSC_2_VOL empty
SUB_OSC_2_VOL -2 -8 0 10 -262144 -1 -1 0 1;
#X obj 28 202 cnv 15 350 150 empty empty empty 20 12 0 14 -261633 -66577
0;
#X obj 85 289 hradio 15 1 0 4 TETRA_\$1_\$2_GLIDE_MODE empty GLIDE_MODE
0 -8 0 10 -262144 -1 -1 0;
#X obj 85 252 tgl 15 0 TETRA_\$1_\$2_SYNC empty SYNC 17 7 0 10 -262144
-1 -1 0 1;
#X text 81 304 0 rate \; 1 rate auto \; 2 time \; 3 time auto;
#X obj 69 218 hsl 128 15 0 127 0 0 TETRA_\$1_\$2_OSC_MIX empty OSC_MIX
-2 -8 0 10 -262144 -1 -1 6400 1;
#X obj 244 218 hsl 128 15 0 127 0 0 TETRA_\$1_\$2_NOISE_LEVEL empty
NOISE_LEVEL -2 -8 0 10 -262144 -1 -1 0 1;
#X obj 388 271 cnv 15 350 220 empty empty empty 20 12 0 14 -172851
-66577 0;
#X obj 424 290 hsl 165 15 0 164 0 0 TETRA_\$1_\$2_FILTER_FREQ empty
FILTER_FREQ -2 -8 0 10 -262144 -1 -1 16400 1;
#X obj 424 320 hsl 128 15 0 127 0 0 TETRA_\$1_\$2_RESONANCE empty RESONANCE
-2 -8 0 10 -262144 -1 -1 0 1;
#X obj 639 290 hradio 15 1 0 2 TETRA_\$1_\$2_FILTER_POLES empty FILTER_POLES
0 -8 0 10 -262144 -1 -1 0;
#X text 676 288 0 two \; 1 four;
#X obj 768 42 cnv 15 350 220 empty empty empty 20 12 0 14 -100878 -66577
0;
#X obj 810 150 hsl 128 15 0 127 0 0 TETRA_\$1_\$2_OUTPUT_PAN empty
OUTPUT_PAN -2 -8 0 10 -262144 -1 -1 0 1;
#X obj 30 500 cnv 15 230 210 empty empty empty 20 12 0 14 -221265 -66577
0;
#X obj 270 500 cnv 15 230 210 empty empty empty 20 12 0 14 -221265
-66577 0;
#X obj 510 500 cnv 15 230 210 empty empty empty 20 12 0 14 -221265
-66577 0;
#X obj 750 500 cnv 15 230 210 empty empty empty 20 12 0 14 -221265
-66577 0;
#X floatatom 41 666 5 0 48 1 LFO_1_DEST - TETRA_#1_#2_LFO_1_DEST;
#X floatatom 281 666 5 0 48 1 LFO_2_DEST - TETRA_#1_#2_LFO_2_DEST;
#X floatatom 521 666 5 0 48 1 LFO_3_DEST - TETRA_#1_#2_LFO_3_DEST;
#X floatatom 761 666 5 0 48 1 LFO_4_DEST - TETRA_#1_#2_LFO_4_DEST;
#X obj 71 593 tgl 15 0 TETRA_\$1_\$2_LFO_1_SYNC empty LFO_1_SYNC 17
7 0 10 -262144 -1 -1 0 1;
#X obj 311 593 tgl 15 0 TETRA_\$1_\$2_LFO_2_SYNC empty LFO_2_SYNC 17
7 0 10 -262144 -1 -1 0 1;
#X obj 551 593 tgl 15 0 TETRA_\$1_\$2_LFO_3_SYNC empty LFO_3_SYNC 17
7 0 10 -262144 -1 -1 0 1;
#X obj 791 593 tgl 15 0 TETRA_\$1_\$2_LFO_4_SYNC empty LFO_4_SYNC 17
7 0 10 -262144 -1 -1 0 1;
#X obj 182 593 hradio 15 1 0 5 TETRA_\$1_\$2_LFO_1_SHAPE empty LFO_1_SHAPE
0 -8 0 10 -262144 -1 -1 0;
#X text 196 614 0 tri \; 1 rev saw \; 2 saw \; 3 square \; 4 random
;
#X obj 422 593 hradio 15 1 0 5 TETRA_\$1_\$2_LFO_2_SHAPE empty LFO_2_SHAPE
0 -8 0 10 -262144 -1 -1 0;
#X text 436 614 0 tri \; 1 rev saw \; 2 saw \; 3 square \; 4 random
;
#X obj 662 593 hradio 15 1 0 5 TETRA_\$1_\$2_LFO_3_SHAPE empty LFO_3_SHAPE
0 -8 0 10 -262144 -1 -1 0;
#X text 676 614 0 tri \; 1 rev saw \; 2 saw \; 3 square \; 4 random
;
#X obj 902 593 hradio 15 1 0 5 TETRA_\$1_\$2_LFO_4_SHAPE empty LFO_4_SHAPE
0 -8 0 10 -262144 -1 -1 0;
#X text 916 614 0 tri \; 1 rev saw \; 2 saw \; 3 square \; 4 random
;
#X obj 749 271 cnv 15 370 220 empty empty empty 20 12 0 14 -221289
-66577 0;
#X obj 970 280 tgl 15 0 TETRA_\$1_\$2_ENV3_REPEAT empty ENV3_REPEAT
17 7 0 10 -262144 -1 -1 0 1;
#X obj 30 720 cnv 15 230 160 empty empty empty 20 12 0 14 -198882 -66577
0;
#X obj 270 720 cnv 15 230 160 empty empty empty 20 12 0 14 -198882
-66577 0;
#X obj 510 720 cnv 15 230 160 empty empty empty 20 12 0 14 -198882
-66577 0;
#X obj 750 720 cnv 15 230 160 empty empty empty 20 12 0 14 -198882
-66577 0;
#X floatatom 41 765 5 0 20 1 MOD_SOURCE_1 - TETRA_#1_#2_MOD_SOURCE_1
;
#X floatatom 38 859 5 0 48 1 MOD_DEST_1 - TETRA_#1_#2_MOD_DEST_1;
#X floatatom 281 765 5 0 20 1 MOD_SOURCE_2 - TETRA_#1_#2_MOD_SOURCE_2
;
#X floatatom 278 859 5 0 48 1 MOD_DEST_2 - TETRA_#1_#2_MOD_DEST_2;
#X floatatom 521 765 5 0 20 1 MOD_SOURCE_3 - TETRA_#1_#2_MOD_SOURCE_3
;
#X floatatom 518 859 5 0 48 1 MOD_DEST_3 - TETRA_#1_#2_MOD_DEST_3;
#X floatatom 761 765 5 0 20 1 MOD_SOURCE_4 - TETRA_#1_#2_MOD_SOURCE_4
;
#X floatatom 758 859 5 0 48 1 MOD_DEST_4 - TETRA_#1_#2_MOD_DEST_4;
#X symbolatom 73 749 20 0 0 0 - - -;
#X obj 510 891 cnv 15 550 290 empty empty empty 20 12 0 14 -67108 -66577
0;
#X text 976 1077 0 normal \; 1 toggle;
#X obj 940 1081 hradio 15 1 0 2 TETRA_\$1_\$2_PUSH_IT_MODE empty PUSH_IT_MODE
0 -8 0 10 -262144 -1 -1 0;
#X symbolatom 732 913 20 0 0 0 - - -;
#X symbolatom 562 913 20 0 0 0 - - -;
#X obj 892 961 hsl 128 15 0 255 0 0 TETRA_\$1_\$2_MOD_WHEEL_AMT empty
MOD_WHEEL_AMT -2 -8 0 10 -262144 -1 -1 6331 1;
#X obj 731 1071 hsl 128 15 0 255 0 0 TETRA_\$1_\$2_BREATH_AMT empty
BREATH_AMT -2 -8 0 10 -262144 -1 -1 6329 1;
#X obj 561 1071 hsl 128 15 0 255 0 0 TETRA_\$1_\$2_FOOT_AMT empty FOOT_AMT
-2 -8 0 10 -262144 -1 -1 6342 1;
#X obj 722 961 hsl 128 15 0 255 0 0 TETRA_\$1_\$2_PRESSURE_AMT empty
PRESSURE_AMT -2 -8 0 10 -262144 -1 -1 6336 1;
#X obj 551 961 hsl 128 15 0 255 0 0 TETRA_\$1_\$2_VELOCITY_AMT empty
VELOCITY_AMT -2 -8 0 10 -262144 -1 -1 6340 1;
#X obj 30 891 cnv 15 470 290 empty empty empty 20 12 0 14 -260097 -66577
0;
#X floatatom 260 1121 5 0 14 1 ARP_MODE - TETRA_#1_#2_ARP_MODE;
#X floatatom 227 938 5 0 12 1 TIME_SIG - TETRA_#1_#2_TIME_SIG;
#X obj 291 1056 tgl 15 0 TETRA_\$1_\$2_ARP_ON_OFF empty ARP_ON_OFF
17 7 0 10 -262144 -1 -1 0 1;
#X obj 79 1056 tgl 15 0 TETRA_\$1_\$2_SEQ_ON_OFF empty SEQ_ON_OFF 17
7 0 10 -262144 -1 -1 0 1;
#X obj 78 1095 hradio 15 1 0 5 TETRA_\$1_\$2_SEQ_TRIGGER empty SEQ_TRIGGER
0 -8 0 10 -262144 -1 -1 0;
#X symbolatom 260 921 14 0 0 0 - - -;
#X text 44 1112 0 normal \; 1 normal no reset \; 2 no gate \; 3 no
gate no reset \; 4 key step;
#X symbolatom 294 1105 14 0 0 0 - - -;
#X text 485 1552 ------;
#X obj 30 1191 cnv 15 470 170 empty empty empty 20 12 0 14 -3264 -66577
0;
#X obj 30 1371 cnv 15 470 170 empty empty empty 20 12 0 14 -3264 -66577
0;
#X obj 510 1371 cnv 15 470 170 empty empty empty 20 12 0 14 -3264 -66577
0;
#X obj 510 1191 cnv 15 470 170 empty empty empty 20 12 0 14 -3264 -66577
0;
#X obj 365 1341 s TETRA_\$1_\$2_SEQ_1;
#X obj 377 1277 bng 15 250 50 0 empty empty empty 17 7 0 10 -262144
-1 -1;
#X obj 230 1195 r zero_init_\$1_\$2;
#X obj 260 1085 TETRA_arp;
#X obj 227 902 TETRA_div;
#X obj 583 1122 hradio 15 1 0 3 TETRA_\$1_\$2_KEYBOARD_MODE empty KEYBOARD_MODE
0 -8 0 10 -262144 -1 -1 0;
#X text 573 1144 0 normal \; 1 stack \; 2 split;
#X obj 230 1321 s TETRA_\$1_\$2_SEQ_1_STEP;
#X obj 857 1277 bng 15 250 50 0 empty empty empty 17 7 0 10 -262144
-1 -1;
#X obj 710 1195 r zero_init_\$1_\$2;
#X obj 377 1457 bng 15 250 50 0 empty empty empty 17 7 0 10 -262144
-1 -1;
#X obj 230 1375 r zero_init_\$1_\$2;
#X obj 857 1457 bng 15 250 50 0 empty empty empty 17 7 0 10 -262144
-1 -1;
#X obj 710 1375 r zero_init_\$1_\$2;
#X obj 230 1501 s TETRA_\$1_\$2_SEQ_3_STEP;
#X obj 365 1521 s TETRA_\$1_\$2_SEQ_3;
#X obj 845 1521 s TETRA_\$1_\$2_SEQ_4;
#X obj 710 1501 s TETRA_\$1_\$2_SEQ_4_STEP;
#X obj 710 1321 s TETRA_\$1_\$2_SEQ_2_STEP;
#X obj 845 1341 s TETRA_\$1_\$2_SEQ_2;
#X obj 230 1292 TETRA_sequencer \$1_\$2 1;
#X obj 230 1472 TETRA_sequencer \$1_\$2 3;
#X obj 710 1472 TETRA_sequencer \$1_\$2 4;
#X obj 710 1292 TETRA_sequencer \$1_\$2 2;
#X obj 50 1306 table \$1_\$2_SEQ_1_TABLE;
#X text 311 1248 0-63 pitch (0.5 resolution) \; 63 reset \; 63.5 rest
;
#X text 791 1248 0-63 pitch (0.5 resolution) \; 63 reset;
#X text 791 1428 0-63 pitch (0.5 resolution) \; 63 reset;
#X text 311 1428 0-63 pitch (0.5 resolution) \; 63 reset;
#X obj 530 1486 table \$1_\$2_SEQ_4_TABLE;
#X obj 50 1486 table \$1_\$2_SEQ_3_TABLE;
#X msg 230 1394 0 0 0 0 0 0 0 0 0 0 0 0 0 0 0 0 0;
#X msg 230 1214 0 0 0 0 0 0 0 0 0 0 0 0 0 0 0 0 0;
#X msg 710 1214 0 0 0 0 0 0 0 0 0 0 0 0 0 0 0 0 0;
#X msg 710 1394 0 0 0 0 0 0 0 0 0 0 0 0 0 0 0 0 0;
#X obj 788 12 TETRA_mappings \$2;
#X floatatom 978 16 5 1 128 1 #1_#2_PROGRAM_CHANGE - TETRA_#1_#2_PROGRAM_CHANGE
;
#X text 1062 -43 0 bank 1 \; 1 bank 2 \; 2 bank 3 \; 3 bank 4 \;;
#X obj 970 -28 hradio 15 1 0 4 TETRA_\$1_\$2_BANK_SELECT empty \$1_\$2_BANK_SELECT
0 -8 0 10 -262144 -1 -1 1;
#N canvas 417 86 415 538 m 0;
#X msg 170 157 set \$1;
#X obj 170 197 outlet;
#X obj 170 139 inlet;
#X msg 170 177 164;
#X obj 222 162 r init_\$1_\$2_\$3;
#X connect 0 0 3 0;
#X connect 2 0 0 0;
#X connect 3 0 1 0;
#X connect 4 0 3 0;
#X restore 391 290 pd m;
#N canvas 1 104 1438 780 m 0;
#X msg 170 157 set \$1;
#X obj 170 197 outlet;
#X obj 170 139 inlet;
#X msg 170 177 0;
#X obj 222 162 r init_\$1_\$2_\$3;
#X connect 0 0 3 0;
#X connect 2 0 0 0;
#X connect 3 0 1 0;
#X connect 4 0 3 0;
#X restore 390 320 pd m;
#N canvas 1 87 830 535 m 0;
#X msg 170 157 set \$1;
#X obj 170 197 outlet;
#X obj 170 139 inlet;
#X msg 170 177 0;
#X obj 222 162 r init_\$1_\$2_\$3;
#X connect 0 0 3 0;
#X connect 2 0 0 0;
#X connect 3 0 1 0;
#X connect 4 0 3 0;
#X restore 608 290 pd m;
#X obj 810 70 hsl 128 15 0 127 0 0 TETRA_\$1_\$2_VCA_LEVEL empty VCA_LEVEL
-2 -8 0 10 -262144 -1 -1 0 1;
#X obj 810 100 hsl 128 15 0 127 0 0 TETRA_\$1_\$2_PRESET_VOLUME empty
PRESET_VOLUME -2 -8 0 10 -262144 -1 -1 12700 1;
#X obj 980 110 hsl 128 15 0 127 0 0 TETRA_\$1_\$2_VCA_DEL empty VCA_DEL
-2 -8 0 10 -262144 -1 -1 0 1;
#X obj 980 140 hsl 128 15 0 127 0 0 TETRA_\$1_\$2_VCA_ATT empty VCA_ATT
-2 -8 0 10 -262144 -1 -1 0 1;
#X obj 980 170 hsl 128 15 0 127 0 0 TETRA_\$1_\$2_VCA_DEC empty VCA_DEC
-2 -8 0 10 -262144 -1 -1 0 1;
#X obj 980 200 hsl 128 15 0 127 0 0 TETRA_\$1_\$2_VCA_SUS empty VCA_SUS
-2 -8 0 10 -262144 -1 -1 12700 1;
#X obj 980 230 hsl 128 15 0 127 0 0 TETRA_\$1_\$2_VCA_REL empty VCA_REL
-2 -8 0 10 -262144 -1 -1 0 1;
#X obj 810 200 hsl 128 15 0 127 0 0 TETRA_\$1_\$2_VCA_ENV_AMOUNT empty
VCA_ENV_AMOUNT -2 -8 0 10 -262144 -1 -1 12700 1;
#X obj 810 230 hsl 128 15 0 127 0 0 TETRA_\$1_\$2_VCA_ENV_VEL_AMT empty
VCA_ENV_VEL_AMT -2 -8 0 10 -262144 -1 -1 0 1;
#N canvas 1 87 830 535 m 0;
#X msg 170 157 set \$1;
#X obj 170 197 outlet;
#X obj 170 139 inlet;
#X msg 170 177 0;
#X obj 222 162 r init_\$1_\$2_\$3;
#X connect 0 0 3 0;
#X connect 2 0 0 0;
#X connect 3 0 1 0;
#X connect 4 0 3 0;
#X restore 946 110 pd m;
#N canvas 1 112 1278 780 m 0;
#X msg 170 157 set \$1;
#X obj 170 197 outlet;
#X obj 170 139 inlet;
#X msg 170 177 0;
#X obj 222 162 r init_\$1_\$2_\$3;
#X connect 0 0 3 0;
#X connect 2 0 0 0;
#X connect 3 0 1 0;
#X connect 4 0 3 0;
#X restore 946 140 pd m;
#N canvas 1 87 830 535 m 0;
#X msg 170 157 set \$1;
#X obj 170 197 outlet;
#X obj 170 139 inlet;
#X msg 170 177 0;
#X obj 222 162 r init_\$1_\$2_\$3;
#X connect 0 0 3 0;
#X connect 2 0 0 0;
#X connect 3 0 1 0;
#X connect 4 0 3 0;
#X restore 946 170 pd m;
#N canvas 1 87 830 535 m 0;
#X msg 170 157 set \$1;
#X obj 170 197 outlet;
#X obj 170 139 inlet;
#X msg 170 177 127;
#X obj 222 162 r init_\$1_\$2_\$3;
#X connect 0 0 3 0;
#X connect 2 0 0 0;
#X connect 3 0 1 0;
#X connect 4 0 3 0;
#X restore 946 200 pd m;
#N canvas 1 112 1278 780 m 0;
#X msg 170 157 set \$1;
#X obj 170 197 outlet;
#X obj 170 139 inlet;
#X msg 170 177 0;
#X obj 222 162 r init_\$1_\$2_\$3;
#X connect 0 0 3 0;
#X connect 2 0 0 0;
#X connect 3 0 1 0;
#X connect 4 0 3 0;
#X restore 946 230 pd m;
#N canvas 1 87 830 535 m 0;
#X msg 170 157 set \$1;
#X obj 170 197 outlet;
#X obj 170 139 inlet;
#X msg 170 177 0;
#X obj 222 162 r init_\$1_\$2_\$3;
#X connect 0 0 3 0;
#X connect 2 0 0 0;
#X connect 3 0 1 0;
#X connect 4 0 3 0;
#X restore 776 70 pd m;
#N canvas 1 112 1278 780 m 0;
#X msg 170 157 set \$1;
#X obj 170 197 outlet;
#X obj 170 139 inlet;
#X msg 170 177 127;
#X obj 222 162 r init_\$1_\$2_\$3;
#X connect 0 0 3 0;
#X connect 2 0 0 0;
#X connect 3 0 1 0;
#X connect 4 0 3 0;
#X restore 776 100 pd m;
#N canvas 1 112 1278 780 m 0;
#X msg 170 157 set \$1;
#X obj 170 197 outlet;
#X obj 170 139 inlet;
#X msg 170 177 0;
#X obj 222 162 r init_\$1_\$2_\$3;
#X connect 0 0 3 0;
#X connect 2 0 0 0;
#X connect 3 0 1 0;
#X connect 4 0 3 0;
#X restore 776 150 pd m;
#N canvas 1 87 830 535 m 0;
#X msg 170 157 set \$1;
#X obj 170 197 outlet;
#X obj 170 139 inlet;
#X msg 170 177 127;
#X obj 222 162 r init_\$1_\$2_\$3;
#X connect 0 0 3 0;
#X connect 2 0 0 0;
#X connect 3 0 1 0;
#X connect 4 0 3 0;
#X restore 776 200 pd m;
#N canvas 1 112 1278 780 m 0;
#X msg 170 157 set \$1;
#X obj 170 197 outlet;
#X obj 170 139 inlet;
#X msg 170 177 0;
#X obj 222 162 r init_\$1_\$2_\$3;
#X connect 0 0 3 0;
#X connect 2 0 0 0;
#X connect 3 0 1 0;
#X connect 4 0 3 0;
#X restore 776 230 pd m;
#X obj 424 360 hsl 128 15 0 255 0 0 TETRA_\$1_\$2_FILTER_ENV_AMT empty
FILTER_ENV_AMT -2 -8 0 10 -262144 -1 -1 6348 1;
#N canvas 1 87 830 535 m 0;
#X msg 170 157 set \$1;
#X obj 170 197 outlet;
#X obj 170 139 inlet;
#X obj 222 162 r init_\$1_\$2_\$3;
#X msg 170 177 127.46;
#X connect 0 0 4 0;
#X connect 2 0 0 0;
#X connect 3 0 4 0;
#X connect 4 0 1 0;
#X restore 390 360 pd m;
#X obj 600 351 hsl 128 15 0 127 0 0 TETRA_\$1_\$2_FIL_DEL empty FIL_DEL
-2 -8 0 10 -262144 -1 -1 0 1;
#X obj 600 381 hsl 128 15 0 127 0 0 TETRA_\$1_\$2_FIL_ATT empty FIL_ATT
-2 -8 0 10 -262144 -1 -1 0 1;
#X obj 600 411 hsl 128 15 0 127 0 0 TETRA_\$1_\$2_FIL_DEC empty FIL_DEC
-2 -8 0 10 -262144 -1 -1 0 1;
#X obj 600 441 hsl 128 15 0 127 0 0 TETRA_\$1_\$2_FIL_SUS empty FIL_SUS
-2 -8 0 10 -262144 -1 -1 0 1;
#X obj 600 471 hsl 128 15 0 127 0 0 TETRA_\$1_\$2_FIL_REL empty FIL_REL
-2 -8 0 10 -262144 -1 -1 0 1;
#N canvas 1 87 830 535 m 0;
#X msg 170 157 set \$1;
#X obj 170 197 outlet;
#X obj 170 139 inlet;
#X msg 170 177 0;
#X obj 222 162 r init_\$1_\$2_\$3;
#X connect 0 0 3 0;
#X connect 2 0 0 0;
#X connect 3 0 1 0;
#X connect 4 0 3 0;
#X restore 566 351 pd m;
#N canvas 1 112 1278 780 m 0;
#X msg 170 157 set \$1;
#X obj 170 197 outlet;
#X obj 170 139 inlet;
#X msg 170 177 0;
#X obj 222 162 r init_\$1_\$2_\$3;
#X connect 0 0 3 0;
#X connect 2 0 0 0;
#X connect 3 0 1 0;
#X connect 4 0 3 0;
#X restore 566 381 pd m;
#N canvas 1 112 1278 780 m 0;
#X msg 170 157 set \$1;
#X obj 170 197 outlet;
#X obj 170 139 inlet;
#X msg 170 177 0;
#X obj 222 162 r init_\$1_\$2_\$3;
#X connect 0 0 3 0;
#X connect 2 0 0 0;
#X connect 3 0 1 0;
#X connect 4 0 3 0;
#X restore 566 411 pd m;
#N canvas 1 112 1278 780 m 0;
#X msg 170 157 set \$1;
#X obj 170 197 outlet;
#X obj 170 139 inlet;
#X msg 170 177 0;
#X obj 222 162 r init_\$1_\$2_\$3;
#X connect 0 0 3 0;
#X connect 2 0 0 0;
#X connect 3 0 1 0;
#X connect 4 0 3 0;
#X restore 566 441 pd m;
#N canvas 1 112 1278 780 m 0;
#X msg 170 157 set \$1;
#X obj 170 197 outlet;
#X obj 170 139 inlet;
#X msg 170 177 0;
#X obj 222 162 r init_\$1_\$2_\$3;
#X connect 0 0 3 0;
#X connect 2 0 0 0;
#X connect 3 0 1 0;
#X connect 4 0 3 0;
#X restore 566 471 pd m;
#X obj 424 390 hsl 128 15 0 127 0 0 TETRA_\$1_\$2_FIL_ENV_VEL_AMT empty
FIL_ENV_VEL_AMT -2 -8 0 10 -262144 -1 -1 0 1;
#N canvas 1 87 830 535 m 0;
#X msg 170 157 set \$1;
#X obj 170 197 outlet;
#X obj 170 139 inlet;
#X obj 222 162 r init_\$1_\$2_\$3;
#X msg 170 177 0;
#X connect 0 0 4 0;
#X connect 2 0 0 0;
#X connect 3 0 4 0;
#X connect 4 0 1 0;
#X restore 390 390 pd m;
#X obj 424 430 hsl 128 15 0 127 0 0 TETRA_\$1_\$2_FIL_KEY_AMT empty
FIL_KEY_AMT -2 -8 0 10 -262144 -1 -1 0 1;
#N canvas 1 87 830 535 m 0;
#X msg 170 157 set \$1;
#X obj 170 197 outlet;
#X obj 170 139 inlet;
#X obj 222 162 r init_\$1_\$2_\$3;
#X msg 170 177 0;
#X connect 0 0 4 0;
#X connect 2 0 0 0;
#X connect 3 0 4 0;
#X connect 4 0 1 0;
#X restore 390 430 pd m;
#X obj 424 470 hsl 128 15 0 127 0 0 TETRA_\$1_\$2_FIL_AUDIO_MOD empty
FIL_AUDIO_MOD -2 -8 0 10 -262144 -1 -1 0 1;
#N canvas 1 87 830 535 m 0;
#X msg 170 157 set \$1;
#X obj 170 197 outlet;
#X obj 170 139 inlet;
#X obj 222 162 r init_\$1_\$2_\$3;
#X msg 170 177 0;
#X connect 0 0 4 0;
#X connect 2 0 0 0;
#X connect 3 0 4 0;
#X connect 4 0 1 0;
#X restore 390 470 pd m;
#N canvas 1 104 1438 780 m 0;
#X msg 170 157 set \$1;
#X obj 170 197 outlet;
#X obj 170 139 inlet;
#X msg 170 177 0;
#X obj 222 162 r init_\$1_\$2_\$3;
#X connect 0 0 3 0;
#X connect 2 0 0 0;
#X connect 3 0 1 0;
#X connect 4 0 3 0;
#X restore 46 369 pd m;
#N canvas 1 104 1438 780 m 0;
#X msg 170 157 set \$1;
#X obj 170 197 outlet;
#X obj 170 139 inlet;
#X msg 170 177 0;
#X obj 222 162 r init_\$1_\$2_\$3;
#X connect 0 0 3 0;
#X connect 2 0 0 0;
#X connect 3 0 1 0;
#X connect 4 0 3 0;
#X restore 46 409 pd m;
#N canvas 1 104 1438 780 m 0;
#X msg 170 157 set \$1;
#X obj 170 197 outlet;
#X obj 170 139 inlet;
#X msg 170 177 0;
#X obj 222 162 r init_\$1_\$2_\$3;
#X connect 0 0 3 0;
#X connect 2 0 0 0;
#X connect 3 0 1 0;
#X connect 4 0 3 0;
#X restore 219 389 pd m;
#N canvas 1 87 830 535 m 0;
#X msg 170 157 set \$1;
#X obj 170 197 outlet;
#X obj 170 139 inlet;
#X obj 222 162 r init_\$1_\$2_\$3;
#X msg 170 177 off;
#X connect 0 0 4 0;
#X connect 2 0 0 0;
#X connect 3 0 4 0;
#X connect 4 0 1 0;
#X restore 595 893 pd m;
#N canvas 1 87 830 535 m 0;
#X msg 170 157 set \$1;
#X obj 170 197 outlet;
#X obj 170 139 inlet;
#X obj 222 162 r init_\$1_\$2_\$3;
#X msg 170 177 0;
#X connect 0 0 4 0;
#X connect 2 0 0 0;
#X connect 3 0 4 0;
#X connect 4 0 1 0;
#X restore 528 911 pd m;
#N canvas 0 86 415 538 m 0;
#X msg 170 157 set \$1;
#X obj 170 197 outlet;
#X obj 170 139 inlet;
#X obj 222 162 r init_\$1_\$2_\$3;
#X msg 170 177 off;
#X connect 0 0 4 0;
#X connect 2 0 0 0;
#X connect 3 0 4 0;
#X connect 4 0 1 0;
#X restore 765 893 pd m;
#X obj 796 893 symbol;
#X obj 625 893 symbol;
#N canvas 0 86 415 538 m 0;
#X msg 170 157 set \$1;
#X obj 170 197 outlet;
#X obj 170 139 inlet;
#X obj 222 162 r init_\$1_\$2_\$3;
#X msg 170 177 0;
#X connect 0 0 4 0;
#X connect 2 0 0 0;
#X connect 3 0 4 0;
#X connect 4 0 1 0;
#X restore 698 911 pd m;
#X obj 796 -31 bng 15 250 50 0 empty empty empty 17 7 0 10 -262144
-1 -1;
#X symbolatom 902 913 20 0 0 0 - - -;
#N canvas 0 86 415 538 m 0;
#X msg 170 157 set \$1;
#X obj 170 197 outlet;
#X obj 170 139 inlet;
#X obj 222 162 r init_\$1_\$2_\$3;
#X msg 170 177 off;
#X connect 0 0 4 0;
#X connect 2 0 0 0;
#X connect 3 0 4 0;
#X connect 4 0 1 0;
#X restore 935 893 pd m;
#X obj 966 893 symbol;
#N canvas 0 86 415 538 m 0;
#X msg 170 157 set \$1;
#X obj 170 197 outlet;
#X obj 170 139 inlet;
#X obj 222 162 r init_\$1_\$2_\$3;
#X msg 170 177 0;
#X connect 0 0 4 0;
#X connect 2 0 0 0;
#X connect 3 0 4 0;
#X connect 4 0 1 0;
#X restore 868 911 pd m;
#N canvas 1 87 830 535 m 0;
#X msg 170 157 set \$1;
#X obj 170 197 outlet;
#X obj 170 139 inlet;
#X obj 222 162 r init_\$1_\$2_\$3;
#X msg 170 177 127.299;
#X connect 0 0 4 0;
#X connect 2 0 0 0;
#X connect 3 0 4 0;
#X connect 4 0 1 0;
#X restore 518 961 pd m;
#N canvas 1 87 830 535 m 0;
#X msg 170 157 set \$1;
#X obj 170 197 outlet;
#X obj 170 139 inlet;
#X obj 222 162 r init_\$1_\$2_\$3;
#X msg 170 177 127.219;
#X connect 0 0 4 0;
#X connect 2 0 0 0;
#X connect 3 0 4 0;
#X connect 4 0 1 0;
#X restore 688 961 pd m;
#N canvas 1 87 830 535 m 0;
#X msg 170 157 set \$1;
#X obj 170 197 outlet;
#X obj 170 139 inlet;
#X obj 222 162 r init_\$1_\$2_\$3;
#X msg 170 177 127.119;
#X connect 0 0 4 0;
#X connect 2 0 0 0;
#X connect 3 0 4 0;
#X connect 4 0 1 0;
#X restore 858 961 pd m;
#X symbolatom 562 1023 20 0 0 0 - - -;
#X obj 528 1003 TETRA_dest;
#N canvas 0 86 415 538 m 0;
#X msg 170 157 set \$1;
#X obj 170 197 outlet;
#X obj 170 139 inlet;
#X obj 222 162 r init_\$1_\$2_\$3;
#X msg 170 177 off;
#X connect 0 0 4 0;
#X connect 2 0 0 0;
#X connect 3 0 4 0;
#X connect 4 0 1 0;
#X restore 595 1003 pd m;
#X obj 626 1003 symbol;
#N canvas 0 86 415 538 m 0;
#X msg 170 157 set \$1;
#X obj 170 197 outlet;
#X obj 170 139 inlet;
#X obj 222 162 r init_\$1_\$2_\$3;
#X msg 170 177 0;
#X connect 0 0 4 0;
#X connect 2 0 0 0;
#X connect 3 0 4 0;
#X connect 4 0 1 0;
#X restore 528 1021 pd m;
#X symbolatom 732 1023 20 0 0 0 - - -;
#N canvas 0 86 415 538 m 0;
#X msg 170 157 set \$1;
#X obj 170 197 outlet;
#X obj 170 139 inlet;
#X obj 222 162 r init_\$1_\$2_\$3;
#X msg 170 177 off;
#X connect 0 0 4 0;
#X connect 2 0 0 0;
#X connect 3 0 4 0;
#X connect 4 0 1 0;
#X restore 765 1003 pd m;
#X obj 796 1003 symbol;
#N canvas 0 86 415 538 m 0;
#X msg 170 157 set \$1;
#X obj 170 197 outlet;
#X obj 170 139 inlet;
#X obj 222 162 r init_\$1_\$2_\$3;
#X msg 170 177 0;
#X connect 0 0 4 0;
#X connect 2 0 0 0;
#X connect 3 0 4 0;
#X connect 4 0 1 0;
#X restore 698 1021 pd m;
#N canvas 1 87 830 535 m 0;
#X msg 170 157 set \$1;
#X obj 170 197 outlet;
#X obj 170 139 inlet;
#X obj 222 162 r init_\$1_\$2_\$3;
#X msg 170 177 127.078;
#X connect 0 0 4 0;
#X connect 2 0 0 0;
#X connect 3 0 4 0;
#X connect 4 0 1 0;
#X restore 698 1071 pd m;
#N canvas 1 87 830 535 m 0;
#X msg 170 157 set \$1;
#X obj 170 197 outlet;
#X obj 170 139 inlet;
#X obj 222 162 r init_\$1_\$2_\$3;
#X msg 170 177 127.339;
#X connect 0 0 4 0;
#X connect 2 0 0 0;
#X connect 3 0 4 0;
#X connect 4 0 1 0;
#X restore 528 1071 pd m;
#X obj 690 1123 hsl 128 15 0 127 0 0 TETRA_\$1_\$2_SPLIT_POINT empty
SPLIT_POINT -2 -8 0 10 -262144 -1 -1 12700 1;
#N canvas 1 87 830 535 m 0;
#X msg 170 157 set \$1;
#X obj 170 197 outlet;
#X obj 170 139 inlet;
#X obj 222 162 r init_\$1_\$2_\$3;
#X msg 170 177 127;
#X connect 0 0 4 0;
#X connect 2 0 0 0;
#X connect 3 0 4 0;
#X connect 4 0 1 0;
#X restore 656 1123 pd m;
#N canvas 1 87 830 535 m 0;
#X msg 170 157 set \$1;
#X obj 170 197 outlet;
#X obj 170 139 inlet;
#X obj 222 162 r init_\$1_\$2_\$3;
#X msg 170 177 0;
#X connect 0 0 4 0;
#X connect 2 0 0 0;
#X connect 3 0 4 0;
#X connect 4 0 1 0;
#X restore 552 1122 pd m;
#N canvas 1 87 830 535 m 0;
#X msg 170 157 set \$1;
#X obj 170 197 outlet;
#X obj 170 139 inlet;
#X obj 222 162 r init_\$1_\$2_\$3;
#X msg 170 177 0;
#X connect 0 0 4 0;
#X connect 2 0 0 0;
#X connect 3 0 4 0;
#X connect 4 0 1 0;
#X restore 909 1081 pd m;
#X symbolatom 802 297 20 0 0 0 - - -;
#N canvas 0 86 415 538 m 0;
#X msg 170 157 set \$1;
#X obj 170 197 outlet;
#X obj 170 139 inlet;
#X obj 222 162 r init_\$1_\$2_\$3;
#X msg 170 177 off;
#X connect 0 0 4 0;
#X connect 2 0 0 0;
#X connect 3 0 4 0;
#X connect 4 0 1 0;
#X restore 835 277 pd m;
#X obj 866 277 symbol;
#N canvas 0 86 415 538 m 0;
#X msg 170 157 set \$1;
#X obj 170 197 outlet;
#X obj 170 139 inlet;
#X obj 222 162 r init_\$1_\$2_\$3;
#X msg 170 177 0;
#X connect 0 0 4 0;
#X connect 2 0 0 0;
#X connect 3 0 4 0;
#X connect 4 0 1 0;
#X restore 768 295 pd m;
#X obj 970 321 hsl 128 15 0 127 0 0 TETRA_\$1_\$2_ENV3_DEL empty ENV3_DEL
-2 -8 0 10 -262144 -1 -1 0 1;
#X obj 970 351 hsl 128 15 0 127 0 0 TETRA_\$1_\$2_ENV3_ATT empty ENV3_ATT
-2 -8 0 10 -262144 -1 -1 0 1;
#X obj 970 381 hsl 128 15 0 127 0 0 TETRA_\$1_\$2_ENV3_DEC empty ENV3_DEC
-2 -8 0 10 -262144 -1 -1 0 1;
#X obj 970 411 hsl 128 15 0 127 0 0 TETRA_\$1_\$2_ENV3_SUS empty ENV3_SUS
-2 -8 0 10 -262144 -1 -1 0 1;
#X obj 970 441 hsl 128 15 0 127 0 0 TETRA_\$1_\$2_ENV3_REL empty ENV3_REL
-2 -8 0 10 -262144 -1 -1 0 1;
#N canvas 1 87 830 535 m 0;
#X msg 170 157 set \$1;
#X obj 170 197 outlet;
#X obj 170 139 inlet;
#X msg 170 177 0;
#X obj 222 162 r init_\$1_\$2_\$3;
#X connect 0 0 3 0;
#X connect 2 0 0 0;
#X connect 3 0 1 0;
#X connect 4 0 3 0;
#X restore 936 321 pd m;
#N canvas 1 112 1278 780 m 0;
#X msg 170 157 set \$1;
#X obj 170 197 outlet;
#X obj 170 139 inlet;
#X msg 170 177 0;
#X obj 222 162 r init_\$1_\$2_\$3;
#X connect 0 0 3 0;
#X connect 2 0 0 0;
#X connect 3 0 1 0;
#X connect 4 0 3 0;
#X restore 936 351 pd m;
#N canvas 1 112 1278 780 m 0;
#X msg 170 157 set \$1;
#X obj 170 197 outlet;
#X obj 170 139 inlet;
#X msg 170 177 0;
#X obj 222 162 r init_\$1_\$2_\$3;
#X connect 0 0 3 0;
#X connect 2 0 0 0;
#X connect 3 0 1 0;
#X connect 4 0 3 0;
#X restore 936 381 pd m;
#N canvas 1 112 1278 780 m 0;
#X msg 170 157 set \$1;
#X obj 170 197 outlet;
#X obj 170 139 inlet;
#X msg 170 177 0;
#X obj 222 162 r init_\$1_\$2_\$3;
#X connect 0 0 3 0;
#X connect 2 0 0 0;
#X connect 3 0 1 0;
#X connect 4 0 3 0;
#X restore 936 411 pd m;
#N canvas 1 112 1278 780 m 0;
#X msg 170 157 set \$1;
#X obj 170 197 outlet;
#X obj 170 139 inlet;
#X msg 170 177 0;
#X obj 222 162 r init_\$1_\$2_\$3;
#X connect 0 0 3 0;
#X connect 2 0 0 0;
#X connect 3 0 1 0;
#X connect 4 0 3 0;
#X restore 936 441 pd m;
#X obj 789 401 hsl 128 15 0 255 0 0 TETRA_\$1_\$2_ENV3_AMT empty ENV3_AMT
-2 -8 0 10 -262144 -1 -1 6327 1;
#N canvas 1 87 830 535 m 0;
#X msg 170 157 set \$1;
#X obj 170 197 outlet;
#X obj 170 139 inlet;
#X obj 222 162 r init_\$1_\$2_\$3;
#X msg 170 177 127.038;
#X connect 0 0 4 0;
#X connect 2 0 0 0;
#X connect 3 0 4 0;
#X connect 4 0 1 0;
#X restore 754 401 pd m;
#X text 1133 277 ----;
#X obj 789 441 hsl 128 15 0 127 0 0 TETRA_\$1_\$2_ENV3_VEL_AMT empty
ENV3_VEL_AMT -2 -8 0 10 -262144 -1 -1 0 1;
#N canvas 1 87 830 535 m 0;
#X msg 170 157 set \$1;
#X obj 170 197 outlet;
#X obj 170 139 inlet;
#X obj 222 162 r init_\$1_\$2_\$3;
#X msg 170 177 0;
#X connect 0 0 4 0;
#X connect 2 0 0 0;
#X connect 3 0 4 0;
#X connect 4 0 1 0;
#X restore 754 441 pd m;
#N canvas 1 87 830 535 m 0;
#X msg 170 157 set \$1;
#X obj 170 197 outlet;
#X obj 170 139 inlet;
#X obj 222 162 r init_\$1_\$2_\$3;
#X msg 170 177 0;
#X connect 0 0 4 0;
#X connect 2 0 0 0;
#X connect 3 0 4 0;
#X connect 4 0 1 0;
#X restore 936 281 pd m;
#X symbolatom 80 1233 20 0 0 0 - - -;
#N canvas 0 86 415 538 m 0;
#X msg 170 157 set \$1;
#X obj 170 197 outlet;
#X obj 170 139 inlet;
#X obj 222 162 r init_\$1_\$2_\$3;
#X msg 170 177 off;
#X connect 0 0 4 0;
#X connect 2 0 0 0;
#X connect 3 0 4 0;
#X connect 4 0 1 0;
#X restore 113 1213 pd m;
#X obj 144 1213 symbol;
#N canvas 0 86 415 538 m 0;
#X msg 170 157 set \$1;
#X obj 170 197 outlet;
#X obj 170 139 inlet;
#X obj 222 162 r init_\$1_\$2_\$3;
#X msg 170 177 0;
#X connect 0 0 4 0;
#X connect 2 0 0 0;
#X connect 3 0 4 0;
#X connect 4 0 1 0;
#X restore 46 1231 pd m;
#X symbolatom 562 1233 20 0 0 0 - - -;
#N canvas 0 86 415 538 m 0;
#X msg 170 157 set \$1;
#X obj 170 197 outlet;
#X obj 170 139 inlet;
#X obj 222 162 r init_\$1_\$2_\$3;
#X msg 170 177 off;
#X connect 0 0 4 0;
#X connect 2 0 0 0;
#X connect 3 0 4 0;
#X connect 4 0 1 0;
#X restore 595 1213 pd m;
#X obj 626 1213 symbol;
#N canvas 0 86 415 538 m 0;
#X msg 170 157 set \$1;
#X obj 170 197 outlet;
#X obj 170 139 inlet;
#X obj 222 162 r init_\$1_\$2_\$3;
#X msg 170 177 0;
#X connect 0 0 4 0;
#X connect 2 0 0 0;
#X connect 3 0 4 0;
#X connect 4 0 1 0;
#X restore 528 1231 pd m;
#X symbolatom 82 1413 20 0 0 0 - - -;
#N canvas 0 86 415 538 m 0;
#X msg 170 157 set \$1;
#X obj 170 197 outlet;
#X obj 170 139 inlet;
#X obj 222 162 r init_\$1_\$2_\$3;
#X msg 170 177 off;
#X connect 0 0 4 0;
#X connect 2 0 0 0;
#X connect 3 0 4 0;
#X connect 4 0 1 0;
#X restore 115 1393 pd m;
#X obj 146 1393 symbol;
#N canvas 0 86 415 538 m 0;
#X msg 170 157 set \$1;
#X obj 170 197 outlet;
#X obj 170 139 inlet;
#X obj 222 162 r init_\$1_\$2_\$3;
#X msg 170 177 0;
#X connect 0 0 4 0;
#X connect 2 0 0 0;
#X connect 3 0 4 0;
#X connect 4 0 1 0;
#X restore 48 1411 pd m;
#X symbolatom 562 1413 20 0 0 0 - - -;
#N canvas 0 86 415 538 m 0;
#X msg 170 157 set \$1;
#X obj 170 197 outlet;
#X obj 170 139 inlet;
#X obj 222 162 r init_\$1_\$2_\$3;
#X msg 170 177 off;
#X connect 0 0 4 0;
#X connect 2 0 0 0;
#X connect 3 0 4 0;
#X connect 4 0 1 0;
#X restore 595 1393 pd m;
#X obj 626 1393 symbol;
#N canvas 0 86 415 538 m 0;
#X msg 170 157 set \$1;
#X obj 170 197 outlet;
#X obj 170 139 inlet;
#X obj 222 162 r init_\$1_\$2_\$3;
#X msg 170 177 0;
#X connect 0 0 4 0;
#X connect 2 0 0 0;
#X connect 3 0 4 0;
#X connect 4 0 1 0;
#X restore 528 1411 pd m;
#N canvas 0 86 415 538 m 0;
#X msg 170 157 set \$1;
#X obj 170 197 outlet;
#X obj 170 139 inlet;
#X obj 222 162 r init_\$1_\$2_\$3;
#X msg 170 177 0;
#X connect 0 0 4 0;
#X connect 2 0 0 0;
#X connect 3 0 4 0;
#X connect 4 0 1 0;
#X restore 48 1056 pd m;
#N canvas 1 95 415 511 m 0;
#X msg 170 157 set \$1;
#X obj 170 197 outlet;
#X obj 170 139 inlet;
#X obj 222 162 r init_\$1_\$2_\$3;
#X msg 170 177 0;
#X connect 0 0 4 0;
#X connect 2 0 0 0;
#X connect 3 0 4 0;
#X connect 4 0 1 0;
#X restore 260 1056 pd m;
#N canvas 0 86 415 538 m 0;
#X msg 170 157 set \$1;
#X obj 170 197 outlet;
#X obj 170 139 inlet;
#X obj 222 162 r init_\$1_\$2_\$3;
#X msg 170 177 0;
#X connect 0 0 4 0;
#X connect 2 0 0 0;
#X connect 3 0 4 0;
#X connect 4 0 1 0;
#X restore 48 1095 pd m;
#N canvas 1 87 830 535 m 0;
#X msg 170 157 set \$1;
#X obj 170 197 outlet;
#X obj 170 139 inlet;
#X obj 222 162 r init_\$1_\$2_\$3;
#X msg 170 177 Up/Down;
#X connect 0 0 4 0;
#X connect 2 0 0 0;
#X connect 3 0 4 0;
#X connect 4 0 1 0;
#X restore 321 1085 pd m;
#X obj 351 1085 symbol;
#N canvas 1 87 830 535 m 0;
#X msg 170 157 set \$1;
#X obj 170 197 outlet;
#X obj 170 139 inlet;
#X obj 222 162 r init_\$1_\$2_\$3;
#X msg 170 177 2;
#X connect 0 0 4 0;
#X connect 2 0 0 0;
#X connect 3 0 4 0;
#X connect 4 0 1 0;
#X restore 260 1103 pd m;
#X floatatom 868 929 5 0 48 1 MOD_WHEEL_DEST - TETRA_#1_#2_MOD_WHEEL_DEST
;
#X floatatom 698 929 5 0 48 1 PRESSURE_DEST - TETRA_#1_#2_PRESSURE_DEST
;
#X floatatom 528 929 5 0 48 1 VELOCITY_DEST - TETRA_#1_#2_VELOCITY_DEST
;
#X floatatom 698 1039 5 0 48 1 BREATH_DEST - TETRA_#1_#2_BREATH_DEST
;
#X floatatom 528 1039 5 0 48 1 FOOT_DEST - TETRA_#1_#2_FOOT_DEST;
#X floatatom 768 313 5 0 48 1 ENV3_DEST - TETRA_#1_#2_ENV3_DEST;
#X floatatom 528 1429 5 0 48 1 SEQ_4_DEST - TETRA_#1_#2_SEQ_4_DEST
;
#X floatatom 48 1430 5 0 48 1 SEQ_3_DEST - TETRA_#1_#2_SEQ_3_DEST;
#X floatatom 528 1250 5 0 48 1 SEQ_2_DEST - TETRA_#1_#2_SEQ_2_DEST
;
#X floatatom 46 1250 5 0 48 1 SEQ_1_DEST - TETRA_#1_#2_SEQ_1_DEST;
#X obj 528 893 TETRA_dest;
#X obj 698 893 TETRA_dest;
#X obj 868 893 TETRA_dest;
#X obj 698 1003 TETRA_dest;
#X obj 768 277 TETRA_dest;
#X obj 46 1213 TETRA_dest;
#X obj 528 1213 TETRA_dest;
#X obj 48 1393 TETRA_dest;
#X obj 528 1393 TETRA_dest;
#N canvas 1 87 830 535 m 0;
#X msg 170 157 set \$1;
#X obj 170 197 outlet;
#X obj 170 139 inlet;
#X obj 222 162 r init_\$1_\$2_\$3;
#X msg 170 177 1/16;
#X connect 0 0 4 0;
#X connect 2 0 0 0;
#X connect 3 0 4 0;
#X connect 4 0 1 0;
#X restore 288 902 pd m;
#X obj 318 902 symbol;
#N canvas 1 87 415 535 m 0;
#X msg 170 157 set \$1;
#X obj 170 197 outlet;
#X obj 170 139 inlet;
#X obj 222 162 r init_\$1_\$2_\$3;
#X msg 170 177 6;
#X connect 0 0 4 0;
#X connect 2 0 0 0;
#X connect 3 0 4 0;
#X connect 4 0 1 0;
#X restore 227 920 pd m;
#X obj 76 918 hsl 111 15 30 250 0 0 TETRA_\$1_\$2_TEMPO empty TEMPO
-2 -8 0 10 -262144 -1 -1 4500 1;
#X floatatom 73 933 5 0 0 0 - - -;
#N canvas 0 86 415 538 m 0;
#X msg 170 157 set \$1;
#X obj 170 197 outlet;
#X obj 170 139 inlet;
#X obj 222 162 r init_\$1_\$2_\$3;
#X msg 170 177 120;
#X connect 0 0 4 0;
#X connect 2 0 0 0;
#X connect 3 0 4 0;
#X connect 4 0 1 0;
#X restore 41 918 pd m;
#N canvas 1 87 830 535 m 0;
#X msg 170 157 set \$1;
#X obj 170 197 outlet;
#X obj 170 139 inlet;
#X obj 222 162 r init_\$1_\$2_\$3;
#X msg 170 177 0;
#X connect 0 0 4 0;
#X connect 2 0 0 0;
#X connect 3 0 4 0;
#X connect 4 0 1 0;
#X restore 910 1021 pd m;
#X obj 944 1021 hsl 24 15 0 12 0 0 TETRA_\$1_\$2_PBEND_RANGE empty
PBEND_RANGE -2 -8 0 10 -262144 -1 -1 0 1;
#X obj 913 1121 hsl 128 15 0 127 0 0 TETRA_\$1_\$2_PUSH_IT_NOTE empty
PUSH_IT_NOTE -2 -8 0 10 -262144 -1 -1 6000 1;
#X obj 913 1151 hsl 128 15 0 127 0 0 TETRA_\$1_\$2_PUSH_IT_VELOCITY
empty PUSH_IT_VELOCITY -2 -8 0 10 -262144 -1 -1 12700 1;
#N canvas 1 87 830 535 m 0;
#X msg 170 157 set \$1;
#X obj 170 197 outlet;
#X obj 170 139 inlet;
#X obj 222 162 r init_\$1_\$2_\$3;
#X msg 170 177 60;
#X connect 0 0 4 0;
#X connect 2 0 0 0;
#X connect 3 0 4 0;
#X connect 4 0 1 0;
#X restore 879 1121 pd m;
#N canvas 1 87 830 535 m 0;
#X msg 170 157 set \$1;
#X obj 170 197 outlet;
#X obj 170 139 inlet;
#X obj 222 162 r init_\$1_\$2_\$3;
#X msg 170 177 127;
#X connect 0 0 4 0;
#X connect 2 0 0 0;
#X connect 3 0 4 0;
#X connect 4 0 1 0;
#X restore 879 1151 pd m;
#X symbolatom 552 843 20 0 0 0 - - -;
#N canvas 1 87 830 535 m 0;
#X msg 170 157 set \$1;
#X obj 170 197 outlet;
#X obj 170 139 inlet;
#X obj 222 162 r init_\$1_\$2_\$3;
#X msg 170 177 off;
#X connect 0 0 4 0;
#X connect 2 0 0 0;
#X connect 3 0 4 0;
#X connect 4 0 1 0;
#X restore 585 823 pd m;
#N canvas 1 87 830 535 m 0;
#X msg 170 157 set \$1;
#X obj 170 197 outlet;
#X obj 170 139 inlet;
#X obj 222 162 r init_\$1_\$2_\$3;
#X msg 170 177 0;
#X connect 0 0 4 0;
#X connect 2 0 0 0;
#X connect 3 0 4 0;
#X connect 4 0 1 0;
#X restore 518 841 pd m;
#X obj 615 823 symbol;
#X obj 518 823 TETRA_dest;
#X symbolatom 792 843 20 0 0 0 - - -;
#N canvas 1 87 830 535 m 0;
#X msg 170 157 set \$1;
#X obj 170 197 outlet;
#X obj 170 139 inlet;
#X obj 222 162 r init_\$1_\$2_\$3;
#X msg 170 177 off;
#X connect 0 0 4 0;
#X connect 2 0 0 0;
#X connect 3 0 4 0;
#X connect 4 0 1 0;
#X restore 825 823 pd m;
#N canvas 1 87 830 535 m 0;
#X msg 170 157 set \$1;
#X obj 170 197 outlet;
#X obj 170 139 inlet;
#X obj 222 162 r init_\$1_\$2_\$3;
#X msg 170 177 0;
#X connect 0 0 4 0;
#X connect 2 0 0 0;
#X connect 3 0 4 0;
#X connect 4 0 1 0;
#X restore 758 841 pd m;
#X obj 855 823 symbol;
#X obj 758 823 TETRA_dest;
#X symbolatom 312 843 20 0 0 0 - - -;
#N canvas 1 87 830 535 m 0;
#X msg 170 157 set \$1;
#X obj 170 197 outlet;
#X obj 170 139 inlet;
#X obj 222 162 r init_\$1_\$2_\$3;
#X msg 170 177 off;
#X connect 0 0 4 0;
#X connect 2 0 0 0;
#X connect 3 0 4 0;
#X connect 4 0 1 0;
#X restore 345 823 pd m;
#N canvas 1 87 830 535 m 0;
#X msg 170 157 set \$1;
#X obj 170 197 outlet;
#X obj 170 139 inlet;
#X obj 222 162 r init_\$1_\$2_\$3;
#X msg 170 177 0;
#X connect 0 0 4 0;
#X connect 2 0 0 0;
#X connect 3 0 4 0;
#X connect 4 0 1 0;
#X restore 278 841 pd m;
#X obj 375 823 symbol;
#X obj 278 823 TETRA_dest;
#X symbolatom 72 843 20 0 0 0 - - -;
#N canvas 1 87 830 535 m 0;
#X msg 170 157 set \$1;
#X obj 170 197 outlet;
#X obj 170 139 inlet;
#X obj 222 162 r init_\$1_\$2_\$3;
#X msg 170 177 off;
#X connect 0 0 4 0;
#X connect 2 0 0 0;
#X connect 3 0 4 0;
#X connect 4 0 1 0;
#X restore 105 823 pd m;
#N canvas 1 87 830 535 m 0;
#X msg 170 157 set \$1;
#X obj 170 197 outlet;
#X obj 170 139 inlet;
#X obj 222 162 r init_\$1_\$2_\$3;
#X msg 170 177 0;
#X connect 0 0 4 0;
#X connect 2 0 0 0;
#X connect 3 0 4 0;
#X connect 4 0 1 0;
#X restore 38 841 pd m;
#X obj 135 823 symbol;
#X obj 38 823 TETRA_dest;
#X obj 793 796 hsl 128 15 0 255 0 0 TETRA_\$1_\$2_MOD_AMT_4 empty MOD_AMT_4
-2 -8 0 10 -262144 -1 -1 6363 1;
#N canvas 1 87 830 535 m 0;
#X msg 170 157 set \$1;
#X obj 170 197 outlet;
#X obj 170 139 inlet;
#X obj 222 162 r init_\$1_\$2_\$3;
#X msg 170 177 127.761;
#X connect 0 0 4 0;
#X connect 2 0 0 0;
#X connect 3 0 4 0;
#X connect 4 0 1 0;
#X restore 759 796 pd m;
#X obj 553 796 hsl 128 15 0 255 0 0 TETRA_\$1_\$2_MOD_AMT_3 empty MOD_AMT_3
-2 -8 0 10 -262144 -1 -1 6339 1;
#N canvas 1 87 830 535 m 0;
#X msg 170 157 set \$1;
#X obj 170 197 outlet;
#X obj 170 139 inlet;
#X obj 222 162 r init_\$1_\$2_\$3;
#X msg 170 177 127.279;
#X connect 0 0 4 0;
#X connect 2 0 0 0;
#X connect 3 0 4 0;
#X connect 4 0 1 0;
#X restore 519 796 pd m;
#X obj 313 796 hsl 128 15 0 255 0 0 TETRA_\$1_\$2_MOD_AMT_2 empty MOD_AMT_2
-2 -8 0 10 -262144 -1 -1 6344 1;
#N canvas 1 87 830 535 m 0;
#X msg 170 157 set \$1;
#X obj 170 197 outlet;
#X obj 170 139 inlet;
#X obj 222 162 r init_\$1_\$2_\$3;
#X msg 170 177 127.38;
#X connect 0 0 4 0;
#X connect 2 0 0 0;
#X connect 3 0 4 0;
#X connect 4 0 1 0;
#X restore 279 796 pd m;
#X obj 73 796 hsl 128 15 0 255 0 0 TETRA_\$1_\$2_MOD_AMT_1 empty MOD_AMT_1
-2 -8 0 10 -262144 -1 -1 6336 1;
#N canvas 1 87 830 535 m 0;
#X msg 170 157 set \$1;
#X obj 170 197 outlet;
#X obj 170 139 inlet;
#X obj 222 162 r init_\$1_\$2_\$3;
#X msg 170 177 127.219;
#X connect 0 0 4 0;
#X connect 2 0 0 0;
#X connect 3 0 4 0;
#X connect 4 0 1 0;
#X restore 39 796 pd m;
#N canvas 1 87 830 535 m 0;
#X msg 170 157 set \$1;
#X obj 170 197 outlet;
#X obj 170 139 inlet;
#X obj 222 162 r init_\$1_\$2_\$3;
#X msg 170 177 off;
#X connect 0 0 4 0;
#X connect 2 0 0 0;
#X connect 3 0 4 0;
#X connect 4 0 1 0;
#X restore 102 729 pd m;
#X obj 132 729 symbol;
#N canvas 1 87 830 535 m 0;
#X msg 170 157 set \$1;
#X obj 170 197 outlet;
#X obj 170 139 inlet;
#X obj 222 162 r init_\$1_\$2_\$3;
#X msg 170 177 0;
#X connect 0 0 4 0;
#X connect 2 0 0 0;
#X connect 3 0 4 0;
#X connect 4 0 1 0;
#X restore 41 747 pd m;
#X symbolatom 313 749 20 0 0 0 - - -;
#N canvas 1 87 830 535 m 0;
#X msg 170 157 set \$1;
#X obj 170 197 outlet;
#X obj 170 139 inlet;
#X obj 222 162 r init_\$1_\$2_\$3;
#X msg 170 177 off;
#X connect 0 0 4 0;
#X connect 2 0 0 0;
#X connect 3 0 4 0;
#X connect 4 0 1 0;
#X restore 342 729 pd m;
#X obj 372 729 symbol;
#N canvas 1 87 830 535 m 0;
#X msg 170 157 set \$1;
#X obj 170 197 outlet;
#X obj 170 139 inlet;
#X obj 222 162 r init_\$1_\$2_\$3;
#X msg 170 177 0;
#X connect 0 0 4 0;
#X connect 2 0 0 0;
#X connect 3 0 4 0;
#X connect 4 0 1 0;
#X restore 281 747 pd m;
#X symbolatom 553 749 20 0 0 0 - - -;
#N canvas 1 87 830 535 m 0;
#X msg 170 157 set \$1;
#X obj 170 197 outlet;
#X obj 170 139 inlet;
#X obj 222 162 r init_\$1_\$2_\$3;
#X msg 170 177 off;
#X connect 0 0 4 0;
#X connect 2 0 0 0;
#X connect 3 0 4 0;
#X connect 4 0 1 0;
#X restore 582 729 pd m;
#X obj 612 729 symbol;
#N canvas 1 87 830 535 m 0;
#X msg 170 157 set \$1;
#X obj 170 197 outlet;
#X obj 170 139 inlet;
#X obj 222 162 r init_\$1_\$2_\$3;
#X msg 170 177 0;
#X connect 0 0 4 0;
#X connect 2 0 0 0;
#X connect 3 0 4 0;
#X connect 4 0 1 0;
#X restore 521 747 pd m;
#X symbolatom 793 749 20 0 0 0 - - -;
#N canvas 1 87 830 535 m 0;
#X msg 170 157 set \$1;
#X obj 170 197 outlet;
#X obj 170 139 inlet;
#X obj 222 162 r init_\$1_\$2_\$3;
#X msg 170 177 off;
#X connect 0 0 4 0;
#X connect 2 0 0 0;
#X connect 3 0 4 0;
#X connect 4 0 1 0;
#X restore 822 729 pd m;
#X obj 852 729 symbol;
#N canvas 1 87 830 535 m 0;
#X msg 170 157 set \$1;
#X obj 170 197 outlet;
#X obj 170 139 inlet;
#X obj 222 162 r init_\$1_\$2_\$3;
#X msg 170 177 0;
#X connect 0 0 4 0;
#X connect 2 0 0 0;
#X connect 3 0 4 0;
#X connect 4 0 1 0;
#X restore 761 747 pd m;
#N canvas 1 87 830 535 m 0;
#X msg 170 157 set \$1;
#X obj 170 197 outlet;
#X obj 170 139 inlet;
#X obj 222 162 r init_\$1_\$2_\$3;
#X msg 170 177 0;
#X connect 0 0 4 0;
#X connect 2 0 0 0;
#X connect 3 0 4 0;
#X connect 4 0 1 0;
#X restore 520 593 pd m;
#N canvas 1 87 830 535 m 0;
#X msg 170 157 set \$1;
#X obj 170 197 outlet;
#X obj 170 139 inlet;
#X obj 222 162 r init_\$1_\$2_\$3;
#X msg 170 177 0;
#X connect 0 0 4 0;
#X connect 2 0 0 0;
#X connect 3 0 4 0;
#X connect 4 0 1 0;
#X restore 280 593 pd m;
#N canvas 1 87 830 535 m 0;
#X msg 170 157 set \$1;
#X obj 170 197 outlet;
#X obj 170 139 inlet;
#X obj 222 162 r init_\$1_\$2_\$3;
#X msg 170 177 0;
#X connect 0 0 4 0;
#X connect 2 0 0 0;
#X connect 3 0 4 0;
#X connect 4 0 1 0;
#X restore 40 593 pd m;
#N canvas 1 87 830 535 m 0;
#X msg 170 157 set \$1;
#X obj 170 197 outlet;
#X obj 170 139 inlet;
#X obj 222 162 r init_\$1_\$2_\$3;
#X msg 170 177 0;
#X connect 0 0 4 0;
#X connect 2 0 0 0;
#X connect 3 0 4 0;
#X connect 4 0 1 0;
#X restore 760 593 pd m;
#X symbolatom 75 650 20 0 0 0 - - -;
#N canvas 1 87 830 535 m 0;
#X msg 170 157 set \$1;
#X obj 170 197 outlet;
#X obj 170 139 inlet;
#X obj 222 162 r init_\$1_\$2_\$3;
#X msg 170 177 off;
#X connect 0 0 4 0;
#X connect 2 0 0 0;
#X connect 3 0 4 0;
#X connect 4 0 1 0;
#X restore 108 630 pd m;
#N canvas 1 87 830 535 m 0;
#X msg 170 157 set \$1;
#X obj 170 197 outlet;
#X obj 170 139 inlet;
#X obj 222 162 r init_\$1_\$2_\$3;
#X msg 170 177 0;
#X connect 0 0 4 0;
#X connect 2 0 0 0;
#X connect 3 0 4 0;
#X connect 4 0 1 0;
#X restore 41 648 pd m;
#X obj 138 630 symbol;
#X obj 41 630 TETRA_dest;
#X symbolatom 315 650 20 0 0 0 - - -;
#N canvas 1 87 830 535 m 0;
#X msg 170 157 set \$1;
#X obj 170 197 outlet;
#X obj 170 139 inlet;
#X obj 222 162 r init_\$1_\$2_\$3;
#X msg 170 177 off;
#X connect 0 0 4 0;
#X connect 2 0 0 0;
#X connect 3 0 4 0;
#X connect 4 0 1 0;
#X restore 348 630 pd m;
#N canvas 1 87 830 535 m 0;
#X msg 170 157 set \$1;
#X obj 170 197 outlet;
#X obj 170 139 inlet;
#X obj 222 162 r init_\$1_\$2_\$3;
#X msg 170 177 0;
#X connect 0 0 4 0;
#X connect 2 0 0 0;
#X connect 3 0 4 0;
#X connect 4 0 1 0;
#X restore 281 648 pd m;
#X obj 378 630 symbol;
#X obj 281 630 TETRA_dest;
#X symbolatom 555 650 20 0 0 0 - - -;
#N canvas 1 87 830 535 m 0;
#X msg 170 157 set \$1;
#X obj 170 197 outlet;
#X obj 170 139 inlet;
#X obj 222 162 r init_\$1_\$2_\$3;
#X msg 170 177 off;
#X connect 0 0 4 0;
#X connect 2 0 0 0;
#X connect 3 0 4 0;
#X connect 4 0 1 0;
#X restore 588 630 pd m;
#N canvas 1 87 830 535 m 0;
#X msg 170 157 set \$1;
#X obj 170 197 outlet;
#X obj 170 139 inlet;
#X obj 222 162 r init_\$1_\$2_\$3;
#X msg 170 177 0;
#X connect 0 0 4 0;
#X connect 2 0 0 0;
#X connect 3 0 4 0;
#X connect 4 0 1 0;
#X restore 521 648 pd m;
#X obj 618 630 symbol;
#X obj 521 630 TETRA_dest;
#X symbolatom 795 650 20 0 0 0 - - -;
#N canvas 1 87 830 535 m 0;
#X msg 170 157 set \$1;
#X obj 170 197 outlet;
#X obj 170 139 inlet;
#X obj 222 162 r init_\$1_\$2_\$3;
#X msg 170 177 off;
#X connect 0 0 4 0;
#X connect 2 0 0 0;
#X connect 3 0 4 0;
#X connect 4 0 1 0;
#X restore 828 630 pd m;
#N canvas 1 87 830 535 m 0;
#X msg 170 157 set \$1;
#X obj 170 197 outlet;
#X obj 170 139 inlet;
#X obj 222 162 r init_\$1_\$2_\$3;
#X msg 170 177 0;
#X connect 0 0 4 0;
#X connect 2 0 0 0;
#X connect 3 0 4 0;
#X connect 4 0 1 0;
#X restore 761 648 pd m;
#X obj 858 630 symbol;
#X obj 761 630 TETRA_dest;
#N canvas 1 87 830 535 m 0;
#X msg 170 157 set \$1;
#X obj 170 197 outlet;
#X obj 170 139 inlet;
#X obj 222 162 r init_\$1_\$2_\$3;
#X msg 170 177 0;
#X connect 0 0 4 0;
#X connect 2 0 0 0;
#X connect 3 0 4 0;
#X connect 4 0 1 0;
#X restore 151 593 pd m;
#N canvas 1 87 830 535 m 0;
#X msg 170 157 set \$1;
#X obj 170 197 outlet;
#X obj 170 139 inlet;
#X obj 222 162 r init_\$1_\$2_\$3;
#X msg 170 177 0;
#X connect 0 0 4 0;
#X connect 2 0 0 0;
#X connect 3 0 4 0;
#X connect 4 0 1 0;
#X restore 391 593 pd m;
#N canvas 1 87 830 535 m 0;
#X msg 170 157 set \$1;
#X obj 170 197 outlet;
#X obj 170 139 inlet;
#X obj 222 162 r init_\$1_\$2_\$3;
#X msg 170 177 0;
#X connect 0 0 4 0;
#X connect 2 0 0 0;
#X connect 3 0 4 0;
#X connect 4 0 1 0;
#X restore 631 593 pd m;
#N canvas 1 87 830 535 m 0;
#X msg 170 157 set \$1;
#X obj 170 197 outlet;
#X obj 170 139 inlet;
#X obj 222 162 r init_\$1_\$2_\$3;
#X msg 170 177 0;
#X connect 0 0 4 0;
#X connect 2 0 0 0;
#X connect 3 0 4 0;
#X connect 4 0 1 0;
#X restore 871 593 pd m;
#X obj 74 693 hsl 128 15 0 127 0 0 TETRA_\$1_\$2_LFO_1_AMT empty LFO_1_AMT
-2 -8 0 10 -262144 -1 -1 0 1;
#X obj 314 693 hsl 128 15 0 127 0 0 TETRA_\$1_\$2_LFO_2_AMT empty LFO_2_AMT
-2 -8 0 10 -262144 -1 -1 0 1;
#X obj 554 693 hsl 128 15 0 127 0 0 TETRA_\$1_\$2_LFO_3_AMT empty LFO_3_AMT
-2 -8 0 10 -262144 -1 -1 0 1;
#X obj 794 693 hsl 128 15 0 127 0 0 TETRA_\$1_\$2_LFO_4_AMT empty LFO_4_AMT
-2 -8 0 10 -262144 -1 -1 0 1;
#N canvas 1 87 830 535 m 0;
#X msg 170 157 set \$1;
#X obj 170 197 outlet;
#X obj 170 139 inlet;
#X obj 222 162 r init_\$1_\$2_\$3;
#X msg 170 177 0;
#X connect 0 0 4 0;
#X connect 2 0 0 0;
#X connect 3 0 4 0;
#X connect 4 0 1 0;
#X restore 41 693 pd m;
#N canvas 1 87 830 535 m 0;
#X msg 170 157 set \$1;
#X obj 170 197 outlet;
#X obj 170 139 inlet;
#X obj 222 162 r init_\$1_\$2_\$3;
#X msg 170 177 0;
#X connect 0 0 4 0;
#X connect 2 0 0 0;
#X connect 3 0 4 0;
#X connect 4 0 1 0;
#X restore 281 693 pd m;
#N canvas 1 87 830 535 m 0;
#X msg 170 157 set \$1;
#X obj 170 197 outlet;
#X obj 170 139 inlet;
#X obj 222 162 r init_\$1_\$2_\$3;
#X msg 170 177 0;
#X connect 0 0 4 0;
#X connect 2 0 0 0;
#X connect 3 0 4 0;
#X connect 4 0 1 0;
#X restore 521 693 pd m;
#N canvas 1 87 830 535 m 0;
#X msg 170 157 set \$1;
#X obj 170 197 outlet;
#X obj 170 139 inlet;
#X obj 222 162 r init_\$1_\$2_\$3;
#X msg 170 177 0;
#X connect 0 0 4 0;
#X connect 2 0 0 0;
#X connect 3 0 4 0;
#X connect 4 0 1 0;
#X restore 761 693 pd m;
#N canvas 1 104 1438 780 m 0;
#X msg 170 157 set \$1;
#X obj 170 197 outlet;
#X obj 170 139 inlet;
#X msg 170 177 0;
#X obj 222 162 r init_\$1_\$2_\$3;
#X connect 0 0 3 0;
#X connect 2 0 0 0;
#X connect 3 0 1 0;
#X connect 4 0 3 0;
#X restore 210 218 pd m;
#N canvas 1 104 1438 780 m 0;
#X msg 170 157 set \$1;
#X obj 170 197 outlet;
#X obj 170 139 inlet;
#X msg 170 177 0;
#X obj 222 162 r init_\$1_\$2_\$3;
#X connect 0 0 3 0;
#X connect 2 0 0 0;
#X connect 3 0 1 0;
#X connect 4 0 3 0;
#X restore 54 252 pd m;
#N canvas 1 111 830 511 m 0;
#X msg 170 157 set \$1;
#X obj 170 197 outlet;
#X obj 170 139 inlet;
#X obj 222 162 r init_\$1_\$2_\$3;
#X msg 170 177 64;
#X connect 0 0 4 0;
#X connect 2 0 0 0;
#X connect 3 0 4 0;
#X connect 4 0 1 0;
#X restore 35 218 pd m;
#N canvas 1 104 1438 780 m 0;
#X msg 170 157 set \$1;
#X obj 170 197 outlet;
#X obj 170 139 inlet;
#X msg 170 177 0;
#X obj 222 162 r init_\$1_\$2_\$3;
#X connect 0 0 3 0;
#X connect 2 0 0 0;
#X connect 3 0 1 0;
#X connect 4 0 3 0;
#X restore 54 289 pd m;
#X obj 241 330 hradio 15 1 0 6 TETRA_\$1_\$2_OSC_SLOP empty OSC_SLOP
0 -8 0 10 -262144 -1 -1 0;
#N canvas 1 104 1438 780 m 0;
#X msg 170 157 set \$1;
#X obj 170 197 outlet;
#X obj 170 139 inlet;
#X msg 170 177 0;
#X obj 222 162 r init_\$1_\$2_\$3;
#X connect 0 0 3 0;
#X connect 2 0 0 0;
#X connect 3 0 1 0;
#X connect 4 0 3 0;
#X restore 210 330 pd m;
#X obj 244 264 hsl 128 15 0 127 0 0 TETRA_\$1_\$2_FEEDBACK_GAIN empty
FEEDBACK_GAIN -2 -8 0 10 -262144 -1 -1 0 1;
#X obj 244 294 hsl 128 15 0 127 0 0 TETRA_\$1_\$2_FEEDBACK_VOL empty
FEEDBACK_VOL -2 -8 0 10 -262144 -1 -1 0 1;
#N canvas 0 86 415 538 m 0;
#X msg 170 157 set \$1;
#X obj 170 197 outlet;
#X obj 170 139 inlet;
#X msg 170 177 0;
#X obj 222 162 r init_\$1_\$2_\$3;
#X connect 0 0 3 0;
#X connect 2 0 0 0;
#X connect 3 0 1 0;
#X connect 4 0 3 0;
#X restore 210 264 pd m;
#N canvas 1 104 1438 780 m 0;
#X msg 170 157 set \$1;
#X obj 170 197 outlet;
#X obj 170 139 inlet;
#X msg 170 177 0;
#X obj 222 162 r init_\$1_\$2_\$3;
#X connect 0 0 3 0;
#X connect 2 0 0 0;
#X connect 3 0 1 0;
#X connect 4 0 3 0;
#X restore 210 294 pd m;
#N canvas 1 104 1438 780 m 0;
#X msg 170 157 set \$1;
#X obj 170 197 outlet;
#X obj 170 139 inlet;
#X msg 170 177 1;
#X obj 222 162 r init_\$1_\$2_\$3;
#X connect 0 0 3 0;
#X connect 2 0 0 0;
#X connect 3 0 1 0;
#X connect 4 0 3 0;
#X restore 548 172 pd m;
#N canvas 1 104 1438 780 m 0;
#X msg 170 157 set \$1;
#X obj 170 197 outlet;
#X obj 170 139 inlet;
#X msg 170 177 1;
#X obj 222 162 r init_\$1_\$2_\$3;
#X connect 0 0 3 0;
#X connect 2 0 0 0;
#X connect 3 0 1 0;
#X connect 4 0 3 0;
#X restore 198 173 pd m;
#N canvas 1 104 1438 780 m 0;
#X msg 170 157 set \$1;
#X obj 170 197 outlet;
#X obj 170 139 inlet;
#X msg 170 177 0;
#X obj 222 162 r init_\$1_\$2_\$3;
#X connect 0 0 3 0;
#X connect 2 0 0 0;
#X connect 3 0 1 0;
#X connect 4 0 3 0;
#X restore 548 122 pd m;
#N canvas 1 104 1438 780 m 0;
#X msg 170 157 set \$1;
#X obj 170 197 outlet;
#X obj 170 139 inlet;
#X msg 170 177 0;
#X obj 222 162 r init_\$1_\$2_\$3;
#X connect 0 0 3 0;
#X connect 2 0 0 0;
#X connect 3 0 1 0;
#X connect 4 0 3 0;
#X restore 198 122 pd m;
#X obj 582 153 hsl 128 15 0 127 0 0 TETRA_\$1_\$2_GLIDE_2 empty GLIDE_2
-2 -8 0 10 -262144 -1 -1 0 1;
#X obj 233 153 hsl 128 15 0 127 0 0 TETRA_\$1_\$2_GLIDE_1 empty GLIDE_1
-2 -8 0 10 -262144 -1 -1 0 1;
#N canvas 1 104 1438 780 m 0;
#X msg 170 157 set \$1;
#X obj 170 197 outlet;
#X obj 170 139 inlet;
#X msg 170 177 0;
#X obj 222 162 r init_\$1_\$2_\$3;
#X connect 0 0 3 0;
#X connect 2 0 0 0;
#X connect 3 0 1 0;
#X connect 4 0 3 0;
#X restore 198 153 pd m;
#N canvas 1 104 1438 780 m 0;
#X msg 170 157 set \$1;
#X obj 170 197 outlet;
#X obj 170 139 inlet;
#X msg 170 177 0;
#X obj 222 162 r init_\$1_\$2_\$3;
#X connect 0 0 3 0;
#X connect 2 0 0 0;
#X connect 3 0 1 0;
#X connect 4 0 3 0;
#X restore 548 153 pd m;
#X obj 582 12 hsl 102 15 0 101 0 0 TETRA_\$1_\$2_OSC_2_FREQ_FINE empty
OSC_2_FREQ_FINE -2 -8 0 10 -262144 -1 -1 5000 1;
#N canvas 1 111 830 511 m 0;
#X msg 170 157 set \$1;
#X obj 170 197 outlet;
#X obj 170 139 inlet;
#X obj 222 162 r init_\$1_\$2_\$3;
#X msg 170 177 50;
#X connect 0 0 4 0;
#X connect 2 0 0 0;
#X connect 3 0 4 0;
#X connect 4 0 1 0;
#X restore 548 12 pd m;
#X obj 232 12 hsl 102 15 0 101 0 0 TETRA_\$1_\$2_OSC_1_FREQ_FINE empty
OSC_1_FREQ_FINE -2 -8 0 10 -262144 -1 -1 5000 1;
#N canvas 1 111 830 511 m 0;
#X msg 170 157 set \$1;
#X obj 170 197 outlet;
#X obj 170 139 inlet;
#X obj 222 162 r init_\$1_\$2_\$3;
#X msg 170 177 50;
#X connect 0 0 4 0;
#X connect 2 0 0 0;
#X connect 3 0 4 0;
#X connect 4 0 1 0;
#X restore 198 12 pd m;
#X obj 582 -31 hsl 122 15 0 121 0 0 TETRA_\$1_\$2_OSC_2_FREQ empty
OSC_2_FREQ -2 -8 0 10 -262144 -1 -1 3600 1;
#N canvas 1 87 1022 511 m 0;
#X msg 170 157 set \$1;
#X obj 170 197 outlet;
#X obj 170 139 inlet;
#X msg 170 177 36;
#X obj 222 162 r init_\$1_\$2_\$3;
#X connect 0 0 3 0;
#X connect 2 0 0 0;
#X connect 3 0 1 0;
#X connect 4 0 3 0;
#X restore 548 -31 pd m;
#X obj 232 -31 hsl 122 15 0 121 0 0 TETRA_\$1_\$2_OSC_1_FREQ empty
OSC_1_FREQ -2 -8 0 10 -262144 -1 -1 3600 1;
#N canvas 1 104 1438 780 m 0;
#X msg 170 157 set \$1;
#X obj 170 197 outlet;
#X obj 170 139 inlet;
#X msg 170 177 36;
#X obj 222 162 r init_\$1_\$2_\$3;
#X connect 0 0 3 0;
#X connect 2 0 0 0;
#X connect 3 0 1 0;
#X connect 4 0 3 0;
#X restore 198 -31 pd m;
#X floatatom 229 -16 5 0 0 0 - - -;
#X floatatom 579 -16 5 0 0 0 - - -;
#X floatatom 229 27 5 0 0 0 - - -;
#X floatatom 579 27 5 0 0 0 - - -;
#X obj 521 729 TETRA_src;
#X symbolatom 127 546 20 0 0 0 - - -;
#N canvas 415 87 415 535 m 0;
#X msg 170 157 set \$1;
#X obj 170 197 outlet;
#X obj 170 139 inlet;
#X obj 222 162 r init_\$1_\$2_\$3;
#X msg 170 177 No_sync;
#X connect 0 0 4 0;
#X connect 2 0 0 0;
#X connect 3 0 4 0;
#X connect 4 0 1 0;
#X restore 66 544 pd m;
#X obj 36 525 symbol;
#N canvas 1 87 830 535 m 0;
#X msg 170 157 set \$1;
#X obj 170 197 outlet;
#X obj 170 139 inlet;
#X obj 222 162 r init_\$1_\$2_\$3;
#X msg 170 177 0;
#X connect 0 0 4 0;
#X connect 2 0 0 0;
#X connect 3 0 4 0;
#X connect 4 0 1 0;
#X restore 35 544 pd m;
#X obj 41 729 TETRA_src;
#X obj 281 729 TETRA_src;
#X obj 761 729 TETRA_src;
#X obj 105 526 TETRA_syncFreq;
#X obj 107 507 hsl 151 15 0 150 0 0 empty empty empty -2 -8 0 10 -262144
-1 -1 0 1;
#X msg 36 508 No_sync;
#X floatatom 105 564 5 0 166 1 LFO_1_FREQ - TETRA_#1_#2_LFO_1_FREQ
;
#X obj 35 562 moses 151;
#X symbolatom 367 546 20 0 0 0 - - -;
#N canvas 415 87 415 535 m 0;
#X msg 170 157 set \$1;
#X obj 170 197 outlet;
#X obj 170 139 inlet;
#X obj 222 162 r init_\$1_\$2_\$3;
#X msg 170 177 No_sync;
#X connect 0 0 4 0;
#X connect 2 0 0 0;
#X connect 3 0 4 0;
#X connect 4 0 1 0;
#X restore 306 544 pd m;
#X obj 276 525 symbol;
#N canvas 1 87 830 535 m 0;
#X msg 170 157 set \$1;
#X obj 170 197 outlet;
#X obj 170 139 inlet;
#X obj 222 162 r init_\$1_\$2_\$3;
#X msg 170 177 0;
#X connect 0 0 4 0;
#X connect 2 0 0 0;
#X connect 3 0 4 0;
#X connect 4 0 1 0;
#X restore 275 544 pd m;
#X obj 345 526 TETRA_syncFreq;
#X obj 347 507 hsl 151 15 0 150 0 0 empty empty empty -2 -8 0 10 -262144
-1 -1 0 1;
#X msg 276 508 No_sync;
#X floatatom 345 564 5 0 166 1 LFO_2_FREQ - TETRA_#1_#2_LFO_2_FREQ
;
#X obj 275 562 moses 151;
#X symbolatom 607 546 20 0 0 0 - - -;
#N canvas 415 87 415 535 m 0;
#X msg 170 157 set \$1;
#X obj 170 197 outlet;
#X obj 170 139 inlet;
#X obj 222 162 r init_\$1_\$2_\$3;
#X msg 170 177 No_sync;
#X connect 0 0 4 0;
#X connect 2 0 0 0;
#X connect 3 0 4 0;
#X connect 4 0 1 0;
#X restore 546 544 pd m;
#X obj 516 525 symbol;
#N canvas 1 87 830 535 m 0;
#X msg 170 157 set \$1;
#X obj 170 197 outlet;
#X obj 170 139 inlet;
#X obj 222 162 r init_\$1_\$2_\$3;
#X msg 170 177 0;
#X connect 0 0 4 0;
#X connect 2 0 0 0;
#X connect 3 0 4 0;
#X connect 4 0 1 0;
#X restore 515 544 pd m;
#X obj 585 526 TETRA_syncFreq;
#X obj 587 507 hsl 151 15 0 150 0 0 empty empty empty -2 -8 0 10 -262144
-1 -1 0 1;
#X msg 516 508 No_sync;
#X floatatom 585 564 5 0 166 1 LFO_3_FREQ - TETRA_#1_#2_LFO_3_FREQ
;
#X obj 515 562 moses 151;
#X symbolatom 847 546 20 0 0 0 - - -;
#N canvas 415 87 415 535 m 0;
#X msg 170 157 set \$1;
#X obj 170 197 outlet;
#X obj 170 139 inlet;
#X obj 222 162 r init_\$1_\$2_\$3;
#X msg 170 177 No_sync;
#X connect 0 0 4 0;
#X connect 2 0 0 0;
#X connect 3 0 4 0;
#X connect 4 0 1 0;
#X restore 786 544 pd m;
#X obj 756 525 symbol;
#N canvas 1 87 830 535 m 0;
#X msg 170 157 set \$1;
#X obj 170 197 outlet;
#X obj 170 139 inlet;
#X obj 222 162 r init_\$1_\$2_\$3;
#X msg 170 177 0;
#X connect 0 0 4 0;
#X connect 2 0 0 0;
#X connect 3 0 4 0;
#X connect 4 0 1 0;
#X restore 755 544 pd m;
#X obj 825 526 TETRA_syncFreq;
#X obj 827 507 hsl 151 15 0 150 0 0 empty empty empty -2 -8 0 10 -262144
-1 -1 0 1;
#X msg 756 508 No_sync;
#X floatatom 825 564 5 0 166 1 LFO_4_FREQ - TETRA_#1_#2_LFO_4_FREQ
;
#X obj 755 562 moses 151;
#X obj 92 75 unpack f s;
#X msg 92 -41 0 Off;
#X msg 92 -21 1 Saw;
#X msg 92 -1 2 Triangle;
#X msg 92 19 3 Saw/Triangle;
#X msg 92 39 54 Square;
#X symbolatom 114 97 14 0 0 0 - - -;
#N canvas 415 87 415 535 m 0;
#X msg 170 157 set \$1;
#X obj 170 197 outlet;
#X obj 170 139 inlet;
#X obj 222 162 r init_\$1_\$2_\$3;
#X msg 170 177 Saw;
#X connect 0 0 4 0;
#X connect 2 0 0 0;
#X connect 3 0 4 0;
#X connect 4 0 1 0;
#X restore 61 75 pd m;
#X obj 30 56 symbol;
#N canvas 1 87 830 535 m 0;
#X msg 170 157 set \$1;
#X obj 170 197 outlet;
#X obj 170 139 inlet;
#X obj 222 162 r init_\$1_\$2_\$3;
#X msg 170 177 1;
#X connect 0 0 4 0;
#X connect 2 0 0 0;
#X connect 3 0 4 0;
#X connect 4 0 1 0;
#X restore 30 75 pd m;
#X obj 95 57 hsl 100 15 4 103 0 0 empty empty empty -2 -8 0 10 -262144
-1 -1 0 1;
#X floatatom 93 114 5 0 166 1 OSC_1_SHAPE - TETRA_#1_#2_OSC_1_SHAPE
;
#X msg 30 39 Pulse;
#X obj 31 93 moses 4;
#X obj 31 111 sel 54;
#X obj 442 75 unpack f s;
#X msg 442 -41 0 Off;
#X msg 442 -21 1 Saw;
#X msg 442 -1 2 Triangle;
#X msg 442 19 3 Saw/Triangle;
#X msg 442 39 54 Square;
#X symbolatom 464 97 14 0 0 0 - - -;
#N canvas 415 87 415 535 m 0;
#X msg 170 157 set \$1;
#X obj 170 197 outlet;
#X obj 170 139 inlet;
#X obj 222 162 r init_\$1_\$2_\$3;
#X msg 170 177 Saw;
#X connect 0 0 4 0;
#X connect 2 0 0 0;
#X connect 3 0 4 0;
#X connect 4 0 1 0;
#X restore 411 75 pd m;
#X obj 380 56 symbol;
#N canvas 1 87 830 535 m 0;
#X msg 170 157 set \$1;
#X obj 170 197 outlet;
#X obj 170 139 inlet;
#X obj 222 162 r init_\$1_\$2_\$3;
#X msg 170 177 1;
#X connect 0 0 4 0;
#X connect 2 0 0 0;
#X connect 3 0 4 0;
#X connect 4 0 1 0;
#X restore 380 75 pd m;
#X obj 445 57 hsl 100 15 4 103 0 0 empty empty empty -2 -8 0 10 -262144
-1 -1 0 1;
#X floatatom 443 114 5 0 166 1 OSC_2_SHAPE - TETRA_#1_#2_OSC_2_SHAPE
;
#X msg 380 39 Pulse;
#X obj 381 93 moses 4;
#X obj 381 111 sel 54;
#X obj 530 1306 table \$1_\$2_SEQ_2_TABLE;
#X obj 796 -11 s init_A_1_allZero;
#X connect 1 0 163 0;
#X connect 2 0 164 0;
#X connect 4 0 165 0;
#X connect 8 0 357 0;
#X connect 9 0 358 0;
#X connect 10 0 360 0;
#X connect 11 0 359 0;
#X connect 13 0 350 0;
#X connect 14 0 348 0;
#X connect 16 0 349 0;
#X connect 17 0 347 0;
#X connect 19 0 123 0;
#X connect 20 0 124 0;
#X connect 21 0 125 0;
#X connect 24 0 142 0;
#X connect 33 0 313 0;
#X connect 34 0 312 0;
#X connect 35 0 311 0;
#X connect 36 0 314 0;
#X connect 37 0 335 0;
#X connect 39 0 336 0;
#X connect 41 0 337 0;
#X connect 43 0 338 0;
#X connect 46 0 214 0;
#X connect 62 0 194 0;
#X connect 65 0 179 0;
#X connect 66 0 189 0;
#X connect 67 0 190 0;
#X connect 68 0 178 0;
#X connect 69 0 177 0;
#X connect 73 0 232 0;
#X connect 74 0 231 0;
#X connect 75 0 233 0;
#X connect 85 0 104 1;
#X connect 86 0 116 0;
#X connect 87 0 71 0;
#X connect 87 0 236 0;
#X connect 87 1 78 0;
#X connect 87 1 234 0;
#X connect 88 0 258 0;
#X connect 88 0 72 0;
#X connect 88 1 76 0;
#X connect 88 1 256 0;
#X connect 89 0 193 0;
#X connect 92 0 107 1;
#X connect 93 0 117 0;
#X connect 94 0 105 1;
#X connect 95 0 115 0;
#X connect 96 0 106 1;
#X connect 97 0 118 0;
#X connect 104 0 91 0;
#X connect 104 1 84 0;
#X connect 105 0 98 0;
#X connect 105 1 99 0;
#X connect 106 0 101 0;
#X connect 106 1 100 0;
#X connect 107 0 102 0;
#X connect 107 1 103 0;
#X connect 115 0 105 0;
#X connect 116 0 104 0;
#X connect 117 0 107 0;
#X connect 118 0 106 0;
#X connect 123 0 19 0;
#X connect 124 0 20 0;
#X connect 125 0 21 0;
#X connect 126 0 140 0;
#X connect 127 0 141 0;
#X connect 128 0 135 0;
#X connect 129 0 136 0;
#X connect 130 0 137 0;
#X connect 131 0 138 0;
#X connect 132 0 139 0;
#X connect 133 0 143 0;
#X connect 134 0 144 0;
#X connect 135 0 128 0;
#X connect 136 0 129 0;
#X connect 137 0 130 0;
#X connect 138 0 131 0;
#X connect 139 0 132 0;
#X connect 140 0 126 0;
#X connect 141 0 127 0;
#X connect 142 0 24 0;
#X connect 143 0 133 0;
#X connect 144 0 134 0;
#X connect 145 0 146 0;
#X connect 146 0 145 0;
#X connect 147 0 152 0;
#X connect 148 0 153 0;
#X connect 149 0 154 0;
#X connect 150 0 155 0;
#X connect 151 0 156 0;
#X connect 152 0 147 0;
#X connect 153 0 148 0;
#X connect 154 0 149 0;
#X connect 155 0 150 0;
#X connect 156 0 151 0;
#X connect 157 0 158 0;
#X connect 158 0 157 0;
#X connect 159 0 160 0;
#X connect 160 0 159 0;
#X connect 161 0 162 0;
#X connect 162 0 161 0;
#X connect 163 0 1 0;
#X connect 164 0 2 0;
#X connect 165 0 4 0;
#X connect 166 0 170 0;
#X connect 167 0 239 0;
#X connect 168 0 169 0;
#X connect 169 0 63 0;
#X connect 170 0 64 0;
#X connect 171 0 238 0;
#X connect 172 0 448 0;
#X connect 174 0 175 0;
#X connect 175 0 173 0;
#X connect 176 0 237 0;
#X connect 177 0 69 0;
#X connect 178 0 68 0;
#X connect 179 0 65 0;
#X connect 181 0 184 0;
#X connect 181 0 241 0;
#X connect 181 1 180 0;
#X connect 181 1 182 0;
#X connect 182 0 183 0;
#X connect 183 0 180 0;
#X connect 184 0 241 0;
#X connect 186 0 187 0;
#X connect 187 0 185 0;
#X connect 188 0 240 0;
#X connect 189 0 66 0;
#X connect 190 0 67 0;
#X connect 191 0 192 0;
#X connect 192 0 191 0;
#X connect 193 0 89 0;
#X connect 194 0 62 0;
#X connect 196 0 197 0;
#X connect 197 0 195 0;
#X connect 198 0 242 0;
#X connect 199 0 204 0;
#X connect 200 0 205 0;
#X connect 201 0 206 0;
#X connect 202 0 207 0;
#X connect 203 0 208 0;
#X connect 204 0 199 0;
#X connect 205 0 200 0;
#X connect 206 0 201 0;
#X connect 207 0 202 0;
#X connect 208 0 203 0;
#X connect 209 0 210 0;
#X connect 210 0 209 0;
#X connect 212 0 213 0;
#X connect 213 0 212 0;
#X connect 214 0 46 0;
#X connect 216 0 217 0;
#X connect 217 0 215 0;
#X connect 218 0 246 0;
#X connect 220 0 221 0;
#X connect 221 0 219 0;
#X connect 222 0 245 0;
#X connect 224 0 225 0;
#X connect 225 0 223 0;
#X connect 226 0 244 0;
#X connect 228 0 229 0;
#X connect 229 0 227 0;
#X connect 230 0 243 0;
#X connect 231 0 74 0;
#X connect 232 0 73 0;
#X connect 233 0 75 0;
#X connect 234 0 235 0;
#X connect 235 0 78 0;
#X connect 236 0 71 0;
#X connect 247 0 167 0;
#X connect 247 0 239 0;
#X connect 247 1 64 0;
#X connect 247 1 166 0;
#X connect 248 0 171 0;
#X connect 248 0 238 0;
#X connect 248 1 63 0;
#X connect 248 1 168 0;
#X connect 249 0 176 0;
#X connect 249 0 237 0;
#X connect 249 1 173 0;
#X connect 249 1 174 0;
#X connect 250 0 188 0;
#X connect 250 0 240 0;
#X connect 250 1 185 0;
#X connect 250 1 186 0;
#X connect 251 0 198 0;
#X connect 251 0 242 0;
#X connect 251 1 195 0;
#X connect 251 1 196 0;
#X connect 252 0 218 0;
#X connect 252 0 246 0;
#X connect 252 1 215 0;
#X connect 252 1 216 0;
#X connect 253 0 222 0;
#X connect 253 0 245 0;
#X connect 253 1 219 0;
#X connect 253 1 220 0;
#X connect 254 0 226 0;
#X connect 254 0 244 0;
#X connect 254 1 223 0;
#X connect 254 1 224 0;
#X connect 255 0 230 0;
#X connect 255 0 243 0;
#X connect 255 1 227 0;
#X connect 255 1 228 0;
#X connect 256 0 257 0;
#X connect 257 0 76 0;
#X connect 258 0 72 0;
#X connect 259 0 260 0;
#X connect 259 0 261 0;
#X connect 261 0 259 0;
#X connect 262 0 263 0;
#X connect 263 0 262 0;
#X connect 264 0 266 0;
#X connect 265 0 267 0;
#X connect 266 0 264 0;
#X connect 267 0 265 0;
#X connect 269 0 271 0;
#X connect 270 0 56 0;
#X connect 271 0 268 0;
#X connect 272 0 270 0;
#X connect 272 0 56 0;
#X connect 272 1 268 0;
#X connect 272 1 269 0;
#X connect 274 0 276 0;
#X connect 275 0 58 0;
#X connect 276 0 273 0;
#X connect 277 0 275 0;
#X connect 277 0 58 0;
#X connect 277 1 273 0;
#X connect 277 1 274 0;
#X connect 279 0 281 0;
#X connect 280 0 54 0;
#X connect 281 0 278 0;
#X connect 282 0 280 0;
#X connect 282 0 54 0;
#X connect 282 1 278 0;
#X connect 282 1 279 0;
#X connect 284 0 286 0;
#X connect 285 0 52 0;
#X connect 286 0 283 0;
#X connect 287 0 285 0;
#X connect 287 0 52 0;
#X connect 287 1 283 0;
#X connect 287 1 284 0;
#X connect 288 0 289 0;
#X connect 289 0 288 0;
#X connect 290 0 291 0;
#X connect 291 0 290 0;
#X connect 292 0 293 0;
#X connect 293 0 292 0;
#X connect 294 0 295 0;
#X connect 295 0 294 0;
#X connect 296 0 297 0;
#X connect 297 0 59 0;
#X connect 298 0 51 0;
#X connect 300 0 301 0;
#X connect 301 0 299 0;
#X connect 302 0 53 0;
#X connect 304 0 305 0;
#X connect 305 0 303 0;
#X connect 306 0 55 0;
#X connect 308 0 309 0;
#X connect 309 0 307 0;
#X connect 310 0 57 0;
#X connect 311 0 35 0;
#X connect 312 0 34 0;
#X connect 313 0 33 0;
#X connect 314 0 36 0;
#X connect 316 0 318 0;
#X connect 317 0 29 0;
#X connect 318 0 315 0;
#X connect 319 0 317 0;
#X connect 319 0 29 0;
#X connect 319 1 315 0;
#X connect 319 1 316 0;
#X connect 321 0 323 0;
#X connect 322 0 30 0;
#X connect 323 0 320 0;
#X connect 324 0 322 0;
#X connect 324 0 30 0;
#X connect 324 1 320 0;
#X connect 324 1 321 0;
#X connect 326 0 328 0;
#X connect 327 0 31 0;
#X connect 328 0 325 0;
#X connect 329 0 327 0;
#X connect 329 0 31 0;
#X connect 329 1 325 0;
#X connect 329 1 326 0;
#X connect 331 0 333 0;
#X connect 332 0 32 0;
#X connect 333 0 330 0;
#X connect 334 0 332 0;
#X connect 334 0 32 0;
#X connect 334 1 330 0;
#X connect 334 1 331 0;
#X connect 335 0 37 0;
#X connect 336 0 39 0;
#X connect 337 0 41 0;
#X connect 338 0 43 0;
#X connect 339 0 343 0;
#X connect 340 0 344 0;
#X connect 341 0 345 0;
#X connect 342 0 346 0;
#X connect 343 0 339 0;
#X connect 344 0 340 0;
#X connect 345 0 341 0;
#X connect 346 0 342 0;
#X connect 347 0 17 0;
#X connect 348 0 14 0;
#X connect 349 0 16 0;
#X connect 350 0 13 0;
#X connect 351 0 352 0;
#X connect 352 0 351 0;
#X connect 353 0 355 0;
#X connect 354 0 356 0;
#X connect 355 0 353 0;
#X connect 356 0 354 0;
#X connect 357 0 8 0;
#X connect 358 0 9 0;
#X connect 359 0 11 0;
#X connect 360 0 10 0;
#X connect 361 0 364 0;
#X connect 362 0 363 0;
#X connect 363 0 362 0;
#X connect 364 0 361 0;
#X connect 365 0 366 0;
#X connect 365 0 376 0;
#X connect 366 0 365 0;
#X connect 367 0 368 0;
#X connect 367 0 375 0;
#X connect 368 0 367 0;
#X connect 369 0 370 0;
#X connect 369 0 374 0;
#X connect 370 0 369 0;
#X connect 371 0 372 0;
#X connect 371 0 373 0;
#X connect 372 0 371 0;
#X connect 377 0 306 0;
#X connect 377 0 55 0;
#X connect 377 1 303 0;
#X connect 377 1 304 0;
#X connect 379 0 380 0;
#X connect 380 0 378 0;
#X connect 380 0 379 0;
#X connect 381 0 389 0;
#X connect 382 0 51 0;
#X connect 382 0 298 0;
#X connect 382 1 59 0;
#X connect 382 1 296 0;
#X connect 383 0 302 0;
#X connect 383 0 53 0;
#X connect 383 1 299 0;
#X connect 383 1 300 0;
#X connect 384 0 310 0;
#X connect 384 0 57 0;
#X connect 384 1 307 0;
#X connect 384 1 308 0;
#X connect 385 0 381 0;
#X connect 385 0 388 0;
#X connect 385 1 378 0;
#X connect 385 1 379 0;
#X connect 386 0 381 0;
#X connect 386 0 387 0;
#X connect 386 0 388 0;
#X connect 387 0 380 0;
#X connect 389 0 386 0;
#X connect 389 1 388 0;
#X connect 391 0 392 0;
#X connect 392 0 390 0;
#X connect 392 0 391 0;
#X connect 393 0 398 0;
#X connect 394 0 393 0;
#X connect 394 0 397 0;
#X connect 394 1 390 0;
#X connect 394 1 391 0;
#X connect 395 0 393 0;
#X connect 395 0 396 0;
#X connect 395 0 397 0;
#X connect 396 0 392 0;
#X connect 398 0 395 0;
#X connect 398 1 397 0;
#X connect 400 0 401 0;
#X connect 401 0 399 0;
#X connect 401 0 400 0;
#X connect 402 0 407 0;
#X connect 403 0 402 0;
#X connect 403 0 406 0;
#X connect 403 1 399 0;
#X connect 403 1 400 0;
#X connect 404 0 402 0;
#X connect 404 0 405 0;
#X connect 404 0 406 0;
#X connect 405 0 401 0;
#X connect 407 0 404 0;
#X connect 407 1 406 0;
#X connect 409 0 410 0;
#X connect 410 0 408 0;
#X connect 410 0 409 0;
#X connect 411 0 416 0;
#X connect 412 0 411 0;
#X connect 412 0 415 0;
#X connect 412 1 408 0;
#X connect 412 1 409 0;
#X connect 413 0 411 0;
#X connect 413 0 414 0;
#X connect 413 0 415 0;
#X connect 414 0 410 0;
#X connect 416 0 413 0;
#X connect 416 1 415 0;
#X connect 417 0 426 0;
#X connect 417 0 428 0;
#X connect 417 1 424 0;
#X connect 417 1 423 0;
#X connect 418 0 417 0;
#X connect 419 0 417 0;
#X connect 420 0 417 0;
#X connect 421 0 417 0;
#X connect 422 0 417 0;
#X connect 424 0 425 0;
#X connect 425 0 423 0;
#X connect 425 0 424 0;
#X connect 426 0 430 0;
#X connect 427 0 426 0;
#X connect 427 0 429 0;
#X connect 427 0 428 0;
#X connect 429 0 425 0;
#X connect 430 0 428 0;
#X connect 430 1 431 0;
#X connect 431 0 422 0;
#X connect 431 1 427 0;
#X connect 432 0 441 0;
#X connect 432 0 443 0;
#X connect 432 1 439 0;
#X connect 432 1 438 0;
#X connect 433 0 432 0;
#X connect 434 0 432 0;
#X connect 435 0 432 0;
#X connect 436 0 432 0;
#X connect 437 0 432 0;
#X connect 439 0 440 0;
#X connect 440 0 438 0;
#X connect 440 0 439 0;
#X connect 441 0 445 0;
#X connect 442 0 441 0;
#X connect 442 0 444 0;
#X connect 442 0 443 0;
#X connect 444 0 440 0;
#X connect 445 0 443 0;
#X connect 445 1 446 0;
#X connect 446 0 437 0;
#X connect 446 1 442 0;
