#N canvas 1 104 633 465 10;
#X obj 101 115 cnv 15 178 304 empty empty empty 20 12 0 14 -257985
-66577 0;
#X floatatom -20 162 5 0 20 1 MOD_SOURCE_1 - TETRA_#1_#2_MOD_SOURCE_1
;
#X floatatom 215 84 5 0 48 1 MOD_DEST_1 - TETRA_#1_#2_MOD_DEST_1;
#X symbolatom 128 161 20 0 0 0 - - -;
#X symbolatom 128 291 20 0 0 0 - - -;
#X obj 128 221 hsl 128 15 0 255 0 0 TETRA_\$1_\$2_MOD_AMT_1 empty MOD_AMT_1
-2 -8 0 10 -262144 -1 -1 0 1;
#X obj -11 103 unpack f s;
#X obj 221 55 unpack f s;
#X text 127 144 MOD_SOURCE_1;
#X text 127 274 MOD_DEST_1;
#X obj -8 36 inlet;
#X obj 244 7 inlet;
#X obj 331 35 sssad TETRA_\$1_\$2_MOD_DEST_1;
#X obj 334 95 sssad TETRA_\$1_\$2_MOD_SOURCE_1;
#X obj 322 262 sssad TETRA_\$1_\$2_MOD_AMT_1;
#X connect 5 0 14 1;
#X connect 6 0 1 0;
#X connect 6 1 3 0;
#X connect 7 0 2 0;
#X connect 7 1 4 0;
#X connect 10 0 6 0;
#X connect 10 0 13 1;
#X connect 11 0 7 0;
#X connect 11 0 12 1;
#X connect 12 0 7 0;
#X connect 13 0 6 0;
#X connect 14 0 5 0;
#X coords 0 -1 1 1 180 320 1 100 100;
