#N canvas 1 104 633 465 10;
#X obj 101 115 cnv 15 178 304 empty empty empty 20 12 0 14 -257985
-66577 0;
#X obj 129 144 tgl 15 0 TETRA_\$1_\$2_ENV3_REPEAT empty ENV3_REPEAT
17 7 0 10 -262144 -1 -1 0 1;
#X symbolatom 129 119 20 0 0 0 - - -;
#X obj 129 270 hsl 128 15 0 127 0 0 TETRA_\$1_\$2_ENV3_DEL empty ENV3_DEL
-2 -8 0 10 -262144 -1 -1 0 1;
#X obj 129 300 hsl 128 15 0 127 0 0 TETRA_\$1_\$2_ENV3_ATT empty ENV3_ATT
-2 -8 0 10 -262144 -1 -1 0 1;
#X obj 129 330 hsl 128 15 0 127 0 0 TETRA_\$1_\$2_ENV3_DEC empty ENV3_DEC
-2 -8 0 10 -262144 -1 -1 0 1;
#X obj 129 360 hsl 128 15 0 127 0 0 TETRA_\$1_\$2_ENV3_SUS empty ENV3_SUS
-2 -8 0 10 -262144 -1 -1 0 1;
#X obj 129 390 hsl 128 15 0 127 0 0 TETRA_\$1_\$2_ENV3_REL empty ENV3_REL
-2 -8 0 10 -262144 -1 -1 0 1;
#X obj 129 190 hsl 128 15 0 255 0 0 TETRA_\$1_\$2_ENV3_AMT empty ENV3_AMT
-2 -8 0 10 -262144 -1 -1 6358 1;
#X obj 129 220 hsl 128 15 0 127 0 0 TETRA_\$1_\$2_ENV3_VEL_AMT empty
ENV3_VEL_AMT -2 -8 0 10 -262144 -1 -1 0 1;
#X floatatom 52 85 5 0 48 1 ENV3_DEST - TETRA_#1_#2_ENV3_DEST;
#X obj 52 58 unpack f s;
#X obj 55 6 inlet;
#X obj 286 171 sssad TETRA_\$1_\$2_ENV3_REPEAT;
#X obj 283 220 sssad TETRA_\$1_\$2_ENV3_AMT;
#X obj 286 250 sssad TETRA_\$1_\$2_ENV3_VEL_AMT;
#X obj 287 298 sssad TETRA_\$1_\$2_ENV3_DEL;
#X obj 287 332 sssad TETRA_\$1_\$2_ENV3_ATT;
#X obj 290 358 sssad TETRA_\$1_\$2_ENV3_DEC;
#X obj 288 388 sssad TETRA_\$1_\$2_ENV3_SUS;
#X obj 289 420 sssad TETRA_\$1_\$2_ENV3_REL;
#X obj 69 32 sssad TETRA_\$1_\$2_ENV3_DEST;
#X connect 1 0 13 1;
#X connect 3 0 16 1;
#X connect 4 0 17 1;
#X connect 5 0 18 1;
#X connect 6 0 19 1;
#X connect 7 0 20 1;
#X connect 8 0 14 1;
#X connect 9 0 15 1;
#X connect 11 0 10 0;
#X connect 11 1 2 0;
#X connect 12 0 11 0;
#X connect 12 0 21 1;
#X connect 13 0 1 0;
#X connect 14 0 8 0;
#X connect 15 0 9 0;
#X connect 16 0 3 0;
#X connect 17 0 4 0;
#X connect 18 0 5 0;
#X connect 19 0 6 0;
#X connect 20 0 7 0;
#X connect 21 0 11 0;
#X coords 0 -1 1 1 180 320 1 100 100;
