#N canvas 151 163 299 199 10;
#X obj 100 212 outlet;
#X obj 57 212 outlet;
#X obj -12 197 unpack f s;
#X msg -12 27 0 1/2;
#X msg -12 57 1 1/4;
#X msg -12 87 2 1/8;
#X msg -12 107 3 1/8_swing;
#X msg -12 127 4 1/8_shuffle;
#X msg -12 147 5 1/8_triplet;
#X obj 148 197 unpack f s;
#X msg 148 27 6 1/16;
#X msg 148 47 7 1/16_swing;
#X msg 148 67 8 1/16_shuffle;
#X msg 148 87 9 1/16_triplet;
#X msg 148 117 10 1/32;
#X msg 148 137 11 1/32_triplet;
#X msg 148 167 12 1/64_triplet;
#X obj -12 3 r zero_init;
#X connect 2 0 1 0;
#X connect 2 1 0 0;
#X connect 3 0 2 0;
#X connect 4 0 2 0;
#X connect 5 0 2 0;
#X connect 6 0 2 0;
#X connect 7 0 2 0;
#X connect 8 0 2 0;
#X connect 9 0 1 0;
#X connect 9 1 0 0;
#X connect 10 0 9 0;
#X connect 11 0 9 0;
#X connect 12 0 9 0;
#X connect 13 0 9 0;
#X connect 14 0 9 0;
#X connect 15 0 9 0;
#X connect 16 0 9 0;
#X connect 17 0 3 0;
