#N canvas 1 104 633 480 10;
#X obj 101 115 cnv 15 178 304 empty empty empty 20 12 0 14 -257985
-66577 0;
#X obj 433 352 s TETRA_\$1_\$2_SEQ_1;
#X obj 224 258 bng 15 250 50 0 empty empty WRITE 17 7 0 10 -262144
-1 -1;
#X obj 298 327 s TETRA_\$1_\$2_SEQ_1_STEP;
#X obj 298 303 TETRA_sequencer \$1_\$2 1;
#X text 104 366 0-63 pitch (0.5 resolution) \; 63 reset \; 63.5 rest
;
#X symbolatom 130 318 20 0 0 0 - - -;
#X floatatom 358 170 5 0 48 1 SEQ_1_DEST - TETRA_#1_#2_SEQ_1_DEST;
#X obj 343 121 unpack f s;
#X text 129 303 SEQ_1_DEST;
#X obj 247 32 inlet;
#X obj 343 58 inlet;
#N canvas 0 0 450 300 (subpatch) 0;
#X array \$1_\$2_SEQ_1_TABLE 16 float 1;
#A 0 0 0 0 0 0 0 0 0 0 0 0 0 0 0 0 0;
#X coords 0 127 15 0 160 120 1 0 0;
#X restore 110 131 graph;
#X obj 394 86 sssad TETRA_\$1_\$2_SEQ_1_DEST;
#X obj 93 67 sssad TETRA_\$1_\$2_SEQ_1;
#X connect 2 0 4 1;
#X connect 4 0 3 0;
#X connect 4 1 1 0;
#X connect 8 0 7 0;
#X connect 8 1 6 0;
#X connect 10 0 4 0;
#X connect 10 0 14 1;
#X connect 11 0 8 0;
#X connect 11 0 13 1;
#X connect 13 0 8 0;
#X connect 14 0 4 0;
#X coords 0 -1 1 1 180 320 1 100 100;
