#N canvas 1 104 633 465 10;
#X obj 101 115 cnv 15 178 304 empty empty empty 20 12 0 14 -257985
-66577 0;
#X obj 107 200 hsl 165 15 0 164 0 0 TETRA_\$1_\$2_FILTER_FREQ empty
FILTER_FREQ -2 -8 0 10 -262144 -1 -1 0 1;
#X obj 126 240 hsl 128 15 0 127 0 0 TETRA_\$1_\$2_RESONANCE empty RESONANCE
-2 -8 0 10 -262144 -1 -1 0 1;
#X obj 123 140 hradio 15 1 0 2 TETRA_\$1_\$2_FILTER_POLES empty FILTER_POLES
0 -8 0 10 -262144 -1 -1 0;
#X text 160 138 0 two \; 1 four;
#X obj 124 310 hsl 128 15 0 127 0 0 TETRA_\$1_\$2_FIL_KEY_AMT empty
FIL_KEY_AMT -2 -8 0 10 -262144 -1 -1 0 1;
#X obj 124 350 hsl 128 15 0 127 0 0 TETRA_\$1_\$2_FIL_AUDIO_MOD empty
FIL_AUDIO_MOD -2 -8 0 10 -262144 -1 -1 0 1;
#X obj 283 170 sssad TETRA_\$1_\$2_FILTER_POLES;
#X obj 289 229 sssad TETRA_\$1_\$2_FILTER_FREQ;
#X obj 289 267 sssad TETRA_\$1_\$2_RESONANCE;
#X obj 287 341 sssad TETRA_\$1_\$2_FIL_KEY_AMT;
#X obj 289 379 sssad TETRA_\$1_\$2_FIL_AUDIO_MOD;
#X connect 1 0 8 1;
#X connect 2 0 9 1;
#X connect 3 0 7 1;
#X connect 5 0 10 1;
#X connect 6 0 11 1;
#X connect 7 0 3 0;
#X connect 8 0 1 0;
#X connect 9 0 2 0;
#X connect 10 0 5 0;
#X connect 11 0 6 0;
#X coords 0 -1 1 1 180 320 1 100 100;
