#N canvas 1 104 633 465 10;
#X obj 101 115 cnv 15 178 134 empty empty empty 20 12 0 14 -257985
-66577 0;
#X obj 123 209 hsl 128 15 0 255 0 0 TETRA_\$1_\$2_MOD_WHEEL_AMT empty
MOD_WHEEL_AMT -2 -8 0 10 -262144 -1 -1 0 1;
#X symbolatom 126 156 20 0 0 0 - - -;
#X floatatom 24 166 5 0 48 1 MOD_WHEEL_DEST - TETRA_#1_#2_MOD_WHEEL_DEST
;
#X obj 24 130 unpack f s;
#X obj 74 39 inlet;
#X text 124 139 MOD_WHEEL_DEST;
#X obj 286 103 sssad TETRA_\$1_\$2_MOD_WHEEL_DEST;
#X obj 293 248 sssad TETRA_\$1_\$2_MOD_WHEEL_AMT;
#X connect 1 0 8 1;
#X connect 4 0 3 0;
#X connect 4 1 2 0;
#X connect 5 0 4 0;
#X connect 5 0 7 1;
#X connect 7 0 4 0;
#X connect 8 0 1 0;
#X coords 0 -1 1 1 180 150 1 100 100;
