#N canvas 1 94 1022 474 10;
#X obj 181 397 tgl 15 0 TETRA_\$1_\$2_OSC_2_KEY empty OSC_2_KEY 17
7 0 10 -262144 -1 -1 0 1;
#X obj 114 310 hsl 128 15 0 127 0 0 TETRA_\$1_\$2_SUB_OSC_2_VOL empty
SUB_OSC_2_VOL -2 -8 0 10 -262144 -1 -1 0 1;
#X obj 115 361 hsl 128 15 0 127 0 0 TETRA_\$1_\$2_GLIDE_2 empty GLIDE_2
-2 -8 0 10 -262144 -1 -1 0 1;
#X obj 114 260 hsl 102 15 0 101 0 0 TETRA_\$1_\$2_OSC_2_FREQ_FINE empty
OSC_2_FREQ_FINE -2 -8 0 10 -262144 -1 -1 0 1;
#X obj 114 217 hsl 122 15 0 121 0 0 TETRA_\$1_\$2_OSC_2_FREQ empty
OSC_2_FREQ -2 -8 0 10 -262144 -1 -1 0 1;
#X floatatom 111 232 5 0 0 0 - - -;
#X floatatom 111 275 5 0 0 0 - - -;
#X symbolatom 113 136 14 0 0 0 - - -;
#X obj 115 167 hsl 100 15 4 103 0 0 empty empty PULSE_WIDTH -2 -8 0
10 -262144 -1 -1 0 1;
#X floatatom -32 139 5 0 166 1 OSC_2_SHAPE - TETRA_#1_#2_OSC_2_SHAPE
;
#X text 113 119 OSC_2_SHAPE;
#X obj -36 97 unpack f s;
#X obj -65 33 inlet;
#X obj -5 33 list append Pulse;
#X obj -35 61 sssad TETRA_\$1_\$2_OSC_2_SHAPE TETRA_OSC_2_\$1_\$2;
#X obj 313 212 sssad TETRA_\$1_\$2_OSC_2_FREQ TETRA_OSC_2_\$1_\$2;
#X obj 308 256 sssad TETRA_\$1_\$2_OSC_2_FREQ_FINE TETRA_OSC_2_\$1_\$2
;
#X obj 304 299 sssad TETRA_\$1_\$2_SUB_OSC_2_VOL TETRA_OSC_2_\$1_\$2
;
#X obj 299 352 sssad TETRA_\$1_\$2_GLIDE_2 TETRA_OSC_2_\$1_\$2;
#X obj 307 392 sssad TETRA_\$1_\$2_OSC_2_KEY TETRA_OSC_2_\$1_\$2;
#X connect 0 0 19 0;
#X connect 1 0 17 0;
#X connect 2 0 18 0;
#X connect 3 0 6 0;
#X connect 3 0 16 0;
#X connect 4 0 5 0;
#X connect 4 0 15 0;
#X connect 8 0 13 0;
#X connect 11 0 9 0;
#X connect 11 1 7 0;
#X connect 12 0 11 0;
#X connect 12 0 14 0;
#X connect 13 0 11 0;
#X connect 13 0 14 0;
#X connect 14 0 11 0;
#X connect 15 0 4 0;
#X connect 16 0 3 0;
#X connect 17 0 1 0;
#X connect 18 0 2 0;
#X connect 19 0 0 0;
#X coords 0 -1 1 1 180 320 1 100 100;
