#N canvas 1 87 450 300 10;
#X obj 127 211 hsl 128 15 0 255 0 0 TETRA_\$1_\$2_BREATH_AMT empty
BREATH_AMT -2 -8 0 10 -262144 -1 -1 0 1;
#X symbolatom 127 169 20 0 0 0 - - -;
#N canvas 0 86 415 538 m 0;
#X msg 170 157 set \$1;
#X obj 170 197 outlet;
#X obj 170 139 inlet;
#X obj 222 162 r init_\$1_\$2_\$3;
#X msg 170 177 off;
#X connect 0 0 4 0;
#X connect 2 0 0 0;
#X connect 3 0 4 0;
#X connect 4 0 1 0;
#X restore 124 51 pd m;
#X obj 158 50 symbol;
#N canvas 0 86 415 538 m 0;
#X msg 170 157 set \$1;
#X obj 170 197 outlet;
#X obj 170 139 inlet;
#X obj 222 162 r init_\$1_\$2_\$3;
#X msg 170 177 0;
#X connect 0 0 4 0;
#X connect 2 0 0 0;
#X connect 3 0 4 0;
#X connect 4 0 1 0;
#X restore 57 69 pd m;
#N canvas 1 87 830 535 m 0;
#X msg 170 157 set \$1;
#X obj 170 197 outlet;
#X obj 170 139 inlet;
#X obj 222 162 r init_\$1_\$2_\$3;
#X msg 170 177 127.078;
#X connect 0 0 4 0;
#X connect 2 0 0 0;
#X connect 3 0 4 0;
#X connect 4 0 1 0;
#X restore 94 211 pd m;
#X floatatom 57 87 5 0 48 1 BREATH_DEST - TETRA_#1_#2_BREATH_DEST;
#X obj 57 51 unpack f s;
#X obj 57 -17 inlet;
#X text 126 150 BREATH_DEST;
#X connect 0 0 5 0;
#X connect 2 0 3 0;
#X connect 3 0 1 0;
#X connect 4 0 6 0;
#X connect 5 0 0 0;
#X connect 7 0 4 0;
#X connect 7 0 6 0;
#X connect 7 1 1 0;
#X connect 7 1 2 0;
#X connect 8 0 7 0;
#X coords 0 -1 1 1 180 150 1 100 100;
