#N canvas 1 95 670 339 10;
#X symbolatom 128 156 20 0 0 0 - - -;
#X obj 128 206 hsl 128 15 0 255 0 0 TETRA_\$1_\$2_VELOCITY_AMT empty
VELOCITY_AMT -2 -8 0 10 -262144 -1 -1 0 1;
#N canvas 1 87 830 535 m 0;
#X msg 170 157 set \$1;
#X obj 170 197 outlet;
#X obj 170 139 inlet;
#X obj 222 162 r init_\$1_\$2_\$3;
#X msg 170 177 off;
#X connect 0 0 4 0;
#X connect 2 0 0 0;
#X connect 3 0 4 0;
#X connect 4 0 1 0;
#X restore 19 177 pd m;
#N canvas 1 87 830 535 m 0;
#X msg 170 157 set \$1;
#X obj 170 197 outlet;
#X obj 170 139 inlet;
#X obj 222 162 r init_\$1_\$2_\$3;
#X msg 170 177 0;
#X connect 0 0 4 0;
#X connect 2 0 0 0;
#X connect 3 0 4 0;
#X connect 4 0 1 0;
#X restore 25 135 pd m;
#X obj 51 177 symbol;
#N canvas 1 87 830 535 m 0;
#X msg 170 157 set \$1;
#X obj 170 197 outlet;
#X obj 170 139 inlet;
#X obj 222 162 r init_\$1_\$2_\$3;
#X msg 170 177 127.299;
#X connect 0 0 4 0;
#X connect 2 0 0 0;
#X connect 3 0 4 0;
#X connect 4 0 1 0;
#X restore 95 206 pd m;
#X floatatom 25 153 5 0 48 1 VELOCITY_DEST - TETRA_#1_#2_VELOCITY_DEST
;
#X obj 25 117 unpack f s;
#X obj 67 44 inlet;
#X text 129 135 VELOCITY_DEST;
#X connect 1 0 5 0;
#X connect 2 0 4 0;
#X connect 3 0 6 0;
#X connect 4 0 0 0;
#X connect 5 0 1 0;
#X connect 7 0 3 0;
#X connect 7 0 6 0;
#X connect 7 1 0 0;
#X connect 7 1 2 0;
#X connect 8 0 7 0;
#X coords 0 -1 1 1 180 150 1 100 100;
