#N canvas 1 94 1022 474 10;
#X obj 224 258 bng 15 250 50 0 empty empty WRITE 17 7 0 10 -262144
-1 -1;
#X symbolatom 130 318 20 0 0 0 - - -;
#X floatatom 358 170 5 0 48 1 SEQ_4_DEST - TETRA_#1_#2_SEQ_4_DEST;
#X obj 343 98 unpack f s;
#X obj 246 60 inlet;
#X obj 343 57 inlet;
#X text 104 366 0-63 pitch (0.5 resolution) \; 63 reset \;;
#X text 129 303 SEQ_4_DEST;
#X obj 298 303 TETRA_sequencer \$1_\$2 4;
#X obj 298 332 s TETRA_\$1_\$2_SEQ_4_STEP;
#X obj 433 352 s TETRA_\$1_\$2_SEQ_4;
#N canvas 0 0 450 300 (subpatch) 0;
#X array \$1_#2_SEQ_4_TABLE 16 float 1;
#A 0 0 0 0 0 0 0 0 0 0 0 0 0 0 0 0 0;
#X coords 0 127 15 0 160 120 1 0 0;
#X restore 110 131 graph;
#X obj 393 78 sssad TETRA_\$1_\$2_SEQ_4_DEST TETRA_SEQ_1_\$1_\$2;
#X connect 0 0 8 1;
#X connect 3 0 2 0;
#X connect 3 1 1 0;
#X connect 4 0 8 0;
#X connect 5 0 3 0;
#X connect 5 0 12 0;
#X connect 8 0 9 0;
#X connect 8 1 10 0;
#X connect 12 0 3 0;
#X coords 0 -1 1 1 180 320 1 100 100;
