#N canvas 165 166 709 359 10;
#X obj 330 392 outlet;
#X msg 208 107 18 LFO_All_Freq;
#X msg 208 137 19 LFO_1_Amt;
#X msg 208 157 20 LFO_2_Amt;
#X msg 208 177 21 LFO_3_Amt;
#X msg 208 197 22 LFO_4_Amt;
#X msg 208 217 23 LFO_All_Amt;
#X msg 208 287 26 Env_3_Amt;
#X msg 208 307 27 Env_All_Amt;
#X msg 378 27 28 Env_1_Attack;
#X msg 378 47 29 Env_2_Attack;
#X msg 378 67 30 Env_3_Attack;
#X msg 378 87 31 Env_All_Attack;
#X msg 378 117 32 Env_1_Decay;
#X msg 378 137 33 Env_2_Decay;
#X msg 378 157 34 Env_3_Decay;
#X msg 378 177 35 Env_All_Decay;
#X msg 378 207 36 Env_1_Release;
#X msg 378 227 37 Env_2_Release;
#X msg 378 247 38 Env_3_Release;
#X msg 378 267 39 Env_All_Release;
#X msg 538 27 40 Mod_1_Amt;
#X msg 538 47 41 Mod_2_Amt;
#X msg 538 67 42 Mod_3_Amt;
#X msg 538 87 43 Mod_4_Amt;
#X msg 538 117 44 Feedback_Volume;
#X msg 538 137 45 Sub_Osc_1_Level;
#X msg 538 157 46 Sub_Osc_2_Level;
#X msg 538 177 47 Feedback_Gain;
#X msg 538 207 48 Slew;
#X msg 208 247 24 Env_1_Amt;
#X msg 208 267 25 Env_2_Amt;
#X text 221 327 env 1 = filter \; env 2 = amp \; env 3 = env 3;
#X obj 287 392 outlet;
#X msg -22 27 0 off;
#X msg -22 57 1 Osc_1_Freq;
#X msg -22 77 2 Osc_2_Freq;
#X msg -22 97 3 Osc_All_Freq;
#X msg -22 127 4 Osc_Mix;
#X msg -22 147 5 Noise_Level;
#X msg -22 177 6 Osc_1_Pulse_Width;
#X msg -22 197 7 Osc_2_Pulse_Width;
#X msg -22 217 8 Osc_All_Pulse_Width;
#X msg -22 247 9 Filter_Cutoff;
#X msg -22 267 10 Filter_Resonance;
#X msg -22 287 11 Filter_Audio_Mod_Amt;
#X msg -22 317 12 VCA_Level;
#X msg -22 337 13 Pan_Spread;
#X msg 208 27 14 LFO_1_Freq;
#X msg 208 47 15 LFO_2_Freq;
#X msg 208 67 16 LFO_3_Freq;
#X msg 208 87 17 LFO_4_Freq;
#X obj -22 377 unpack f s;
#X obj 208 377 unpack f s;
#X obj 378 377 unpack f s;
#X obj 538 377 unpack f s;
#X obj -22 6 r zero_init\$1;
#X connect 1 0 53 0;
#X connect 2 0 53 0;
#X connect 3 0 53 0;
#X connect 4 0 53 0;
#X connect 5 0 53 0;
#X connect 6 0 53 0;
#X connect 7 0 53 0;
#X connect 8 0 53 0;
#X connect 9 0 54 0;
#X connect 10 0 54 0;
#X connect 11 0 54 0;
#X connect 12 0 54 0;
#X connect 13 0 54 0;
#X connect 14 0 54 0;
#X connect 15 0 54 0;
#X connect 16 0 54 0;
#X connect 17 0 54 0;
#X connect 18 0 54 0;
#X connect 19 0 54 0;
#X connect 20 0 54 0;
#X connect 21 0 55 0;
#X connect 22 0 55 0;
#X connect 23 0 55 0;
#X connect 24 0 55 0;
#X connect 25 0 55 0;
#X connect 26 0 55 0;
#X connect 27 0 55 0;
#X connect 28 0 55 0;
#X connect 29 0 55 0;
#X connect 30 0 53 0;
#X connect 31 0 53 0;
#X connect 34 0 52 0;
#X connect 35 0 52 0;
#X connect 36 0 52 0;
#X connect 37 0 52 0;
#X connect 38 0 52 0;
#X connect 39 0 52 0;
#X connect 40 0 52 0;
#X connect 41 0 52 0;
#X connect 42 0 52 0;
#X connect 43 0 52 0;
#X connect 44 0 52 0;
#X connect 45 0 52 0;
#X connect 46 0 52 0;
#X connect 47 0 52 0;
#X connect 48 0 53 0;
#X connect 49 0 53 0;
#X connect 50 0 53 0;
#X connect 51 0 53 0;
#X connect 52 0 33 0;
#X connect 52 1 0 0;
#X connect 53 0 33 0;
#X connect 53 1 0 0;
#X connect 54 0 33 0;
#X connect 54 1 0 0;
#X connect 55 0 33 0;
#X connect 55 1 0 0;
#X connect 56 0 34 0;
