#N canvas 1 104 633 465 10;
#X obj 101 115 cnv 15 178 304 empty empty empty 20 12 0 14 -257985
-66577 0;
#X obj 191 397 tgl 15 0 TETRA_\$1_\$2_OSC_1_KEY empty OSC_1_KEY 17
7 0 10 -262144 -1 -1 0 1;
#X obj 124 310 hsl 128 15 0 127 0 0 TETRA_\$1_\$2_SUB_OSC_1_VOL empty
SUB_OSC_1_VOL -2 -8 0 10 -262144 -1 -1 0 1;
#X obj 125 361 hsl 128 15 0 127 0 0 TETRA_\$1_\$2_GLIDE_1 empty GLIDE_1
-2 -8 0 10 -262144 -1 -1 0 1;
#X obj 124 260 hsl 102 15 0 101 0 0 TETRA_\$1_\$2_OSC_1_FREQ_FINE empty
OSC_1_FREQ_FINE -2 -8 0 10 -262144 -1 -1 0 1;
#X obj 124 217 hsl 122 15 0 121 0 0 TETRA_\$1_\$2_OSC_1_FREQ empty
OSC_1_FREQ -2 -8 0 10 -262144 -1 -1 0 1;
#X floatatom 121 232 5 0 0 0 - - -;
#X floatatom 121 275 5 0 0 0 - - -;
#X symbolatom 123 138 14 0 0 0 - - -;
#X obj 125 167 hsl 100 15 4 103 0 0 empty empty PULSE_WIDTH -2 -8 0
10 -262144 -1 -1 0 1;
#X text 123 121 OSC_1_SHAPE;
#X floatatom -35 139 5 0 166 1 OSC_1_SHAPE - TETRA_#1_#2_OSC_1_SHAPE
;
#X obj -71 105 unpack f s;
#X obj -68 33 inlet;
#X obj -6 17 list append Pulse;
#X obj -2 69 sssad TETRA_\$1_\$2_OSC_1_SHAPE;
#X obj 301 259 sssad TETRA_\$1_\$2_OSC_1_FREQ;
#X obj 299 301 sssad TETRA_\$1_\$2_OSC_1_FREQ_FINE;
#X obj 299 398 sssad TETRA_\$1_\$2_GLIDE_1;
#X obj 298 436 sssad TETRA_\$1_\$2_OSC_1_KEY;
#X obj 7 97 unpack f s;
#X obj 23 191 sel 54;
#X obj 9 163 moses 4;
#X obj 300 346 sssad TETRA_\$1_\$2_SUB_OSC_1_VOL;
#X connect 1 0 19 1;
#X connect 2 0 23 1;
#X connect 3 0 18 1;
#X connect 4 0 7 0;
#X connect 4 0 17 1;
#X connect 5 0 6 0;
#X connect 5 0 16 1;
#X connect 9 0 14 0;
#X connect 12 0 11 0;
#X connect 12 1 8 0;
#X connect 13 0 12 0;
#X connect 13 0 15 1;
#X connect 14 0 12 0;
#X connect 14 0 15 1;
#X connect 15 0 20 0;
#X connect 16 0 5 0;
#X connect 17 0 4 0;
#X connect 18 0 3 0;
#X connect 19 0 1 0;
#X connect 20 0 11 0;
#X connect 20 0 22 0;
#X connect 20 1 8 0;
#X connect 21 1 9 0;
#X connect 22 1 21 0;
#X connect 23 0 2 0;
#X coords 0 -1 1 1 180 320 1 100 100;
