#N canvas 165 166 374 150 10;
#X obj 130 202 outlet;
#X obj 87 202 outlet;
#X obj -22 187 unpack f s;
#X msg -22 37 0 Up;
#X msg -22 57 1 Down;
#X msg -22 77 2 Up/Down;
#X msg -22 107 3 Assign;
#X msg -22 137 4 Random;
#X obj 228 187 unpack f s;
#X msg 228 37 10 3oct_Up;
#X msg 228 57 11 3oct_Down;
#X msg 228 77 12 3oct_Up/Down;
#X msg 228 107 13 3oct_Assign;
#X msg 228 137 14 3oct_Random;
#X obj 98 187 unpack f s;
#X msg 98 37 5 2oct_Up;
#X msg 98 57 6 2oct_Down;
#X msg 98 77 7 2oct_Up/Down;
#X msg 98 107 8 2oct_Assign;
#X msg 98 137 9 2oct_Random;
#X obj -22 8 r zero_init_\$1;
#X connect 2 0 1 0;
#X connect 2 1 0 0;
#X connect 3 0 2 0;
#X connect 4 0 2 0;
#X connect 5 0 2 0;
#X connect 6 0 2 0;
#X connect 7 0 2 0;
#X connect 8 0 1 0;
#X connect 8 1 0 0;
#X connect 9 0 8 0;
#X connect 10 0 8 0;
#X connect 11 0 8 0;
#X connect 12 0 8 0;
#X connect 13 0 8 0;
#X connect 14 0 1 0;
#X connect 14 1 0 0;
#X connect 15 0 14 0;
#X connect 16 0 14 0;
#X connect 17 0 14 0;
#X connect 18 0 14 0;
#X connect 19 0 14 0;
#X connect 20 0 3 0;
