#N canvas 1 87 1022 511 10;
#X obj 839 -81 TETRA_mappings \$2;
#X text 839 124 0 bank 1 \; 1 bank 2 \; 2 bank 3 \; 3 bank 4 \;;
#X obj 834 109 hradio 15 1 0 4 TETRA_\$1_\$2_BANK_SELECT empty BANK_SELECT
0 -8 0 10 -262144 -1 -1 0;
#N canvas 1 87 830 535 m 0;
#X msg 170 157 set \$1;
#X obj 170 197 outlet;
#X obj 170 139 inlet;
#X msg 170 177 0;
#X obj 222 162 r init_\$1_\$2_\$3;
#X connect 0 0 3 0;
#X connect 2 0 0 0;
#X connect 3 0 1 0;
#X connect 4 0 3 0;
#X restore 794 109 pd m;
#X obj 832 41 hsl 128 15 1 128 0 0 TETRA_\$1_\$2_PROGRAM_CHANGE empty
PROGRAM_CHANGE -2 -8 0 10 -262144 -1 -1 0 1;
#N canvas 1 87 830 535 m 0;
#X msg 170 157 set \$1;
#X obj 170 197 outlet;
#X obj 170 139 inlet;
#X msg 170 177 0;
#X obj 222 162 r init_\$1_\$2_\$3;
#X connect 0 0 3 0;
#X connect 2 0 0 0;
#X connect 3 0 1 0;
#X connect 4 0 3 0;
#X restore 790 41 pd m;
#X msg 29 -105 0 Off;
#X msg 29 -90 1 Saw;
#X msg 29 -75 2 Triangle;
#X msg 29 -60 3 Saw/Triangle;
#X msg 29 -45 54 Square;
#X msg 209 -105 0 Off;
#X msg 209 -90 1 Saw;
#X msg 209 -75 2 Triangle;
#X msg 209 -60 3 Saw/Triangle;
#X msg 209 -45 54 Square;
#X obj 788 295 TETRA_dest;
#X obj 218 645 TETRA_syncFreq;
#X obj 314 645 TETRA_dest;
#X obj 38 645 TETRA_syncFreq;
#X obj 134 645 TETRA_dest;
#X obj 398 645 TETRA_syncFreq;
#X obj 494 645 TETRA_dest;
#X obj 578 645 TETRA_syncFreq;
#X obj 674 645 TETRA_dest;
#X obj 38 995 TETRA_src;
#X obj 134 995 TETRA_dest;
#X obj 218 995 TETRA_src;
#X obj 314 995 TETRA_dest;
#X obj 398 995 TETRA_src;
#X obj 494 995 TETRA_dest;
#X obj 578 995 TETRA_src;
#X obj 674 995 TETRA_dest;
#X obj 778 995 TETRA_div;
#X obj 880 995 TETRA_arp;
#X msg 24 1347 0 0 0 0 0 0 0 0 0 0 0 0 0 0 0 0 0;
#X obj 130 1370 TETRA_dest;
#X msg 264 1347 0 0 0 0 0 0 0 0 0 0 0 0 0 0 0 0 0;
#X obj 370 1370 TETRA_dest;
#X msg 504 1347 0 0 0 0 0 0 0 0 0 0 0 0 0 0 0 0 0;
#X obj 610 1370 TETRA_dest;
#X msg 744 1347 0 0 0 0 0 0 0 0 0 0 0 0 0 0 0 0 0;
#X obj 850 1370 TETRA_dest;
#X obj 427 -75 bng 15 250 50 0 init_\$1_\$2_\$3 empty INITIALISE_VOICE
17 7 0 10 -262144 -1 -1;
#X obj 28 -30 TETRA_OSC_1 \$1 \$2 \$3;
#X obj 208 -30 TETRA_OSC_2 \$1 \$2 \$3;
#X obj 408 -30 TETRA_OSC_MISC \$1 \$2 \$3;
#X obj 588 -30 TETRA_UNISON \$1 \$2 \$3;
#X obj 28 310 TETRA_VCA \$1 \$2 \$3;
#X obj 208 310 TETRA_VCA_ENV \$1 \$2 \$3;
#X obj 408 310 TETRA_FILTER \$1 \$2 \$3;
#X obj 588 310 TETRA_FILTER_ENV \$1 \$2 \$3;
#X obj 788 310 TETRA_ENV3 \$1 \$2 \$3;
#X obj 568 660 TETRA_LFO_4 \$1 \$2 \$3;
#X obj 388 660 TETRA_LFO_2 \$1 \$2 \$3;
#X obj 208 660 TETRA_LFO_2 \$1 \$2 \$3;
#X obj 28 660 TETRA_LFO_1 \$1 \$2 \$3;
#X obj 28 1010 TETRA_MOD_1 \$1 \$2 \$3;
#X obj 208 1010 TETRA_MOD_2 \$1 \$2 \$3;
#X obj 388 1010 TETRA_MOD_3 \$1 \$2 \$3;
#X obj 568 1010 TETRA_MOD_4 \$1 \$2 \$3;
#X obj 768 1010 TETRA_TEMPO \$1 \$2 \$3;
#X obj 744 1385 TETRA_SEQ_4 \$1 \$2 \$3;
#X obj 504 1385 TETRA_SEQ_3 \$1 \$2 \$3;
#X obj 264 1385 TETRA_SEQ_2 \$1 \$2 \$3;
#X obj 24 1385 TETRA_SEQ_1 \$1 \$2 \$3;
#X obj 24 1725 TETRA_CONTROLLERS \$1 \$2 \$3;
#X obj 274 1710 TETRA_dest;
#X obj 264 1725 TETRA_CONTROLLERS_VEL \$1 \$2 \$3;
#X obj 264 1895 TETRA_CONTROLLERS_MODW \$1 \$2 \$3;
#X obj 274 1880 TETRA_dest;
#X obj 514 1710 TETRA_dest;
#X obj 504 1725 TETRA_CONTROLLERS_PRESS \$1 \$2 \$3;
#X obj 514 1880 TETRA_dest;
#X obj 504 1895 TETRA_CONTROLLERS_FOOT \$1 \$2 \$3;
#X obj 754 1710 TETRA_dest;
#X obj 744 1725 TETRA_CONTROLLERS_PRESS \$1 \$2 \$3;
#X obj 754 1880 TETRA_dest;
#X obj 744 1895 TETRA_CONTROLLERS_BREATH \$1 \$2 \$3;
#X connect 2 0 3 0;
#X connect 4 0 5 0;
#X connect 6 0 44 0;
#X connect 7 0 44 0;
#X connect 8 0 44 0;
#X connect 9 0 44 0;
#X connect 10 0 44 0;
#X connect 11 0 45 0;
#X connect 12 0 45 0;
#X connect 13 0 45 0;
#X connect 14 0 45 0;
#X connect 15 0 45 0;
#X connect 16 0 52 0;
#X connect 17 0 55 0;
#X connect 18 0 55 1;
#X connect 21 0 54 0;
#X connect 22 0 54 1;
#X connect 23 0 53 0;
#X connect 24 0 53 1;
#X connect 25 0 57 0;
#X connect 26 0 57 1;
#X connect 27 0 58 0;
#X connect 28 0 58 1;
#X connect 29 0 59 0;
#X connect 30 0 59 1;
#X connect 31 0 60 0;
#X connect 32 0 60 1;
#X connect 33 0 61 0;
#X connect 34 0 61 1;
#X connect 35 0 65 0;
#X connect 36 0 65 1;
#X connect 37 0 64 0;
#X connect 38 0 64 1;
#X connect 39 0 63 0;
#X connect 40 0 63 1;
#X connect 41 0 62 0;
#X connect 42 0 62 1;
#X connect 67 0 68 0;
#X connect 70 0 69 0;
#X connect 71 0 72 0;
#X connect 73 0 74 0;
#X connect 75 0 76 0;
#X connect 77 0 78 0;
