#N canvas 1 95 830 511 10;
#X obj 18 12 send_nrpn A \$1 OSC_1_FREQ 0;
#X obj 18 52 send_nrpn A \$1 OSC_1_FREQ_FINE 1;
#X obj 18 92 send_nrpn A \$1 OSC_1_SHAPE 2;
#X obj 18 132 send_nrpn A \$1 GLIDE_1 3;
#X obj 18 172 send_nrpn A \$1 OSC_1_KEY 4;
#X obj 18 212 send_nrpn A \$1 OSC_2_FREQ 5;
#X obj 18 252 send_nrpn A \$1 OSC_2_FREQ_FINE 6;
#X obj 18 292 send_nrpn A \$1 OSC_2_SHAPE 7;
#X obj 18 332 send_nrpn A \$1 GLIDE_2 8;
#X obj 18 372 send_nrpn A \$1 OSC_2_KEY 9;
#X obj 18 412 send_nrpn A \$1 SYNC 10;
#X obj 18 452 send_nrpn A \$1 GLIDE_MODE 11;
#X obj 218 12 send_nrpn A \$1 OSC_SLOP 12;
#X obj 218 52 send_nrpn A \$1 OSC_MIX 13;
#X obj 218 92 send_nrpn A \$1 NOISE_LEVEL 14;
#X obj 218 132 send_nrpn A \$1 FILTER_FREQ 15;
#X obj 218 172 send_nrpn A \$1 RESONANCE 16;
#X obj 218 212 send_nrpn A \$1 FIL_KEY_AMT 17;
#X obj 218 252 send_nrpn A \$1 FIL_AUDIO_MOD 18;
#X obj 218 292 send_nrpn A \$1 FILTER_POLES 19;
#X obj 218 332 send_nrpn A \$1 FILTER_ENV_AMT 20;
#X obj 218 412 send_nrpn A \$1 FIL_DEL 22;
#X obj 218 452 send_nrpn A \$1 FIL_ATT 23;
#X obj 438 12 send_nrpn A \$1 FIL_DEC 24;
#X obj 438 52 send_nrpn A \$1 FIL_SUS 25;
#X obj 438 92 send_nrpn A \$1 FIL_REL 26;
#X obj 438 132 send_nrpn A \$1 VCA_LEVEL 27;
#X obj 438 172 send_nrpn A \$1 OUTPUT_PAN 28;
#X obj 438 212 send_nrpn A \$1 PRESET_VOLUME 29;
#X obj 438 252 send_nrpn A \$1 VCA_ENV_AMOUNT 30;
#X obj 438 332 send_nrpn A \$1 VCA_DEL 32;
#X obj 438 372 send_nrpn A \$1 VCA_ATT 33;
#X obj 438 412 send_nrpn A \$1 VCA_DEC 34;
#X obj 438 452 send_nrpn A \$1 VCA_SUS 35;
#X obj 658 12 send_nrpn A \$1 VCA_REL 36;
#X obj 658 52 send_nrpn A \$1 LFO_1_FREQ 37;
#X obj 658 92 send_nrpn A \$1 LFO_1_SHAPE 38;
#X obj 658 132 send_nrpn A \$1 LFO_1_AMT 39;
#X obj 658 172 send_nrpn A \$1 LFO_1_DEST 40;
#X obj 658 212 send_nrpn A \$1 LFO_1_SYNC 41;
#X obj 658 252 send_nrpn A \$1 LFO_2_FREQ 42;
#X obj 658 292 send_nrpn A \$1 LFO_2_SHAPE 43;
#X obj 658 332 send_nrpn A \$1 LFO_2_AMT 44;
#X obj 658 372 send_nrpn A \$1 LFO_2_DEST 45;
#X obj 658 412 send_nrpn A \$1 LFO_2_SYNC 46;
#X obj 658 452 send_nrpn A \$1 LFO_3_FREQ 47;
#X obj 838 12 send_nrpn A \$1 LFO_3_SHAPE 48;
#X obj 838 52 send_nrpn A \$1 LFO_3_AMT 49;
#X obj 838 92 send_nrpn A \$1 LFO_3_DEST 50;
#X obj 838 132 send_nrpn A \$1 LFO_3_SYNC 51;
#X obj 838 172 send_nrpn A \$1 LFO_4_FREQ 52;
#X obj 838 212 send_nrpn A \$1 LFO_4_SHAPE 53;
#X obj 838 252 send_nrpn A \$1 LFO_4_AMT 54;
#X obj 838 292 send_nrpn A \$1 LFO_4_DEST 55;
#X obj 838 332 send_nrpn A \$1 LFO_4_SYNC 56;
#X obj 838 372 send_nrpn A \$1 ENV3_DEST 57;
#X obj 838 412 send_nrpn A \$1 ENV3_AMT 58;
#X obj 838 452 send_nrpn A \$1 ENV3_VEL_AMT 59;
#X obj 1028 12 send_nrpn A \$1 ENV3_DEL 60;
#X obj 1028 52 send_nrpn A \$1 ENV3_ATT 61;
#X obj 1028 92 send_nrpn A \$1 ENV3_DEC 62;
#X obj 1028 132 send_nrpn A \$1 ENV3_SUS 63;
#X obj 1028 172 send_nrpn A \$1 ENV3_REL 64;
#X obj 1028 212 send_nrpn A \$1 MOD_SOURCE_1 65;
#X obj 1028 252 send_nrpn A \$1 MOD_AMT_1 66;
#X obj 1028 292 send_nrpn A \$1 MOD_DEST_1 67;
#X obj 1028 332 send_nrpn A \$1 MOD_SOURCE_2 68;
#X obj 1028 372 send_nrpn A \$1 MOD_AMT_2 69;
#X obj 1028 412 send_nrpn A \$1 MOD_DEST_2 70;
#X obj 1028 452 send_nrpn A \$1 MOD_SOURCE_3 71;
#X obj 1218 12 send_nrpn A \$1 MOD_AMT_3 72;
#X obj 1218 52 send_nrpn A \$1 MOD_DEST_3 73;
#X obj 1218 92 send_nrpn A \$1 MOD_SOURCE_4 74;
#X obj 1218 132 send_nrpn A \$1 MOD_AMT_4 75;
#X obj 1218 172 send_nrpn A \$1 MOD_DEST_4 76;
#X obj 1218 212 send_nrpn A \$1 SEQ_1_DEST 77;
#X obj 1218 252 send_nrpn A \$1 SEQ_2_DEST 78;
#X obj 1218 292 send_nrpn A \$1 SEQ_3_DEST 79;
#X obj 1218 332 send_nrpn A \$1 SEQ_4_DEST 80;
#X obj 1218 372 send_nrpn A \$1 MOD_WHEEL_AMT 81;
#X obj 1218 412 send_nrpn A \$1 MOD_WHEEL_DEST 82;
#X obj 1218 452 send_nrpn A \$1 PRESSURE_AMT 83;
#X obj 1418 12 send_nrpn A \$1 PRESSURE_DEST 84;
#X obj 1418 52 send_nrpn A \$1 BREATH_AMT 85;
#X obj 1418 92 send_nrpn A \$1 BREATH_DEST 86;
#X obj 1418 132 send_nrpn A \$1 VELOCITY_AMT 87;
#X obj 1418 172 send_nrpn A \$1 VELOCITY_DEST 88;
#X obj 1418 212 send_nrpn A \$1 FOOT_AMT 89;
#X obj 1418 252 send_nrpn A \$1 FOOT_DEST 90;
#X obj 1418 292 send_nrpn A \$1 TEMPO 91;
#X obj 1418 332 send_nrpn A \$1 TIME_SIG 92;
#X obj 1418 372 send_nrpn A \$1 PBEND_RANGE 93;
#X obj 1418 412 send_nrpn A \$1 SEQ_TRIGGER 94;
#X obj 1608 52 send_nrpn A \$1 ARP_MODE 97;
#X obj 1608 92 send_nrpn A \$1 ENV3_REPEAT 98;
#X obj 1608 132 send_nrpn A \$1 UNISON_ON_OFF 99;
#X obj 1608 172 send_nrpn A \$1 ARP_ON_OFF 100;
#X obj 1608 212 send_nrpn A \$1 SEQ_ON_OFF 101;
#X obj 1608 252 send_nrpn A \$1 FEEDBACK_GAIN 110;
#X obj 1608 292 send_nrpn A \$1 PUSH_IT_NOTE 111;
#X obj 1608 332 send_nrpn A \$1 PUSH_IT_VELOCITY 112;
#X obj 1608 372 send_nrpn A \$1 PUSH_IT_MODE 113;
#X obj 1608 412 send_nrpn A \$1 SUB_OSC_1_VOL 114;
#X obj 1608 452 send_nrpn A \$1 SUB_OSC_2_VOL 115;
#X obj 1818 52 send_nrpn A \$1 SPLIT_POINT 118;
#X obj 1818 92 send_nrpn A \$1 KEYBOARD_MODE 119;
#X obj 1818 162 send_nrpn A \$1 SEQ_1 120;
#X obj 1818 232 send_nrpn A \$1 SEQ_2 136;
#X obj 1818 302 send_nrpn A \$1 SEQ_3 152;
#X obj 1818 372 send_nrpn A \$1 SEQ_4 168;
#X obj 438 292 send_nrpn A \$1 VCA_ENV_VEL_AMT 31;
#X obj 1818 12 send_nrpn A \$1 FEEDBACK_VOL 116;
#X obj 218 372 send_nrpn A \$1 FIL_ENV_VEL_AMT 21;
#X obj 1818 143 r TETRA_A_\$1_SEQ_1_STEP;
#X obj 1818 213 r TETRA_A_\$1_SEQ_2_STEP;
#X obj 1818 283 r TETRA_A_\$1_SEQ_3_STEP;
#X obj 1818 353 r TETRA_A_\$1_SEQ_4_STEP;
#X floatatom 2029 30 5 0 0 0 - - -;
#X obj 2029 12 r TETRA_A_\$1_PROGRAM_CHANGE;
#X obj 2029 47 pgmout \$1;
#X floatatom 2029 96 5 0 0 0 - - -;
#X obj 2029 114 ctlout 32 \$1;
#X obj 2029 77 r TETRA_A_\$1_BANK_SELECT;
#X obj 1418 452 send_nrpn A \$1 UNISON_ASSIGN 96;
#X obj 1608 12 send_nrpn A \$1 UNISON_MODE 95;
#X connect 113 0 106 0;
#X connect 114 0 107 0;
#X connect 115 0 108 0;
#X connect 116 0 109 0;
#X connect 117 0 119 0;
#X connect 118 0 117 0;
#X connect 120 0 121 0;
#X connect 122 0 120 0;
