#N canvas 1 96 591 441 10;
#X obj 129 139 tgl 15 0 TETRA_\$1_\$2_ENV3_REPEAT empty ENV3_REPEAT
17 7 0 10 -262144 -1 -1 0 1;
#X symbolatom 129 112 20 0 0 0 - - -;
#X obj 129 270 hsl 128 15 0 127 0 0 TETRA_\$1_\$2_ENV3_DEL empty ENV3_DEL
-2 -8 0 10 -262144 -1 -1 0 1;
#X obj 129 300 hsl 128 15 0 127 0 0 TETRA_\$1_\$2_ENV3_ATT empty ENV3_ATT
-2 -8 0 10 -262144 -1 -1 0 1;
#X obj 129 330 hsl 128 15 0 127 0 0 TETRA_\$1_\$2_ENV3_DEC empty ENV3_DEC
-2 -8 0 10 -262144 -1 -1 0 1;
#X obj 129 360 hsl 128 15 0 127 0 0 TETRA_\$1_\$2_ENV3_SUS empty ENV3_SUS
-2 -8 0 10 -262144 -1 -1 0 1;
#X obj 129 390 hsl 128 15 0 127 0 0 TETRA_\$1_\$2_ENV3_REL empty ENV3_REL
-2 -8 0 10 -262144 -1 -1 0 1;
#X obj 129 190 hsl 128 15 0 255 0 0 TETRA_\$1_\$2_ENV3_AMT empty ENV3_AMT
-2 -8 0 10 -262144 -1 -1 0 1;
#X obj 129 220 hsl 128 15 0 127 0 0 TETRA_\$1_\$2_ENV3_VEL_AMT empty
ENV3_VEL_AMT -2 -8 0 10 -262144 -1 -1 0 1;
#X floatatom 52 85 5 0 48 1 ENV3_DEST - TETRA_#1_#2_ENV3_DEST;
#X obj 52 58 unpack f s;
#X obj 55 6 inlet;
#X obj 69 32 sssad TETRA_\$1_\$2_ENV3_DEST TETRA_ENV3_\$1_\$2;
#X obj 287 141 sssad TETRA_\$1_\$2_ENV3_REPEAT TETRA_ENV3_\$1_\$2;
#X obj 283 190 sssad TETRA_\$1_\$2_ENV3_AMT TETRA_ENV3_\$1_\$2;
#X obj 286 220 sssad TETRA_\$1_\$2_ENV3_VEL_AMT TETRA_ENV3_\$1_\$2
;
#X obj 288 268 sssad TETRA_\$1_\$2_ENV3_DEL TETRA_ENV3_\$1_\$2;
#X obj 287 302 sssad TETRA_\$1_\$2_ENV3_ATT TETRA_ENV3_\$1_\$2;
#X obj 289 329 sssad TETRA_\$1_\$2_ENV3_DEC TETRA_ENV3_\$1_\$2;
#X obj 288 358 sssad TETRA_\$1_\$2_ENV3_SUS TETRA_ENV3_\$1_\$2;
#X obj 289 390 sssad TETRA_\$1_\$2_ENV3_REL TETRA_ENV3_\$1_\$2;
#X connect 0 0 13 0;
#X connect 2 0 16 0;
#X connect 3 0 17 0;
#X connect 4 0 18 0;
#X connect 5 0 19 0;
#X connect 6 0 20 0;
#X connect 7 0 14 0;
#X connect 8 0 15 0;
#X connect 10 0 9 0;
#X connect 10 1 1 0;
#X connect 11 0 10 0;
#X connect 11 0 12 0;
#X connect 12 0 10 0;
#X connect 13 0 0 0;
#X connect 14 0 7 0;
#X connect 15 0 8 0;
#X connect 16 0 2 0;
#X connect 17 0 3 0;
#X connect 18 0 4 0;
#X connect 19 0 5 0;
#X connect 20 0 6 0;
#X coords 0 -1 1 1 180 320 1 100 100;
