#N canvas 1 87 450 300 10;
#X obj 130 230 hsl 128 15 0 127 0 0 TETRA_\$1_\$2_VCA_DEL empty VCA_DEL
-2 -8 0 10 -262144 -1 -1 0 1;
#X obj 130 270 hsl 128 15 0 127 0 0 TETRA_\$1_\$2_VCA_ATT empty VCA_ATT
-2 -8 0 10 -262144 -1 -1 0 1;
#X obj 130 310 hsl 128 15 0 127 0 0 TETRA_\$1_\$2_VCA_DEC empty VCA_DEC
-2 -8 0 10 -262144 -1 -1 0 1;
#X obj 130 350 hsl 128 15 0 127 0 0 TETRA_\$1_\$2_VCA_SUS empty VCA_SUS
-2 -8 0 10 -262144 -1 -1 0 1;
#X obj 130 390 hsl 128 15 0 127 0 0 TETRA_\$1_\$2_VCA_REL empty VCA_REL
-2 -8 0 10 -262144 -1 -1 0 1;
#X obj 130 130 hsl 128 15 0 127 0 0 TETRA_\$1_\$2_VCA_ENV_AMOUNT empty
VCA_ENV_AMOUNT -2 -8 0 10 -262144 -1 -1 0 1;
#X obj 130 170 hsl 128 15 0 127 0 0 TETRA_\$1_\$2_VCA_ENV_VEL_AMT empty
VCA_ENV_VEL_AMT -2 -8 0 10 -262144 -1 -1 0 1;
#N canvas 1 87 830 535 m 0;
#X msg 170 157 set \$1;
#X obj 170 197 outlet;
#X obj 170 139 inlet;
#X msg 170 177 0;
#X obj 222 162 r init_\$1_\$2_\$3;
#X connect 0 0 3 0;
#X connect 2 0 0 0;
#X connect 3 0 1 0;
#X connect 4 0 3 0;
#X restore 96 230 pd m;
#N canvas 1 112 1278 780 m 0;
#X msg 170 157 set \$1;
#X obj 170 197 outlet;
#X obj 170 139 inlet;
#X msg 170 177 0;
#X obj 222 162 r init_\$1_\$2_\$3;
#X connect 0 0 3 0;
#X connect 2 0 0 0;
#X connect 3 0 1 0;
#X connect 4 0 3 0;
#X restore 96 270 pd m;
#N canvas 1 87 830 535 m 0;
#X msg 170 157 set \$1;
#X obj 170 197 outlet;
#X obj 170 139 inlet;
#X msg 170 177 0;
#X obj 222 162 r init_\$1_\$2_\$3;
#X connect 0 0 3 0;
#X connect 2 0 0 0;
#X connect 3 0 1 0;
#X connect 4 0 3 0;
#X restore 96 310 pd m;
#N canvas 1 87 830 535 m 0;
#X msg 170 157 set \$1;
#X obj 170 197 outlet;
#X obj 170 139 inlet;
#X msg 170 177 127;
#X obj 222 162 r init_\$1_\$2_\$3;
#X connect 0 0 3 0;
#X connect 2 0 0 0;
#X connect 3 0 1 0;
#X connect 4 0 3 0;
#X restore 96 350 pd m;
#N canvas 1 112 1278 780 m 0;
#X msg 170 157 set \$1;
#X obj 170 197 outlet;
#X obj 170 139 inlet;
#X msg 170 177 0;
#X obj 222 162 r init_\$1_\$2_\$3;
#X connect 0 0 3 0;
#X connect 2 0 0 0;
#X connect 3 0 1 0;
#X connect 4 0 3 0;
#X restore 96 390 pd m;
#N canvas 1 87 830 535 m 0;
#X msg 170 157 set \$1;
#X obj 170 197 outlet;
#X obj 170 139 inlet;
#X msg 170 177 127;
#X obj 222 162 r init_\$1_\$2_\$3;
#X connect 0 0 3 0;
#X connect 2 0 0 0;
#X connect 3 0 1 0;
#X connect 4 0 3 0;
#X restore 96 130 pd m;
#N canvas 1 112 1278 780 m 0;
#X msg 170 157 set \$1;
#X obj 170 197 outlet;
#X obj 170 139 inlet;
#X msg 170 177 0;
#X obj 222 162 r init_\$1_\$2_\$3;
#X connect 0 0 3 0;
#X connect 2 0 0 0;
#X connect 3 0 1 0;
#X connect 4 0 3 0;
#X restore 96 170 pd m;
#X connect 0 0 7 0;
#X connect 1 0 8 0;
#X connect 2 0 9 0;
#X connect 3 0 10 0;
#X connect 4 0 11 0;
#X connect 5 0 12 0;
#X connect 6 0 13 0;
#X connect 7 0 0 0;
#X connect 8 0 1 0;
#X connect 9 0 2 0;
#X connect 10 0 3 0;
#X connect 11 0 4 0;
#X connect 12 0 5 0;
#X connect 13 0 6 0;
#X coords 0 -1 1 1 180 320 1 100 100;
