#N canvas 1 96 684 455 10;
#X obj 107 200 hsl 165 15 0 164 0 0 TETRA_\$1_\$2_FILTER_FREQ empty
FILTER_FREQ -2 -8 0 10 -262144 -1 -1 0 1;
#X obj 126 240 hsl 128 15 0 127 0 0 TETRA_\$1_\$2_RESONANCE empty RESONANCE
-2 -8 0 10 -262144 -1 -1 0 1;
#X obj 123 140 hradio 15 1 0 2 TETRA_\$1_\$2_FILTER_POLES empty FILTER_POLES
0 -8 0 10 -262144 -1 -1 0;
#X text 160 138 0 two \; 1 four;
#X obj 124 310 hsl 128 15 0 127 0 0 TETRA_\$1_\$2_FIL_KEY_AMT empty
FIL_KEY_AMT -2 -8 0 10 -262144 -1 -1 0 1;
#X obj 124 350 hsl 128 15 0 127 0 0 TETRA_\$1_\$2_FIL_AUDIO_MOD empty
FIL_AUDIO_MOD -2 -8 0 10 -262144 -1 -1 0 1;
#X obj 287 140 sssad TETRA_\$1_\$2_FILTER_POLES TETRA_FILTER_\$1_\$2
;
#X obj 289 199 sssad TETRA_\$1_\$2_FILTER_FREQ TETRA_FILTER_\$1_\$2
;
#X obj 289 237 sssad TETRA_\$1_\$2_RESONANCE TETRA_FILTER_\$1_\$2;
#X obj 287 311 sssad TETRA_\$1_\$2_FIL_KEY_AMT TETRA_FILTER_\$1_\$2
;
#X obj 289 349 sssad TETRA_\$1_\$2_FIL_AUDIO_MOD TETRA_FILTER_\$1_\$2
;
#X connect 0 0 7 0;
#X connect 1 0 8 0;
#X connect 2 0 6 0;
#X connect 4 0 9 0;
#X connect 5 0 10 0;
#X connect 6 0 2 0;
#X connect 7 0 0 0;
#X connect 8 0 1 0;
#X connect 9 0 4 0;
#X connect 10 0 5 0;
#X coords 0 -1 1 1 180 320 1 100 100;
