#N canvas 1 94 1022 474 10;
#X floatatom 339 95 5 0 14 1 ARP_MODE - TETRA_#1_#2_ARP_MODE;
#X floatatom -4 114 5 0 12 1 TIME_SIG - TETRA_#1_#2_TIME_SIG;
#X obj 140 232 tgl 15 0 TETRA_\$1_\$2_ARP_ON_OFF empty ARP_ON_OFF 17
7 0 10 -262144 -1 -1 0 1;
#X obj 139 306 tgl 15 0 TETRA_\$1_\$2_SEQ_ON_OFF empty SEQ_ON_OFF 17
7 0 10 -262144 -1 -1 0 1;
#X obj 138 345 hradio 15 1 0 5 TETRA_\$1_\$2_SEQ_TRIGGER empty SEQ_TRIGGER
0 -8 0 10 -262144 -1 -1 0;
#X symbolatom 140 190 14 0 0 0 - - -;
#X text 124 362 0 normal \; 1 normal no reset \; 2 no gate \; 3 no
gate no reset \; 4 key step;
#X symbolatom 139 264 14 0 0 0 - - -;
#X obj 143 143 hsl 111 15 30 250 0 0 TETRA_\$1_\$2_TEMPO empty TEMPO
-2 -8 0 10 -262144 -1 -1 0 1;
#X floatatom 140 158 5 0 0 0 - - -;
#X text 137 174 TIME_SIG;
#X obj -1 80 unpack f s;
#X obj -3 25 inlet;
#X obj 339 14 inlet;
#X obj 339 68 unpack f s;
#X text 136 248 ARP_MODE;
#X obj 367 45 sssad TETRA_\$1_\$2_ARP_MODE TETRA_TEMPO_\$1_\$2;
#X obj 19 52 sssad TETRA_\$1_\$2_TIME_SIG TETRA_TEMPO_\$1_\$2;
#X obj 270 144 sssad TETRA_\$1_\$2_TEMPO TETRA_TEMPO_\$1_\$2;
#X obj 280 224 sssad TETRA_\$1_\$2_ARP_ON_OFF TETRA_TEMPO_\$1_\$2;
#X obj 293 305 sssad TETRA_\$1_\$2_SEQ_ON_OFF TETRA_TEMPO_\$1_\$2;
#X obj 296 344 sssad TETRA_\$1_\$2_SEQ_TRIGGER TETRA_TEMPO_\$1_\$2
;
#X connect 2 0 19 0;
#X connect 3 0 20 0;
#X connect 4 0 21 0;
#X connect 8 0 9 0;
#X connect 8 0 18 0;
#X connect 11 0 1 0;
#X connect 11 1 5 0;
#X connect 12 0 11 0;
#X connect 12 0 17 0;
#X connect 13 0 16 0;
#X connect 13 0 14 0;
#X connect 14 0 0 0;
#X connect 14 1 7 0;
#X connect 16 0 14 0;
#X connect 17 0 11 0;
#X connect 18 0 8 0;
#X connect 19 0 2 0;
#X connect 20 0 3 0;
#X connect 21 0 4 0;
#X coords 0 -1 1 1 180 320 1 100 100;
