#N canvas 1 87 450 300 10;
#X obj 129 139 tgl 15 0 TETRA_\$1_\$2_ENV3_REPEAT empty ENV3_REPEAT
17 7 0 10 -262144 -1 -1 0 1;
#X symbolatom 129 112 20 0 0 0 - - -;
#N canvas 0 86 415 538 m 0;
#X msg 170 157 set \$1;
#X obj 170 197 outlet;
#X obj 170 139 inlet;
#X obj 222 162 r init_\$1_\$2_\$3;
#X msg 170 177 off;
#X connect 0 0 4 0;
#X connect 2 0 0 0;
#X connect 3 0 4 0;
#X connect 4 0 1 0;
#X restore 119 49 pd m;
#X obj 150 49 symbol;
#N canvas 0 86 415 538 m 0;
#X msg 170 157 set \$1;
#X obj 170 197 outlet;
#X obj 170 139 inlet;
#X obj 222 162 r init_\$1_\$2_\$3;
#X msg 170 177 0;
#X connect 0 0 4 0;
#X connect 2 0 0 0;
#X connect 3 0 4 0;
#X connect 4 0 1 0;
#X restore 52 67 pd m;
#X obj 129 270 hsl 128 15 0 127 0 0 TETRA_\$1_\$2_ENV3_DEL empty ENV3_DEL
-2 -8 0 10 -262144 -1 -1 0 1;
#X obj 129 300 hsl 128 15 0 127 0 0 TETRA_\$1_\$2_ENV3_ATT empty ENV3_ATT
-2 -8 0 10 -262144 -1 -1 0 1;
#X obj 129 330 hsl 128 15 0 127 0 0 TETRA_\$1_\$2_ENV3_DEC empty ENV3_DEC
-2 -8 0 10 -262144 -1 -1 0 1;
#X obj 129 360 hsl 128 15 0 127 0 0 TETRA_\$1_\$2_ENV3_SUS empty ENV3_SUS
-2 -8 0 10 -262144 -1 -1 0 1;
#X obj 129 390 hsl 128 15 0 127 0 0 TETRA_\$1_\$2_ENV3_REL empty ENV3_REL
-2 -8 0 10 -262144 -1 -1 0 1;
#N canvas 1 87 830 535 m 0;
#X msg 170 157 set \$1;
#X obj 170 197 outlet;
#X obj 170 139 inlet;
#X msg 170 177 0;
#X obj 222 162 r init_\$1_\$2_\$3;
#X connect 0 0 3 0;
#X connect 2 0 0 0;
#X connect 3 0 1 0;
#X connect 4 0 3 0;
#X restore 95 270 pd m;
#N canvas 1 112 1278 780 m 0;
#X msg 170 157 set \$1;
#X obj 170 197 outlet;
#X obj 170 139 inlet;
#X msg 170 177 0;
#X obj 222 162 r init_\$1_\$2_\$3;
#X connect 0 0 3 0;
#X connect 2 0 0 0;
#X connect 3 0 1 0;
#X connect 4 0 3 0;
#X restore 95 300 pd m;
#N canvas 1 112 1278 780 m 0;
#X msg 170 157 set \$1;
#X obj 170 197 outlet;
#X obj 170 139 inlet;
#X msg 170 177 0;
#X obj 222 162 r init_\$1_\$2_\$3;
#X connect 0 0 3 0;
#X connect 2 0 0 0;
#X connect 3 0 1 0;
#X connect 4 0 3 0;
#X restore 95 330 pd m;
#N canvas 1 112 1278 780 m 0;
#X msg 170 157 set \$1;
#X obj 170 197 outlet;
#X obj 170 139 inlet;
#X msg 170 177 0;
#X obj 222 162 r init_\$1_\$2_\$3;
#X connect 0 0 3 0;
#X connect 2 0 0 0;
#X connect 3 0 1 0;
#X connect 4 0 3 0;
#X restore 95 360 pd m;
#N canvas 1 112 1278 780 m 0;
#X msg 170 157 set \$1;
#X obj 170 197 outlet;
#X obj 170 139 inlet;
#X msg 170 177 0;
#X obj 222 162 r init_\$1_\$2_\$3;
#X connect 0 0 3 0;
#X connect 2 0 0 0;
#X connect 3 0 1 0;
#X connect 4 0 3 0;
#X restore 95 390 pd m;
#X obj 129 190 hsl 128 15 0 255 0 0 TETRA_\$1_\$2_ENV3_AMT empty ENV3_AMT
-2 -8 0 10 -262144 -1 -1 0 1;
#N canvas 1 87 830 535 m 0;
#X msg 170 157 set \$1;
#X obj 170 197 outlet;
#X obj 170 139 inlet;
#X obj 222 162 r init_\$1_\$2_\$3;
#X msg 170 177 127.038;
#X connect 0 0 4 0;
#X connect 2 0 0 0;
#X connect 3 0 4 0;
#X connect 4 0 1 0;
#X restore 94 190 pd m;
#X obj 129 220 hsl 128 15 0 127 0 0 TETRA_\$1_\$2_ENV3_VEL_AMT empty
ENV3_VEL_AMT -2 -8 0 10 -262144 -1 -1 0 1;
#N canvas 1 87 830 535 m 0;
#X msg 170 157 set \$1;
#X obj 170 197 outlet;
#X obj 170 139 inlet;
#X obj 222 162 r init_\$1_\$2_\$3;
#X msg 170 177 0;
#X connect 0 0 4 0;
#X connect 2 0 0 0;
#X connect 3 0 4 0;
#X connect 4 0 1 0;
#X restore 94 220 pd m;
#N canvas 1 87 830 535 m 0;
#X msg 170 157 set \$1;
#X obj 170 197 outlet;
#X obj 170 139 inlet;
#X obj 222 162 r init_\$1_\$2_\$3;
#X msg 170 177 0;
#X connect 0 0 4 0;
#X connect 2 0 0 0;
#X connect 3 0 4 0;
#X connect 4 0 1 0;
#X restore 95 140 pd m;
#X floatatom 52 85 5 0 48 1 ENV3_DEST - TETRA_#1_#2_ENV3_DEST;
#X obj 53 28 unpack f s;
#X obj 55 6 inlet;
#X connect 0 0 19 0;
#X connect 2 0 3 0;
#X connect 3 0 1 0;
#X connect 4 0 20 0;
#X connect 5 0 10 0;
#X connect 6 0 11 0;
#X connect 7 0 12 0;
#X connect 8 0 13 0;
#X connect 9 0 14 0;
#X connect 10 0 5 0;
#X connect 11 0 6 0;
#X connect 12 0 7 0;
#X connect 13 0 8 0;
#X connect 14 0 9 0;
#X connect 15 0 16 0;
#X connect 16 0 15 0;
#X connect 17 0 18 0;
#X connect 18 0 17 0;
#X connect 19 0 0 0;
#X connect 21 0 4 0;
#X connect 21 0 20 0;
#X connect 21 1 2 0;
#X connect 21 1 1 0;
#X connect 22 0 21 0;
#X coords 0 -1 1 1 180 320 1 100 100;
