#N canvas 1 104 633 465 10;
#X obj 101 115 cnv 15 178 304 empty empty empty 20 12 0 14 -257985
-66577 0;
#X obj 181 397 tgl 15 0 TETRA_\$1_\$2_OSC_2_KEY empty OSC_2_KEY 17
7 0 10 -262144 -1 -1 1 1;
#X obj 114 310 hsl 128 15 0 127 0 0 TETRA_\$1_\$2_SUB_OSC_2_VOL empty
SUB_OSC_2_VOL -2 -8 0 10 -262144 -1 -1 0 1;
#X obj 115 361 hsl 128 15 0 127 0 0 TETRA_\$1_\$2_GLIDE_2 empty GLIDE_2
-2 -8 0 10 -262144 -1 -1 0 1;
#X obj 114 260 hsl 102 15 0 101 0 0 TETRA_\$1_\$2_OSC_2_FREQ_FINE empty
OSC_2_FREQ_FINE -2 -8 0 10 -262144 -1 -1 5000 1;
#X obj 114 217 hsl 122 15 0 121 0 0 TETRA_\$1_\$2_OSC_2_FREQ empty
OSC_2_FREQ -2 -8 0 10 -262144 -1 -1 2400 1;
#X floatatom 111 232 5 0 0 0 - - -;
#X floatatom 111 275 5 0 0 0 - - -;
#X symbolatom 113 136 14 0 0 0 - - -;
#X obj 115 167 hsl 100 15 4 103 0 0 empty empty PULSE_WIDTH -2 -8 0
10 -262144 -1 -1 5000 1;
#X floatatom -45 152 5 0 166 1 OSC_2_SHAPE - TETRA_#1_#2_OSC_2_SHAPE
;
#X text 113 119 OSC_2_SHAPE;
#X obj -49 110 unpack f s;
#X obj -65 33 inlet;
#X obj -5 33 list append Pulse;
#X obj -35 61 sssad TETRA_\$1_\$2_OSC_2_SHAPE;
#X obj 313 252 sssad TETRA_\$1_\$2_OSC_2_FREQ;
#X obj 308 296 sssad TETRA_\$1_\$2_OSC_2_FREQ_FINE;
#X obj 304 339 sssad TETRA_\$1_\$2_SUB_OSC_2_VOL;
#X obj 299 392 sssad TETRA_\$1_\$2_GLIDE_2;
#X obj 307 432 sssad TETRA_\$1_\$2_OSC_2_KEY;
#X obj 22 109 unpack f s;
#X obj 24 176 moses 4;
#X obj 55 199 sel 54;
#X connect 1 0 20 1;
#X connect 2 0 18 1;
#X connect 3 0 19 1;
#X connect 4 0 7 0;
#X connect 4 0 17 1;
#X connect 5 0 6 0;
#X connect 5 0 16 1;
#X connect 9 0 14 0;
#X connect 12 0 10 0;
#X connect 12 1 8 0;
#X connect 13 0 12 0;
#X connect 13 0 15 1;
#X connect 14 0 12 0;
#X connect 14 0 15 1;
#X connect 15 0 21 0;
#X connect 16 0 5 0;
#X connect 17 0 4 0;
#X connect 18 0 2 0;
#X connect 19 0 3 0;
#X connect 20 0 1 0;
#X connect 21 0 22 0;
#X connect 21 1 8 0;
#X connect 22 1 23 0;
#X connect 23 1 9 0;
#X coords 0 -1 1 1 180 320 1 100 100;
