#N canvas 190 272 278 198 10;
#X obj 90 232 outlet;
#X obj 47 232 outlet;
#X obj -22 217 unpack f s;
#X obj 138 217 unpack f s;
#X msg -22 17 151 32_steps;
#X msg -22 37 152 16_steps;
#X msg -22 57 153 8_steps;
#X msg -22 77 154 6_steps;
#X msg -22 97 155 4_steps;
#X msg -22 117 156 3_steps;
#X msg -22 137 157 2_steps;
#X msg -22 177 159 1_step;
#X msg -22 157 158 3/2_step;
#X msg 138 17 160 2/3_step;
#X msg 138 37 161 1/2_step;
#X msg 138 57 162 1/3_step;
#X msg 138 77 163 1/4_step;
#X msg 138 97 164 1/6_step;
#X msg 138 117 165 1/8_step;
#X msg 138 137 166 1/16_step;
#X connect 2 0 1 0;
#X connect 2 1 0 0;
#X connect 3 0 1 0;
#X connect 3 1 0 0;
#X connect 4 0 2 0;
#X connect 5 0 2 0;
#X connect 6 0 2 0;
#X connect 7 0 2 0;
#X connect 8 0 2 0;
#X connect 9 0 2 0;
#X connect 10 0 2 0;
#X connect 11 0 2 0;
#X connect 12 0 2 0;
#X connect 13 0 3 0;
#X connect 14 0 3 0;
#X connect 15 0 3 0;
#X connect 16 0 3 0;
#X connect 17 0 3 0;
#X connect 18 0 3 0;
#X connect 19 0 3 0;
