#N canvas 1 96 722 437 10;
#X obj 180 346 hradio 15 1 0 4 TETRA_\$1_\$2_GLIDE_MODE empty GLIDE_MODE
0 -8 0 10 -262144 -1 -1 0;
#X obj 115 346 tgl 15 0 TETRA_\$1_\$2_SYNC empty SYNC 17 7 0 10 -262144
-1 -1 0 1;
#X text 173 368 0 rate \; 1 rate auto \; 2 time \; 3 time auto;
#X obj 114 128 hsl 128 15 0 127 0 0 TETRA_\$1_\$2_OSC_MIX empty OSC_MIX
-2 -8 0 10 -262144 -1 -1 0 1;
#X obj 114 178 hsl 128 15 0 127 0 0 TETRA_\$1_\$2_NOISE_LEVEL empty
NOISE_LEVEL -2 -8 0 10 -262144 -1 -1 0 1;
#X obj 115 304 hradio 15 1 0 6 TETRA_\$1_\$2_OSC_SLOP empty OSC_SLOP
0 -8 0 10 -262144 -1 -1 0;
#X obj 114 228 hsl 128 15 0 127 0 0 TETRA_\$1_\$2_FEEDBACK_GAIN empty
FEEDBACK_GAIN -2 -8 0 10 -262144 -1 -1 0 1;
#X obj 114 258 hsl 128 15 0 127 0 0 TETRA_\$1_\$2_FEEDBACK_VOL empty
FEEDBACK_VOL -2 -8 0 10 -262144 -1 -1 0 1;
#X obj 294 131 sssad TETRA_\$1_\$2_OSC_MIX TETRA_OSC_MISC_\$1_\$2;
#X obj 291 178 sssad TETRA_\$1_\$2_NOISE_LEVEL TETRA_OSC_MISC_\$1_\$2
;
#X obj 291 227 sssad TETRA_\$1_\$2_FEEDBACK_GAIN TETRA_OSC_MISC_\$1_\$2
;
#X obj 293 258 sssad TETRA_\$1_\$2_FEEDBACK_VOL TETRA_OSC_MISC_\$1_\$2
;
#X obj 289 305 sssad TETRA_\$1_\$2_OSC_SLOP TETRA_OSC_MISC_\$1_\$2
;
#X obj 293 333 sssad TETRA_\$1_\$2_SYNC TETRA_OSC_MISC_\$1_\$2;
#X obj 291 363 sssad TETRA_\$1_\$2_GLIDE_MODE TETRA_OSC_MISC_\$1_\$2
;
#X connect 0 0 14 0;
#X connect 1 0 13 0;
#X connect 3 0 8 0;
#X connect 4 0 9 0;
#X connect 5 0 12 0;
#X connect 6 0 10 0;
#X connect 7 0 11 0;
#X connect 8 0 3 0;
#X connect 9 0 4 0;
#X connect 10 0 6 0;
#X connect 11 0 7 0;
#X connect 12 0 5 0;
#X connect 13 0 1 0;
#X connect 14 0 0 0;
#X coords 0 -1 1 1 180 320 1 100 100;
