#N canvas 1 87 1022 511 10;
#X floatatom -20 162 5 0 20 1 MOD_SOURCE_1 - TETRA_#1_#2_MOD_SOURCE_1
;
#X floatatom 324 130 5 0 48 1 MOD_DEST_1 - TETRA_#1_#2_MOD_DEST_1;
#X symbolatom 128 161 20 0 0 0 - - -;
#X symbolatom 128 291 20 0 0 0 - - -;
#N canvas 1 87 830 535 m 0;
#X msg 170 157 set \$1;
#X obj 170 197 outlet;
#X obj 170 139 inlet;
#X obj 222 162 r init_\$1_\$2_\$3;
#X msg 170 177 off;
#X connect 0 0 4 0;
#X connect 2 0 0 0;
#X connect 3 0 4 0;
#X connect 4 0 1 0;
#X restore 327 178 pd m;
#N canvas 1 87 830 535 m 0;
#X msg 170 157 set \$1;
#X obj 170 197 outlet;
#X obj 170 139 inlet;
#X obj 222 162 r init_\$1_\$2_\$3;
#X msg 170 177 0;
#X connect 0 0 4 0;
#X connect 2 0 0 0;
#X connect 3 0 4 0;
#X connect 4 0 1 0;
#X restore 324 112 pd m;
#X obj 357 178 symbol;
#X obj 128 221 hsl 128 15 0 255 0 0 TETRA_\$1_\$2_MOD_AMT_1 empty MOD_AMT_1
-2 -8 0 10 -262144 -1 -1 0 1;
#N canvas 1 87 830 535 m 0;
#X msg 170 157 set \$1;
#X obj 170 197 outlet;
#X obj 170 139 inlet;
#X obj 222 162 r init_\$1_\$2_\$3;
#X msg 170 177 127.219;
#X connect 0 0 4 0;
#X connect 2 0 0 0;
#X connect 3 0 4 0;
#X connect 4 0 1 0;
#X restore 94 221 pd m;
#N canvas 1 87 830 535 m 0;
#X msg 170 157 set \$1;
#X obj 170 197 outlet;
#X obj 170 139 inlet;
#X obj 222 162 r init_\$1_\$2_\$3;
#X msg 170 177 off;
#X connect 0 0 4 0;
#X connect 2 0 0 0;
#X connect 3 0 4 0;
#X connect 4 0 1 0;
#X restore 14 117 pd m;
#X obj 44 117 symbol;
#N canvas 1 87 830 535 m 0;
#X msg 170 157 set \$1;
#X obj 170 197 outlet;
#X obj 170 139 inlet;
#X obj 222 162 r init_\$1_\$2_\$3;
#X msg 170 177 0;
#X connect 0 0 4 0;
#X connect 2 0 0 0;
#X connect 3 0 4 0;
#X connect 4 0 1 0;
#X restore -20 144 pd m;
#X obj -11 65 unpack f s;
#X obj 246 60 unpack f s;
#X text 127 144 MOD_SOURCE_1;
#X text 127 274 MOD_DEST_1;
#X obj -8 36 inlet;
#X obj 242 36 inlet;
#X connect 4 0 6 0;
#X connect 5 0 1 0;
#X connect 6 0 3 0;
#X connect 7 0 8 0;
#X connect 8 0 7 0;
#X connect 9 0 10 0;
#X connect 10 0 2 0;
#X connect 11 0 0 0;
#X connect 12 0 0 0;
#X connect 12 0 11 0;
#X connect 12 1 2 0;
#X connect 12 1 9 0;
#X connect 13 0 5 0;
#X connect 13 0 1 0;
#X connect 13 1 4 0;
#X connect 13 1 3 0;
#X connect 16 0 12 0;
#X connect 17 0 13 0;
#X coords 0 -1 1 1 180 320 1 100 100;
