#N canvas 1 94 1022 474 10;
#X floatatom -20 162 5 0 20 1 MOD_SOURCE_2 - TETRA_#1_#2_MOD_SOURCE_2
;
#X floatatom 324 130 5 0 48 1 MOD_DEST_2 - TETRA_#1_#2_MOD_DEST_2;
#X symbolatom 128 161 20 0 0 0 - - -;
#X symbolatom 128 291 20 0 0 0 - - -;
#X obj 128 221 hsl 128 15 0 255 0 0 TETRA_\$1_\$2_MOD_AMT_2 empty MOD_AMT_2
-2 -8 0 10 -262144 -1 -1 0 1;
#X obj -9 98 unpack f s;
#X obj 313 59 unpack f s;
#X obj -8 36 inlet;
#X obj 247 12 inlet;
#X text 127 144 MOD_SOURCE_2;
#X text 127 274 MOD_DEST_2;
#X obj 324 203 sssad TETRA_\$1_\$2_MOD_AMT_2 TETRA_MOD_2_\$1_\$2;
#X obj 328 30 sssad TETRA_\$1_\$2_MOD_DEST_2 TETRA_MOD_2_\$1_\$2;
#X obj 1 72 sssad TETRA_\$1_\$2_MOD_SOURCE_2 TETRA_MOD_2_\$1_\$2;
#X connect 4 0 11 0;
#X connect 5 0 0 0;
#X connect 5 1 2 0;
#X connect 6 0 1 0;
#X connect 6 1 3 0;
#X connect 7 0 5 0;
#X connect 7 0 13 0;
#X connect 8 0 6 0;
#X connect 8 0 12 0;
#X connect 11 0 4 0;
#X connect 12 0 6 0;
#X connect 13 0 5 0;
#X coords 0 -1 1 1 180 320 1 100 100;
