#N canvas 1 104 633 465 10;
#X obj 101 115 cnv 15 178 134 empty empty empty 20 12 0 14 -257985
-66577 0;
#X symbolatom 128 156 20 0 0 0 - - -;
#X obj 128 206 hsl 128 15 0 255 0 0 TETRA_\$1_\$2_VELOCITY_AMT empty
VELOCITY_AMT -2 -8 0 10 -262144 -1 -1 0 1;
#X floatatom 25 153 5 0 48 1 VELOCITY_DEST - TETRA_#1_#2_VELOCITY_DEST
;
#X obj 25 117 unpack f s;
#X obj 67 44 inlet;
#X text 129 135 VELOCITY_DEST;
#X obj 281 116 sssad TETRA_\$1_\$2_VELOCITY_DEST;
#X obj 278 251 sssad TETRA_\$1_\$2_VELOCITY_AMT;
#X connect 2 0 8 1;
#X connect 4 0 3 0;
#X connect 4 1 1 0;
#X connect 5 0 4 0;
#X connect 5 0 7 1;
#X connect 7 0 4 0;
#X connect 8 0 2 0;
#X coords 0 -1 1 1 180 150 1 100 100;
