#N canvas 0 93 1024 477 10;
#X obj 123 209 hsl 128 15 0 255 0 0 TETRA_\$1_\$2_MOD_WHEEL_AMT empty
MOD_WHEEL_AMT -2 -8 0 10 -262144 -1 -1 0 1;
#X symbolatom 126 156 20 0 0 0 - - -;
#X floatatom 24 166 5 0 48 1 MOD_WHEEL_DEST - TETRA_#1_#2_MOD_WHEEL_DEST
;
#X obj 24 130 unpack f s;
#X obj 42 59 inlet;
#X text 124 139 MOD_WHEEL_DEST;
#X obj 297 77 sssad TETRA_\$1_\$2_MOD_WHEEL_DEST TETRA_CONTROLLERS_MODW_\$1_\$2
;
#X obj 305 204 sssad TETRA_\$1_\$2_MOD_WHEEL_AMT TETRA_CONTROLLERS_MODW_\$1_\$2
;
#X connect 0 0 7 0;
#X connect 3 0 2 0;
#X connect 3 1 1 0;
#X connect 4 0 6 0;
#X connect 4 0 3 0;
#X connect 6 0 3 0;
#X connect 7 0 0 0;
#X coords 0 -1 1 1 180 150 1 100 100;
