#N canvas 1 87 450 300 10;
#X obj 124 130 hsl 128 15 0 255 0 0 TETRA_\$1_\$2_FILTER_ENV_AMT empty
FILTER_ENV_AMT -2 -8 0 10 -262144 -1 -1 0 1;
#N canvas 1 87 830 535 m 0;
#X msg 170 157 set \$1;
#X obj 170 197 outlet;
#X obj 170 139 inlet;
#X obj 222 162 r init_\$1_\$2_\$3;
#X msg 170 177 127.46;
#X connect 0 0 4 0;
#X connect 2 0 0 0;
#X connect 3 0 4 0;
#X connect 4 0 1 0;
#X restore 90 130 pd m;
#X obj 123 230 hsl 128 15 0 127 0 0 TETRA_\$1_\$2_FIL_DEL empty FIL_DEL
-2 -8 0 10 -262144 -1 -1 0 1;
#X obj 123 270 hsl 128 15 0 127 0 0 TETRA_\$1_\$2_FIL_ATT empty FIL_ATT
-2 -8 0 10 -262144 -1 -1 0 1;
#X obj 123 310 hsl 128 15 0 127 0 0 TETRA_\$1_\$2_FIL_DEC empty FIL_DEC
-2 -8 0 10 -262144 -1 -1 0 1;
#X obj 123 350 hsl 128 15 0 127 0 0 TETRA_\$1_\$2_FIL_SUS empty FIL_SUS
-2 -8 0 10 -262144 -1 -1 0 1;
#X obj 123 390 hsl 128 15 0 127 0 0 TETRA_\$1_\$2_FIL_REL empty FIL_REL
-2 -8 0 10 -262144 -1 -1 0 1;
#N canvas 1 87 830 535 m 0;
#X msg 170 157 set \$1;
#X obj 170 197 outlet;
#X obj 170 139 inlet;
#X msg 170 177 0;
#X obj 222 162 r init_\$1_\$2_\$3;
#X connect 0 0 3 0;
#X connect 2 0 0 0;
#X connect 3 0 1 0;
#X connect 4 0 3 0;
#X restore 89 230 pd m;
#N canvas 1 112 1278 780 m 0;
#X msg 170 157 set \$1;
#X obj 170 197 outlet;
#X obj 170 139 inlet;
#X msg 170 177 0;
#X obj 222 162 r init_\$1_\$2_\$3;
#X connect 0 0 3 0;
#X connect 2 0 0 0;
#X connect 3 0 1 0;
#X connect 4 0 3 0;
#X restore 89 270 pd m;
#N canvas 1 112 1278 780 m 0;
#X msg 170 157 set \$1;
#X obj 170 197 outlet;
#X obj 170 139 inlet;
#X msg 170 177 0;
#X obj 222 162 r init_\$1_\$2_\$3;
#X connect 0 0 3 0;
#X connect 2 0 0 0;
#X connect 3 0 1 0;
#X connect 4 0 3 0;
#X restore 89 310 pd m;
#N canvas 1 112 1278 780 m 0;
#X msg 170 157 set \$1;
#X obj 170 197 outlet;
#X obj 170 139 inlet;
#X msg 170 177 0;
#X obj 222 162 r init_\$1_\$2_\$3;
#X connect 0 0 3 0;
#X connect 2 0 0 0;
#X connect 3 0 1 0;
#X connect 4 0 3 0;
#X restore 89 350 pd m;
#N canvas 1 112 1278 780 m 0;
#X msg 170 157 set \$1;
#X obj 170 197 outlet;
#X obj 170 139 inlet;
#X msg 170 177 0;
#X obj 222 162 r init_\$1_\$2_\$3;
#X connect 0 0 3 0;
#X connect 2 0 0 0;
#X connect 3 0 1 0;
#X connect 4 0 3 0;
#X restore 89 390 pd m;
#X obj 124 170 hsl 128 15 0 127 0 0 TETRA_\$1_\$2_FIL_ENV_VEL_AMT empty
FIL_ENV_VEL_AMT -2 -8 0 10 -262144 -1 -1 0 1;
#N canvas 1 87 830 535 m 0;
#X msg 170 157 set \$1;
#X obj 170 197 outlet;
#X obj 170 139 inlet;
#X obj 222 162 r init_\$1_\$2_\$3;
#X msg 170 177 0;
#X connect 0 0 4 0;
#X connect 2 0 0 0;
#X connect 3 0 4 0;
#X connect 4 0 1 0;
#X restore 90 170 pd m;
#X connect 0 0 1 0;
#X connect 1 0 0 0;
#X connect 2 0 7 0;
#X connect 3 0 8 0;
#X connect 4 0 9 0;
#X connect 5 0 10 0;
#X connect 6 0 11 0;
#X connect 7 0 2 0;
#X connect 8 0 3 0;
#X connect 9 0 4 0;
#X connect 10 0 5 0;
#X connect 11 0 6 0;
#X connect 12 0 13 0;
#X connect 13 0 12 0;
#X coords 0 -1 1 1 180 320 1 100 100;
