#N canvas 433 94 1022 474 10;
#X obj 839 -81 TETRA_mappings \$2;
#X text 839 124 0 bank 1 \; 1 bank 2 \; 2 bank 3 \; 3 bank 4 \;;
#X obj 834 109 hradio 15 1 0 4 TETRA_\$1_\$2_BANK_SELECT empty BANK_SELECT
0 -8 0 10 -262144 -1 -1 0;
#X obj 832 41 hsl 128 15 1 128 0 0 TETRA_\$1_\$2_PROGRAM_CHANGE empty
PROGRAM_CHANGE -2 -8 0 10 -262144 -1 -1 0 1;
#X msg 29 -105 0 Off;
#X msg 29 -90 1 Saw;
#X msg 29 -75 2 Triangle;
#X msg 29 -60 3 Saw/Triangle;
#X msg 29 -45 54 Square;
#X msg 209 -105 0 Off;
#X msg 209 -90 1 Saw;
#X msg 209 -75 2 Triangle;
#X msg 209 -60 3 Saw/Triangle;
#X msg 209 -45 54 Square;
#X obj 788 295 TETRA_dest;
#X obj 218 645 TETRA_syncFreq;
#X obj 314 645 TETRA_dest;
#X obj 38 645 TETRA_syncFreq;
#X obj 134 645 TETRA_dest;
#X obj 398 645 TETRA_syncFreq;
#X obj 494 645 TETRA_dest;
#X obj 578 645 TETRA_syncFreq;
#X obj 674 645 TETRA_dest;
#X obj 38 995 TETRA_src;
#X obj 134 995 TETRA_dest;
#X obj 218 995 TETRA_src;
#X obj 314 995 TETRA_dest;
#X obj 398 995 TETRA_src;
#X obj 494 995 TETRA_dest;
#X obj 578 995 TETRA_src;
#X obj 674 995 TETRA_dest;
#X obj 778 995 TETRA_div;
#X obj 880 995 TETRA_arp;
#X msg 24 1347 0 0 0 0 0 0 0 0 0 0 0 0 0 0 0 0 0;
#X obj 130 1370 TETRA_dest;
#X msg 264 1347 0 0 0 0 0 0 0 0 0 0 0 0 0 0 0 0 0;
#X obj 370 1370 TETRA_dest;
#X msg 504 1347 0 0 0 0 0 0 0 0 0 0 0 0 0 0 0 0 0;
#X obj 610 1370 TETRA_dest;
#X msg 744 1347 0 0 0 0 0 0 0 0 0 0 0 0 0 0 0 0 0;
#X obj 850 1370 TETRA_dest;
#X obj 274 1710 TETRA_dest;
#X obj 274 1880 TETRA_dest;
#X obj 514 1710 TETRA_dest;
#X obj 514 1880 TETRA_dest;
#X obj 754 1710 TETRA_dest;
#X obj 754 1880 TETRA_dest;
#X obj 24 1725 TETRA_CONTROLLERS \$1 \$2;
#X obj 264 1725 TETRA_CONTROLLERS_VEL \$1 \$2;
#X obj 264 1895 TETRA_CONTROLLERS_MODW \$1 \$2;
#X obj 504 1895 TETRA_CONTROLLERS_FOOT \$1 \$2;
#X obj 744 1895 TETRA_CONTROLLERS_BREATH \$1 \$2;
#X obj 24 1385 TETRA_SEQ_1 \$1 \$2;
#X obj 264 1385 TETRA_SEQ_2 \$1 \$2;
#X obj 504 1385 TETRA_SEQ_3 \$1 \$2;
#X obj 745 1385 TETRA_SEQ_4 \$1 \$2;
#X obj 28 1010 TETRA_MOD_1 \$1 \$2;
#X obj 208 1010 TETRA_MOD_2 \$1 \$2;
#X obj 388 1010 TETRA_MOD_3 \$1 \$2;
#X obj 568 1010 TETRA_MOD_4 \$1 \$2;
#X obj 768 1010 TETRA_TEMPO \$1 \$2;
#X obj 28 660 TETRA_LFO_1 \$1 \$2;
#X obj 208 660 TETRA_LFO_2 \$1 \$2;
#X obj 28 310 TETRA_VCA \$1 \$2;
#X obj 208 310 TETRA_VCA_ENV \$1 \$2;
#X obj 408 310 TETRA_FILTER \$1 \$2;
#X obj 588 310 TETRA_FILTER_ENV \$1 \$2;
#X obj 788 310 TETRA_ENV3 \$1 \$2;
#X obj 588 -30 TETRA_UNISON \$1 \$2;
#X obj 408 -30 TETRA_OSC_MISC \$1 \$2;
#X obj 208 -30 TETRA_OSC_2 \$1 \$2;
#X obj 28 -30 TETRA_OSC_1 \$1 \$2;
#X obj 388 660 TETRA_LFO_3 \$1 \$2;
#X obj 568 660 TETRA_LFO_4 \$1 \$2;
#X obj 430 -90 cnv 15 150 40 empty empty empty 20 12 0 14 -233017 -66577
0;
#N canvas 47 107 430 392 presets 1;
#X obj 13 315 cnv 15 400 300 empty empty Restore 300 12 0 14 -233017
-123526 0;
#X obj 13 12 cnv 15 400 300 empty empty Save 300 12 0 14 -233017 -123526
0;
#X obj 239 237 textfile;
#X msg 128 138 clear;
#X msg 313 220 print;
#X obj 239 161 list prepend add;
#X obj 239 187 list trim;
#X obj 86 520 textfile;
#X obj 86 550 s SSSAD;
#X msg 30 503 print;
#X text 81 572 also received inside sssad;
#X obj 106 238 s SSSAD_ADMIN;
#X obj 239 93 r SSSAD_ADMIN;
#X obj 239 137 route persist;
#X obj 239 115 list trim;
#X msg 106 172 save;
#X msg 120 211 set;
#X obj 84 59 savepanel;
#X obj 84 102 t a b b;
#X msg 84 285 write \$1;
#X obj 84 31 bng 24 250 50 0 empty empty save 0 -6 0 8 -262144 -1 -1
;
#X obj 86 418 t b a;
#X msg 180 470 read \$1 \, rewind;
#X obj 86 337 bng 24 250 50 0 empty empty load 0 -6 0 8 -262144 -1
-1;
#X obj 86 365 openpanel;
#X text 118 441 Avoid loops. A bang normally also works.;
#X obj 84 81 symbol;
#X msg 27 63 bang;
#X text 25 43 again;
#X obj 86 395 symbol;
#X msg 29 378 bang;
#X text 27 358 again;
#X obj 476 520 textfile;
#X obj 476 550 s SSSAD;
#X obj 476 462 until;
#X msg 476 441 100;
#X msg 420 503 print;
#X text 471 572 also received inside sssad;
#X obj 544 547 s SSSAD_ADMIN;
#X msg 544 522 set;
#X obj 476 418 t b a;
#X msg 523 463 read \$1 \, rewind;
#X obj 476 337 bng 24 250 50 0 empty empty load 0 -6 0 8 -262144 -1
-1;
#X obj 476 365 openpanel;
#X text 508 441 Avoid loops. A bang normally also works.;
#X obj 476 395 symbol;
#X msg 419 378 bang;
#X text 417 358 again;
#X obj 31 553 print;
#X obj 83 585 s SSSAD-set;
#X msg 86 438 1;
#X msg 166 535 0;
#X obj 86 473 metro 10;
#X connect 3 0 2 0;
#X connect 4 0 2 0;
#X connect 5 0 6 0;
#X connect 6 0 2 0;
#X connect 7 0 8 0;
#X connect 7 0 48 0;
#X connect 7 0 49 0;
#X connect 7 1 51 0;
#X connect 9 0 7 0;
#X connect 12 0 14 0;
#X connect 13 0 5 0;
#X connect 14 0 13 0;
#X connect 15 0 11 0;
#X connect 16 0 11 0;
#X connect 17 0 26 0;
#X connect 18 0 19 0;
#X connect 18 1 15 0;
#X connect 18 2 3 0;
#X connect 19 0 2 0;
#X connect 20 0 17 0;
#X connect 21 0 50 0;
#X connect 21 1 22 0;
#X connect 22 0 7 0;
#X connect 23 0 24 0;
#X connect 24 0 29 0;
#X connect 26 0 18 0;
#X connect 27 0 26 0;
#X connect 29 0 21 0;
#X connect 30 0 29 0;
#X connect 32 0 33 0;
#X connect 32 1 34 1;
#X connect 32 1 39 0;
#X connect 34 0 32 0;
#X connect 35 0 34 0;
#X connect 36 0 32 0;
#X connect 39 0 38 0;
#X connect 40 0 35 0;
#X connect 40 1 41 0;
#X connect 41 0 32 0;
#X connect 42 0 43 0;
#X connect 43 0 45 0;
#X connect 45 0 40 0;
#X connect 46 0 45 0;
#X connect 50 0 52 0;
#X connect 51 0 52 1;
#X connect 52 0 7 0;
#X restore 444 -78 pd presets;
#X obj 504 1725 TETRA_CONTROLLERS_PRESS \$1 \$2;
#X obj 744 1725 TETRA_CONTROLLERS_PRESS \$1 \$2;
#X connect 4 0 71 0;
#X connect 5 0 71 0;
#X connect 6 0 71 0;
#X connect 7 0 71 0;
#X connect 8 0 71 0;
#X connect 9 0 70 0;
#X connect 10 0 70 0;
#X connect 11 0 70 0;
#X connect 12 0 70 0;
#X connect 13 0 70 0;
#X connect 14 0 67 0;
#X connect 15 0 62 0;
#X connect 16 0 62 1;
#X connect 17 0 61 0;
#X connect 18 0 61 1;
#X connect 19 0 72 0;
#X connect 20 0 72 1;
#X connect 21 0 73 0;
#X connect 22 0 73 1;
#X connect 23 0 56 0;
#X connect 24 0 56 1;
#X connect 25 0 57 0;
#X connect 26 0 57 1;
#X connect 27 0 58 0;
#X connect 28 0 58 1;
#X connect 29 0 59 0;
#X connect 30 0 59 1;
#X connect 31 0 60 0;
#X connect 32 0 60 1;
#X connect 33 0 52 0;
#X connect 34 0 52 1;
#X connect 35 0 53 0;
#X connect 36 0 53 1;
#X connect 37 0 54 0;
#X connect 38 0 54 1;
#X connect 39 0 55 0;
#X connect 40 0 55 1;
#X connect 41 0 48 0;
#X connect 42 0 49 0;
#X connect 43 0 76 0;
#X connect 44 0 50 0;
#X connect 45 0 77 0;
#X connect 46 0 51 0;
