#N canvas 1 87 1022 511 10;
#X floatatom 365 154 5 0 14 1 ARP_MODE - TETRA_#1_#2_ARP_MODE;
#X floatatom -1 185 5 0 12 1 TIME_SIG - TETRA_#1_#2_TIME_SIG;
#X obj 140 232 tgl 15 0 TETRA_\$1_\$2_ARP_ON_OFF empty ARP_ON_OFF 17
7 0 10 -262144 -1 -1 0 1;
#X obj 139 306 tgl 15 0 TETRA_\$1_\$2_SEQ_ON_OFF empty SEQ_ON_OFF 17
7 0 10 -262144 -1 -1 0 1;
#X obj 138 345 hradio 15 1 0 5 TETRA_\$1_\$2_SEQ_TRIGGER empty SEQ_TRIGGER
0 -8 0 10 -262144 -1 -1 0;
#X symbolatom 140 190 14 0 0 0 - - -;
#X text 124 362 0 normal \; 1 normal no reset \; 2 no gate \; 3 no
gate no reset \; 4 key step;
#X symbolatom 139 264 14 0 0 0 - - -;
#N canvas 0 86 415 538 m 0;
#X msg 170 157 set \$1;
#X obj 170 197 outlet;
#X obj 170 139 inlet;
#X obj 222 162 r init_\$1_\$2_\$3;
#X msg 170 177 0;
#X connect 0 0 4 0;
#X connect 2 0 0 0;
#X connect 3 0 4 0;
#X connect 4 0 1 0;
#X restore 108 306 pd m;
#N canvas 1 95 415 511 m 0;
#X msg 170 157 set \$1;
#X obj 170 197 outlet;
#X obj 170 139 inlet;
#X obj 222 162 r init_\$1_\$2_\$3;
#X msg 170 177 0;
#X connect 0 0 4 0;
#X connect 2 0 0 0;
#X connect 3 0 4 0;
#X connect 4 0 1 0;
#X restore 109 232 pd m;
#N canvas 0 86 415 538 m 0;
#X msg 170 157 set \$1;
#X obj 170 197 outlet;
#X obj 170 139 inlet;
#X obj 222 162 r init_\$1_\$2_\$3;
#X msg 170 177 0;
#X connect 0 0 4 0;
#X connect 2 0 0 0;
#X connect 3 0 4 0;
#X connect 4 0 1 0;
#X restore 108 345 pd m;
#N canvas 1 87 830 535 m 0;
#X msg 170 157 set \$1;
#X obj 170 197 outlet;
#X obj 170 139 inlet;
#X obj 222 162 r init_\$1_\$2_\$3;
#X msg 170 177 Up/Down;
#X connect 0 0 4 0;
#X connect 2 0 0 0;
#X connect 3 0 4 0;
#X connect 4 0 1 0;
#X restore 426 118 pd m;
#X obj 456 118 symbol;
#N canvas 1 87 830 535 m 0;
#X msg 170 157 set \$1;
#X obj 170 197 outlet;
#X obj 170 139 inlet;
#X obj 222 162 r init_\$1_\$2_\$3;
#X msg 170 177 2;
#X connect 0 0 4 0;
#X connect 2 0 0 0;
#X connect 3 0 4 0;
#X connect 4 0 1 0;
#X restore 365 136 pd m;
#N canvas 1 87 830 535 m 0;
#X msg 170 157 set \$1;
#X obj 170 197 outlet;
#X obj 170 139 inlet;
#X obj 222 162 r init_\$1_\$2_\$3;
#X msg 170 177 1/16;
#X connect 0 0 4 0;
#X connect 2 0 0 0;
#X connect 3 0 4 0;
#X connect 4 0 1 0;
#X restore 16 128 pd m;
#X obj 46 128 symbol;
#N canvas 1 87 415 535 m 0;
#X msg 170 157 set \$1;
#X obj 170 197 outlet;
#X obj 170 139 inlet;
#X obj 222 162 r init_\$1_\$2_\$3;
#X msg 170 177 6;
#X connect 0 0 4 0;
#X connect 2 0 0 0;
#X connect 3 0 4 0;
#X connect 4 0 1 0;
#X restore -1 167 pd m;
#X obj 143 143 hsl 111 15 30 250 0 0 TETRA_\$1_\$2_TEMPO empty TEMPO
-2 -8 0 10 -262144 -1 -1 0 1;
#X floatatom 140 158 5 0 0 0 - - -;
#N canvas 0 86 415 538 m 0;
#X msg 170 157 set \$1;
#X obj 170 197 outlet;
#X obj 170 139 inlet;
#X obj 222 162 r init_\$1_\$2_\$3;
#X msg 170 177 120;
#X connect 0 0 4 0;
#X connect 2 0 0 0;
#X connect 3 0 4 0;
#X connect 4 0 1 0;
#X restore 108 143 pd m;
#X text 137 174 TIME_SIG;
#X obj -1 80 unpack f s;
#X obj -2 46 inlet;
#X obj 321 45 inlet;
#X obj 350 113 unpack f s;
#X text 136 248 ARP_MODE;
#X connect 2 0 9 0;
#X connect 3 0 8 0;
#X connect 4 0 10 0;
#X connect 8 0 3 0;
#X connect 9 0 2 0;
#X connect 10 0 4 0;
#X connect 11 0 12 0;
#X connect 12 0 7 0;
#X connect 13 0 0 0;
#X connect 14 0 15 0;
#X connect 15 0 5 0;
#X connect 16 0 1 0;
#X connect 17 0 18 0;
#X connect 17 0 19 0;
#X connect 19 0 17 0;
#X connect 21 0 16 0;
#X connect 21 0 1 0;
#X connect 21 1 5 0;
#X connect 21 1 14 0;
#X connect 22 0 21 0;
#X connect 23 0 24 0;
#X connect 24 0 0 0;
#X connect 24 0 13 0;
#X connect 24 1 7 0;
#X connect 24 1 11 0;
#X coords 0 -1 1 1 180 320 1 100 100;
