#N canvas 1 87 450 300 10;
#X obj 135 140 tgl 15 0 TETRA_\$1_\$2_UNISON_ON_OFF empty UNISON_ON_OFF
17 7 0 10 -262144 -1 -1 0 76;
#X obj 135 200 hradio 15 1 0 5 TETRA_\$1_\$2_UNISON_MODE empty UNISON_MODE
0 -8 0 10 -262144 -1 -1 0;
#X text 122 221 0 1 voice \; 1 all voices \; 2 all voices detune1 \;
3 all voices detune2 \; 4 all voices detune3;
#X obj 135 310 hradio 15 1 0 6 TETRA_\$1_\$2_UNISON_ASSIGN empty UNISON_ASSIGN
0 -8 0 10 -262144 -1 -1 0;
#X text 120 332 0 low note \; 1 low retrig \; 2 high note \; 3 high
retrig \; 4 last note \; 5 last retrig;
#N canvas 1 104 1438 780 m 0;
#X msg 170 157 set \$1;
#X obj 170 197 outlet;
#X obj 170 139 inlet;
#X msg 170 177 0;
#X obj 222 162 r init_\$1_\$2_\$3;
#X connect 0 0 3 0;
#X connect 2 0 0 0;
#X connect 3 0 1 0;
#X connect 4 0 3 0;
#X restore 104 140 pd m;
#N canvas 1 104 1438 780 m 0;
#X msg 170 157 set \$1;
#X obj 170 197 outlet;
#X obj 170 139 inlet;
#X msg 170 177 0;
#X obj 222 162 r init_\$1_\$2_\$3;
#X connect 0 0 3 0;
#X connect 2 0 0 0;
#X connect 3 0 1 0;
#X connect 4 0 3 0;
#X restore 104 200 pd m;
#N canvas 1 104 1438 780 m 0;
#X msg 170 157 set \$1;
#X obj 170 197 outlet;
#X obj 170 139 inlet;
#X msg 170 177 0;
#X obj 222 162 r init_\$1_\$2_\$3;
#X connect 0 0 3 0;
#X connect 2 0 0 0;
#X connect 3 0 1 0;
#X connect 4 0 3 0;
#X restore 104 310 pd m;
#X connect 0 0 5 0;
#X connect 1 0 6 0;
#X connect 3 0 7 0;
#X connect 5 0 0 0;
#X connect 6 0 1 0;
#X connect 7 0 3 0;
#X coords 0 -1 1 1 180 320 1 100 100;
