#N canvas 1 87 830 535 10;
#X obj 28 361 cnv 15 350 130 empty empty empty 20 12 0 14 -261633 -66577
0;
#X obj 77 369 tgl 15 0 TETRA_\$1_\$2_UNISON_ON_OFF empty UNISON_ON_OFF
17 7 0 10 -262144 -1 -1 0 76;
#X obj 77 409 hradio 15 1 0 5 TETRA_\$1_\$2_UNISON_MODE empty UNISON_MODE
0 -8 0 10 -262144 -1 -1 0;
#X text 76 425 0 1 voice \; 1 all voices \; 2 all voices detune1 \;
3 all voices detune2 \; 4 all voices detune3;
#X obj 250 389 hradio 15 1 0 6 TETRA_\$1_\$2_UNISON_ASSIGN empty UNISON_ASSIGN
0 -8 0 10 -262144 -1 -1 0;
#X obj 208 2 cnv 15 170 220 empty empty empty 20 12 0 14 -261633 -66577
0;
#X floatatom 214 8 5 0 120 1 #1_#2_OSC_2_FREQ - TETRA_#1_#2_OSC_2_FREQ
;
#X floatatom 214 66 5 0 100 1 #1_#2_OSC_2_FREQ_FINE - TETRA_#1_#2_OSC_2_FREQ_FINE
;
#X floatatom 218 131 5 0 103 1 #1_#2_OSC_2_SHAPE - TETRA_#1_#2_OSC_2_SHAPE
;
#X floatatom 218 184 5 0 127 1 #1_#2_GLIDE_2 - TETRA_#1_#2_GLIDE_2
;
#X obj 28 2 cnv 15 170 220 empty empty empty 20 12 0 14 -261633 -66577
0;
#X floatatom 38 8 5 0 120 1 #1_#2_OSC_1_FREQ - TETRA_#1_#2_OSC_1_FREQ
;
#X floatatom 38 66 5 0 100 1 #1_#2_OSC_1_FREQ_FINE - TETRA_#1_#2_OSC_1_FREQ_FINE
;
#X floatatom 38 131 5 0 103 1 #1_#2_OSC_1_SHAPE - TETRA_#1_#2_OSC_1_SHAPE
;
#X floatatom 38 184 5 0 127 1 #1_#2_GLIDE_1 - TETRA_#1_#2_GLIDE_1;
#X floatatom 160 101 5 0 99 0 - - -;
#X obj 160 116 + 4;
#X text 98 83 0 off \; 1 saw \; 2 tri \; 3 saw/tri;
#X text 251 407 0 low note \; 1 low retrig \; 2 high note \; 3 high
retrig \; 4 last note \; 5 last retrig;
#X obj 218 97 hradio 15 1 0 4 empty empty empty 0 -8 0 10 -262144 -1
-1 0;
#X floatatom 340 101 5 0 99 0 - - -;
#X obj 340 116 + 4;
#X text 278 83 0 off \; 1 saw \; 2 tri \; 3 saw/tri;
#X msg 160 83 50;
#X msg 340 83 50;
#X obj 218 202 tgl 15 0 TETRA_\$1_\$2_OSC_2_KEY empty \$1_\$2_OSC_2_KEY
17 7 0 10 -262144 -1 -1 0 1;
#X obj 39 203 tgl 15 0 TETRA_\$1_\$2_OSC_1_KEY empty \$1_\$2_OSC_1_KEY
17 7 0 10 -262144 -1 -1 0 1;
#X obj 42 162 hsl 128 15 0 127 0 0 TETRA_\$1_\$2_SUB_OSC_1_VOL empty
\$1_\$2_SUB_OSC_1_VOL -2 -8 0 10 -262144 -1 -1 0 1;
#X obj 221 162 hsl 128 15 0 127 0 0 TETRA_\$1_\$2_SUB_OSC_2_VOL empty
\$1_\$2_SUB_OSC_2_VOL -2 -8 0 10 -262144 -1 -1 0 1;
#X obj 38 97 hradio 15 1 0 4 empty empty empty 0 -8 0 10 -262144 -1
-1 0;
#X obj 28 232 cnv 15 350 120 empty empty empty 20 12 0 14 -261633 -66577
0;
#X floatatom 40 296 5 0 5 1 #1_#2_OSC_SLOP - TETRA_#1_#2_OSC_SLOP;
#X floatatom 145 293 5 0 127 1 #1_#2_FEEDBACK_GAIN - TETRA_#1_#2_FEEDBACK_GAIN
;
#X floatatom 145 312 5 0 127 1 #1_#2_FEEDBACK_VOL - TETRA_#1_#2_FEEDBACK_VOL
;
#X obj 294 267 hradio 15 1 0 4 TETRA_\$1_\$2_GLIDE_MODE empty \$1_\$2_GLIDE_MODE
0 -8 0 10 -262144 -1 -1 0;
#X obj 54 266 tgl 15 0 TETRA_\$1_\$2_SYNC empty \$1_\$2_SYNC 17 7 0
10 -262144 -1 -1 0 1;
#X text 290 282 0 rate \; 1 rate auto \; 2 time \; 3 time auto;
#X obj 142 269 hsl 128 15 0 127 0 0 TETRA_\$1_\$2_OSC_MIX empty \$1_\$2_OSC_MIX
-2 -8 0 10 -262144 -1 -1 0 1;
#X msg 205 254 64;
#X obj 38 332 hsl 128 15 0 127 0 0 TETRA_\$1_\$2_NOISE_LEVEL empty
\$1_\$2_NOISE_LEVEL -2 -8 0 10 -262144 -1 -1 0 1;
#X obj 388 271 cnv 15 350 220 empty empty empty 20 12 0 14 -172851
-66577 0;
#X obj 424 290 hsl 165 15 0 164 0 0 TETRA_\$1_\$2_FILTER_FREQ empty
FILTER_FREQ -2 -8 0 10 -262144 -1 -1 0 1;
#X obj 424 320 hsl 128 15 0 127 0 0 TETRA_\$1_\$2_RESONANCE empty RESONANCE
-2 -8 0 10 -262144 -1 -1 0 1;
#X obj 639 290 hradio 15 1 0 2 TETRA_\$1_\$2_FILTER_POLES empty FILTER_POLES
0 -8 0 10 -262144 -1 -1 0;
#X text 676 288 0 two \; 1 four;
#X obj 388 42 cnv 15 350 220 empty empty empty 20 12 0 14 -100878 -66577
0;
#X obj 430 150 hsl 128 15 0 127 0 0 TETRA_\$1_\$2_OUTPUT_PAN empty
OUTPUT_PAN -2 -8 0 10 -262144 -1 -1 0 1;
#X obj 30 500 cnv 15 230 160 empty empty empty 20 12 0 14 -221265 -66577
0;
#X obj 270 500 cnv 15 230 160 empty empty empty 20 12 0 14 -221265
-66577 0;
#X obj 510 500 cnv 15 230 160 empty empty empty 20 12 0 14 -221265
-66577 0;
#X obj 750 500 cnv 15 230 160 empty empty empty 20 12 0 14 -221265
-66577 0;
#X floatatom 41 506 5 0 166 1 #1_#2_LFO_1_FREQ - TETRA_#1_#2_LFO_1_FREQ
;
#X floatatom 41 616 5 0 48 1 #1_#2_LFO_1_DEST - TETRA_#1_#2_LFO_1_DEST
;
#X floatatom 281 506 5 0 166 1 #1_#2_LFO_2_FREQ - TETRA_#1_#2_LFO_2_FREQ
;
#X floatatom 281 616 5 0 48 1 #1_#2_LFO_2_DEST - TETRA_#1_#2_LFO_2_DEST
;
#X floatatom 522 506 5 0 166 1 #1_#2_LFO_3_FREQ - TETRA_#1_#2_LFO_3_FREQ
;
#X floatatom 521 616 5 0 48 1 #1_#2_LFO_3_DEST - TETRA_#1_#2_LFO_3_DEST
;
#X floatatom 759 506 5 0 166 1 #1_#2_LFO_4_FREQ - TETRA_#1_#2_LFO_4_FREQ
;
#X floatatom 761 616 5 0 48 1 #1_#2_LFO_4_DEST - TETRA_#1_#2_LFO_4_DEST
;
#X symbolatom 49 600 20 0 0 0 - - -;
#X symbolatom 289 600 20 0 0 0 - - -;
#X symbolatom 529 600 20 0 0 0 - - -;
#X symbolatom 769 600 20 0 0 0 - - -;
#X obj 41 639 tgl 15 0 TETRA_\$1_\$2_LFO_1_SYNC empty \$1_\$2_LFO_1_SYNC
17 7 0 10 -262144 -1 -1 0 1;
#X obj 281 639 tgl 15 0 TETRA_\$1_\$2_LFO_2_SYNC empty \$1_\$2_LFO_2_SYNC
17 7 0 10 -262144 -1 -1 0 1;
#X obj 521 639 tgl 15 0 TETRA_\$1_\$2_LFO_3_SYNC empty \$1_\$2_LFO_3_SYNC
17 7 0 10 -262144 -1 -1 0 1;
#X obj 761 639 tgl 15 0 TETRA_\$1_\$2_LFO_4_SYNC empty \$1_\$2_LFO_4_SYNC
17 7 0 10 -262144 -1 -1 0 1;
#X obj 40 542 hradio 15 1 0 5 TETRA_\$1_\$2_LFO_1_SHAPE empty \$1_\$2_LFO_1_SHAPE
0 -8 0 10 -262144 -1 -1 0;
#X text 124 523 0 tri \; 1 rev saw \; 2 saw \; 3 square \; 4 random
;
#X obj 280 542 hradio 15 1 0 5 TETRA_\$1_\$2_LFO_2_SHAPE empty \$1_\$2_LFO_2_SHAPE
0 -8 0 10 -262144 -1 -1 0;
#X text 364 523 0 tri \; 1 rev saw \; 2 saw \; 3 square \; 4 random
;
#X obj 520 542 hradio 15 1 0 5 TETRA_\$1_\$2_LFO_3_SHAPE empty \$1_\$2_LFO_3_SHAPE
0 -8 0 10 -262144 -1 -1 0;
#X text 604 523 0 tri \; 1 rev saw \; 2 saw \; 3 square \; 4 random
;
#X obj 760 542 hradio 15 1 0 5 TETRA_\$1_\$2_LFO_4_SHAPE empty \$1_\$2_LFO_4_SHAPE
0 -8 0 10 -262144 -1 -1 0;
#X text 844 523 0 tri \; 1 rev saw \; 2 saw \; 3 square \; 4 random
;
#X obj 190 520 vsl 15 128 0 127 0 0 TETRA_\$1_\$2_LFO_1_AMT empty \$1_\$2_LFO_1_AMT
0 -9 0 10 -262144 -1 -1 0 1;
#X obj 430 520 vsl 15 128 0 127 0 0 TETRA_\$1_\$2_LFO_2_AMT empty \$1_\$2_LFO_2_AMT
0 -9 0 10 -262144 -1 -1 0 1;
#X obj 670 520 vsl 15 128 0 127 0 0 TETRA_\$1_\$2_LFO_3_AMT empty \$1_\$2_LFO_3_AMT
0 -9 0 10 -262144 -1 -1 0 1;
#X obj 910 520 vsl 15 128 0 127 0 0 TETRA_\$1_\$2_LFO_4_AMT empty \$1_\$2_LFO_4_AMT
0 -9 0 10 -262144 -1 -1 0 1;
#X obj 749 271 cnv 15 370 220 empty empty empty 20 12 0 14 -221289
-66577 0;
#X obj 970 280 tgl 15 0 TETRA_\$1_\$2_ENV3_REPEAT empty ENV3_REPEAT
17 7 0 10 -262144 -1 -1 0 1;
#X obj 30 670 cnv 15 230 160 empty empty empty 20 12 0 14 -198882 -66577
0;
#X obj 270 670 cnv 15 230 160 empty empty empty 20 12 0 14 -198882
-66577 0;
#X obj 510 670 cnv 15 230 160 empty empty empty 20 12 0 14 -198882
-66577 0;
#X obj 750 670 cnv 15 230 160 empty empty empty 20 12 0 14 -198882
-66577 0;
#X floatatom 41 710 5 0 20 1 #1_#2_MOD_SOURCE_1 - TETRA_#1_#2_MOD_SOURCE_1
;
#X floatatom 41 796 5 0 48 1 #1_#2_MOD_DEST_1 - TETRA_#1_#2_MOD_DEST_1
;
#X floatatom 281 710 5 0 20 1 #1_#2_MOD_SOURCE_2 - TETRA_#1_#2_MOD_SOURCE_2
;
#X floatatom 281 796 5 0 48 1 #1_#2_MOD_DEST_2 - TETRA_#1_#2_MOD_DEST_2
;
#X floatatom 521 710 5 0 20 1 #1_#2_MOD_SOURCE_3 - TETRA_#1_#2_MOD_SOURCE_3
;
#X floatatom 521 796 5 0 48 1 #1_#2_MOD_DEST_3 - TETRA_#1_#2_MOD_DEST_3
;
#X floatatom 761 710 5 0 20 1 #1_#2_MOD_SOURCE_4 - TETRA_#1_#2_MOD_SOURCE_4
;
#X floatatom 761 796 5 0 48 1 #1_#2_MOD_DEST_4 - TETRA_#1_#2_MOD_DEST_4
;
#X symbolatom 49 781 20 0 0 0 - - -;
#X symbolatom 289 781 20 0 0 0 - - -;
#X symbolatom 529 781 20 0 0 0 - - -;
#X symbolatom 769 781 20 0 0 0 - - -;
#X symbolatom 49 695 20 0 0 0 - - -;
#X symbolatom 289 695 20 0 0 0 - - -;
#X symbolatom 529 695 20 0 0 0 - - -;
#X symbolatom 769 695 20 0 0 0 - - -;
#X obj 190 690 vsl 15 128 0 254 0 0 TETRA_\$1_\$2_MOD_AMT_1 empty \$1_\$2_MOD_AMT_1
0 -9 0 10 -262144 -1 -1 0 1;
#X msg 163 738 127;
#X obj 430 690 vsl 15 128 0 254 0 0 TETRA_\$1_\$2_MOD_AMT_2 empty \$1_\$2_MOD_AMT_2
0 -9 0 10 -262144 -1 -1 0 1;
#X msg 403 738 127;
#X obj 670 690 vsl 15 128 0 254 0 0 TETRA_\$1_\$2_MOD_AMT_3 empty \$1_\$2_MOD_AMT_3
0 -9 0 10 -262144 -1 -1 0 1;
#X msg 643 738 127;
#X obj 910 690 vsl 15 128 0 254 0 0 TETRA_\$1_\$2_MOD_AMT_4 empty \$1_\$2_MOD_AMT_4
0 -9 0 10 -262144 -1 -1 0 1;
#X msg 883 738 127;
#X obj 480 841 cnv 15 550 290 empty empty empty 20 12 0 14 -67108 -66577
0;
#X floatatom 847 977 5 0 12 1 PBEND_RANGE - TETRA_#1_#2_PBEND_RANGE
;
#X floatatom 847 1087 5 0 127 1 PUSH_IT_NOTE - TETRA_#1_#2_PUSH_IT_NOTE
;
#X floatatom 847 1105 5 0 127 1 PUSH_IT_VELOCITY - TETRA_#1_#2_PUSH_IT_VELOCITY
;
#X text 883 1058 0 normal \; 1 toggle;
#X obj 847 1062 hradio 15 1 0 2 TETRA_\$1_\$2_PUSH_IT_MODE empty PUSH_IT_MODE
0 -8 0 10 -262144 -1 -1 0;
#X symbolatom 702 863 20 0 0 0 - - -;
#X symbolatom 532 863 20 0 0 0 - - -;
#X obj 862 911 hsl 128 15 0 254 0 0 TETRA_\$1_\$2_MOD_WHEEL_AMT empty
MOD_WHEEL_AMT -2 -8 0 10 -262144 -1 -1 6350 1;
#X obj 701 1021 hsl 128 15 0 254 0 0 TETRA_\$1_\$2_BREATH_AMT empty
BREATH_AMT -2 -8 0 10 -262144 -1 -1 6350 1;
#X obj 531 1021 hsl 128 15 0 254 0 0 TETRA_\$1_\$2_FOOT_AMT empty FOOT_AMT
-2 -8 0 10 -262144 -1 -1 6350 1;
#X obj 692 911 hsl 128 15 0 254 0 0 TETRA_\$1_\$2_PRESSURE_AMT empty
PRESSURE_AMT -2 -8 0 10 -262144 -1 -1 6350 1;
#X obj 521 911 hsl 128 15 0 254 0 0 TETRA_\$1_\$2_VELOCITY_AMT empty
VELOCITY_AMT -2 -8 0 10 -262144 -1 -1 6350 1;
#X obj 30 841 cnv 15 440 290 empty empty empty 20 12 0 14 -260097 -66577
0;
#X floatatom 50 1008 5 0 14 1 #1_#2_ARP_MODE - TETRA_#1_#2_ARP_MODE
;
#X floatatom 48 886 5 30 250 1 #1_#2_TEMPO - TETRA_#1_#2_TEMPO;
#X floatatom 138 892 5 0 12 1 #1_#2_TIME_SIG - TETRA_#1_#2_TIME_SIG
;
#X floatatom 322 1067 5 0 48 1 #1_#2_SEQ_4_DEST - TETRA_#1_#2_SEQ_4_DEST
;
#X floatatom 322 1007 5 0 48 1 #1_#2_SEQ_3_DEST - TETRA_#1_#2_SEQ_3_DEST
;
#X floatatom 322 947 5 0 48 1 #1_#2_SEQ_2_DEST - TETRA_#1_#2_SEQ_2_DEST
;
#X floatatom 322 887 5 0 48 1 #1_#2_SEQ_1_DEST - TETRA_#1_#2_SEQ_1_DEST
;
#X obj 48 946 tgl 15 0 TETRA_\$1_\$2_ARP_ON_OFF empty \$1_\$2_ARP_ON_OFF
17 7 0 10 -262144 -1 -1 0 1;
#X obj 178 946 tgl 15 0 TETRA_\$1_\$2_SEQ_ON_OFF empty \$1_\$2_SEQ_ON_OFF
17 7 0 10 -262144 -1 -1 0 1;
#X obj 178 985 hradio 15 1 0 5 TETRA_\$1_\$2_SEQ_TRIGGER empty \$1_\$2_SEQ_TRIGGER
0 -8 0 10 -262144 -1 -1 0;
#X symbolatom 330 872 20 0 0 0 - - -;
#X symbolatom 330 932 20 0 0 0 - - -;
#X symbolatom 330 992 20 0 0 0 - - -;
#X symbolatom 330 1052 20 0 0 0 - - -;
#X symbolatom 146 876 20 0 0 0 - - -;
#X text 174 1002 0 normal \; 1 normal no reset \; 2 no gate \; 3 no
gate no reset \; 4 key step;
#X symbolatom 58 990 14 0 0 0 - - -;
#X text 485 1502 ------;
#X obj 30 1141 cnv 15 470 170 empty empty empty 20 12 0 14 -3264 -66577
0;
#X obj 30 1321 cnv 15 470 170 empty empty empty 20 12 0 14 -3264 -66577
0;
#X obj 510 1321 cnv 15 470 170 empty empty empty 20 12 0 14 -3264 -66577
0;
#X obj 510 1141 cnv 15 470 170 empty empty empty 20 12 0 14 -3264 -66577
0;
#X obj 325 1291 s TETRA_\$1_\$2_SEQ_1;
#X obj 337 1227 bng 15 250 50 0 empty empty empty 17 7 0 10 -262144
-1 -1;
#X msg 38 48 50;
#X msg 214 48 50;
#X obj 38 30 r zero_init_\$1_\$2;
#X obj 214 30 r zero_init_\$1_\$2;
#X obj 205 235 r zero_init_\$1_\$2;
#X obj 91 738 r zero_init_\$1_\$2;
#X obj 331 738 r zero_init_\$1_\$2;
#X obj 571 738 r zero_init_\$1_\$2;
#X obj 811 738 r zero_init_\$1_\$2;
#X obj 48 852 r zero_init_\$1_\$2;
#X msg 48 869 120;
#X obj 190 1145 r zero_init_\$1_\$2;
#X obj 281 679 TETRA_src;
#X obj 50 975 TETRA_arp;
#X obj 498 843 TETRA_dest;
#X obj 41 679 TETRA_src;
#X obj 521 679 TETRA_src;
#X obj 761 679 TETRA_src;
#X obj 138 860 TETRA_div;
#X obj 533 1072 hradio 15 1 0 3 TETRA_\$1_\$2_KEYBOARD_MODE empty KEYBOARD_MODE
0 -8 0 10 -262144 -1 -1 0;
#X text 503 1094 0 normal \; 1 stack \; 2 split;
#X obj 190 1271 s TETRA_\$1_\$2_SEQ_1_STEP;
#X obj 817 1227 bng 15 250 50 0 empty empty empty 17 7 0 10 -262144
-1 -1;
#X obj 670 1145 r zero_init_\$1_\$2;
#X obj 337 1407 bng 15 250 50 0 empty empty empty 17 7 0 10 -262144
-1 -1;
#X obj 190 1325 r zero_init_\$1_\$2;
#X obj 817 1407 bng 15 250 50 0 empty empty empty 17 7 0 10 -262144
-1 -1;
#X obj 670 1325 r zero_init_\$1_\$2;
#X obj 190 1451 s TETRA_\$1_\$2_SEQ_3_STEP;
#X obj 325 1471 s TETRA_\$1_\$2_SEQ_3;
#X obj 805 1471 s TETRA_\$1_\$2_SEQ_4;
#X obj 670 1451 s TETRA_\$1_\$2_SEQ_4_STEP;
#X obj 670 1271 s TETRA_\$1_\$2_SEQ_2_STEP;
#X obj 805 1291 s TETRA_\$1_\$2_SEQ_2;
#X obj 190 1242 TETRA_sequencer \$1_\$2 1;
#X obj 190 1422 TETRA_sequencer \$1_\$2 3;
#X obj 670 1422 TETRA_sequencer \$1_\$2 4;
#X obj 670 1242 TETRA_sequencer \$1_\$2 2;
#X obj 40 1156 table \$1_\$2_SEQ_1_TABLE;
#X text 271 1198 0-63 pitch (0.5 resolution) \; 63 reset \; 63.5 rest
;
#X text 751 1198 0-63 pitch (0.5 resolution) \; 63 reset;
#X text 751 1378 0-63 pitch (0.5 resolution) \; 63 reset;
#X text 271 1378 0-63 pitch (0.5 resolution) \; 63 reset;
#X obj 520 1156 table \$1_\$2_SEQ_2_TABLE;
#X obj 520 1336 table \$1_\$2_SEQ_4_TABLE;
#X obj 40 1336 table \$1_\$2_SEQ_3_TABLE;
#X msg 190 1344 0 0 0 0 0 0 0 0 0 0 0 0 0 0 0 0 0;
#X msg 190 1164 0 0 0 0 0 0 0 0 0 0 0 0 0 0 0 0 0;
#X msg 670 1164 0 0 0 0 0 0 0 0 0 0 0 0 0 0 0 0 0;
#X msg 670 1344 0 0 0 0 0 0 0 0 0 0 0 0 0 0 0 0 0;
#X obj 448 12 TETRA_mappings \$2;
#X floatatom 638 16 5 1 128 1 #1_#2_PROGRAM_CHANGE - TETRA_#1_#2_PROGRAM_CHANGE
;
#X text 802 46 0 bank 1 \; 1 bank 2 \; 2 bank 3 \; 3 bank 4 \;;
#X obj 804 29 hradio 15 1 0 4 TETRA_\$1_\$2_BANK_SELECT empty \$1_\$2_BANK_SELECT
0 -8 0 10 -262144 -1 -1 0;
#N canvas 1 104 1438 780 m 0;
#X msg 170 157 set \$1;
#X obj 170 197 outlet;
#X obj 170 139 inlet;
#X msg 170 177 0;
#X obj 222 162 r init_\$1_\$2_\$3;
#X connect 0 0 3 0;
#X connect 2 0 0 0;
#X connect 3 0 1 0;
#X connect 4 0 3 0;
#X restore 391 290 pd m;
#N canvas 1 104 1438 780 m 0;
#X msg 170 157 set \$1;
#X obj 170 197 outlet;
#X obj 170 139 inlet;
#X msg 170 177 0;
#X obj 222 162 r init_\$1_\$2_\$3;
#X connect 0 0 3 0;
#X connect 2 0 0 0;
#X connect 3 0 1 0;
#X connect 4 0 3 0;
#X restore 391 320 pd m;
#N canvas 1 87 830 535 m 0;
#X msg 170 157 set \$1;
#X obj 170 197 outlet;
#X obj 170 139 inlet;
#X msg 170 177 0;
#X obj 222 162 r init_\$1_\$2_\$3;
#X connect 0 0 3 0;
#X connect 2 0 0 0;
#X connect 3 0 1 0;
#X connect 4 0 3 0;
#X restore 608 290 pd m;
#X obj 430 70 hsl 128 15 0 127 0 0 TETRA_\$1_\$2_VCA_LEVEL empty VCA_LEVEL
-2 -8 0 10 -262144 -1 -1 0 1;
#X obj 430 100 hsl 128 15 0 127 0 0 TETRA_\$1_\$2_PRESET_VOLUME empty
PRESET_VOLUME -2 -8 0 10 -262144 -1 -1 0 1;
#X obj 600 110 hsl 128 15 0 127 0 0 TETRA_\$1_\$2_VCA_DEL empty VCA_DEL
-2 -8 0 10 -262144 -1 -1 0 1;
#X obj 600 140 hsl 128 15 0 127 0 0 TETRA_\$1_\$2_VCA_ATT empty VCA_ATT
-2 -8 0 10 -262144 -1 -1 0 1;
#X obj 600 170 hsl 128 15 0 127 0 0 TETRA_\$1_\$2_VCA_DEC empty VCA_DEC
-2 -8 0 10 -262144 -1 -1 0 1;
#X obj 600 200 hsl 128 15 0 127 0 0 TETRA_\$1_\$2_VCA_SUS empty VCA_SUS
-2 -8 0 10 -262144 -1 -1 0 1;
#X obj 600 230 hsl 128 15 0 127 0 0 TETRA_\$1_\$2_VCA_REL empty VCA_REL
-2 -8 0 10 -262144 -1 -1 0 1;
#X obj 430 200 hsl 128 15 0 127 0 0 TETRA_\$1_\$2_VCA_ENV_AMOUNT empty
VCA_ENV_AMOUNT -2 -8 0 10 -262144 -1 -1 0 1;
#X obj 430 230 hsl 128 15 0 127 0 0 TETRA_\$1_\$2_VCA_ENV_VEL_AMT empty
VCA_ENV_VEL_AMT -2 -8 0 10 -262144 -1 -1 0 1;
#N canvas 1 87 830 535 m 0;
#X msg 170 157 set \$1;
#X obj 170 197 outlet;
#X obj 170 139 inlet;
#X msg 170 177 0;
#X obj 222 162 r init_\$1_\$2_\$3;
#X connect 0 0 3 0;
#X connect 2 0 0 0;
#X connect 3 0 1 0;
#X connect 4 0 3 0;
#X restore 566 110 pd m;
#N canvas 1 112 1278 780 m 0;
#X msg 170 157 set \$1;
#X obj 170 197 outlet;
#X obj 170 139 inlet;
#X msg 170 177 0;
#X obj 222 162 r init_\$1_\$2_\$3;
#X connect 0 0 3 0;
#X connect 2 0 0 0;
#X connect 3 0 1 0;
#X connect 4 0 3 0;
#X restore 566 140 pd m;
#N canvas 1 112 1278 780 m 0;
#X msg 170 157 set \$1;
#X obj 170 197 outlet;
#X obj 170 139 inlet;
#X msg 170 177 0;
#X obj 222 162 r init_\$1_\$2_\$3;
#X connect 0 0 3 0;
#X connect 2 0 0 0;
#X connect 3 0 1 0;
#X connect 4 0 3 0;
#X restore 566 170 pd m;
#N canvas 1 87 830 535 m 0;
#X msg 170 157 set \$1;
#X obj 170 197 outlet;
#X obj 170 139 inlet;
#X msg 170 177 0;
#X obj 222 162 r init_\$1_\$2_\$3;
#X connect 0 0 3 0;
#X connect 2 0 0 0;
#X connect 3 0 1 0;
#X connect 4 0 3 0;
#X restore 566 200 pd m;
#N canvas 1 112 1278 780 m 0;
#X msg 170 157 set \$1;
#X obj 170 197 outlet;
#X obj 170 139 inlet;
#X msg 170 177 0;
#X obj 222 162 r init_\$1_\$2_\$3;
#X connect 0 0 3 0;
#X connect 2 0 0 0;
#X connect 3 0 1 0;
#X connect 4 0 3 0;
#X restore 566 230 pd m;
#N canvas 1 87 830 535 m 0;
#X msg 170 157 set \$1;
#X obj 170 197 outlet;
#X obj 170 139 inlet;
#X msg 170 177 0;
#X obj 222 162 r init_\$1_\$2_\$3;
#X connect 0 0 3 0;
#X connect 2 0 0 0;
#X connect 3 0 1 0;
#X connect 4 0 3 0;
#X restore 396 70 pd m;
#N canvas 1 112 1278 780 m 0;
#X msg 170 157 set \$1;
#X obj 170 197 outlet;
#X obj 170 139 inlet;
#X msg 170 177 0;
#X obj 222 162 r init_\$1_\$2_\$3;
#X connect 0 0 3 0;
#X connect 2 0 0 0;
#X connect 3 0 1 0;
#X connect 4 0 3 0;
#X restore 396 100 pd m;
#N canvas 1 112 1278 780 m 0;
#X msg 170 157 set \$1;
#X obj 170 197 outlet;
#X obj 170 139 inlet;
#X msg 170 177 0;
#X obj 222 162 r init_\$1_\$2_\$3;
#X connect 0 0 3 0;
#X connect 2 0 0 0;
#X connect 3 0 1 0;
#X connect 4 0 3 0;
#X restore 396 150 pd m;
#N canvas 1 112 1278 780 m 0;
#X msg 170 157 set \$1;
#X obj 170 197 outlet;
#X obj 170 139 inlet;
#X msg 170 177 0;
#X obj 222 162 r init_\$1_\$2_\$3;
#X connect 0 0 3 0;
#X connect 2 0 0 0;
#X connect 3 0 1 0;
#X connect 4 0 3 0;
#X restore 396 200 pd m;
#N canvas 1 112 1278 780 m 0;
#X msg 170 157 set \$1;
#X obj 170 197 outlet;
#X obj 170 139 inlet;
#X msg 170 177 0;
#X obj 222 162 r init_\$1_\$2_\$3;
#X connect 0 0 3 0;
#X connect 2 0 0 0;
#X connect 3 0 1 0;
#X connect 4 0 3 0;
#X restore 396 230 pd m;
#X obj 424 360 hsl 128 15 0 254 0 0 TETRA_\$1_\$2_FILTER_ENV_AMT empty
FILTER_ENV_AMT -2 -8 0 10 -262144 -1 -1 6350 1;
#N canvas 1 87 830 535 m 0;
#X msg 170 157 set \$1;
#X obj 170 197 outlet;
#X obj 170 139 inlet;
#X obj 222 162 r init_\$1_\$2_\$3;
#X msg 170 177 127;
#X connect 0 0 4 0;
#X connect 2 0 0 0;
#X connect 3 0 4 0;
#X connect 4 0 1 0;
#X restore 390 360 pd m;
#X obj 600 351 hsl 128 15 0 127 0 0 TETRA_\$1_\$2_FIL_DEL empty FIL_DEL
-2 -8 0 10 -262144 -1 -1 0 1;
#X obj 600 381 hsl 128 15 0 127 0 0 TETRA_\$1_\$2_FIL_ATT empty FIL_ATT
-2 -8 0 10 -262144 -1 -1 0 1;
#X obj 600 411 hsl 128 15 0 127 0 0 TETRA_\$1_\$2_FIL_DEC empty FIL_DEC
-2 -8 0 10 -262144 -1 -1 0 1;
#X obj 600 441 hsl 128 15 0 127 0 0 TETRA_\$1_\$2_FIL_SUS empty FIL_SUS
-2 -8 0 10 -262144 -1 -1 0 1;
#X obj 600 471 hsl 128 15 0 127 0 0 TETRA_\$1_\$2_FIL_REL empty FIL_REL
-2 -8 0 10 -262144 -1 -1 0 1;
#N canvas 1 87 830 535 m 0;
#X msg 170 157 set \$1;
#X obj 170 197 outlet;
#X obj 170 139 inlet;
#X msg 170 177 0;
#X obj 222 162 r init_\$1_\$2_\$3;
#X connect 0 0 3 0;
#X connect 2 0 0 0;
#X connect 3 0 1 0;
#X connect 4 0 3 0;
#X restore 566 351 pd m;
#N canvas 1 112 1278 780 m 0;
#X msg 170 157 set \$1;
#X obj 170 197 outlet;
#X obj 170 139 inlet;
#X msg 170 177 0;
#X obj 222 162 r init_\$1_\$2_\$3;
#X connect 0 0 3 0;
#X connect 2 0 0 0;
#X connect 3 0 1 0;
#X connect 4 0 3 0;
#X restore 566 381 pd m;
#N canvas 1 112 1278 780 m 0;
#X msg 170 157 set \$1;
#X obj 170 197 outlet;
#X obj 170 139 inlet;
#X msg 170 177 0;
#X obj 222 162 r init_\$1_\$2_\$3;
#X connect 0 0 3 0;
#X connect 2 0 0 0;
#X connect 3 0 1 0;
#X connect 4 0 3 0;
#X restore 566 411 pd m;
#N canvas 1 112 1278 780 m 0;
#X msg 170 157 set \$1;
#X obj 170 197 outlet;
#X obj 170 139 inlet;
#X msg 170 177 0;
#X obj 222 162 r init_\$1_\$2_\$3;
#X connect 0 0 3 0;
#X connect 2 0 0 0;
#X connect 3 0 1 0;
#X connect 4 0 3 0;
#X restore 566 441 pd m;
#N canvas 1 112 1278 780 m 0;
#X msg 170 157 set \$1;
#X obj 170 197 outlet;
#X obj 170 139 inlet;
#X msg 170 177 0;
#X obj 222 162 r init_\$1_\$2_\$3;
#X connect 0 0 3 0;
#X connect 2 0 0 0;
#X connect 3 0 1 0;
#X connect 4 0 3 0;
#X restore 566 471 pd m;
#X obj 424 390 hsl 128 15 0 127 0 0 TETRA_\$1_\$2_FIL_ENV_VEL_AMT empty
FIL_ENV_VEL_AMT -2 -8 0 10 -262144 -1 -1 0 1;
#N canvas 1 87 830 535 m 0;
#X msg 170 157 set \$1;
#X obj 170 197 outlet;
#X obj 170 139 inlet;
#X obj 222 162 r init_\$1_\$2_\$3;
#X msg 170 177 0;
#X connect 0 0 4 0;
#X connect 2 0 0 0;
#X connect 3 0 4 0;
#X connect 4 0 1 0;
#X restore 390 390 pd m;
#X obj 424 430 hsl 128 15 0 127 0 0 TETRA_\$1_\$2_FIL_KEY_AMT empty
FIL_KEY_AMT -2 -8 0 10 -262144 -1 -1 0 1;
#N canvas 1 87 830 535 m 0;
#X msg 170 157 set \$1;
#X obj 170 197 outlet;
#X obj 170 139 inlet;
#X obj 222 162 r init_\$1_\$2_\$3;
#X msg 170 177 0;
#X connect 0 0 4 0;
#X connect 2 0 0 0;
#X connect 3 0 4 0;
#X connect 4 0 1 0;
#X restore 390 430 pd m;
#X obj 424 470 hsl 128 15 0 127 0 0 TETRA_\$1_\$2_FIL_AUDIO_MOD empty
FIL_AUDIO_MOD -2 -8 0 10 -262144 -1 -1 0 1;
#N canvas 1 87 830 535 m 0;
#X msg 170 157 set \$1;
#X obj 170 197 outlet;
#X obj 170 139 inlet;
#X obj 222 162 r init_\$1_\$2_\$3;
#X msg 170 177 0;
#X connect 0 0 4 0;
#X connect 2 0 0 0;
#X connect 3 0 4 0;
#X connect 4 0 1 0;
#X restore 390 470 pd m;
#N canvas 1 104 1438 780 m 0;
#X msg 170 157 set \$1;
#X obj 170 197 outlet;
#X obj 170 139 inlet;
#X msg 170 177 0;
#X obj 222 162 r init_\$1_\$2_\$3;
#X connect 0 0 3 0;
#X connect 2 0 0 0;
#X connect 3 0 1 0;
#X connect 4 0 3 0;
#X restore 46 369 pd m;
#N canvas 1 104 1438 780 m 0;
#X msg 170 157 set \$1;
#X obj 170 197 outlet;
#X obj 170 139 inlet;
#X msg 170 177 0;
#X obj 222 162 r init_\$1_\$2_\$3;
#X connect 0 0 3 0;
#X connect 2 0 0 0;
#X connect 3 0 1 0;
#X connect 4 0 3 0;
#X restore 46 409 pd m;
#N canvas 1 104 1438 780 m 0;
#X msg 170 157 set \$1;
#X obj 170 197 outlet;
#X obj 170 139 inlet;
#X msg 170 177 0;
#X obj 222 162 r init_\$1_\$2_\$3;
#X connect 0 0 3 0;
#X connect 2 0 0 0;
#X connect 3 0 1 0;
#X connect 4 0 3 0;
#X restore 219 389 pd m;
#X obj 498 879 s TETRA_\$1_\$2_VELOCITY_DEST;
#X obj 521 584 TETRA_dest;
#X obj 322 856 TETRA_dest;
#X obj 41 584 TETRA_dest;
#X obj 281 584 TETRA_dest;
#X obj 761 584 TETRA_dest;
#X obj 41 765 TETRA_dest;
#X obj 281 765 TETRA_dest;
#X obj 521 765 TETRA_dest;
#X obj 761 765 TETRA_dest;
#X obj 668 843 TETRA_dest;
#X obj 322 916 TETRA_dest;
#X obj 322 976 TETRA_dest;
#X obj 322 1036 TETRA_dest;
#N canvas 1 87 830 535 m 0;
#X msg 170 157 set \$1;
#X obj 170 197 outlet;
#X obj 170 139 inlet;
#X obj 222 162 r init_\$1_\$2_\$3;
#X msg 170 177 off;
#X connect 0 0 4 0;
#X connect 2 0 0 0;
#X connect 3 0 4 0;
#X connect 4 0 1 0;
#X restore 565 843 pd m;
#N canvas 1 87 830 535 m 0;
#X msg 170 157 set \$1;
#X obj 170 197 outlet;
#X obj 170 139 inlet;
#X obj 222 162 r init_\$1_\$2_\$3;
#X msg 170 177 0;
#X connect 0 0 4 0;
#X connect 2 0 0 0;
#X connect 3 0 4 0;
#X connect 4 0 1 0;
#X restore 498 861 pd m;
#N canvas 0 86 415 538 m 0;
#X msg 170 157 set \$1;
#X obj 170 197 outlet;
#X obj 170 139 inlet;
#X obj 222 162 r init_\$1_\$2_\$3;
#X msg 170 177 off;
#X connect 0 0 4 0;
#X connect 2 0 0 0;
#X connect 3 0 4 0;
#X connect 4 0 1 0;
#X restore 735 843 pd m;
#X obj 766 843 symbol;
#X obj 595 843 symbol;
#X obj 668 879 s TETRA_\$1_\$2_PRESSURE_DEST;
#N canvas 0 86 415 538 m 0;
#X msg 170 157 set \$1;
#X obj 170 197 outlet;
#X obj 170 139 inlet;
#X obj 222 162 r init_\$1_\$2_\$3;
#X msg 170 177 0;
#X connect 0 0 4 0;
#X connect 2 0 0 0;
#X connect 3 0 4 0;
#X connect 4 0 1 0;
#X restore 668 861 pd m;
#X obj 819 153 bng 15 250 50 0 empty empty empty 17 7 0 10 -262144
-1 -1;
#X obj 819 173 s init_A_1_all;
#X symbolatom 872 863 20 0 0 0 - - -;
#X obj 838 843 TETRA_dest;
#N canvas 0 86 415 538 m 0;
#X msg 170 157 set \$1;
#X obj 170 197 outlet;
#X obj 170 139 inlet;
#X obj 222 162 r init_\$1_\$2_\$3;
#X msg 170 177 off;
#X connect 0 0 4 0;
#X connect 2 0 0 0;
#X connect 3 0 4 0;
#X connect 4 0 1 0;
#X restore 905 843 pd m;
#X obj 936 843 symbol;
#N canvas 0 86 415 538 m 0;
#X msg 170 157 set \$1;
#X obj 170 197 outlet;
#X obj 170 139 inlet;
#X obj 222 162 r init_\$1_\$2_\$3;
#X msg 170 177 0;
#X connect 0 0 4 0;
#X connect 2 0 0 0;
#X connect 3 0 4 0;
#X connect 4 0 1 0;
#X restore 838 861 pd m;
#X obj 838 879 s TETRA_\$1_\$2_MOD_WHEEL_DEST;
#N canvas 1 87 830 535 m 0;
#X msg 170 157 set \$1;
#X obj 170 197 outlet;
#X obj 170 139 inlet;
#X obj 222 162 r init_\$1_\$2_\$3;
#X msg 170 177 127;
#X connect 0 0 4 0;
#X connect 2 0 0 0;
#X connect 3 0 4 0;
#X connect 4 0 1 0;
#X restore 488 911 pd m;
#N canvas 1 87 830 535 m 0;
#X msg 170 157 set \$1;
#X obj 170 197 outlet;
#X obj 170 139 inlet;
#X obj 222 162 r init_\$1_\$2_\$3;
#X msg 170 177 127;
#X connect 0 0 4 0;
#X connect 2 0 0 0;
#X connect 3 0 4 0;
#X connect 4 0 1 0;
#X restore 658 911 pd m;
#N canvas 1 87 830 535 m 0;
#X msg 170 157 set \$1;
#X obj 170 197 outlet;
#X obj 170 139 inlet;
#X obj 222 162 r init_\$1_\$2_\$3;
#X msg 170 177 127;
#X connect 0 0 4 0;
#X connect 2 0 0 0;
#X connect 3 0 4 0;
#X connect 4 0 1 0;
#X restore 828 911 pd m;
#X symbolatom 532 973 20 0 0 0 - - -;
#X obj 498 953 TETRA_dest;
#N canvas 0 86 415 538 m 0;
#X msg 170 157 set \$1;
#X obj 170 197 outlet;
#X obj 170 139 inlet;
#X obj 222 162 r init_\$1_\$2_\$3;
#X msg 170 177 off;
#X connect 0 0 4 0;
#X connect 2 0 0 0;
#X connect 3 0 4 0;
#X connect 4 0 1 0;
#X restore 565 953 pd m;
#X obj 596 953 symbol;
#N canvas 0 86 415 538 m 0;
#X msg 170 157 set \$1;
#X obj 170 197 outlet;
#X obj 170 139 inlet;
#X obj 222 162 r init_\$1_\$2_\$3;
#X msg 170 177 0;
#X connect 0 0 4 0;
#X connect 2 0 0 0;
#X connect 3 0 4 0;
#X connect 4 0 1 0;
#X restore 498 971 pd m;
#X symbolatom 702 973 20 0 0 0 - - -;
#X obj 668 953 TETRA_dest;
#N canvas 0 86 415 538 m 0;
#X msg 170 157 set \$1;
#X obj 170 197 outlet;
#X obj 170 139 inlet;
#X obj 222 162 r init_\$1_\$2_\$3;
#X msg 170 177 off;
#X connect 0 0 4 0;
#X connect 2 0 0 0;
#X connect 3 0 4 0;
#X connect 4 0 1 0;
#X restore 735 953 pd m;
#X obj 766 953 symbol;
#N canvas 0 86 415 538 m 0;
#X msg 170 157 set \$1;
#X obj 170 197 outlet;
#X obj 170 139 inlet;
#X obj 222 162 r init_\$1_\$2_\$3;
#X msg 170 177 0;
#X connect 0 0 4 0;
#X connect 2 0 0 0;
#X connect 3 0 4 0;
#X connect 4 0 1 0;
#X restore 668 971 pd m;
#X obj 498 989 s TETRA_\$1_\$2_FOOT_DEST;
#X obj 668 989 s TETRA_\$1_\$2_BREATH_DEST;
#N canvas 1 87 830 535 m 0;
#X msg 170 157 set \$1;
#X obj 170 197 outlet;
#X obj 170 139 inlet;
#X obj 222 162 r init_\$1_\$2_\$3;
#X msg 170 177 127;
#X connect 0 0 4 0;
#X connect 2 0 0 0;
#X connect 3 0 4 0;
#X connect 4 0 1 0;
#X restore 668 1021 pd m;
#N canvas 1 87 830 535 m 0;
#X msg 170 157 set \$1;
#X obj 170 197 outlet;
#X obj 170 139 inlet;
#X obj 222 162 r init_\$1_\$2_\$3;
#X msg 170 177 127;
#X connect 0 0 4 0;
#X connect 2 0 0 0;
#X connect 3 0 4 0;
#X connect 4 0 1 0;
#X restore 498 1021 pd m;
#X obj 650 1113 hsl 128 15 0 127 0 0 TETRA_\$1_\$2_SPLIT_POINT empty
SPLIT_POINT -2 -8 0 10 -262144 -1 -1 12700 1;
#N canvas 1 87 830 535 m 0;
#X msg 170 157 set \$1;
#X obj 170 197 outlet;
#X obj 170 139 inlet;
#X obj 222 162 r init_\$1_\$2_\$3;
#X msg 170 177 127;
#X connect 0 0 4 0;
#X connect 2 0 0 0;
#X connect 3 0 4 0;
#X connect 4 0 1 0;
#X restore 616 1113 pd m;
#N canvas 1 87 830 535 m 0;
#X msg 170 157 set \$1;
#X obj 170 197 outlet;
#X obj 170 139 inlet;
#X obj 222 162 r init_\$1_\$2_\$3;
#X msg 170 177 0;
#X connect 0 0 4 0;
#X connect 2 0 0 0;
#X connect 3 0 4 0;
#X connect 4 0 1 0;
#X restore 502 1072 pd m;
#N canvas 1 87 830 535 m 0;
#X msg 170 157 set \$1;
#X obj 170 197 outlet;
#X obj 170 139 inlet;
#X obj 222 162 r init_\$1_\$2_\$3;
#X msg 170 177 0;
#X connect 0 0 4 0;
#X connect 2 0 0 0;
#X connect 3 0 4 0;
#X connect 4 0 1 0;
#X restore 816 1062 pd m;
#X symbolatom 802 297 20 0 0 0 - - -;
#X obj 768 277 TETRA_dest;
#N canvas 0 86 415 538 m 0;
#X msg 170 157 set \$1;
#X obj 170 197 outlet;
#X obj 170 139 inlet;
#X obj 222 162 r init_\$1_\$2_\$3;
#X msg 170 177 off;
#X connect 0 0 4 0;
#X connect 2 0 0 0;
#X connect 3 0 4 0;
#X connect 4 0 1 0;
#X restore 835 277 pd m;
#X obj 866 277 symbol;
#N canvas 0 86 415 538 m 0;
#X msg 170 157 set \$1;
#X obj 170 197 outlet;
#X obj 170 139 inlet;
#X obj 222 162 r init_\$1_\$2_\$3;
#X msg 170 177 0;
#X connect 0 0 4 0;
#X connect 2 0 0 0;
#X connect 3 0 4 0;
#X connect 4 0 1 0;
#X restore 768 295 pd m;
#X obj 768 313 s TETRA_\$1_\$2_ENV3_DEST;
#X obj 970 321 hsl 128 15 0 127 0 0 TETRA_\$1_\$2_ENV3_DEL empty ENV3_DEL
-2 -8 0 10 -262144 -1 -1 0 1;
#X obj 970 351 hsl 128 15 0 127 0 0 TETRA_\$1_\$2_ENV3_ATT empty ENV3_ATT
-2 -8 0 10 -262144 -1 -1 0 1;
#X obj 970 381 hsl 128 15 0 127 0 0 TETRA_\$1_\$2_ENV3_DEC empty ENV3_DEC
-2 -8 0 10 -262144 -1 -1 0 1;
#X obj 970 411 hsl 128 15 0 127 0 0 TETRA_\$1_\$2_ENV3_SUS empty ENV3_SUS
-2 -8 0 10 -262144 -1 -1 0 1;
#X obj 970 441 hsl 128 15 0 127 0 0 TETRA_\$1_\$2_ENV3_REL empty ENV3_REL
-2 -8 0 10 -262144 -1 -1 0 1;
#N canvas 1 87 830 535 m 0;
#X msg 170 157 set \$1;
#X obj 170 197 outlet;
#X obj 170 139 inlet;
#X msg 170 177 0;
#X obj 222 162 r init_\$1_\$2_\$3;
#X connect 0 0 3 0;
#X connect 2 0 0 0;
#X connect 3 0 1 0;
#X connect 4 0 3 0;
#X restore 936 321 pd m;
#N canvas 1 112 1278 780 m 0;
#X msg 170 157 set \$1;
#X obj 170 197 outlet;
#X obj 170 139 inlet;
#X msg 170 177 0;
#X obj 222 162 r init_\$1_\$2_\$3;
#X connect 0 0 3 0;
#X connect 2 0 0 0;
#X connect 3 0 1 0;
#X connect 4 0 3 0;
#X restore 936 351 pd m;
#N canvas 1 112 1278 780 m 0;
#X msg 170 157 set \$1;
#X obj 170 197 outlet;
#X obj 170 139 inlet;
#X msg 170 177 0;
#X obj 222 162 r init_\$1_\$2_\$3;
#X connect 0 0 3 0;
#X connect 2 0 0 0;
#X connect 3 0 1 0;
#X connect 4 0 3 0;
#X restore 936 381 pd m;
#N canvas 1 112 1278 780 m 0;
#X msg 170 157 set \$1;
#X obj 170 197 outlet;
#X obj 170 139 inlet;
#X msg 170 177 0;
#X obj 222 162 r init_\$1_\$2_\$3;
#X connect 0 0 3 0;
#X connect 2 0 0 0;
#X connect 3 0 1 0;
#X connect 4 0 3 0;
#X restore 936 411 pd m;
#N canvas 1 112 1278 780 m 0;
#X msg 170 157 set \$1;
#X obj 170 197 outlet;
#X obj 170 139 inlet;
#X msg 170 177 0;
#X obj 222 162 r init_\$1_\$2_\$3;
#X connect 0 0 3 0;
#X connect 2 0 0 0;
#X connect 3 0 1 0;
#X connect 4 0 3 0;
#X restore 936 441 pd m;
#X obj 789 401 hsl 128 15 0 254 0 0 TETRA_\$1_\$2_ENV3_AMT empty ENV3_AMT
-2 -8 0 10 -262144 -1 -1 6350 1;
#N canvas 1 87 830 535 m 0;
#X msg 170 157 set \$1;
#X obj 170 197 outlet;
#X obj 170 139 inlet;
#X obj 222 162 r init_\$1_\$2_\$3;
#X msg 170 177 127;
#X connect 0 0 4 0;
#X connect 2 0 0 0;
#X connect 3 0 4 0;
#X connect 4 0 1 0;
#X restore 754 401 pd m;
#X text 1133 277 ----;
#X obj 789 441 hsl 128 15 0 127 0 0 TETRA_\$1_\$2_ENV3_VEL_AMT empty
ENV3_VEL_AMT -2 -8 0 10 -262144 -1 -1 0 1;
#N canvas 1 87 830 535 m 0;
#X msg 170 157 set \$1;
#X obj 170 197 outlet;
#X obj 170 139 inlet;
#X obj 222 162 r init_\$1_\$2_\$3;
#X msg 170 177 0;
#X connect 0 0 4 0;
#X connect 2 0 0 0;
#X connect 3 0 4 0;
#X connect 4 0 1 0;
#X restore 754 441 pd m;
#N canvas 1 87 830 535 m 0;
#X msg 170 157 set \$1;
#X obj 170 197 outlet;
#X obj 170 139 inlet;
#X obj 222 162 r init_\$1_\$2_\$3;
#X msg 170 177 0;
#X connect 0 0 4 0;
#X connect 2 0 0 0;
#X connect 3 0 4 0;
#X connect 4 0 1 0;
#X restore 936 281 pd m;
#X connect 1 0 241 0;
#X connect 2 0 242 0;
#X connect 4 0 243 0;
#X connect 15 0 16 0;
#X connect 16 0 13 0;
#X connect 19 0 8 0;
#X connect 20 0 21 0;
#X connect 21 0 8 0;
#X connect 23 0 15 0;
#X connect 24 0 20 0;
#X connect 29 0 13 0;
#X connect 38 0 37 0;
#X connect 41 0 201 0;
#X connect 42 0 202 0;
#X connect 43 0 203 0;
#X connect 46 0 220 0;
#X connect 80 0 315 0;
#X connect 102 0 101 0;
#X connect 104 0 103 0;
#X connect 106 0 105 0;
#X connect 108 0 107 0;
#X connect 114 0 293 0;
#X connect 117 0 275 0;
#X connect 118 0 288 0;
#X connect 119 0 289 0;
#X connect 120 0 274 0;
#X connect 121 0 273 0;
#X connect 146 0 181 1;
#X connect 147 0 12 0;
#X connect 148 0 7 0;
#X connect 149 0 147 0;
#X connect 150 0 148 0;
#X connect 151 0 38 0;
#X connect 152 0 102 0;
#X connect 153 0 104 0;
#X connect 154 0 106 0;
#X connect 155 0 108 0;
#X connect 156 0 157 0;
#X connect 157 0 124 0;
#X connect 158 0 194 0;
#X connect 159 0 87 0;
#X connect 159 1 98 0;
#X connect 160 0 123 0;
#X connect 160 1 139 0;
#X connect 161 0 244 0;
#X connect 161 0 259 0;
#X connect 161 1 116 0;
#X connect 161 1 258 0;
#X connect 162 0 85 0;
#X connect 162 1 97 0;
#X connect 163 0 89 0;
#X connect 163 1 99 0;
#X connect 164 0 91 0;
#X connect 164 1 100 0;
#X connect 165 0 125 0;
#X connect 165 1 137 0;
#X connect 166 0 292 0;
#X connect 169 0 184 1;
#X connect 170 0 195 0;
#X connect 171 0 182 1;
#X connect 172 0 193 0;
#X connect 173 0 183 1;
#X connect 174 0 196 0;
#X connect 181 0 168 0;
#X connect 181 1 145 0;
#X connect 182 0 175 0;
#X connect 182 1 176 0;
#X connect 183 0 178 0;
#X connect 183 1 177 0;
#X connect 184 0 179 0;
#X connect 184 1 180 0;
#X connect 193 0 182 0;
#X connect 194 0 181 0;
#X connect 195 0 184 0;
#X connect 196 0 183 0;
#X connect 201 0 41 0;
#X connect 202 0 42 0;
#X connect 203 0 43 0;
#X connect 204 0 218 0;
#X connect 205 0 219 0;
#X connect 206 0 213 0;
#X connect 207 0 214 0;
#X connect 208 0 215 0;
#X connect 209 0 216 0;
#X connect 210 0 217 0;
#X connect 211 0 221 0;
#X connect 212 0 222 0;
#X connect 213 0 206 0;
#X connect 214 0 207 0;
#X connect 215 0 208 0;
#X connect 216 0 209 0;
#X connect 217 0 210 0;
#X connect 218 0 204 0;
#X connect 219 0 205 0;
#X connect 220 0 46 0;
#X connect 221 0 211 0;
#X connect 222 0 212 0;
#X connect 223 0 224 0;
#X connect 224 0 223 0;
#X connect 225 0 230 0;
#X connect 226 0 231 0;
#X connect 227 0 232 0;
#X connect 228 0 233 0;
#X connect 229 0 234 0;
#X connect 230 0 225 0;
#X connect 231 0 226 0;
#X connect 232 0 227 0;
#X connect 233 0 228 0;
#X connect 234 0 229 0;
#X connect 235 0 236 0;
#X connect 236 0 235 0;
#X connect 237 0 238 0;
#X connect 238 0 237 0;
#X connect 239 0 240 0;
#X connect 240 0 239 0;
#X connect 241 0 1 0;
#X connect 242 0 2 0;
#X connect 243 0 4 0;
#X connect 245 0 56 0;
#X connect 245 1 61 0;
#X connect 246 0 129 0;
#X connect 246 1 133 0;
#X connect 247 0 52 0;
#X connect 247 1 59 0;
#X connect 248 0 54 0;
#X connect 248 1 60 0;
#X connect 249 0 58 0;
#X connect 249 1 62 0;
#X connect 250 0 86 0;
#X connect 250 1 93 0;
#X connect 251 0 88 0;
#X connect 251 1 94 0;
#X connect 252 0 90 0;
#X connect 252 1 95 0;
#X connect 253 0 92 0;
#X connect 253 1 96 0;
#X connect 254 0 264 0;
#X connect 254 0 263 0;
#X connect 254 1 115 0;
#X connect 254 1 260 0;
#X connect 255 0 128 0;
#X connect 255 1 134 0;
#X connect 256 0 127 0;
#X connect 256 1 135 0;
#X connect 257 0 126 0;
#X connect 257 1 136 0;
#X connect 258 0 262 0;
#X connect 259 0 244 0;
#X connect 260 0 261 0;
#X connect 261 0 115 0;
#X connect 262 0 116 0;
#X connect 264 0 263 0;
#X connect 265 0 266 0;
#X connect 268 0 271 0;
#X connect 268 0 272 0;
#X connect 268 1 267 0;
#X connect 268 1 269 0;
#X connect 269 0 270 0;
#X connect 270 0 267 0;
#X connect 271 0 272 0;
#X connect 273 0 121 0;
#X connect 274 0 120 0;
#X connect 275 0 117 0;
#X connect 277 0 280 0;
#X connect 277 0 286 0;
#X connect 277 1 276 0;
#X connect 277 1 278 0;
#X connect 278 0 279 0;
#X connect 279 0 276 0;
#X connect 280 0 286 0;
#X connect 282 0 285 0;
#X connect 282 0 287 0;
#X connect 282 1 281 0;
#X connect 282 1 283 0;
#X connect 283 0 284 0;
#X connect 284 0 281 0;
#X connect 285 0 287 0;
#X connect 288 0 118 0;
#X connect 289 0 119 0;
#X connect 290 0 291 0;
#X connect 291 0 290 0;
#X connect 292 0 166 0;
#X connect 293 0 114 0;
#X connect 295 0 298 0;
#X connect 295 0 299 0;
#X connect 295 1 294 0;
#X connect 295 1 296 0;
#X connect 296 0 297 0;
#X connect 297 0 294 0;
#X connect 298 0 299 0;
#X connect 300 0 305 0;
#X connect 301 0 306 0;
#X connect 302 0 307 0;
#X connect 303 0 308 0;
#X connect 304 0 309 0;
#X connect 305 0 300 0;
#X connect 306 0 301 0;
#X connect 307 0 302 0;
#X connect 308 0 303 0;
#X connect 309 0 304 0;
#X connect 310 0 311 0;
#X connect 311 0 310 0;
#X connect 313 0 314 0;
#X connect 314 0 313 0;
#X connect 315 0 80 0;
