#N canvas 1 59 673 495 10;
#X floatatom 359 93 5 0 48 1 LFO_4_DEST - TETRA_#1_#2_LFO_4_DEST;
#X obj 155 198 tgl 15 0 TETRA_\$1_\$2_LFO_4_SYNC empty LFO_4_SYNC 17
7 0 10 -262144 -1 -1 0 1;
#X obj 153 237 hradio 15 1 0 5 TETRA_\$1_\$2_LFO_4_SHAPE empty LFO_4_SHAPE
0 -8 0 10 -262144 -1 -1 0;
#X text 167 258 0 tri \; 1 rev saw \; 2 saw \; 3 square \; 4 random
;
#X symbolatom 128 396 20 0 0 0 - - -;
#X obj 125 347 hsl 128 15 0 127 0 0 TETRA_\$1_\$2_LFO_4_AMT empty LFO_4_AMT
-2 -8 0 10 -262144 -1 -1 0 1;
#X symbolatom 117 131 20 0 0 0 - - -;
#X obj 114 164 hsl 151 15 0 150 0 0 empty empty UNSYNCED_FREQ -2 -8
0 10 -262144 -1 -1 0 1;
#X floatatom -63 129 5 0 166 1 LFO_4_FREQ - TETRA_#1_#2_LFO_4_FREQ
;
#X obj 360 70 unpack f s;
#X obj 354 23 inlet;
#X text 117 116 LFO_4_FREQ;
#X text 127 379 LFO_4_DEST;
#X obj -64 103 unpack f s;
#X obj -91 41 inlet;
#X obj -11 28 list append No_sync;
#X obj -22 70 sssad TETRA_\$1_\$2_LFO_4_FREQ;
#X obj 380 49 sssad TETRA_\$1_\$2_LFO_4_DEST;
#X obj 311 223 sssad TETRA_\$1_\$2_LFO_4_SYNC;
#X obj 312 265 sssad TETRA_\$1_\$2_LFO_4_SHAPE;
#X obj 296 376 sssad TETRA_\$1_\$2_LFO_4_AMT;
#X obj 24 96 unpack f s;
#X obj 24 116 moses 151;
#X connect 1 0 18 1;
#X connect 2 0 19 1;
#X connect 5 0 20 1;
#X connect 7 0 15 0;
#X connect 9 0 0 0;
#X connect 9 1 4 0;
#X connect 10 0 9 0;
#X connect 10 0 17 1;
#X connect 13 0 8 0;
#X connect 13 1 6 0;
#X connect 14 0 13 0;
#X connect 14 0 16 1;
#X connect 15 0 16 1;
#X connect 15 0 13 0;
#X connect 16 0 21 0;
#X connect 17 0 9 0;
#X connect 18 0 1 0;
#X connect 19 0 2 0;
#X connect 20 0 5 0;
#X connect 21 0 22 0;
#X connect 21 1 6 0;
#X connect 22 0 7 0;
#X coords 0 -1 1 1 180 320 1 100 100;
