#N canvas 1 104 633 465 10;
#X obj 101 115 cnv 15 178 304 empty empty empty 20 12 0 14 -257985
-66577 0;
#X obj 124 130 hsl 128 15 0 255 0 0 TETRA_\$1_\$2_FILTER_ENV_AMT empty
FILTER_ENV_AMT -2 -8 0 10 -262144 -1 -1 0 1;
#X obj 123 230 hsl 128 15 0 127 0 0 TETRA_\$1_\$2_FIL_DEL empty FIL_DEL
-2 -8 0 10 -262144 -1 -1 0 1;
#X obj 123 270 hsl 128 15 0 127 0 0 TETRA_\$1_\$2_FIL_ATT empty FIL_ATT
-2 -8 0 10 -262144 -1 -1 0 1;
#X obj 123 310 hsl 128 15 0 127 0 0 TETRA_\$1_\$2_FIL_DEC empty FIL_DEC
-2 -8 0 10 -262144 -1 -1 0 1;
#X obj 123 350 hsl 128 15 0 127 0 0 TETRA_\$1_\$2_FIL_SUS empty FIL_SUS
-2 -8 0 10 -262144 -1 -1 0 1;
#X obj 123 390 hsl 128 15 0 127 0 0 TETRA_\$1_\$2_FIL_REL empty FIL_REL
-2 -8 0 10 -262144 -1 -1 0 1;
#X obj 124 170 hsl 128 15 0 127 0 0 TETRA_\$1_\$2_FIL_ENV_VEL_AMT empty
FIL_ENV_VEL_AMT -2 -8 0 10 -262144 -1 -1 0 1;
#X obj 290 169 sssad TETRA_\$1_\$2_FILTER_ENV_AMT;
#X obj 292 207 sssad TETRA_\$1_\$2_FIL_ENV_VEL_AMT;
#X obj 292 270 sssad TETRA_\$1_\$2_FIL_DEL;
#X obj 294 312 sssad TETRA_\$1_\$2_FIL_ATT;
#X obj 289 353 sssad TETRA_\$1_\$2_FIL_DEC;
#X obj 291 390 sssad TETRA_\$1_\$2_FIL_SUS;
#X obj 292 433 sssad TETRA_\$1_\$2_FIL_REL;
#X connect 1 0 8 1;
#X connect 2 0 10 1;
#X connect 3 0 11 1;
#X connect 4 0 12 1;
#X connect 5 0 13 1;
#X connect 6 0 14 1;
#X connect 7 0 9 1;
#X connect 8 0 1 0;
#X connect 9 0 7 0;
#X connect 10 0 2 0;
#X connect 11 0 3 0;
#X connect 12 0 4 0;
#X connect 13 0 5 0;
#X connect 14 0 6 0;
#X coords 0 -1 1 1 180 320 1 100 100;
