#N canvas 1 87 450 300 10;
#X obj 107 200 hsl 165 15 0 164 0 0 TETRA_\$1_\$2_FILTER_FREQ empty
FILTER_FREQ -2 -8 0 10 -262144 -1 -1 0 1;
#X obj 126 240 hsl 128 15 0 127 0 0 TETRA_\$1_\$2_RESONANCE empty RESONANCE
-2 -8 0 10 -262144 -1 -1 0 1;
#X obj 123 140 hradio 15 1 0 2 TETRA_\$1_\$2_FILTER_POLES empty FILTER_POLES
0 -8 0 10 -262144 -1 -1 0;
#X text 160 138 0 two \; 1 four;
#N canvas 417 86 415 538 m 0;
#X msg 170 157 set \$1;
#X obj 170 197 outlet;
#X obj 170 139 inlet;
#X msg 170 177 164;
#X obj 222 162 r init_\$1_\$2_\$3;
#X connect 0 0 3 0;
#X connect 2 0 0 0;
#X connect 3 0 1 0;
#X connect 4 0 3 0;
#X restore 74 200 pd m;
#N canvas 1 104 1438 780 m 0;
#X msg 170 157 set \$1;
#X obj 170 197 outlet;
#X obj 170 139 inlet;
#X msg 170 177 0;
#X obj 222 162 r init_\$1_\$2_\$3;
#X connect 0 0 3 0;
#X connect 2 0 0 0;
#X connect 3 0 1 0;
#X connect 4 0 3 0;
#X restore 92 240 pd m;
#N canvas 1 87 830 535 m 0;
#X msg 170 157 set \$1;
#X obj 170 197 outlet;
#X obj 170 139 inlet;
#X msg 170 177 0;
#X obj 222 162 r init_\$1_\$2_\$3;
#X connect 0 0 3 0;
#X connect 2 0 0 0;
#X connect 3 0 1 0;
#X connect 4 0 3 0;
#X restore 92 140 pd m;
#X obj 124 310 hsl 128 15 0 127 0 0 TETRA_\$1_\$2_FIL_KEY_AMT empty
FIL_KEY_AMT -2 -8 0 10 -262144 -1 -1 0 1;
#N canvas 1 87 830 535 m 0;
#X msg 170 157 set \$1;
#X obj 170 197 outlet;
#X obj 170 139 inlet;
#X obj 222 162 r init_\$1_\$2_\$3;
#X msg 170 177 0;
#X connect 0 0 4 0;
#X connect 2 0 0 0;
#X connect 3 0 4 0;
#X connect 4 0 1 0;
#X restore 90 310 pd m;
#X obj 124 350 hsl 128 15 0 127 0 0 TETRA_\$1_\$2_FIL_AUDIO_MOD empty
FIL_AUDIO_MOD -2 -8 0 10 -262144 -1 -1 0 1;
#N canvas 1 87 830 535 m 0;
#X msg 170 157 set \$1;
#X obj 170 197 outlet;
#X obj 170 139 inlet;
#X obj 222 162 r init_\$1_\$2_\$3;
#X msg 170 177 0;
#X connect 0 0 4 0;
#X connect 2 0 0 0;
#X connect 3 0 4 0;
#X connect 4 0 1 0;
#X restore 90 350 pd m;
#X connect 0 0 4 0;
#X connect 1 0 5 0;
#X connect 2 0 6 0;
#X connect 4 0 0 0;
#X connect 5 0 1 0;
#X connect 6 0 2 0;
#X connect 7 0 8 0;
#X connect 8 0 7 0;
#X connect 9 0 10 0;
#X connect 10 0 9 0;
#X coords 0 -1 1 1 180 320 1 100 100;
