#N canvas 1 87 1022 511 10;
#X obj 326 261 midiout;
#X msg 326 231 240 \, 45 \, 93 \, 3 \, 65 \, 1 \, 2 \, 3 \, 4 \, 247
;
#X text 379 263 * = SysEx;
#X obj 277 151 noteout;
#X obj 277 130 makenote;
#X msg 277 109 60 127 1000;
#X text 276 86 note \, vel \, dur;
#X text 64 353 NOT WORKING!!!;
#X obj -1 24 TETRA_voice A 1;
#X obj 66 366 TETRA_voice Q;
#X obj 66 278 TETRA_voice V1;
#X obj 66 312 TETRA_voice V3;
#X obj 66 295 TETRA_voice V2;
#X obj 173 294 TETRA_voice B;
#X obj 66 329 TETRA_voice V4;
#X obj -1 44 TETRA_voice A 2;
#X obj -1 64 TETRA_voice A 3;
#X obj -1 84 TETRA_voice A 4;
#X obj 65 232 TETRA_globals;
#X connect 1 0 0 0;
#X connect 4 0 3 0;
#X connect 4 1 3 1;
#X connect 5 0 4 0;
