#N canvas 194 87 746 511 10;
#X obj 57 87 ctlout 7;
#X obj 57 49 clip 0 127;
#X floatatom 57 69 5 0 0 0 - - -;
#X obj 57 22 r TETRA_MASTER_VOLUME;
#X obj 241 22 r TETRA_MASTER_TRANSPOSE;
#X obj 241 121 r TETRA_MASTER_FINE_TUNE;
#X obj 241 49 clip 0 24;
#X obj 241 149 clip 0 100;
#X obj 338 64 send_nrpn 384;
#X obj 338 164 send_nrpn 385;
#X obj 241 221 r TETRA_AUDIO_OUT;
#X obj 241 249 clip 0 3;
#X obj 338 264 send_nrpn 400;
#X obj 481 125 r TETRA_MIDI_CHANNEL;
#X obj 481 224 r TETRA_MULTI_MODE;
#X obj 481 152 clip 0 16;
#X obj 578 167 send_nrpn 386;
#X obj 578 267 send_nrpn 407;
#X obj 481 324 r TETRA_POT_MODE;
#X obj 578 367 send_nrpn 404;
#X obj 481 352 clip 0 2;
#X obj 711 49 clip 0 1;
#X obj 808 64 send_nrpn 411;
#X obj 808 164 send_nrpn 412;
#X obj 711 121 r TETRA_PROGRAM_COMBO;
#X obj 711 149 clip 0 1;
#X obj 808 264 send_nrpn 413;
#X obj 711 221 r TETRA_SELECT_VOICE;
#X obj 711 249 clip 0 4;
#X obj 711 22 r TETRA_SELECT_LAYER_AB;
#X obj 481 22 r TETRA_MIDI_CLOCK_SOURCE;
#X obj 578 64 send_nrpn 388;
#X obj 481 49 clip 0 3;
#X obj 55 122 r TETRA_BALANCE_TWEAK;
#X obj 152 164 send_nrpn 403;
#X obj 55 149 clip 0 13;
#X obj 481 252 clip 0 1;
#X floatatom 20 437 5 0 127 1 MASTER_VOLUME - TETRA_MASTER_VOLUME;
#X floatatom 170 437 5 0 24 1 MASTER_TRANSPOSE - TETRA_MASTER_TRANSPOSE
;
#X floatatom 170 455 5 0 100 1 MASTER_FINE_TUNE - TETRA_MASTER_FINE_TUNE
;
#X floatatom 170 473 5 0 3 1 AUDIO_OUT - TETRA_AUDIO_OUT;
#X floatatom 330 437 5 0 16 1 MIDI_CHANNEL - TETRA_MIDI_CHANNEL;
#X floatatom 330 473 5 0 2 1 POT_MODE - TETRA_POT_MODE;
#X floatatom 480 437 5 0 1 1 SELECT_LAYER_AB - TETRA_SELECT_LAYER_AB
;
#X floatatom 480 455 5 0 1 1 PROGRAM_COMBO - TETRA_PROGRAM_COMBO;
#X floatatom 480 473 5 0 4 1 SELECT_VOICE - TETRA_SELECT_VOICE;
#X floatatom 20 455 5 0 13 1 BALANCE_TWEAK - TETRA_BALANCE_TWEAK;
#X obj 331 508 hradio 15 1 0 5 TETRA_MIDI_CLOCK_SOURCE empty MIDI_CLOCK_SOURCE
0 -8 0 10 -262144 -1 -1 0;
#X text 334 526 0 internal \; 1 v1 master \; 2 midi out \; 3 midi in
\; 4 midi in/out;
#X obj 330 454 tgl 15 0 TETRA_MULTI_MODE empty MULTI_MODE 17 7 0 10
-262144 -1 -1 0 1;
#X connect 1 0 2 0;
#X connect 2 0 0 0;
#X connect 3 0 1 0;
#X connect 4 0 6 0;
#X connect 5 0 7 0;
#X connect 6 0 8 0;
#X connect 7 0 9 0;
#X connect 10 0 11 0;
#X connect 11 0 12 0;
#X connect 13 0 15 0;
#X connect 14 0 36 0;
#X connect 15 0 16 0;
#X connect 18 0 20 0;
#X connect 20 0 19 0;
#X connect 21 0 22 0;
#X connect 24 0 25 0;
#X connect 25 0 23 0;
#X connect 27 0 28 0;
#X connect 28 0 26 0;
#X connect 29 0 21 0;
#X connect 30 0 32 0;
#X connect 32 0 31 0;
#X connect 33 0 35 0;
#X connect 35 0 34 0;
#X connect 36 0 17 0;
